<svg fill="none" height="32" viewBox="0 0 32 32" width="32" xmlns="http://www.w3.org/2000/svg"><g fill="#fff"><path d="m7.83835 12.5951c-.16378 0-.32755.0546-.464.191-.24563.2456-.24563.6823 0 .9279.27296.2729.19104.5459-.16371 1.3373-.35482.7915-.87337 1.9923.16371 3.0295.24563.2456.6823.2456.92794 0 .24563-.2457.24563-.6823 0-.928-.35482-.3547-.30023-.6823.10918-1.5829.35482-.7915.81875-1.8559-.10918-2.7838-.13645-.1364-.30023-.191-.46394-.191z"/><path d="m14.6408 9.59258c-.1637 0-.3275.05459-.464.19103-.2456.24559-.2456.68229 0 .92799.273.2728.1911.5458-.1637 1.3372-.3548.7915-.8733 1.9924.1637 3.0295.2457.2456.6823.2456.928 0 .2456-.2457.2456-.6823 0-.928-.3548-.3548-.3003-.6823.1092-1.5829.3548-.7915.8187-1.8558-.1092-2.78379-.1092-.10918-.2729-.19103-.464-.19103z"/><path d="m17.6247 11.8001c-.1638 0-.3275.0546-.464.191-.2456.2456-.2456.6823 0 .9279.273.2729.1911.5459-.1637 1.3374-.3548.7914-.8733 1.9923.1637 3.0294.2456.2456.6823.2456.928 0 .2456-.2457.2456-.6823 0-.928-.3548-.3547-.3002-.6823.1091-1.5829.3549-.7915.8188-1.8559-.1091-2.7838-.1365-.1092-.3002-.191-.464-.191z"/><path d="m20.436 16.7176c-.1638 0-.3276.0546-.464.191-.2456.2456-.2456.6823 0 .9279.273.2729.191.5459-.1637 1.3373-.3548.7915-.8734 1.9924.1637 3.0295.2456.2456.6823.2456.9279 0 .2457-.2457.2457-.6823 0-.928-.3548-.3547-.3002-.6823.1092-1.5829.3548-.7915.8188-1.8559-.1092-2.7838-.1364-.1364-.3002-.191-.4639-.191z"/><path d="m13.2505 17.9649.273.2729c.2456.2457.2456.6823 0 .928-.2457.2456-.6824.2456-.928 0l-.2729-.2729-.2729.2729c-.2457.2456-.6823.2456-.928 0-.2456-.2457-.2456-.6823 0-.928l.2729-.2729-.2729-.2729c-.2456-.2456-.2456-.6823 0-.9279.1365-.1365.3002-.191.464-.191.1637 0 .3275.0545.464.191l.2729.2729.2729-.2729c.1365-.1365.3002-.191.464-.191.1637 0 .3274.0545.464.191.2456.2456.2456.6823 0 .9279z"/><path d="m24.2668 13.2149.2729.273c.2457.2456.2457.6823 0 .9279-.2455.2456-.6823.2456-.9278 0l-.273-.273-.2729.273c-.2456.2456-.6823.2456-.9279 0-.2457-.2456-.2457-.6823 0-.9279l.2729-.273-.2729-.2729c-.2457-.2456-.2457-.6823 0-.9279.1364-.1365.3002-.1911.4639-.1911.1638 0 .3276.0546.464.1911l.2729.2729.273-.2729c.1364-.1365.3001-.1911.4639-.1911s.3275.0546.4639.1911c.2457.2456.2457.6823 0 .9279z"/><path d="m17.5901 18.6743c-.1638 0-.3275.0819-.464.191-.1091.1365-.191.3003-.191.464 0 .1638.0819.3275.191.464.273.2456.6823.2456.9279 0 .1092-.1092.1911-.3002.1911-.464 0-.1637-.0819-.3548-.1911-.464-.1364-.1364-.3001-.191-.4639-.191z"/><path d="m9.8 20.3593c-.16372 0-.32749.0819-.46394.191-.10918.1092-.19104.3003-.19104.464s.08186.3275.19104.464c.24563.2456.68234.2456.92794 0 .1091-.1092.191-.3003.191-.464s-.0819-.3275-.191-.464c-.1365-.1364-.30023-.191-.464-.191z"/><path d="m11.8349 13.4818c-.1638 0-.3275.0818-.4639.191-.1092.1092-.1911.3003-.1911.464s.0819.3275.1911.464c.2456.2456.6823.2456.9279 0 .1091-.1092.191-.3003.191-.464s-.0819-.3275-.191-.464c-.1092-.1364-.273-.191-.464-.191z"/><path d="m20.1726 14.0568c-.1638 0-.3275.0819-.464.1911-.1092.1091-.191.3001-.191.4639s.0546.3275.191.464c.2456.2456.6823.2456.928 0 .1364-.1365.191-.3002.191-.464s-.0819-.3275-.191-.4639c-.1365-.1365-.3003-.1911-.464-.1911z"/><path d="m19.7925 10.7118c-.1638 0-.3275.0819-.4639.191-.1092.1092-.1911.2729-.1911.464 0 .1638.0819.3275.1911.464.2455.2456.6822.2456.9278 0 .1092-.1365.1911-.3002.1911-.464 0-.1637-.0819-.3275-.1911-.464-.1364-.1091-.3001-.191-.4639-.191z"/><path d="m23.0988 16.9618c-.1637 0-.3275.0818-.4639.191-.1365.1092-.1911.3003-.1911.464s.0819.3275.1911.464c.2456.2456.6823.2456.9279 0 .1091-.1092.1911-.3003.1911-.464s-.082-.3275-.1911-.464c-.1092-.1364-.2729-.191-.464-.191z"/><path d="m24.9504 21.08h-4.5305c-.3548 0-.655.3002-.655.655s.3002.655.655.655h4.5305c.3548 0 .655-.3002.655-.655 0-.3821-.3002-.655-.655-.655z"/><path d="m17.5538 21.08h-10.50742c-.35482 0-.65502.3002-.65502.655s.3002.655.65502.655h10.50742c.3548 0 .655-.3002.655-.655 0-.3821-.3002-.655-.655-.655z"/><path d="m15.9389.00000135c-4.2259-.00138166-8.28098 1.66765865-11.28143 4.64329865l-.07385.06c-.02126.02357-.04129.04822-.06001.07385-2.93158 3.02586-4.5561023 7.08265-4.52311734 11.29545.03298494 4.2128 1.72083734 8.2437 4.69943734 11.2233 2.9786 2.9795 7.00917 4.6688 11.22227 4.7035 4.2131.0348 8.271-1.588 11.2983-4.5181l.0738-.06c.0213-.0235.0413-.0482.06-.0738 2.2296-2.2518 3.7429-5.1131 4.3491-8.2233.6063-3.1102.2785-6.3302-.9421-9.25444-1.2207-2.92422-3.2795-5.42185-5.9171-7.1782-2.6377-1.756341-5.7362-2.69285867-8.9053-2.69155865zm-14.2172 16.06229865c-.00122-3.4503 1.25781-6.78224 3.54047-9.36969l20.04723 20.04559c-2.0525 1.8039-4.5818 2.9776-7.2846 3.3805-2.7028.403-5.4644.0179-7.954-1.1088-2.48949-1.1268-4.60122-2.9475-6.08207-5.2439-1.48085-2.2965-2.26797-4.9712-2.26703-7.7037zm24.894 9.3697-20.04719-20.04559c2.71328-2.36887 6.22509-3.61886 9.82509-3.4971 3.5999.12176 7.0193 1.60617 9.5663 4.15296s4.0315 5.96583 4.1533 9.56543c.1217 3.5997-1.1284 7.1112-3.4975 9.8243z"/></g></svg>