<svg fill="none" height="32" viewBox="0 0 32 32" width="32" xmlns="http://www.w3.org/2000/svg"><path clip-rule="evenodd" d="m10.4817 0c-.1463.00001464-.2867.0581472-.3901.161612-.1035.103466-.16163.24379-.16164.390112v.551726h-2.75862c-.07255-.00028-.14443.01375-.21154.04129-.06712.02753-.12814.06803-.17959.11918-.05144.05114-.0923.11193-.12023.17888-.02792.06695-.04237.13875-.04252.21129v.55388h-2.75755c-.14557.00059-.28502.05867-.38796.16161s-.16102.24239-.16161.38796v1.65733h-2.760771c-.145576.00058-.285023.05867-.387961.16161-.1029384.10294-.16102601.24238-.161608.38796v3.31142c.00058199.14558.0586696.28502.161608.38796.102938.10294.242385.16103.387961.16161h2.760771v1.65837c.00059.1456.05867.2851.16161.388s.24239.161.38796.1616h2.75755v.5539c.00058.1463.05926.2864.16313.3895.10387.103.24442.1606.39075.1601h2.75862v.5528c.00001.1463.05814.2866.16164.3901.1034.1034.2438.1616.3901.1616h5.5172v3.862c0 .1464.0582.2867.1616.3902.1035.1034.2438.1616.3901.1616h2.8061l1.5075 13.8523c.0147.1353.0787.2604.18.3513.1012.0909.2325.1412.3685.1412h7.7565c.0774 0 .154-.0163.2247-.0479.0708-.0316.134-.0776.1858-.1353.0517-.0576.0907-.1255.1145-.1992s.0318-.1516.0235-.2286l-1.9742-18.1476h3.7037c.1463 0 .2866-.0582.3901-.1616.1035-.1035.1616-.2438.1616-.3901v-12.137976c0-.146322-.0581-.286646-.1616-.390112-.1035-.1034648-.2438-.16159736-.3901-.161612h-5.639-10.9235zm.5517 1.10345h3.8513 10.9235 5.0873v11.03445h-3.7673c-.0774 0-.154.0164-.2247.0479-.0707.0316-.134.0777-.1858.1353-.0517.0576-.0907.1255-.1145.1992s-.0318.1516-.0235.2286l1.9742 18.1477h-6.6466l-1.5054-13.8395-.001-.0129-.4806-4.4138c-.0147-.1353-.0788-.2604-.18-.3513s-.2325-.1411-.3685-.1412h-2.8212-5.5172zm9.1056 1.0959c-.0815-.00048-.1621.0171-.236.05148-.0739.03437-.1392.08468-.1914.14733-.0521.06264-.0897.13605-.1101.21496s-.023.16135-.0078.24141l1.3729 7.71877c.0124.0718.0389.1405.0779.202.0391.0616.09.1148.1497.1566s.1271.0714.1983.087c.0712.0157.1448.0171.2165.0041.0718-.0129.1403-.0399.2015-.0795.0613-.0395.1141-.0907.1554-.1508.0414-.06.0705-.1277.0855-.199.0151-.0713.016-.1449.0025-.2165l-1.3772-7.71341c-.0205-.12835-.0858-.24532-.1841-.33028-.0984-.08497-.2236-.13248-.3536-.13416zm3.3481 0c-.0815-.00048-.1621.0171-.236.05147-.0739.03438-.1393.08469-.1914.14734-.0521.06264-.0897.13605-.1101.21496s-.0231.16135-.0078.24141l1.3761 7.71877c.0124.0718.0389.1405.0779.202.0391.0616.0899.1148.1497.1566.0597.0418.1271.0714.1983.087.0712.0157.1448.0171.2165.0041.0718-.0129.1403-.0399.2015-.0795.0613-.0395.1141-.0907.1554-.1508.0414-.06.0704-.1277.0855-.199s.016-.1449.0025-.2165l-1.3761-7.71341c-.0207-.12907-.0865-.24661-.1858-.33167-.0993-.08505-.2255-.1321-.3562-.13277zm3.2704 0c-.0815-.00048-.162.0171-.2359.05148-.0739.03437-.1393.08468-.1914.14733-.0522.06264-.0898.13605-.1102.21496-.0203.07891-.023.16135-.0077.24141l1.3761 7.71877c.0124.0718.0388.1405.0779.202.0391.0616.0899.1148.1496.1566.0598.0418.1272.0714.1984.087.0712.0157.1448.0171.2165.0041.0718-.0129.1402-.0399.2015-.0795.0612-.0395.1141-.0907.1554-.1508.0414-.06.0704-.1277.0855-.199s.0159-.1449.0024-.2165l-1.376-7.71341c-.0207-.12907-.0866-.24661-.1858-.33167-.0993-.08505-.2255-.1321-.3563-.13277zm-19.03659.00862h2.20797v8.82543h-2.20797v-.5496-7.72626zm-3.30604 1.10345h2.20259v6.61854h-2.20259v-1.6541-3.31142zm-3.31142 2.2069h2.20689v2.20797h-2.20689zm15.99895 7.72308h1.7737l.3599 3.3103h-2.1336z" fill="#fff" fill-rule="evenodd"/></svg>