<svg clip-rule="evenodd" fill-rule="evenodd" stroke-linejoin="round" stroke-miterlimit="2" viewBox="0 0 2292 340" xmlns="http://www.w3.org/2000/svg"><g fill-rule="nonzero"><path d="m0-35.134 1.745-8.212h-4.963l-10.818 51.558h16.241l9.217-43.346z" fill="#00a1cb" transform="matrix(4.16667 0 0 4.16667 76.273561019 184.82351197)"/><path d="m0-13.692h-3.808l-2.909 13.692h3.003c5.781 0 8.84-1.976 9.883-6.88 1.056-4.984-.971-6.812-6.169-6.812" fill="#00a1cb" transform="matrix(4.16667 0 0 4.16667 294.871652564 91.81510423)"/><path d="m0-15.745h-4.54l-3.347 15.745h4.102c5.051 0 8.88-1.834 10.171-7.912 1.294-6.079-1.773-7.833-6.386-7.833" fill="#00a1cb" transform="matrix(4.16667 0 0 4.16667 279.307890113 187.93601446)"/><path d="m0-51.558-1.74 8.212h-11.423l-9.214 43.346h15.961l10.958-51.558z" fill="#00a1cb" transform="matrix(4.16667 0 0 4.16667 222.646178117 219.04020601)"/><path d="m0-51.558c5.761 1.152 8.964 4.81 7.26 12.827-1.196 5.64-4.823 9.959-10.333 11.423l-.032.141c5.614.809 8.415 5.204 6.934 12.157-1.538 7.246-6.047 13.619-15.548 15.01h15.364l24.609-51.558z" fill="#00a1cb" transform="matrix(4.16667 0 0 4.16667 335.41251833 219.04020601)"/><path d="m-23.692-51.558h23.692l-2.691 51.558h-10.052z" fill="#00a1cb" transform="matrix(-4.16667 0 0 4.16667 508.37099003 219.04020601)"/><path d="m1.572-11.796h11.723l-7.38 17.095-9.855-4.327z" fill="#00a1cb" transform="matrix(-1.65132215439 3.82547806038 3.82547806038 1.65132215439 463.36262069 187.66101424)"/><path d="m-10.14-23.504h.148l10.047 23.504h-10.25z" fill="#00a1cb" transform="matrix(-4.16667 0 0 4.16667 431.13759491 138.19014133)"/><g fill="#da3741"><path d="m0-51.57h15.458l-.368 36.402h.144l15.175-36.402h15.385l-10.96 51.57h-9.534l8.748-41.168h-.143l-17.925 41.168h-8.089l-.423-41.168h-.144l-8.749 41.168h-9.534z" transform="matrix(4.16667 0 0 4.16667 636.26692568 219.09020605)"/><path d="m0-52.583-7.647 35.969c-1.089 5.129-.674 8.956 4.164 8.956 4.841 0 6.88-3.827 7.971-8.956l7.646-35.969h10.402l-7.648 35.969c-2.792 13.146-11.548 16.614-19.999 16.614-8.449 0-15.867-2.818-12.936-16.614l7.647-35.969z" transform="matrix(4.16667 0 0 4.16667 898.70046896 223.30687609)"/><path d="m0 51.57 10.96-51.57h10.4l-9.149 43.047h18.42l-1.814 8.523z" transform="matrix(4.16667 0 0 4.16667 974.31302945 4.21086748)"/><path d="m0-51.57-1.812 8.523h-11.267l-9.147 43.047h-10.403l9.15-43.047h-11.267l1.81-8.523z" transform="matrix(4.16667 0 0 4.16667 1262.84659361 219.09020605)"/><path d="m0-26.144h9.965l-8.26 38.857h-9.965zm2.829-12.713h9.969l-1.812 8.523h-9.968z" transform="matrix(4.16667 0 0 4.16667 1265.19242882 166.11516367)"/><path d="m0-16.759c1.597-7.512.77-10.763-3.926-10.763-5.271 0-7.619 5.273-10.722 19.865-3.315 15.599-1.746 18.416 2.733 18.416 3.755 0 6.914-1.948 9.277-13.073h10.401c-2.362 11.125-7.15 20.731-20.801 20.731-15.602 0-15.187-11.124-11.857-26.798 3.333-15.671 7.646-26.795 23.247-26.795 14.879 0 13.643 10.905 12.05 18.417z" transform="matrix(4.16667 0 0 4.16667 1424.74255646 146.5693147)"/><path d="m0-51.57h12.859l2.69 51.57h-10.836l-.065-10.906h-13.724l-4.702 10.906h-10.833zm-5.457 32.143h10.11l-.054-23.185h-.145z" transform="matrix(4.16667 0 0 4.16667 1546.43432048 219.09020605)"/><path d="m0-51.57h18.202c10.545 0 12.514 7.728 10.871 15.457-2.273 10.689-9.875 15.528-19.695 15.528h-5.562l-4.376 20.585h-10.4zm5.443 23.329h4.622c4.118 0 7.456-2.455 8.577-7.728 1.074-5.055-.335-7.945-5.534-7.945h-4.333z" transform="matrix(4.16667 0 0 4.16667 1671.93025421 219.09020605)"/><path d="m0-51.57h12.86l2.688 51.57h-10.835l-.064-10.906h-13.723l-4.702 10.906h-10.837zm-5.458 32.143h10.112l-.056-23.185h-.143z" transform="matrix(4.16667 0 0 4.16667 1853.71373297 219.09020605)"/></g><path d="m0 56.245h-53.865c16.79-4.16 33.208-14.03 46.052-36.545l-11.471-6.543c-12.241 21.461-28.117 29.109-44.667 31.61 4.474-2.694 8.871-6.275 12.601-10.914 6.621-8.23 13.461-22.84 8.445-45.712l-5.732 1.257c3.626 16.54 1.175 30.26-7.285 40.776-6.629 8.24-15.526 12.676-22.554 14.516 1.525-.739 2.911-1.697 4.208-2.954 8.53-7.493 12.36-19.694 9.954-31.806-2.028-10.21-8.269-18.022-16.696-20.896l-.71 2.083c7.674 2.617 13.375 9.81 15.248 19.242 2.219 11.172-1.427 22.854-9.29 29.761-4.068 3.944-9.274 4.659-18.074 4.659l-452.928.078-3.236 14.314h17.808c3.307 0 6.094 1.246 7.144 2.974h.036c2.091 3.47 7.712 5.959 14.342 5.959 6.629 0 12.25-2.489 14.34-5.959h.042c1.05-1.728 3.837-2.974 7.146-2.974h158.487c3.307 0 6.092 1.246 7.144 2.974h.034c2.092 3.47 7.715 5.959 14.342 5.959 6.628 0 12.251-2.489 14.34-5.959h.043c1.049-1.728 3.837-2.974 7.147-2.974l158.66.008c3.229.044 5.938 1.269 6.969 2.966h.036c2.091 3.47 7.712 5.959 14.343 5.959 6.628 0 12.249-2.489 14.338-5.959h.043c1.031-1.697 3.74-2.922 6.971-2.966h86.245z" fill="#00a1cb" transform="matrix(4.16667 0 0 4.16667 2291.66825 55.95257554)"/></g></svg>