<svg fill="none" height="32" viewBox="0 0 33 32" width="33" xmlns="http://www.w3.org/2000/svg"><g fill="#fff"><path d="m8.39999 0c-1.10108 0-1.99999.898919-1.99999 2v2h-6c-.264944.018-.394944.2308-.4.4v27.2c.00002.2094.190568.4.4.4h32c.2094 0 .4-.1906.4-.4v-27.2c0-.2094-.1906-.39996-.4-.4h-6v-2c0-1.101081-.8989-2-2-2s-2 .898919-2 2v2h-12v-2c0-1.101081-.89893-2-2.00001-2zm0 .799999c.67172 0 1.2.528281 1.2 1.200001v4.79999c0 .67172-.52828 1.2-1.2 1.2s-1.2-.52828-1.2-1.2v-4.79999c0-.67172.52828-1.200001 1.2-1.200001zm16.00001 0c.6717 0 1.2.528281 1.2 1.200001v4.79999c0 .67172-.5283 1.2-1.2 1.2s-1.2-.52828-1.2-1.2v-4.79999c0-.67172.5283-1.200001 1.2-1.200001zm-23.600001 4.000001h5.600001v1.99999c0 1.10108.89891 2 1.99999 2s2.00001-.89892 2.00001-2v-1.99999h12v1.99999c0 1.10108.8989 2 2 2s2-.89892 2-2v-1.99999h5.6v6.4h-31.200001zm0 7.2h31.200001v19.2h-31.200001z"/><path d="m16.8873 19.851c.9446.026 1.7116.3337 2.301.923.5893.5807.884 1.326.884 2.236 0 .9273-.3077 1.69-.923 2.288-.6154.5893-1.4084.884-2.379.884-.9707 0-1.7637-.2947-2.379-.884-.6067-.5893-.91-1.352-.91-2.288 0-.6933.1776-1.3043.533-1.833l2.834-4.277h2.054zm-1.196 4.238c.286.2687.6456.403 1.079.403.4333 0 .793-.1343 1.079-.403.2946-.2687.442-.6283.442-1.079 0-.442-.1474-.7973-.442-1.066-.286-.2687-.6457-.403-1.079-.403-.4334 0-.793.1343-1.079.403-.286.26-.429.6153-.429 1.066s.143.8103.429 1.079z"/></g></svg>