<svg fill="none" height="58" viewBox="0 0 60 58" width="60" xmlns="http://www.w3.org/2000/svg"><path d="m14.687 38.6938-12.77419 12.7752c-.19372.1938-.30392.4194-.33191.6406-.01643.1298-.00391.2611.03727.3854.03952.1193.10773.2314.20437.328.16655.1666.4174.2889.75378.3315l11.01138 1.394c1.6295.2062 2.2705-.4366 3.4703-1.6398.3873-.3884-.4247.4226.1694-.1716l38.7644-38.7674c.1332-.1332.2365-.3811.2701-.6473.0175-.138.0145-.2756-.015-.3979-.0236-.0976-.0653-.1841-.1289-.2477-.0657-.0657-.1632-.1128-.2998-.1301l-11.6793-1.4785c-1.6294-.2063-2.2705.4366-3.4702 1.6398-.3874.3883.6105-.6085-.1694.1715l-21.047 21.0487.7123.7123 2.4422-2.4424.7867 10.4371-10.4364-.7867 2.4422-2.4424zm23.7313-12.0802c-.116.1161-.3042.1161-.4203 0-.116-.1161-.116-.3043 0-.4203l1.6422-1.6424c-.4111-.4987-.6168-1.11-.6168-1.7213 0-.6935.2646-1.387.7937-1.9162.5291-.5291 1.2226-.7937 1.916-.7937.6112 0 1.2225.2057 1.7212.6169l1.8207-1.8209c.1161-.1161.3042-.1161.4203 0s.1161.3043 0 .4203zm1.8993-2.7401 2.4593-2.4595c-.3092-.2287-.6765-.3431-1.0438-.3431-.4501 0-.9002.1717-1.2435.5151-.3434.3433-.515.7934-.515 1.2436 0 .3673.1143.7346.343 1.0439zm11.2176 5.5771c.7482 0 1.4256.3034 1.916.7938.4903.4904.7936 1.1678.7936 1.9161 0 .7482-.3033 1.4257-.7936 1.9161-.4904.4904-1.1678.7937-1.916.7937s-1.4256-.3033-1.9159-.7937c-.4904-.4904-.7937-1.1679-.7937-1.9161 0-.7483.3033-1.4257.7937-1.9161.4903-.4904 1.1677-.7938 1.9159-.7938zm1.2435 1.4663c-.3182-.3182-.7578-.5151-1.2435-.5151-.4856 0-.9253.1969-1.2435.5151s-.515.7579-.515 1.2436.1968.9253.515 1.2435c.3182.3183.7579.5151 1.2435.5151.4857 0 .9253-.1968 1.2435-.5151.3182-.3182.515-.7578.515-1.2435s-.1968-.9254-.515-1.2436zm-34.2781-13.5063c-.1051-.1042-.2682-.1164-.3874-.0284-.1459.1089-.1609.3197-.0329.4488l.4203.4204c.1052.1043.2682.1165.3874.0285.146-.1089.161-.3197.033-.4489zm12.4833 13.325c.1051.1043.2682.1165.3874.0285.1459-.1089.1609-.3197.0329-.4489l-.4203-.4203c-.1052-.1043-.2683-.1165-.3875-.0285-.1459.1089-.1609.3197-.0329.4489zm-1.6814-1.6815c.1052.1043.2682.1165.3874.0285.1459-.1089.1609-.3197.0329-.4489l-.4203-.4203c-.1052-.1043-.2682-.1165-.3874-.0285-.146.1089-.161.3197-.033.4488zm-1.6814-1.6815c.1052.1043.2682.1165.3874.0285.146-.1089.161-.3197.033-.4489l-.4204-.4203c-.1052-.1043-.2682-.1165-.3874-.0285-.146.1089-.1609.3197-.0329.4488zm-2.395-2.3952c.1052.1043.2682.1165.3874.0285.146-.1089.161-.3197.033-.4488l-.4204-.4204c-.1051-.1043-.2682-.1165-.3874-.0285-.1459.1089-.1609.3197-.0329.4489zm-1.6814-1.6815c.1052.1043.2683.1165.3875.0285.1459-.1089.1609-.3197.0329-.4489l-.4203-.4203c-.1052-.1043-.2683-.1165-.3875-.0285-.1459.1089-.1609.3197-.0329.4489zm-1.6813-1.6815c.1051.1043.2682.1165.3874.0285.1459-.1089.1609-.3197.0329-.4489l-.4203-.4203c-.1052-.1043-.2682-.1165-.3874-.0285-.146.1089-.161.3197-.033.4488zm-1.6814-1.6815c.1052.1043.2682.1165.3874.0285.146-.1089.161-.3197.0329-.4489l-.4203-.4203c-.1052-.1043-.2682-.1165-.3874-.0285-.146.1089-.161.3197-.0329.4488zm-19.674594-19.8457622c-.105171-.1042641-.268218-.116463-.387419-.0284764-.145951.1088896-.1609434.3197116-.0329331.4488616l.4203411.420374c.105171.104263.268219.116463.387419.028477.145956-.10889.160946-.319712.032933-.448862zm6.725484 7.5667822c.10517.10427.26822.11647.38742.02848.14595-.10889.16094-.31971.03293-.44886l-.42034-.42038c-.10517-.10426-.26822-.11646-.38742-.02847-.14595.10889-.16094.31971-.03293.44886zm-1.68137-1.6815c.10517.10426.26821.11646.38742.02847.14595-.10889.16094-.31971.03293-.44886l-.42034-.42037c-.10517-.10427-.26822-.11647-.38742-.02848-.14595.10889-.16095.31971-.03293.44886zm-1.68138-1.68151c.10517.10426.26822.11646.38742.02848.14595-.10889.16094-.31972.03293-.44887l-.42034-.42037c-.10517-.10426-.26822-.11646-.38742-.02848-.14595.10889-.16094.31972-.03293.44887zm-1.68137-1.68151c.10517.10427.26822.11647.38742.02848.14595-.10889.16094-.31971.03293-.44886l-.42034-.42038c-.10517-.10426-.26822-.11646-.38742-.02847-.14595.10889-.16094.31971-.03293.44886zm-.43254 51.296c.20568.3906.48923.7315.80481.9667.22657.1689.46395.2798.69126.3085l11.0114 1.394c1.6295.2063 2.2705-.4366 3.4703-1.6398.3873-.3884-.4247.4226.1694-.1715l38.7644-38.7675c.0125-.0125.0252-.0274.038-.0445.1825-.2446.3487-.7497.3554-1.3258.002-.1713-.0109-.3473-.0427-.5225-.0936.2125-.2151.4001-.3542.5392l-38.7644 38.7675c-.7094.7094.1072-.1096-.1694.1678-1.4141 1.4181-2.1697 2.1758-4.2617 1.911l-11.01137-1.394c-.26108-.033-.49494-.0982-.7012-.1891zm55.05257-41.8825c.1095.0842.2096.1722.3007.2634.6797.6797.9083 1.5537.8991 2.3466-.0092.7879-.2624 1.5134-.5412 1.8869-.0419.056-.0844.1058-.1271.1485l-38.7645 38.7675c-.7094.7094.1073-.1096-.1694.1679-1.414 1.4181-2.1696 2.1758-4.2616 1.911l-11.01139-1.394c-.39665-.0502-.78556-.2249-1.1371-.4869-.47023-.3505-.8831-.8637-1.157078-1.4407-.27704-.5835-.416357-1.2414-.336058-1.8758.052883-.4179.199619-.8224.462404-1.1865.078072-.1171.169632-.2292.274762-.3343l12.77426-12.7753-3.3753-3.3755 4.7652-4.7656.3363.3362 3.039 3.0393 21.047-21.0486c.5895-.5895.3561-.3552.207-.2056 1.39-1.3937 2.1507-2.13574 4.224-1.8733l11.6793 1.4785c.3667.0464.6468.1911.8534.3977.0062.0061.0122.0123.0183.0186zm-43.0217-3.14104c1.1231 0 2.1399.45531 2.8759 1.19134.7361.7361 1.1913 1.753 1.1913 2.8762 0 1.1231-.4553 2.14-1.1913 2.8761s-1.7528 1.1914-2.8759 1.1914c-1.123 0-2.1399-.4553-2.8759-1.1914s-1.19127-1.753-1.19127-2.8761c0-1.1232.45527-2.1401 1.19127-2.8762.736-.73603 1.7529-1.19134 2.8759-1.19134zm2.2034 1.86394c-.5638-.5639-1.3429-.91273-2.2034-.91273s-1.6395.34883-2.2034.91273-.9126 1.343-.9126 2.2036.3487 1.6397.9126 2.2036 1.3429.9127 2.2034.9127 1.6396-.3488 2.2034-.9127c.5639-.5639.9127-1.343.9127-2.2036s-.3488-1.6397-.9127-2.2036zm18.7364 4.5311c-.1052-.1043-.2683-.1165-.3875-.0285-.1459.1089-.1609.3197-.0329.4488l.4204.4204c.1051.1043.2682.1165.3874.0285.1459-.1089.1609-.3197.0329-.4489zm24.7591 26.0214c.1592.1692.4418.0989.5036-.1251.0269-.1007.0011-.2053-.07-.2816l-.1947-.2076c-.1592-.1692-.4418-.0989-.5036.1251-.0269.1007-.0011.2053.07.2816zm-1.4147-1.5084c.1591.1692.4417.099.5035-.1251.0269-.1006.0012-.2053-.07-.2816l-.4066-.4336c-.1592-.1692-.4418-.099-.5036.1251-.0269.1006-.0011.2053.07.2816zm-1.6268-1.7344c.1592.1692.4418.0989.5036-.1251.0269-.1007.0011-.2053-.07-.2816l-.4067-.4336c-.1591-.1693-.4417-.099-.5035.1251-.0269.1006-.0011.2053.07.2816zm-1.6267-1.7344c.1592.1692.4418.0989.5036-.1252.0269-.1006.0011-.2053-.07-.2816l-.4067-.4336c-.1592-.1692-.4418-.0989-.5036.1251-.0269.1007-.0011.2054.07.2816zm-6.0345-6.0618c.1051.1043.2682.1165.3874.0285.1459-.1089.1609-.3197.0329-.4488l-.4203-.4204c-.1052-.1043-.2683-.1165-.3875-.0285-.1459.1089-.1609.3197-.0329.4489zm-1.6814-1.6815c.1052.1043.2682.1165.3874.0285.1459-.1089.1609-.3197.0329-.4488l-.4203-.4204c-.1052-.1043-.2682-.1165-.3874-.0285-.146.1089-.161.3197-.033.4489zm-8.7327-8.8176c.1051.1043.2682.1165.3874.0285.1459-.1089.1609-.3197.0329-.4489l-.4203-.4203c-.1052-.1043-.2682-.1165-.3874-.0285-.146.1089-.161.3197-.033.4488zm-1.6814-1.6815c.1052.1043.2682.1165.3874.0285.146-.1089.161-.3197.033-.4489l-.4204-.4203c-.1052-.1043-.2682-.1165-.3874-.0285-.146.1089-.161.3197-.0329.4488zm-15.9225-16.69105c-.1052-.10426-.2682-.11646-.3874-.02848-.146.10889-.1609.31972-.0329.44887l.4203.42037c.1052.10426.2682.11646.3874.02848.146-.10889.161-.31972.033-.44887zm6.7255 7.56679c.1052.10426.2682.11646.3874.02847.146-.10889.161-.31971.033-.44886l-.4204-.42037c-.1052-.10427-.2682-.11647-.3874-.02848-.146.10889-.1609.31971-.0329.44886zm-1.6814-1.68151c.1052.10426.2682.11646.3874.02848.146-.10889.161-.31972.033-.44887l-.4204-.42037c-.1051-.10426-.2682-.11646-.3874-.02848-.1459.10889-.1609.31972-.0329.44887zm-1.6813-1.68151c.1051.10427.2682.11647.3874.02848.1459-.10889.1609-.31971.0329-.44886l-.4203-.42038c-.1052-.10426-.2683-.11646-.3875-.02847-.1459.10889-.1609.31971-.0329.44886zm-1.6814-1.6815c.1052.10426.2682.11646.3874.02847.146-.10889.1609-.31971.0329-.44886l-.4203-.42037c-.1052-.10427-.2682-.11647-.3874-.02848-.146.10889-.161.31971-.033.44886zm8.7879 5.92054c.7482 0 1.4256.30334 1.916.79374s.7937 1.1679.7937 1.9161c0 .7483-.3033 1.4257-.7937 1.9161s-1.1678.7937-1.916.7937-1.4256-.3033-1.9159-.7937c-.4904-.4904-.7937-1.1678-.7937-1.9161 0-.7482.3033-1.4257.7937-1.9161.4903-.4904 1.1677-.79374 1.9159-.79374zm1.2435 1.46624c-.3182-.3182-.7578-.515-1.2435-.515-.4856 0-.9253.1968-1.2435.515-.3181.3182-.515.7579-.515 1.2436s.1969.9254.515 1.2436c.3182.3182.7579.515 1.2435.515.4857 0 .9253-.1968 1.2435-.515s.515-.7579.515-1.2436-.1968-.9254-.515-1.2436zm-25.54808 15.01c-.11606-.1161-.11606-.3043 0-.4203.11607-.1161.30425-.1161.42031 0l4.76007 4.7604c.116.1161.116.3043 0 .4203-.1161.1161-.3043.1161-.4203 0zm-6.364939-2.3387c-.116062-.116-.116062-.3042 0-.4203s.304243-.1161.420305 0l7.790584 7.7912c.11606.1161.11606.3043 0 .4203-.11606.1161-.30424.1161-.42031 0zm19.263219 11.6813-4.4238-4.4242-3.4203 3.4206 4.7601 4.7604-1.6505 1.6507 7.2693.548-.548-7.2699-1.6505 1.6506z" fill="#fff"/></svg>