<svg fill="none" height="11" viewBox="0 0 11 11" width="11" xmlns="http://www.w3.org/2000/svg"><path d="m9.375.25h-8.25c-.632812 0-1.125.515625-1.125 1.125v8.25c0 .6328.492188 1.125 1.125 1.125h3.21094v-3.5625h-1.47656v-1.6875h1.47656v-1.26562c0-1.45313.86718-2.27344 2.17968-2.27344.65626 0 1.3125.11718 1.3125.11718v1.42969h-.72656c-.72656 0-.96094.44531-.96094.91407v1.07812h1.61719l-.25781 1.6875h-1.35938v3.5625h3.23438c.60938 0 1.125-.4922 1.125-1.125v-8.25c0-.609375-.51562-1.125-1.125-1.125z"/></svg>