<svg fill="none" height="11" viewBox="0 0 11 11" width="11" xmlns="http://www.w3.org/2000/svg"><path d="m5.25 2.38281c-1.71094 0-3.09375 1.38281-3.09375 3.09375 0 .58594.16406 1.14844.46875 1.64063l.07031.11719-.30469 1.14843 1.17188-.30469.09375.07032c.49219.28125 1.03125.42187 1.57031.42187h.02344c1.6875 0 3.11719-1.38281 3.11719-3.09375 0-.82031-.35157-1.59375-.9375-2.17968-.58594-.58594-1.35938-.91407-2.17969-.91407zm1.80469 4.42969c-.07031.21094-.44531.39844-.63281.42188-.28126.04687-.51563.02343-1.10157-.21094-.9375-.42188-1.54687-1.35938-1.59375-1.40625-.04687-.07031-.375-.51563-.375-.96094 0-.46875.23438-.67969.32813-.77344.07031-.09375.1875-.11719.23437-.11719h.1875c.04688 0 .14063-.02343.21094.16407.07031.16406.25781.63281.28125.67969.02344.04687.04687.09374 0 .16406-.16406.35156-.35156.32812-.25781.49218.35156.63282.70312.84376 1.26562 1.125.09375.04688.14063.02344.1875-.02343.07032-.07031.23438-.28125.30469-.375.04687-.09375.11719-.07031.21094-.04688.07031.02344.53906.25781.63281.30469s.14062.07031.16406.11719c.02344.02343.02344.21093-.04687.44531zm2.32031-6.5625h-8.25c-.632812 0-1.125.515625-1.125 1.125v8.25c0 .6328.492188 1.125 1.125 1.125h8.25c.60938 0 1.125-.4922 1.125-1.125v-8.25c0-.609375-.51562-1.125-1.125-1.125zm-4.14844 8.95312c-.60937 0-1.21875-.16406-1.75781-.46874l-1.96875.51562.51562-1.92188c-.32812-.5625-.49218-1.19531-.49218-1.85156 0-2.03906 1.66406-3.72656 3.70312-3.72656 1.00782 0 1.94532.39844 2.64844 1.10156.70312.70313 1.125 1.64063 1.125 2.625 0 2.0625-1.71094 3.72656-3.77344 3.72656z"/></svg>