<svg fill="none" height="90" viewBox="0 0 90 90" width="90" xmlns="http://www.w3.org/2000/svg"><g fill-opacity=".3"><path d="m90 0h4.28571v4.28571h-4.28571z" transform="matrix(0 1 -1 0 90 -90)"/><path d="m90 17.1429h4.28571v4.28571h-4.28571z" transform="matrix(0 1 -1 0 107.1429 -72.8571)"/><path d="m72.8574 17.1429h4.28571v4.28571h-4.28571z" transform="matrix(0 1 -1 0 90.0003 -55.7145)"/><path d="m90 34.2857h4.28571v4.28571h-4.28571z" transform="matrix(0 1 -1 0 124.2857 -55.7143)"/><path d="m72.8574 34.2857h4.28571v4.28571h-4.28571z" transform="matrix(0 1 -1 0 107.1431 -38.5717)"/><path d="m55.7139 34.2857h4.28571v4.28571h-4.28571z" transform="matrix(0 1 -1 0 89.9996 -21.4282)"/><path d="m90 51.4286h4.28571v4.28571h-4.28571z" transform="matrix(0 1 -1 0 141.4286 -38.5714)"/><path d="m72.8574 51.4286h4.28571v4.28571h-4.28571z" transform="matrix(0 1 -1 0 124.286 -21.4288)"/><path d="m55.7139 51.4286h4.28571v4.28571h-4.28571z" transform="matrix(0 1 -1 0 107.1425 -4.2853)"/><path d="m38.5713 51.4286h4.28571v4.28571h-4.28571z" transform="matrix(0 1 -1 0 89.9999 12.8573)"/><path d="m90 68.5714h4.28571v4.28571h-4.28571z" transform="matrix(0 1 -1 0 158.5714 -21.4286)"/><path d="m72.8574 68.5714h4.28571v4.28571h-4.28571z" transform="matrix(0 1 -1 0 141.4288 -4.286)"/><path d="m55.7139 68.5714h4.28571v4.28571h-4.28571z" transform="matrix(0 1 -1 0 124.2853 12.8575)"/><path d="m38.5713 68.5714h4.28571v4.28571h-4.28571z" transform="matrix(0 1 -1 0 107.1427 30.0001)"/><path d="m21.4287 68.5714h4.28571v4.28571h-4.28571z" transform="matrix(0 1 -1 0 90.0001 47.1427)"/><path d="m90 85.7143h4.28571v4.28571h-4.28571z" transform="matrix(0 1 -1 0 175.7143 -4.2857)"/><path d="m72.8574 85.7143h4.28571v4.28571h-4.28571z" transform="matrix(0 1 -1 0 158.5717 12.8569)"/><path d="m55.7139 85.7143h4.28571v4.28571h-4.28571z" transform="matrix(0 1 -1 0 141.4282 30.0004)"/><path d="m38.5713 85.7143h4.28571v4.28571h-4.28571z" transform="matrix(0 1 -1 0 124.2856 47.143)"/><path d="m21.4287 85.7143h4.28571v4.28571h-4.28571z" transform="matrix(0 1 -1 0 107.143 64.2856)"/><path d="m4.28613 85.7143h4.28571v4.28571h-4.28571z" transform="matrix(0 1 -1 0 90.00043 81.42817)"/></g></svg>