<svg width="24" height="32" viewBox="0 0 24 32" fill="none" xmlns="http://www.w3.org/2000/svg">
<path d="M23.0625 6.125L17.875 0.875C17.3125 0.3125 16.5 0 15.75 0H3C1.3125 0 0 1.375 0 3V29C0 30.6875 1.3125 32 3 32H21C22.625 32 24 30.6875 24 29V8.25C24 7.5 23.625 6.6875 23.0625 6.125ZM21.6875 7.5625C21.8125 7.6875 21.875 7.875 21.9375 8H16V2.0625C16.125 2.125 16.3125 2.1875 16.4375 2.3125L21.6875 7.5625ZM21 30H3C2.4375 30 2 29.5625 2 29V3C2 2.5 2.4375 2 3 2H14V8.5C14 9.375 14.625 10 15.5 10H22V29C22 29.5625 21.5 30 21 30ZM18 14.75C18 14.375 17.625 14 17.25 14H6.75C6.3125 14 6 14.375 6 14.75V15.25C6 15.6875 6.3125 16 6.75 16H17.25C17.625 16 18 15.6875 18 15.25V14.75ZM18 18.75C18 18.375 17.625 18 17.25 18H6.75C6.3125 18 6 18.375 6 18.75V19.25C6 19.6875 6.3125 20 6.75 20H17.25C17.625 20 18 19.6875 18 19.25V18.75ZM18 22.75C18 22.375 17.625 22 17.25 22H6.75C6.3125 22 6 22.375 6 22.75V23.25C6 23.6875 6.3125 24 6.75 24H17.25C17.625 24 18 23.6875 18 23.25V22.75Z" fill="#14BEF0"/>
</svg>
