<svg fill="none" height="29" viewBox="0 0 26 29" width="26" xmlns="http://www.w3.org/2000/svg"><g fill="#fff"><path d="m7.08862 18.0098c-.96021-.0001-1.89312-.3195-2.65197-.9078-.75885-.5884-1.30057-1.4123-1.53992-2.3422-.03315-.1285-.01391-.2648.05348-.3791.0674-.1143.17743-.1971.30589-.2303.12847-.0331.26484-.0139.37912.0535s.19711.1774.23026.3059c.18384.7152.60027 1.349 1.18377 1.8015.5835.4526 1.30092.6983 2.03937.6985.13962-.0013.27904-.0111.41748-.0293.06529-.0084.13159-.0038.1951.0135s.12297.047.17497.0874c.05201.0403.09553.0906.12808.1478.03254.0572.05346.1203.06156.1856.00811.0653.00323.1316-.01435.195-.01758.0635-.04752.1228-.08809.1747-.04058.0518-.09098.0951-.14834.1274-.05735.0323-.12052.053-.18588.0608-.17921.0237-.35975.0361-.54053.0371z"/><path d="m17.2646 29c-2.3159-.0026-4.5362-.9238-6.1739-2.5614-1.6376-1.6376-2.55877-3.858-2.5614-6.1739 0-3.3379 1.9375-5.9434 3.9893-8.7031 1.7583-2.36527 3.5771-4.81058 4.2578-7.87604.0247-.11108.0865-.21042.1753-.28162.0888-.07119.1992-.10999.3129-.10999.1138 0 .2242.0388.313.10999.0888.0712.1506.17054.1753.28162.6812 3.06543 2.4995 5.51074 4.2578 7.87604 2.0518 2.7597 3.9893 5.3652 3.9893 8.7031-.0026 2.3159-.9238 4.5363-2.5614 6.1739-1.6377 1.6376-3.858 2.5588-6.174 2.5614zm0-23.42574c-.9824 2.37729-2.3114 4.59604-3.9438 6.58404-1.9497 2.623-3.7915 5.0996-3.7915 8.1064 0 2.0516.815 4.0191 2.2656 5.4697 1.4507 1.4507 3.4182 2.2657 5.4697 2.2657 2.0516 0 4.0191-.815 5.4698-2.2657 1.4506-1.4506 2.2656-3.4181 2.2656-5.4697 0-3.0068-1.8418-5.4834-3.7915-8.1064-1.6322-1.9881-2.9612-4.20684-3.9439-6.58404z"/><path d="m17.2649 25.5557c-1.1724-.0002-2.3114-.3901-3.238-1.1084-.9266-.7182-1.5881-1.7241-1.8807-2.8594-.0331-.1284-.0139-.2648.0535-.3791s.1775-.1971.3059-.2303c.1285-.0331.2649-.0139.3791.0535.1143.0674.1971.1775.2303.3059.2369.9207.7731 1.7364 1.5244 2.319.7512.5825 1.6749.8987 2.6255.8988.1798-.0015.3593-.0139.5376-.0371.1316-.0163.2642.0203.3688.1018s.1725.2012.1888.3328c.0163.1315-.0203.2642-.1018.3688s-.2012.1725-.3328.1888c-.219.0288-.4397.0438-.6606.0449z"/><path d="m7.0293 20.7617h-.0044c-1.86677-.0217-3.65005-.777-4.96451-2.1027-1.314463-1.3257-2.05456457-3.1154-2.06039-4.9823 0-2.7031 1.56006-4.80172 3.21143-7.02242 1.56401-1.82149 2.71952-3.95699 3.38868-6.262664.0247-.111082.08655-.21042.17532-.281617.08877-.071198.19916-.109999.31296-.109999s.22419.038801.31296.109999c.08877.071197.15062.170535.17532.281617.66911 2.307074 1.82439 4.444154 3.38823 6.267584.6206.83594 1.207 1.626 1.7202 2.45605.0347.05585.0581.11802.0688.18293.0107.06492.0085.13131-.0065.19536-.0151.06405-.0426.1245-.081.1779-.0385.05339-.0871.09867-.143.13325-.056.03457-.1183.05776-.1832.06822-.065.01047-.1313.00801-.1953-.00723s-.1244-.04296-.1777-.08158c-.0532-.03861-.0983-.08736-.1327-.14345-.4907-.794-1.065-1.56641-1.6724-2.38477-1.24857-1.53484-2.28262-3.23235-3.07372-5.04586-.79147 1.81203-1.82586 3.50793-3.07471 5.041-1.5498 2.085-3.01367 4.05368-3.01367 6.42578.00506 1.6034.64077 3.1405 1.76975 4.2791 1.12899 1.1386 2.66062 1.7873 4.26394 1.8059.06566.0003.13062.0135.19117.0389.06056.0254.11552.0625.16174.1091.04623.0466.08281.1019.10768.1627.02486.0608.0375.1258.03722.1915-.00029.0657-.01351.1306-.03891.1912-.02539.0605-.06246.1155-.10909.1617-.04664.0462-.10192.0828-.16269.1077-.06077.0248-.12585.0375-.19151.0372z"/></g></svg>