<svg width="33" height="33" viewBox="0 0 33 33" fill="none" xmlns="http://www.w3.org/2000/svg">
<path d="M8.37823 22.658C7.91427 22.658 7.53808 22.2825 7.53808 21.8178V11.697C7.53808 11.233 7.91361 10.8568 8.37823 10.8568C8.84286 10.8568 9.2184 11.2324 9.2184 11.697V21.8178C9.21774 22.2825 8.8422 22.658 8.37823 22.658ZM22.657 22.0165V11.499C22.657 11.035 22.2815 10.6588 21.8168 10.6588C21.3529 10.6588 20.9767 11.0344 20.9767 11.499V22.0165C20.9767 22.4805 21.3522 22.8567 21.8168 22.8567C22.2815 22.8567 22.657 22.4811 22.657 22.0165ZM12.5777 26.4588V7.05597C12.5777 6.592 12.2022 6.21581 11.7376 6.21581C11.2729 6.21581 10.8974 6.59134 10.8974 7.05597V26.4588C10.8974 26.9228 11.2729 27.299 11.7376 27.299C12.2022 27.299 12.5777 26.9235 12.5777 26.4588ZM15.9377 31.9169V1.59724C15.9377 1.13327 15.5622 0.75708 15.0975 0.75708C14.6329 0.75708 14.2574 1.13261 14.2574 1.59724V31.9169C14.2574 32.3809 14.6329 32.7571 15.0975 32.7571C15.5622 32.7571 15.9377 32.3816 15.9377 31.9169ZM32.7369 17.2356V16.2799C32.7369 15.8159 32.3614 15.4398 31.8968 15.4398C31.4321 15.4398 31.0566 15.8153 31.0566 16.2799V17.2356C31.0566 17.6995 31.4321 18.0757 31.8968 18.0757C32.3614 18.0757 32.7369 17.6995 32.7369 17.2356ZM26.017 24.3443V9.1699C26.017 8.70593 25.6414 8.32974 25.1768 8.32974C24.7122 8.32974 24.3367 8.70527 24.3367 9.1699V24.3443C24.3367 24.8082 24.7122 25.1844 25.1768 25.1844C25.6414 25.1844 26.017 24.8089 26.017 24.3443ZM29.3763 18.2777V15.2371C29.3763 14.7732 29.0008 14.397 28.5361 14.397C28.0715 14.397 27.696 14.7725 27.696 15.2371V18.2777C27.696 18.7417 28.0715 19.1178 28.5361 19.1178C29.0008 19.1178 29.3763 18.7423 29.3763 18.2777ZM5.85842 18.778V14.7369C5.85842 14.2729 5.48288 13.8967 5.01825 13.8967C4.55429 13.8967 4.1781 14.2722 4.1781 14.7369V18.778C4.1781 19.2419 4.55363 19.6181 5.01825 19.6181C5.48288 19.6181 5.85842 19.2426 5.85842 18.778ZM2.49844 17.4415V16.074C2.49844 15.61 2.1229 15.2338 1.65827 15.2338C1.19365 15.2338 0.818115 15.6094 0.818115 16.074V17.4415C0.818115 17.9055 1.19365 18.2816 1.65827 18.2816C2.1229 18.2816 2.49844 17.9055 2.49844 17.4415ZM19.297 23.6638V9.85034C19.297 9.38638 18.9215 9.01019 18.4569 9.01019C17.9922 9.01019 17.6167 9.38572 17.6167 9.85034V23.6632C17.6167 24.1271 17.9922 24.5033 18.4569 24.5033C18.9215 24.5033 19.297 24.1278 19.297 23.6638Z" fill="white"/>
</svg>
