<svg fill="none" height="33" viewBox="0 0 51 33" width="51" xmlns="http://www.w3.org/2000/svg"><path clip-rule="evenodd" d="m30.1546 22.405c.0151.0045.0304.009.0468.0107-.0164-.0017-.0316-.0062-.0468-.0107m.0489.0107h-.0021c.0007.0001.0014.0001.0021.0002zm.0485.0029c-.0162-.001-.0323-.002-.0485-.0029l.0036.0002c.015.0008.0299.0017.0449.0027zm-28.69857-4.4391h41.85567l-.0007.0001zm42.61867.0388c-.2512-.0256-.5059-.0387-.7637-.0387h.0007l.036.0001c.2453.0012.4878.0142.727.0386zm-13.0795-2.1265h-23.88755l.00066-.0001zm-23.89572-.0001h.00883-.00068c-.00272 0-.00544 0-.00815 0zm-.02493-.0005c-.02866-.0008-.05706-.0027-.08516-.0055.02658.0027.05342.0045.08049.0054.00155 0 .00311.0001.00467.0001zm37.07215.0006h-4.6741l.0001-.0001zm-4.6936-.0003c.0065.0001.0131.0002.0196.0002h-.0002c-.0065 0-.0129-.0001-.0194-.0002zm-.5411-.1442c-.0306-.0169-.0604-.0352-.0892-.0547.0288.0195.0586.0378.0892.0547m-26.1508 7.1459 17.188.0008.0081.0021c.025.0063.0617.0142.1061.018l.2454.021c1.702.2064 3.024 1.6476 3.024 3.3948 0 1.8951-1.5427 3.4385-3.4385 3.4385-1.3963 0-2.6416-.8319-3.1772-2.1208-.139-.3375.0211-.725.3583-.8659.3437-.1397.7288.0241.8675.3592.3288.7903 1.0954 1.3031 1.9523 1.3031 1.1649 0 2.1124-.9463 2.1124-2.1124 0-1.1649-.9464-2.1123-2.1124-2.1123h-17.134c-.366 0-.6631-.2974-.6631-.6631 0-.3659.2974-.663.6631-.663zm-11.30517-4.4137h41.85497c3.8481 0 6.9794 3.1324 6.9787 6.9794 0 3.8465-3.1307 6.9771-6.9787 6.9771-3.8483 0-6.9788-3.13-6.9788-6.9771 0-.3659.2975-.663.6631-.663.3659 0 .663.2974.663.663 0 3.1165 2.5356 5.6517 5.6534 5.6517 3.1177 0 5.6533-2.535 5.6533-5.6517 0-3.1179-2.5351-5.6533-5.6533-5.6533h-41.85567c-.366 0-.663049-.2974-.663049-.663 0-.366.297449-.6631.663049-.6631zm29.53917-3.0877h-23.88688c-.36597 0-.66305-.2975-.66305-.6632 0-.3659.29743-.663.66304-.663l23.88759.0008c3.1163 0 5.6516-2.5353 5.6516-5.65332 0-3.11626-2.5351-5.65165-5.6516-5.65165-3.1178 0-5.6534 2.53504-5.6534 5.65165 0 .366-.2974.66305-.663.66305-.366 0-.6631-.29745-.6631-.66305 0-3.84639 3.1315-6.97708 6.9788-6.97708 3.8465 0 6.9771 3.12899 6.9771 6.97708 0 3.84832-3.13 6.97872-6.9771 6.97872zm13.1515 0h-3.4751l-1.1989-.0001c-.3649 0-.6628-.2984-.6623-.6647 0-.3659.2975-.663.6631-.663h4.6741c1.1649 0 2.1124-.9464 2.1124-2.1124 0-1.1649-.9464-2.1123-2.1124-2.1123-.8569 0-1.6235.5128-1.9523 1.303l-.0005.0011c-.1395.3376-.5251.4986-.867.3582-.338-.1406-.4977-.5276-.3584-.866.5348-1.28857 1.7808-2.12075 3.1773-2.12075 1.8951 0 3.4385 1.54345 3.4385 3.43845 0 1.8952-1.5427 3.4385-3.4385 3.4385z" fill="#fff" fill-rule="evenodd"/></svg>