<svg fill="none" height="33" viewBox="0 0 41 33" width="41" xmlns="http://www.w3.org/2000/svg"><g fill="#fff"><path d="m26.1984 28.9979c-.1349 0-.2703-.0069-.4052-.0144-.3909-.0282-.69-.3695-.6612-.7609.0282-.3908.3695-.6756.7609-.6612 1.2371.0853 2.4464-.3626 3.3209-1.2371.8105-.8036 1.2514-1.8774 1.2514-3.0153s-.4409-2.2113-1.2514-3.0149c-.8111-.8036-1.8775-1.2515-3.0154-1.2515h-21.33328c-.39087 0-.71131-.3199-.71131-.7113 0-.3909.31993-.7113.71131-.7113h21.33328c1.5218 0 2.9508.5903 4.0247 1.6641 1.0739 1.0739 1.6642 2.503 1.6642 4.0248 0 1.5217-.5903 2.9508-1.6642 4.0247-1.0734 1.067-2.5243 1.6641-4.0247 1.6641z"/><path d="m31.1763 15.4868h-29.8666c-.390869 0-.711311-.3199-.711311-.7113 0-.3908.319934-.7113.711311-.7113h29.8666c3.1358 0 5.689-2.553 5.689-5.689 0-3.13586-2.553-5.68899-5.689-5.68899-.3909 0-.7113-.31994-.7113-.71132 0-.39087.3199-.71131.7113-.71131 3.9181 0 7.1111 3.19301 7.1111 7.11109 0 3.91913-3.1925 7.11213-7.1111 7.11213z"/><path d="m13.754 10.5091c0 .5892-.4777 1.0669-1.0664 1.0669-.5893 0-1.067-.4777-1.067-1.0669 0-.58883.4777-1.0665 1.067-1.0665.5887 0 1.0664.47767 1.0664 1.0665z"/><path d="m18.0209 11.2202c0 .5893-.4777 1.0664-1.067 1.0664-.5888 0-1.0664-.4771-1.0664-1.0664s.4776-1.0665 1.0664-1.0665c.5893 0 1.067.4772 1.067 1.0665"/><path d="m24.4208 11.9313c0 .5888-.4777 1.0664-1.0665 1.0664-.5893 0-1.0669-.4776-1.0669-1.0664 0-.5893.4776-1.067 1.0669-1.067.5888 0 1.0665.4777 1.0665 1.067z"/><path d="m30.1095 9.79797c0 .58883-.4777 1.06643-1.0665 1.06643-.5893 0-1.0669-.4776-1.0669-1.06643 0-.58928.4776-1.06695 1.0669-1.06695.5888 0 1.0665.47767 1.0665 1.06695z"/><path d="m8.06529 11.2202c0 .5893-.47717 1.0664-1.06646 1.0664-.58928 0-1.06646-.4771-1.06646-1.0664s.47718-1.0665 1.06646-1.0665c.58929 0 1.06646.4772 1.06646 1.0665"/><path d="m15.1764 21.8868c0 .5893-.4772 1.0665-1.0665 1.0665s-1.0664-.4772-1.0664-1.0665.4771-1.0665 1.0664-1.0665 1.0665.4772 1.0665 1.0665z"/><path d="m20.1542 22.5979c0 .5888-.4777 1.0665-1.067 1.0665-.5888 0-1.0664-.4777-1.0664-1.0665 0-.5892.4776-1.0669 1.0664-1.0669.5893 0 1.067.4777 1.067 1.0669z"/><path d="m25.8429 23.309c0 .5893-.4772 1.067-1.0665 1.067s-1.0664-.4777-1.0664-1.067c0-.5887.4771-1.0664 1.0664-1.0664s1.0665.4777 1.0665 1.0664z"/><path d="m36.5096 23.309c0 .5893-.4772 1.067-1.0664 1.067-.5893 0-1.0665-.4777-1.0665-1.067 0-.5887.4772-1.0664 1.0665-1.0664.5892 0 1.0664.4777 1.0664 1.0664z"/><path d="m8.06529 21.8868c0 .5893-.47717 1.0665-1.06646 1.0665-.58928 0-1.06646-.4772-1.06646-1.0665s.47718-1.0665 1.06646-1.0665c.58929 0 1.06646.4772 1.06646 1.0665z"/><path d="m17.3097 26.1535c0 .5888-.4777 1.0664-1.0665 1.0664-.5893 0-1.0669-.4776-1.0669-1.0664 0-.5893.4776-1.067 1.0669-1.067.5888 0 1.0665.4777 1.0665 1.067z"/><path d="m22.2875 27.5757c0 .5888-.4772 1.0664-1.0665 1.0664s-1.0665-.4776-1.0665-1.0664c0-.5893.4772-1.067 1.0665-1.067s1.0665.4777 1.0665 1.067z"/><path d="m19.443 31.1312c0 .5888-.4777 1.0665-1.0665 1.0665-.5893 0-1.0669-.4777-1.0669-1.0665 0-.5893.4776-1.0669 1.0669-1.0669.5888 0 1.0665.4776 1.0665 1.0669z"/><path d="m13.754 28.9979c0 .5893-.4777 1.0664-1.0664 1.0664-.5893 0-1.067-.4771-1.067-1.0664s.4777-1.0665 1.067-1.0665c.5887 0 1.0664.4772 1.0664 1.0665z"/><path d="m35.0873 18.3313c0 .5892-.4777 1.0664-1.0665 1.0664-.5893 0-1.0669-.4772-1.0669-1.0664 0-.5893.4776-1.0665 1.0669-1.0665.5888 0 1.0665.4772 1.0665 1.0665z"/><path d="m40.065 17.6202c0 .5893-.4771 1.0669-1.0664 1.0669s-1.0665-.4776-1.0665-1.0669c0-.5888.4772-1.0665 1.0665-1.0665s1.0664.4777 1.0664 1.0665z"/><path d="m26.5541 6.2424c0 .58879-.4777 1.06646-1.0665 1.06646-.5893 0-1.0669-.47767-1.0669-1.06646 0-.58928.4776-1.06695 1.0669-1.06695.5888 0 1.0665.47767 1.0665 1.06695z"/><path d="m22.2875 8.37573c0 .58879-.4772 1.06646-1.0665 1.06646s-1.0665-.47767-1.0665-1.06646c0-.58928.4772-1.06695 1.0665-1.06695s1.0665.47767 1.0665 1.06695z"/><path d="m17.3097 6.95351c0 .58928-.4777 1.06696-1.0665 1.06696-.5893 0-1.0669-.47768-1.0669-1.06696 0-.58878.4776-1.06646 1.0669-1.06646.5888 0 1.0665.47768 1.0665 1.06646z"/><path d="m10.9098 6.2424c0 .58879-.4777 1.06646-1.06697 1.06646-.58879 0-1.06646-.47767-1.06646-1.06646 0-.58928.47767-1.06695 1.06646-1.06695.58927 0 1.06697.47767 1.06697 1.06695z"/><path d="m23.7096 1.26465c0 .58879-.4777 1.06646-1.067 1.06646-.5888 0-1.0664-.47767-1.0664-1.06646 0-.589281.4776-1.066957 1.0664-1.066957.5893 0 1.067.477676 1.067 1.066957z"/><path d="m20.8651 4.82019c0 .58879-.4777 1.06646-1.0665 1.06646-.5892 0-1.0669-.47767-1.0669-1.06646 0-.58928.4777-1.06696 1.0669-1.06696.5888 0 1.0665.47768 1.0665 1.06696z"/><path d="m16.5985 2.68686c0 .58878-.4777 1.06646-1.067 1.06646-.5887 0-1.0664-.47768-1.0664-1.06646 0-.58928.4777-1.06696 1.0664-1.06696.5893 0 1.067.47768 1.067 1.06696z"/><path d="m11.6207 24.7313c0 .5892-.4772 1.0669-1.0664 1.0669-.58933 0-1.06651-.4777-1.06651-1.0669 0-.5888.47718-1.0665 1.06651-1.0665.5892 0 1.0664.4777 1.0664 1.0665z"/></g></svg>