<svg fill="none" height="25" viewBox="0 0 24 25" width="24" xmlns="http://www.w3.org/2000/svg"><path d="m23.8125 22.5938-6.0469-6.0469c-.0937-.0938-.2344-.1407-.375-.1407h-.5156c1.6406-1.7812 2.625-4.0781 2.625-6.6562 0-5.34375-4.4062-9.75-9.75-9.75-5.39062 0-9.75 4.40625-9.75 9.75 0 5.3906 4.35938 9.75 9.75 9.75 2.5312 0 4.875-.9844 6.6094-2.5781v.4687c0 .1875.0468.3282.1406.4219l6.0469 6.0469c.2343.2344.5625.2344.7969 0l.4687-.4688c.2344-.2344.2344-.5625 0-.7968zm-14.0625-4.5938c-4.59375 0-8.25-3.6562-8.25-8.25 0-4.54688 3.65625-8.25 8.25-8.25 4.5469 0 8.25 3.70312 8.25 8.25 0 4.5938-3.7031 8.25-8.25 8.25z"/></svg>