<svg width="26" height="26" viewBox="0 0 26 26" fill="none" xmlns="http://www.w3.org/2000/svg">
<path d="M13 1C6.38292 1 1 6.38292 1 13C1 15.2574 1.62723 17.4488 2.81708 19.3517C2.34308 21.0123 1.48692 24.1535 1.47769 24.1863C1.43338 24.3488 1.48092 24.5223 1.60231 24.6391C1.72369 24.7558 1.89908 24.7974 2.05877 24.7485L6.81538 23.2854C8.67862 24.4078 10.8123 25 13 25C19.6171 25 25 19.6171 25 13C25 6.38292 19.6171 1 13 1ZM13 24.0769C10.9143 24.0769 8.88262 23.494 7.12415 22.3918C7.04985 22.3452 6.96446 22.3217 6.87908 22.3217C6.83338 22.3217 6.78769 22.3286 6.74338 22.342L2.59 23.6205C2.89508 22.5068 3.44338 20.5148 3.76138 19.4066C3.79831 19.2783 3.77754 19.1398 3.70508 19.0277C2.53923 17.2337 1.92308 15.1494 1.92308 13C1.92308 6.89246 6.89246 1.92308 13 1.92308C19.1075 1.92308 24.0769 6.89246 24.0769 13C24.0769 19.1075 19.1075 24.0769 13 24.0769Z" fill="inherit" stroke="inherit" stroke-width="0.25"/>
<path d="M20.8393 15.8274C19.9873 15.3543 19.2617 14.8799 18.7324 14.5337C18.3281 14.2697 18.0359 14.0791 17.8218 13.9716C17.2231 13.6729 16.7694 13.8839 16.5968 14.0583C16.5751 14.08 16.5558 14.1036 16.5391 14.1285C15.9174 15.0613 15.1056 15.9534 14.8679 16.0014C14.5933 15.9585 13.3079 15.2279 12.0304 14.164C10.7261 13.0771 9.90544 12.0363 9.78498 11.3274C10.6218 10.4662 10.9231 9.92433 10.9231 9.30772C10.9231 8.67218 9.44067 6.01879 9.17252 5.75064C8.90344 5.48202 8.29744 5.44003 7.37114 5.62464C7.28206 5.64264 7.19991 5.68649 7.13529 5.75064C7.02314 5.86279 4.39883 8.53833 5.64591 11.7811C7.01483 15.34 10.5285 19.4768 15.0082 20.1488C15.5173 20.2249 15.9945 20.2628 16.4413 20.2628C19.0767 20.2628 20.6321 18.9368 21.0701 16.3065C21.1028 16.114 21.0101 15.922 20.8393 15.8274ZM15.1453 19.2359C10.4081 18.5256 7.42421 13.8322 6.5076 11.4497C5.59837 9.08664 7.27514 6.97972 7.69606 6.50341C8.03852 6.44526 8.39898 6.42079 8.54944 6.44433C8.86375 6.88141 9.95206 8.93756 10.0001 9.30772C10.0001 9.55002 9.92114 9.88741 8.98144 10.8276C8.89467 10.9139 8.84621 11.0311 8.84621 11.1539C8.84621 13.5705 13.9434 16.9231 14.8462 16.9231C15.6313 16.9231 16.655 15.6036 17.2379 14.7437C17.2716 14.7451 17.3284 14.7566 17.4091 14.7973C17.5753 14.8808 17.8633 15.0686 18.2274 15.3068C18.7084 15.6211 19.3471 16.0383 20.1013 16.4708C19.7588 18.1185 18.8016 19.7851 15.1453 19.2359Z" fill="inherit" stroke="inherit" stroke-width="0.25"/>
</svg>
