<svg clip-rule="evenodd" fill-rule="evenodd" stroke-linejoin="round" stroke-miterlimit="2" viewBox="0 0 264 67" xmlns="http://www.w3.org/2000/svg"><g fill-rule="nonzero"><g fill="#1d1d1b"><path d="m0-7.462c0-.148.126-.274.274-.274h4.121c.16 0 .274.126.274.274 0 .16-.114.286-.274.286h-3.834v3.17h3.353c.148 0 .274.126.274.286 0 .149-.126.275-.274.275h-3.353v3.159h3.834c.16 0 .274.125.274.286 0 .148-.114.274-.274.274h-4.143c-.138-.011-.252-.126-.252-.274z" transform="translate(41.8514 65.9)"/><path d="m0 5.116c.092-.115.252-.126.354-.035.595.481 1.591 1.042 2.632 1.031.699 0 1.328-.206 1.763-.527.446-.321.687-.744.687-1.19 0-.458-.217-.801-.653-1.099-.434-.286-1.075-.503-1.853-.652h-.024c-.743-.137-1.395-.343-1.887-.675-.493-.321-.825-.801-.825-1.396 0-.607.332-1.133.835-1.499.504-.367 1.179-.584 1.935-.584 1.053 0 1.843.515 2.472.927.114.08.148.229.068.354-.068.115-.229.149-.343.069-.63-.412-1.316-.847-2.197-.847-.652 0-1.236.195-1.637.481-.4.297-.629.686-.629 1.099.011.4.195.698.595.972.4.275.996.469 1.717.607h.022c.802.149 1.511.378 2.037.732.527.343.882.87.882 1.511s-.367 1.213-.904 1.602c-.538.389-1.259.629-2.061.629-1.224-.011-2.288-.629-2.952-1.156-.103-.091-.114-.251-.034-.354" transform="translate(51.3664 59.56)"/><path d="m0 .046c.95-.012 1.729-.79 1.729-1.74 0-.949-.779-1.728-1.729-1.728h-1.979v3.468zm-2.54-3.754c0-.148.126-.274.274-.274h2.266c1.259 0 2.277 1.029 2.277 2.288s-1.018 2.278-2.277 2.278l-1.979.023v3.147c0 .148-.126.274-.287.274-.148 0-.274-.126-.274-.274z" transform="translate(65.0014 62.146)"/><path d="m0-7.462c0-.148.126-.274.275-.274.161 0 .287.126.287.274v4.498c0 1.476 1.201 2.666 2.666 2.678 1.488-.012 2.689-1.202 2.689-2.678v-4.498c0-.148.126-.274.274-.274.161 0 .287.126.287.274v4.498c0 1.785-1.454 3.238-3.25 3.238-1.774 0-3.228-1.453-3.228-3.238z" transform="translate(72.2384 65.9)"/><path d="m0-5.721-2.563 3.559c-.058.091-.149.126-.23.126h-.022c-.103 0-.183-.035-.241-.126l-2.563-3.548v6.581c0 .148-.126.274-.275.274-.16 0-.286-.126-.286-.274v-7.416c0-.092.046-.172.115-.218 0-.011.011-.011.022-.022.126-.081.298-.058.39.068l2.849 3.948 2.838-3.948c.08-.126.264-.149.389-.068.035.034.057.057.081.091.022.046.045.103.045.149v7.416c0 .148-.126.274-.275.274-.16 0-.274-.126-.274-.274z" transform="translate(90.2474 65.03)"/><path d="m0 2.712h3.238l-1.613-4.303zm3.444.561h-3.65l-.71 1.888c-.046.114-.148.183-.263.183-.023 0-.069-.011-.103-.011-.137-.058-.217-.229-.16-.366l2.781-7.427c.046-.103.16-.172.274-.172.126 0 .241.069.275.172l2.781 7.427c.058.137-.012.308-.148.366-.046 0-.07.011-.104.011-.103 0-.218-.069-.263-.183z" transform="translate(97.0164 60.83)"/><path d="m0 6.889c1.899 0 3.445-1.534 3.445-3.434 0-1.911-1.546-3.444-3.445-3.456h-1.213v6.89zm0 .561h-1.521c-.138-.012-.252-.126-.252-.275v-7.462c0-.148.126-.274.274-.274h1.499c2.209 0 4.006 1.808 4.006 4.016 0 2.209-1.797 3.995-4.006 3.995z" transform="translate(114.8664 58.725)"/><path d="m0-7.462c0-.148.126-.274.274-.274h4.121c.16 0 .274.126.274.274 0 .16-.114.286-.274.286h-3.834v3.17h3.353c.148 0 .274.126.274.286 0 .149-.126.275-.274.275h-3.353v3.159h3.834c.16 0 .274.125.274.286 0 .148-.114.274-.274.274h-4.143c-.138-.011-.252-.126-.252-.274z" transform="translate(123.8454 65.9)"/><path d="m0 1.717-.927-2.46-.927 2.46zm.469 1.259h-2.781l-.561 1.488c-.103.251-.343.4-.595.4-.08 0-.148-.011-.218-.034-.331-.126-.491-.492-.376-.824l2.529-6.741c.102-.252.354-.412.606-.401.263-.011.503.149.607.401l2.529 6.741c.114.332-.046.698-.378.824-.058.023-.138.034-.218.034-.252 0-.492-.149-.583-.4z" transform="translate(143.8684 61.311)"/><path d="m0 6.752v-6.752c0-.343.274-.629.629-.629s.642.286.642.629v6.111h3.1c.332 0 .63.286.63.641 0 .343-.298.629-.63.629h-3.742c-.355 0-.629-.286-.629-.629" transform="translate(150.7404 58.793)"/><path d="m0-5.471h-1.819v6.111c0 .355-.275.63-.629.63-.344 0-.63-.275-.63-.63v-6.111h-1.809c-.354 0-.629-.297-.629-.641 0-.355.275-.629.629-.629h4.887c.344 0 .63.274.63.629 0 .344-.286.641-.63.641" transform="translate(164.0304 64.905)"/><path d="m0 1.717-.927-2.46-.927 2.46zm.469 1.259h-2.781l-.561 1.488c-.103.251-.343.4-.595.4-.08 0-.148-.011-.218-.034-.331-.126-.491-.492-.376-.824l2.529-6.741c.102-.252.354-.412.606-.401.263-.011.503.149.607.401l2.529 6.741c.114.332-.046.698-.378.824-.058.023-.138.034-.218.034-.252 0-.492-.149-.583-.4z" transform="translate(172.1734 61.311)"/><path d="m0 5.469h.709c1.511-.011 2.724-1.224 2.724-2.747 0-1.499-1.213-2.723-2.724-2.723h-.709zm-1.271.641v-6.752c0-.355.275-.629.629-.629h1.351c2.209 0 3.994 1.796 3.994 3.993 0 2.221-1.785 4.018-3.994 4.018h-1.351c-.354 0-.629-.287-.629-.63" transform="translate(186.8414 59.435)"/><path d="m0 6.752v-6.752c0-.355.274-.629.629-.629h3.742c.332 0 .63.274.63.629s-.298.641-.63.641h-3.1v2.094h2.666c.343 0 .629.298.629.629 0 .355-.286.641-.629.641h-2.666v2.106h3.1c.332 0 .63.286.63.641 0 .343-.298.629-.63.629h-3.708c-.022 0-.022-.011-.022-.011l-.012.011c-.355 0-.629-.286-.629-.629" transform="translate(196.3224 58.793)"/><path d="m0 6.752c0 .343-.286.629-.618.629-.355 0-.63-.286-.63-.629v-6.661c-.011-.194.08-.4.252-.526.286-.194.676-.137.87.137l3.696 5.116v-4.715c0-.332.275-.618.618-.618s.629.286.629.618v6.649c0 .343-.286.629-.629.629-.183 0-.354-.091-.469-.229-.023-.023-.045-.045-.057-.068l-3.662-5.082z" transform="translate(207.4624 58.793)"/><path d="m0 4.269c.206-.252.584-.286.835-.08.504.412 1.374.892 2.186.881.573 0 1.087-.172 1.431-.424.343-.251.491-.537.491-.823 0-.149-.034-.252-.102-.366-.069-.115-.172-.23-.344-.344-.331-.218-.893-.412-1.567-.538h-.023c-.538-.103-1.042-.24-1.476-.446-.436-.206-.813-.492-1.065-.893-.172-.275-.263-.595-.263-.938 0-.687.389-1.282.916-1.671.538-.389 1.236-.607 1.979-.607 1.099 0 1.911.539 2.495.916.263.183.344.549.16.812-.172.275-.538.355-.812.172-.584-.389-1.145-.732-1.843-.732-.515 0-.973.16-1.281.389-.31.229-.436.481-.436.721 0 .137.024.229.08.32.058.092.161.195.31.298.298.206.812.389 1.431.503h.022c.584.115 1.122.264 1.579.481.47.229.882.526 1.145.95.172.274.274.618.274.973 0 .732-.411 1.362-.983 1.774-.562.411-1.305.652-2.118.652-1.236-.012-2.277-.629-2.929-1.145-.252-.206-.286-.583-.092-.835" transform="translate(217.8714 59.915)"/><path d="m0-6.752c0-.355.274-.629.629-.629.344 0 .642.274.642.629v6.752c0 .355-.298.629-.642.629-.355 0-.629-.274-.629-.629z" transform="translate(228.9324 65.546)"/><path d="m0 5.469h.709c1.511-.011 2.724-1.224 2.724-2.747 0-1.499-1.213-2.723-2.724-2.723h-.709zm-1.271.641v-6.752c0-.355.275-.629.629-.629h1.351c2.209 0 3.994 1.796 3.994 3.993 0 2.221-1.785 4.018-3.994 4.018h-1.351c-.354 0-.629-.287-.629-.63" transform="translate(236.7054 59.435)"/><path d="m0 1.717-.927-2.46-.927 2.46zm.469 1.259h-2.781l-.561 1.488c-.103.251-.343.4-.595.4-.08 0-.148-.011-.218-.034-.331-.126-.491-.492-.376-.824l2.529-6.741c.102-.252.354-.412.606-.401.263-.011.503.149.607.401l2.529 6.741c.114.332-.046.698-.378.824-.058.023-.138.034-.218.034-.252 0-.492-.149-.583-.4z" transform="translate(249.6314 61.311)"/><path d="m0 5.469h.709c1.511-.011 2.724-1.224 2.724-2.747 0-1.499-1.213-2.723-2.724-2.723h-.709zm-1.271.641v-6.752c0-.355.275-.629.629-.629h1.351c2.209 0 3.994 1.796 3.994 3.993 0 2.221-1.785 4.018-3.994 4.018h-1.351c-.354 0-.629-.287-.629-.63" transform="translate(257.7734 59.435)"/></g><path d="m0 13.837h17.09c.478 0 .883.167 1.214.501.329.335.495.744.495 1.228 0 .485-.166.895-.495 1.229-.331.334-.736.501-1.214.501h-30.374c1.211-2.562 1.941-5.324 2.168-8.299.085.09.159.185.247.274 3.008 3.044 6.631 4.566 10.869 4.566m-69.898-13.838h-17.09c-.479 0-.883-.167-1.213-.501-.331-.334-.496-.744-.496-1.228s.165-.894.496-1.228c.33-.334.734-.502 1.213-.502h28.113v8.196c-.054-.055-.1-.115-.154-.17-3.008-3.045-6.631-4.567-10.869-4.567m1.213 16.796c-.331.334-.735.501-1.213.501h-28.114v-8.197c.054.056.1.116.155.172 3.007 3.044 6.63 4.566 10.869 4.566h17.09c.478 0 .882.167 1.213.501.33.335.496.744.496 1.228 0 .485-.166.895-.496 1.229m-107.001.501v-3.459h26.405v-13.838h-26.405v-3.459h29.823v20.756zm175.686-20.756h32.471v-13.837h-32.471c-4.238 0-7.861 1.522-10.869 4.566-.055.056-.101.115-.154.172v-4.738h-13.672v24.215c0 2.86-1.003 5.305-3.008 7.334-2.005 2.03-4.421 3.044-7.246 3.044s-5.241-1.014-7.246-3.044c-2.006-2.029-3.008-4.474-3.008-7.334v-24.215h-41.785c-4.239 0-7.862 1.522-10.869 4.566-.055.056-.101.115-.155.172v-4.738h-13.672v26.913l-17.088-26.913h-60.585v48.431h57.166v-26.914l17.089 26.914h45.204c4.238 0 7.861-1.522 10.869-4.567 1.913-1.936 3.212-4.126 3.908-6.566.92 1.416 1.994 2.767 3.253 4.041 4.671 4.728 10.31 7.092 16.919 7.092h52.039c4.238 0 7.861-1.522 10.869-4.567 3.008-3.044 4.512-6.71 4.512-11.001 0-4.289-1.504-7.956-4.512-11-3.008-3.045-6.631-4.567-10.869-4.567h-17.09c-.479 0-.883-.167-1.213-.501-.331-.334-.496-.744-.496-1.228s.165-.894.496-1.228c.33-.334.734-.502 1.213-.502" fill="#3c3c3b" transform="translate(231.0184 18.133)"/><path d="m0 47.795c.623-.567 1.226-1.159 1.8-1.784 2.621-2.857 4.665-6.185 6.133-9.987 1.467-3.8 2.202-7.875 2.202-12.227 0-4.297-.735-8.361-2.202-12.188-1.468-3.826-3.512-7.155-6.133-9.986-.525-.567-1.075-1.103-1.641-1.623h-.159z" fill="#1d1d1b" transform="translate(41.6614 .836)"/><path d="m0-21.066c.035.169.08.337.149.498-.262-.165-.561-.266-.879-.278-.478-.012-.943.151-1.296.478-.063.058-.115.123-.167.188.031-.304.032-.608.016-.91h1.635c.184 0 .361.016.542.024m-.193 20.269c.798-.513 1.708-.777 2.634-.777.353 0 .708.039 1.061.116.321.07.627.173.917.3-1.491.786-3.145 1.182-4.961 1.182h-.603c.283-.306.591-.59.952-.821m-11.61.821v-1.644c.37.205.69.509.904.909.124.233.197.482.234.735zm7.907-18.214c-1.429 2.296-4.463 3.001-6.756 1.573-.453-.282-.826-.639-1.151-1.028v-3.445h8.626c.064.986-.158 1.999-.719 2.9m.705.731c.046-.069.1-.131.145-.203.198-.319.359-.651.49-.989.065.293.2.566.403.797-.366.092-.71.227-1.038.395m-3.176 6.668c.432-.759.543-1.641.312-2.483-.19-.692-.595-1.264-1.119-1.68.695-.106 1.369-.331 1.987-.674-.473.766-.759 1.659-.759 2.623 0 1.234.465 2.351 1.206 3.226-.332-.058-.671-.095-1.019-.095-.643 0-1.261.107-1.842.298.508-.286.938-.696 1.234-1.215m-4.864-4.187c.066-.248.103-.504.093-.767.211.129.427.242.648.342-.266.113-.518.249-.741.425m-.193 5.137c.012-.047.022-.095.031-.142.047.042.098.078.147.118-.06.004-.119.013-.178.024m-.249 2.54c-.052-.033-.086-.08-.13-.119v-1.511c.004-.007.009-.012.013-.019.186-.157.42-.245.659-.245.186 0 .372.049.54.154.401.248.551.727.423 1.159-.167.187-.325.381-.467.588-.316.178-.711.196-1.038-.007m.18 4.72c-.099-.048-.207-.07-.31-.108v-3.936c.217.094.442.156.668.156.012 0 .025-.005.036-.005-.358.762-.565 1.609-.565 2.506 0 .479.063.941.171 1.387m3.103-6.666c-.386.193-.752.424-1.084.695-.055-.24-.167-.465-.32-.662.192.035.384.075.58.075.275 0 .552-.037.824-.108m-.219-.974c-.58.161-1.194.085-1.723-.217-.526-.299-.904-.787-1.064-1.372-.162-.584-.084-1.196.215-1.723.3-.527.787-.905 1.372-1.065.201-.055.402-.081.6-.081.996 0 1.913.663 2.189 1.67.161.584.083 1.196-.216 1.723-.3.526-.787.905-1.373 1.065m7.326 2.198c-.024.049-.04.099-.059.148-.051-.057-.1-.114-.153-.169.07.008.141.017.212.021m-.77-11.068c.014-.335.156-.644.402-.871.233-.216.533-.333.849-.333h.05c.334.013.644.156.871.401.469.507.438 1.302-.069 1.77-.084.078-.184.121-.28.171-.23-.032-.458-.071-.698-.071-.168 0-.326.034-.49.05-.106-.062-.215-.123-.303-.218-.227-.246-.344-.565-.332-.899m1.125 2.067c2.216 0 4.019 1.803 4.019 4.019s-1.803 4.019-4.019 4.019-4.018-1.803-4.018-4.019 1.802-4.019 4.018-4.019m1.921-.614c-.16-.067-.333-.106-.501-.156.468-.485.613-1.172.424-1.785.167.13.346.245.541.329-.312.308-.497.714-.514 1.155-.006.156.016.308.05.457m2.376-2.742c-.038.029-.061.072-.102.098-.34.217-.745.29-1.138.203-.395-.086-.732-.321-.949-.661-.047-.073-.084-.151-.118-.229.804.111 1.575.304 2.307.589m4.928 13.753c-.23-.06-.462-.088-.694-.098.11-.172.204-.353.281-.545.34.447.823.786 1.408.924-.021.047-.046.092-.067.138-.286-.181-.591-.332-.928-.419m-4.065 3.589c.038.284.123.559.236.827-.228-.083-.461-.155-.703-.21.193-.185.343-.395.467-.617m.508-2.195c-.081.125-.161.249-.224.385-.03-.146-.069-.29-.123-.431.116.018.231.042.347.046m.08-6.507c-.32.003-.641.042-.955.143.094-.319.155-.648.184-.989.222.311.482.591.771.846m3.212 1.257c-.119.128-.221.268-.311.418-.01-.018-.015-.038-.026-.056-.087-.152-.193-.285-.299-.417.212.031.424.051.636.055m1.514 3.173c-.814-.178-1.33-.985-1.152-1.798.086-.395.321-.731.661-.949.246-.157.526-.239.811-.239.088 0 .177.013.265.029-.024 1.045-.182 2.036-.48 2.97-.035-.005-.07-.005-.105-.013m-2.537-10.684c1.729 1.71 2.732 3.713 3.029 6.001-.853.471-1.83.63-2.789.42-2.164-.475-3.539-2.622-3.064-4.786.24-1.094.914-1.976 1.794-2.529.352.275.698.567 1.03.894m-4.376.683c-.193-.007-.37-.089-.5-.23-.131-.141-.198-.324-.191-.515.008-.192.089-.369.231-.5.138-.128.312-.191.487-.191.194 0 .386.078.528.23.13.141.198.325.19.516-.008.192-.089.37-.231.5-.14.13-.338.192-.514.19m.555.912c-.029.157-.042.313-.054.47-.101-.139-.213-.267-.326-.395.13-.011.257-.035.38-.075m-.29 9.047c-.625-1.083-.252-2.474.831-3.1.357-.206.747-.303 1.131-.303.786 0 1.55.407 1.97 1.134.303.525.383 1.137.227 1.722-.158.585-.533 1.075-1.058 1.378-.524.304-1.137.383-1.722.227-.586-.157-1.075-.533-1.379-1.058m-.956.409c.006-.028.007-.057.012-.085.014.027.023.055.037.082-.016 0-.032.003-.049.003m-.564-1.631c.076-.04.152-.079.226-.123-.008.123.004.248.01.372-.031-.04-.055-.083-.091-.12-.044-.049-.096-.087-.145-.129m-1.063 4.19c.017-.435.203-.839.523-1.135.313-.29.712-.433 1.108-.433.44 0 .878.176 1.2.523.611.661.571 1.696-.09 2.307-.32.296-.714.447-1.173.433-.436-.017-.839-.203-1.135-.523s-.45-.736-.433-1.172m-.58-2.407c-.131-.141-.198-.324-.191-.516.008-.192.089-.369.23-.499.138-.128.313-.191.488-.191.193 0 .385.077.527.23.131.141.198.325.191.516-.007.192-.088.37-.23.499-.141.13-.31.206-.516.191-.191-.007-.369-.089-.499-.23m.242 4.209c.013.016.022.034.037.049.116.127.244.239.38.339-.21.078-.418.165-.618.267.079-.213.146-.431.201-.655m7.032-.49c-.405.399-.829.748-1.266 1.07-.082-.098-.16-.2-.226-.313-.308-.522-.393-1.133-.24-1.72s.526-1.079 1.048-1.385c.353-.208.746-.313 1.145-.313.191 0 .384.024.575.074.263.068.502.186.719.337-.468.797-1.047 1.549-1.755 2.25m-1.887-16.421c-.319.241-.616.513-.872.824-.076-.189-.182-.369-.328-.527-.068-.074-.145-.137-.223-.196.034-.019.073-.027.107-.048.213-.137.392-.309.551-.497.261.135.514.286.765.444m-13.712 19.517c-1.251-.89-2.074-2.343-2.074-3.992 0-2.705 2.2-4.906 4.905-4.906s4.906 2.201 4.906 4.906c0 1.649-.824 3.102-2.075 3.992zm25.678-27.977c-4.867-4.809-10.744-7.214-17.63-7.214h-24.933v49.268h24.933c6.886 0 12.763-2.405 17.63-7.215 4.868-4.808 7.302-10.615 7.302-17.419s-2.434-12.61-7.302-17.42" fill="#009fe3" transform="translate(25.4754 35.167)"/></g></svg>