<svg fill="none" height="33" viewBox="0 0 32 33" width="32" xmlns="http://www.w3.org/2000/svg"><g fill="#fff"><path d="m16.1909 32.2544c-2.7083 0-5.3632-.6709-7.61465-1.9428-2.67131-1.5106-4.91867-3.9514-6.31813-6.8697-1.40357-2.9182-1.905727-6.1987-1.415918-9.2281.563898-3.4863 2.350258-6.82031 5.021578-9.39695 2.22266-2.14034 5.12452-3.65093 8.17442-4.264223 1.56-.312819 3.1076-.378676 4.6059-.201686 1.5847.189338 3.0706.650339 4.4247 1.366529 3.297 1.75343 6.3923 5.54431 7.8864 9.66033 1.0455 2.8854 1.1648 6.1988.3334 9.3311-.8315 3.1323-2.5849 5.9477-4.9269 7.9275-2.3503 1.9839-5.4167 3.2434-8.6396 3.548-.5104.0453-1.0249.07-1.5312.07zm.7821-30.35171c-3.511 0-7.19898 1.43238-9.96497 4.09546-2.42023 2.32968-4.03372 5.33855-4.53999 8.47495-.90553 5.569 2.00451 11.6278 6.91495 14.402 4.91041 2.7742 11.59901 2.1486 15.90851-1.4982 4.3095-3.6386 6.0382-10.1337 4.1119-15.4352-1.3624-3.75381-4.1531-7.19483-7.1125-8.76715-1.6053-.85614-3.4369-1.27186-5.3179-1.27186z"/><path d="m25.0117 23.9359-9.9485-6.9067.3087-9.61924 1.6465.05351-.2841 8.72193 9.2159 6.3963z"/></g></svg>