<svg clip-rule="evenodd" fill-rule="evenodd" stroke-linejoin="round" stroke-miterlimit="2" viewBox="0 0 462 423" xmlns="http://www.w3.org/2000/svg" xmlns:xlink="http://www.w3.org/1999/xlink"><linearGradient id="a"><stop offset="0" stop-color="#1eb3e9"/><stop offset="1" stop-color="#005589"/></linearGradient><linearGradient id="b" gradientTransform="matrix(1 0 0 -1 0 -.000007)" gradientUnits="userSpaceOnUse" x1="0" x2="1" xlink:href="#a" y1="0" y2="0"/><linearGradient id="c" gradientTransform="matrix(1 0 0 -1 0 -.000005)" gradientUnits="userSpaceOnUse" x1="0" x2="1" xlink:href="#a" y1="0" y2="0"/><linearGradient id="d" gradientTransform="matrix(1 0 0 -1 0 .000005)" gradientUnits="userSpaceOnUse" x1="0" x2="1" xlink:href="#a" y1="0" y2="0"/><linearGradient id="e" gradientTransform="matrix(1 0 0 -1 0 -.000004)" gradientUnits="userSpaceOnUse" x1="0" x2="1" xlink:href="#a" y1="0" y2="0"/><linearGradient id="f" gradientTransform="matrix(1 0 0 -1 0 .000007)" gradientUnits="userSpaceOnUse" x1="0" x2="1" xlink:href="#a" y1="0" y2="0"/><linearGradient id="g" gradientTransform="matrix(1 0 0 -1 0 -.000002)" gradientUnits="userSpaceOnUse" x1="0" x2="1" xlink:href="#a" y1="0" y2="0"/><linearGradient id="h" gradientTransform="matrix(1 0 0 -1 0 -.000006)" gradientUnits="userSpaceOnUse" x1="0" x2="1" xlink:href="#a" y1="0" y2="0"/><linearGradient id="i" gradientTransform="matrix(1 0 0 -1 0 .000001)" gradientUnits="userSpaceOnUse" x1="0" x2="1" xlink:href="#a" y1="0" y2="0"/><linearGradient id="j" gradientTransform="scale(1 -1)" gradientUnits="userSpaceOnUse" x1="0" x2="1" xlink:href="#a" y1="0" y2="0"/><linearGradient id="k" gradientTransform="matrix(1 0 0 -1 0 .000004)" gradientUnits="userSpaceOnUse" x1="0" x2="1" xlink:href="#a" y1="0" y2="0"/><linearGradient id="l" gradientTransform="matrix(1 0 0 -1 0 .000009)" gradientUnits="userSpaceOnUse" x1="0" x2="1" xlink:href="#a" y1="0" y2="0"/><linearGradient id="m" gradientTransform="matrix(1 0 0 -1 0 -.000001)" gradientUnits="userSpaceOnUse" x1="0" x2="1" xlink:href="#a" y1="0" y2="0"/><linearGradient id="n" gradientTransform="matrix(1 0 0 -1 0 .00001)" gradientUnits="userSpaceOnUse" x1="0" x2="1" xlink:href="#a" y1="0" y2="0"/><linearGradient id="o" gradientTransform="matrix(1 0 0 -1 0 .000003)" gradientUnits="userSpaceOnUse" x1="0" x2="1" xlink:href="#a" y1="0" y2="0"/><linearGradient id="p" gradientTransform="matrix(1 0 0 -1 0 .000002)" gradientUnits="userSpaceOnUse" x1="0" x2="1" xlink:href="#a" y1="0" y2="0"/><g fill-rule="nonzero"><path d="m.88-.108-.109.108.109.108-.047.046-.108-.108-.108.108-.046-.046.108-.108-.108-.108.046-.046.108.108.108-.108z" fill="url(#b)" transform="matrix(-356.177784942 -356.177784942 -356.177784942 356.177784942 351.83866047 463.20102291)"/><path d="m.406-.059-.059.059.059.059-.025.025-.059-.059-.059.059-.025-.025.059-.059-.059-.059.025-.025.059.059.059-.059z" fill="url(#c)" transform="matrix(-356.177784942 -356.177784942 -356.177784942 356.177784942 328.88030877 486.15937461)"/><path d="m.571-.089-.089.089.089.089-.038.039-.089-.09-.09.09-.038-.039.09-.089-.09-.089.038-.039.09.09.089-.09z" fill="url(#d)" transform="matrix(-356.177784942 -356.177784942 -356.177784942 356.177784942 539.95131096 275.08837242)"/><path d="m.315-.08-.079.08.079.08-.034.034-.079-.08-.08.08-.034-.034.08-.08-.08-.08.034-.034.08.08.079-.08z" fill="url(#e)" transform="matrix(-356.177784942 -356.177784942 -356.177784942 356.177784942 416.32621206 398.71347132)"/><path d="m.873-.063-.064.063.064.063-.027.027-.064-.063-.063.063-.027-.027.063-.063-.063-.063.027-.027.063.063.064-.063z" fill="url(#e)" transform="matrix(-356.177784942 -356.177784942 -356.177784942 356.177784942 481.63876431 333.40091907)"/><path d="m.225-.038-.038.038.038.038-.016.016-.038-.038-.037.038-.016-.016.037-.038-.037-.038.016-.016.037.038.038-.038z" fill="url(#f)" transform="matrix(-356.177784942 -356.177784942 -356.177784942 356.177784942 488.23876959 326.79674712)"/><path d="m.674-.037-.037.037.037.037-.016.016-.037-.037-.037.037-.016-.016.037-.037-.037-.037.016-.016.037.037.037-.037z" fill="url(#g)" transform="matrix(-356.177784942 -356.177784942 -356.177784942 356.177784942 546.18464928 268.8550341)"/><path d="m.524-.037-.036.037.036.037-.015.016-.037-.037-.037.037-.016-.016.037-.037-.037-.037.016-.016.037.037.037-.037z" fill="url(#e)" transform="matrix(-356.177784942 -356.177784942 -356.177784942 356.177784942 331.54697757 483.49270581)"/><path d="m.686-.029-.029.029.029.029-.013.012-.028-.029-.029.029-.012-.012.029-.029-.029-.029.012-.012.029.029.028-.029z" fill="url(#h)" transform="matrix(-356.177784942 -356.177784942 -356.177784942 356.177784942 505.74711693 309.29256645)"/><path d="m.491-.029-.029.029.029.029-.012.012-.029-.029-.029.029-.012-.012.029-.029-.029-.029.012-.012.029.029.029-.029z" fill="url(#g)" transform="matrix(-356.177784942 -356.177784942 -356.177784942 356.177784942 291.84694581 523.19273757)"/><path d="m.217-.028-.028.028.028.028-.012.012-.028-.028-.028.028-.012-.012.028-.028-.028-.028.012-.012.028.028.028-.028z" fill="url(#g)" transform="matrix(-356.177784942 -356.177784942 -356.177784942 356.177784942 364.68450408 450.3551793)"/><path d="m.342-.029-.029.029.029.029-.012.012-.029-.029-.028.029-.013-.012.029-.029-.029-.029.013-.012.028.029.029-.029z" fill="url(#e)" transform="matrix(-356.177784942 -356.177784942 -356.177784942 356.177784942 534.29713977 280.74254361)"/><path d="m.321-.028-.028.028.028.028-.012.013-.028-.029-.029.029-.012-.013.029-.028-.029-.028.012-.013.029.029.028-.029z" fill="url(#i)" transform="matrix(-356.177784942 -356.177784942 -356.177784942 356.177784942 487.21376877 327.82174794)"/><path d="m.846-.033-.033.033.033.033-.014.015-.033-.034-.034.034-.014-.015.033-.033-.033-.033.014-.015.034.034.033-.034z" fill="url(#j)" transform="matrix(-356.177784942 -356.177784942 -356.177784942 356.177784942 429.39288918 385.6467942)"/><path d="m.88-.023-.022.023.022.023-.009.009-.023-.022-.023.022-.009-.009.022-.023-.022-.023.009-.009.023.022.023-.022z" fill="url(#k)" transform="matrix(-356.177784942 -356.177784942 -356.177784942 356.177784942 351.63866031 463.40102307)"/><path d="m.582-.027-.027.027.027.027-.011.012-.027-.027-.027.027-.012-.012.027-.027-.027-.027.012-.012.027.027.027-.027z" fill="url(#l)" transform="matrix(-356.177784942 -356.177784942 -356.177784942 356.177784942 288.92194347 526.11773991)"/><path d="m.221-.016-.017.016.017.016-.007.007-.017-.016-.016.016-.007-.007.016-.016-.016-.016.007-.007.016.016.017-.016z" fill="url(#g)" transform="matrix(-356.177784942 -356.177784942 -356.177784942 356.177784942 451.76790708 363.2717763)"/><path d="m.596-.02-.02.02.02.02-.008.008-.02-.02-.02.02-.008-.008.02-.02-.02-.02.008-.008.02.02.02-.02z" fill="url(#m)" transform="matrix(-356.177784942 -356.177784942 -356.177784942 356.177784942 333.87197943 481.16770395)"/><path d="m.751-.02-.02.02.02.02-.008.008-.02-.02-.02.02-.008-.008.02-.02-.02-.02.008-.008.02.02.02-.02z" fill="url(#n)" transform="matrix(-356.177784942 -356.177784942 -356.177784942 356.177784942 312.47612898 502.5635544)"/><path d="m.251-.016-.016.016.016.016-.007.007-.016-.016-.017.016-.007-.007.017-.016-.017-.016.007-.007.017.016.016-.016z" fill="url(#h)" transform="matrix(-356.177784942 -356.177784942 -356.177784942 356.177784942 332.45114496 482.58853842)"/><path d="m.335-.016-.016.016.016.016-.007.007-.016-.016-.017.016-.007-.007.017-.016-.017-.016.007-.007.017.016.016-.016z" fill="url(#i)" transform="matrix(-356.177784942 -356.177784942 -356.177784942 356.177784942 362.39283558 452.64268113)"/><path d="m.927-.025-.025.025.025.025-.011.011-.025-.025-.025.025-.011-.011.025-.025-.025-.025.011-.011.025.025.025-.025z" fill="url(#o)" transform="matrix(-356.177784942 -356.177784942 -356.177784942 356.177784942 418.7928807 396.24680268)"/><path d="m.24-.016-.016.016.016.016-.007.007-.016-.016-.017.016-.007-.007.017-.016-.017-.016.007-.007.017.016.016-.016z" fill="url(#k)" transform="matrix(-356.177784942 -356.177784942 -356.177784942 356.177784942 524.08879827 290.95088511)"/><path d="m.47-.016-.017.016.017.016-.007.007-.017-.016-.016.016-.007-.007.016-.016-.016-.016.007-.007.016.016.017-.016z" fill="url(#p)" transform="matrix(-356.177784942 -356.177784942 -356.177784942 356.177784942 504.58044933 310.45923405)"/><path d="m.929-.016-.017.016.017.016-.007.007-.017-.016-.016.016-.007-.007.016-.016-.016-.016.007-.007.016.016.017-.016z" fill="url(#e)" transform="matrix(-356.177784942 -356.177784942 -356.177784942 356.177784942 448.75957134 366.28011204)"/><g fill="url(#g)"><path d="m.75-.016-.016.016.016.016-.007.007-.016-.016-.017.016-.007-.007.017-.016-.017-.016.007-.007.017.016.016-.016z" transform="matrix(-356.177784942 -356.177784942 -356.177784942 356.177784942 390.46369137 424.57599201)"/><path d="m.778-.021-.022.021.022.021-.009.01-.022-.022-.021.022-.009-.01.021-.021-.021-.021.009-.01.021.022.022-.022z" transform="matrix(-356.177784942 -356.177784942 -356.177784942 356.177784942 529.92213627 285.11754711)"/></g></g></svg>