<svg clip-rule="evenodd" fill-rule="evenodd" stroke-linejoin="round" stroke-miterlimit="2" viewBox="0 0 2119 423" xmlns="http://www.w3.org/2000/svg" xmlns:xlink="http://www.w3.org/1999/xlink"><linearGradient id="a"><stop offset="0" stop-color="#1eb3e9"/><stop offset="1" stop-color="#005589"/></linearGradient><linearGradient id="b" gradientTransform="matrix(1 0 0 -1 0 -.000007)" gradientUnits="userSpaceOnUse" x1="0" x2="1" xlink:href="#a" y1="0" y2="0"/><linearGradient id="c" gradientTransform="matrix(1 0 0 -1 0 -.000005)" gradientUnits="userSpaceOnUse" x1="0" x2="1" xlink:href="#a" y1="0" y2="0"/><linearGradient id="d" gradientTransform="matrix(1 0 0 -1 0 .000005)" gradientUnits="userSpaceOnUse" x1="0" x2="1" xlink:href="#a" y1="0" y2="0"/><linearGradient id="e" gradientTransform="matrix(1 0 0 -1 0 -.000004)" gradientUnits="userSpaceOnUse" x1="0" x2="1" xlink:href="#a" y1="0" y2="0"/><linearGradient id="f" gradientTransform="matrix(1 0 0 -1 0 .000007)" gradientUnits="userSpaceOnUse" x1="0" x2="1" xlink:href="#a" y1="0" y2="0"/><linearGradient id="g" gradientTransform="matrix(1 0 0 -1 0 -.000002)" gradientUnits="userSpaceOnUse" x1="0" x2="1" xlink:href="#a" y1="0" y2="0"/><linearGradient id="h" gradientTransform="matrix(1 0 0 -1 0 -.000006)" gradientUnits="userSpaceOnUse" x1="0" x2="1" xlink:href="#a" y1="0" y2="0"/><linearGradient id="i" gradientTransform="matrix(1 0 0 -1 0 .000001)" gradientUnits="userSpaceOnUse" x1="0" x2="1" xlink:href="#a" y1="0" y2="0"/><linearGradient id="j" gradientTransform="scale(1 -1)" gradientUnits="userSpaceOnUse" x1="0" x2="1" xlink:href="#a" y1="0" y2="0"/><linearGradient id="k" gradientTransform="matrix(1 0 0 -1 0 .000004)" gradientUnits="userSpaceOnUse" x1="0" x2="1" xlink:href="#a" y1="0" y2="0"/><linearGradient id="l" gradientTransform="matrix(1 0 0 -1 0 .000009)" gradientUnits="userSpaceOnUse" x1="0" x2="1" xlink:href="#a" y1="0" y2="0"/><linearGradient id="m" gradientTransform="matrix(1 0 0 -1 0 -.000001)" gradientUnits="userSpaceOnUse" x1="0" x2="1" xlink:href="#a" y1="0" y2="0"/><linearGradient id="n" gradientTransform="matrix(1 0 0 -1 0 .00001)" gradientUnits="userSpaceOnUse" x1="0" x2="1" xlink:href="#a" y1="0" y2="0"/><linearGradient id="o" gradientTransform="matrix(1 0 0 -1 0 .000003)" gradientUnits="userSpaceOnUse" x1="0" x2="1" xlink:href="#a" y1="0" y2="0"/><linearGradient id="p" gradientTransform="matrix(1 0 0 -1 0 .000002)" gradientUnits="userSpaceOnUse" x1="0" x2="1" xlink:href="#a" y1="0" y2="0"/><g fill-rule="nonzero"><path d="m0 3.199c10.632 0 17.263-5.945 17.263-14.291v-.228c0-9.375-6.744-14.292-17.263-14.292h-16.349v28.811zm-30.412-41.615h31.555c18.75 0 30.412 10.632 30.412 26.753v.228c0 17.95-14.406 27.326-32.012 27.326h-15.892v25.724h-14.063z" fill="#e20817" transform="matrix(4.16667 0 0 4.16667 1044.94305832 194.35080783)"/><path d="m0-80.031h14.063v67.227h42.073v12.804h-56.136z" fill="#e20817" transform="matrix(4.16667 0 0 4.16667 1236.42654484 367.74677988)"/><path d="m0 10.862v-46.075h14.063v45.502c0 14.864 7.66 22.753 20.237 22.753 12.462 0 20.121-7.432 20.121-22.18v-46.075h14.063v45.388c0 23.895-13.491 35.9-34.414 35.9-20.807 0-34.07-12.005-34.07-35.213" fill="#e20817" transform="matrix(4.16667 0 0 4.16667 1516.98926929 181.00496382)"/><path d="m0 56.706 8.461-10.061c7.659 6.631 15.434 10.405 25.266 10.405 8.689 0 14.176-4.116 14.176-10.062v-.229c0-5.716-3.201-8.803-18.063-12.233-17.036-4.116-26.639-9.146-26.639-23.895v-.229c0-13.719 11.433-23.208 27.324-23.208 11.663 0 20.923 3.544 29.04 10.06l-7.545 10.634c-7.203-5.374-14.406-8.233-21.723-8.233-8.233 0-13.033 4.232-13.033 9.49v.228c0 6.174 3.659 8.919 19.092 12.578 16.921 4.116 25.611 10.174 25.611 23.437v.229c0 14.977-11.776 23.895-28.582 23.895-12.234 0-23.782-4.231-33.385-12.806" fill="#e20817" transform="matrix(4.16667 0 0 4.16667 1860.43121071 82.87988532)"/><path d="m.88-.108-.109.108.109.108-.047.046-.108-.108-.108.108-.046-.046.108-.108-.108-.108.046-.046.108.108.108-.108z" fill="url(#b)" transform="matrix(-356.177784942 -356.177784942 -356.177784942 356.177784942 755.96366047 463.20102291)"/><path d="m.406-.059-.059.059.059.059-.025.025-.059-.059-.059.059-.025-.025.059-.059-.059-.059.025-.025.059.059.059-.059z" fill="url(#c)" transform="matrix(-356.177784942 -356.177784942 -356.177784942 356.177784942 733.00530877 486.15937461)"/><path d="m.571-.089-.089.089.089.089-.038.039-.089-.09-.09.09-.038-.039.09-.089-.09-.089.038-.039.09.09.089-.09z" fill="url(#d)" transform="matrix(-356.177784942 -356.177784942 -356.177784942 356.177784942 944.07631096 275.08837242)"/><path d="m.315-.08-.079.08.079.08-.034.034-.079-.08-.08.08-.034-.034.08-.08-.08-.08.034-.034.08.08.079-.08z" fill="url(#e)" transform="matrix(-356.177784942 -356.177784942 -356.177784942 356.177784942 820.45121206 398.71347132)"/><path d="m.873-.063-.064.063.064.063-.027.027-.064-.063-.063.063-.027-.027.063-.063-.063-.063.027-.027.063.063.064-.063z" fill="url(#e)" transform="matrix(-356.177784942 -356.177784942 -356.177784942 356.177784942 885.76376431 333.40091907)"/><path d="m.225-.038-.038.038.038.038-.016.016-.038-.038-.037.038-.016-.016.037-.038-.037-.038.016-.016.037.038.038-.038z" fill="url(#f)" transform="matrix(-356.177784942 -356.177784942 -356.177784942 356.177784942 892.36376959 326.79674712)"/><path d="m.674-.037-.037.037.037.037-.016.016-.037-.037-.037.037-.016-.016.037-.037-.037-.037.016-.016.037.037.037-.037z" fill="url(#g)" transform="matrix(-356.177784942 -356.177784942 -356.177784942 356.177784942 950.30964928 268.8550341)"/><path d="m.524-.037-.036.037.036.037-.015.016-.037-.037-.037.037-.016-.016.037-.037-.037-.037.016-.016.037.037.037-.037z" fill="url(#e)" transform="matrix(-356.177784942 -356.177784942 -356.177784942 356.177784942 735.67197757 483.49270581)"/><path d="m.686-.029-.029.029.029.029-.013.012-.028-.029-.029.029-.012-.012.029-.029-.029-.029.012-.012.029.029.028-.029z" fill="url(#h)" transform="matrix(-356.177784942 -356.177784942 -356.177784942 356.177784942 909.87211693 309.29256645)"/><path d="m.491-.029-.029.029.029.029-.012.012-.029-.029-.029.029-.012-.012.029-.029-.029-.029.012-.012.029.029.029-.029z" fill="url(#g)" transform="matrix(-356.177784942 -356.177784942 -356.177784942 356.177784942 695.97194581 523.19273757)"/><path d="m.217-.028-.028.028.028.028-.012.012-.028-.028-.028.028-.012-.012.028-.028-.028-.028.012-.012.028.028.028-.028z" fill="url(#g)" transform="matrix(-356.177784942 -356.177784942 -356.177784942 356.177784942 768.80950408 450.3551793)"/><path d="m.342-.029-.029.029.029.029-.012.012-.029-.029-.028.029-.013-.012.029-.029-.029-.029.013-.012.028.029.029-.029z" fill="url(#e)" transform="matrix(-356.177784942 -356.177784942 -356.177784942 356.177784942 938.42213977 280.74254361)"/><path d="m.321-.028-.028.028.028.028-.012.013-.028-.029-.029.029-.012-.013.029-.028-.029-.028.012-.013.029.029.028-.029z" fill="url(#i)" transform="matrix(-356.177784942 -356.177784942 -356.177784942 356.177784942 891.33876877 327.82174794)"/><path d="m.846-.033-.033.033.033.033-.014.015-.033-.034-.034.034-.014-.015.033-.033-.033-.033.014-.015.034.034.033-.034z" fill="url(#j)" transform="matrix(-356.177784942 -356.177784942 -356.177784942 356.177784942 833.51788918 385.6467942)"/><path d="m.88-.023-.022.023.022.023-.009.009-.023-.022-.023.022-.009-.009.022-.023-.022-.023.009-.009.023.022.023-.022z" fill="url(#k)" transform="matrix(-356.177784942 -356.177784942 -356.177784942 356.177784942 755.76366031 463.40102307)"/><path d="m.582-.027-.027.027.027.027-.011.012-.027-.027-.027.027-.012-.012.027-.027-.027-.027.012-.012.027.027.027-.027z" fill="url(#l)" transform="matrix(-356.177784942 -356.177784942 -356.177784942 356.177784942 693.04694347 526.11773991)"/><path d="m.221-.016-.017.016.017.016-.007.007-.017-.016-.016.016-.007-.007.016-.016-.016-.016.007-.007.016.016.017-.016z" fill="url(#g)" transform="matrix(-356.177784942 -356.177784942 -356.177784942 356.177784942 855.89290708 363.2717763)"/><path d="m.596-.02-.02.02.02.02-.008.008-.02-.02-.02.02-.008-.008.02-.02-.02-.02.008-.008.02.02.02-.02z" fill="url(#m)" transform="matrix(-356.177784942 -356.177784942 -356.177784942 356.177784942 737.99697943 481.16770395)"/><path d="m.751-.02-.02.02.02.02-.008.008-.02-.02-.02.02-.008-.008.02-.02-.02-.02.008-.008.02.02.02-.02z" fill="url(#n)" transform="matrix(-356.177784942 -356.177784942 -356.177784942 356.177784942 716.60112898 502.5635544)"/><path d="m.251-.016-.016.016.016.016-.007.007-.016-.016-.017.016-.007-.007.017-.016-.017-.016.007-.007.017.016.016-.016z" fill="url(#h)" transform="matrix(-356.177784942 -356.177784942 -356.177784942 356.177784942 736.57614496 482.58853842)"/><path d="m.335-.016-.016.016.016.016-.007.007-.016-.016-.017.016-.007-.007.017-.016-.017-.016.007-.007.017.016.016-.016z" fill="url(#i)" transform="matrix(-356.177784942 -356.177784942 -356.177784942 356.177784942 766.51783558 452.64268113)"/><path d="m.927-.025-.025.025.025.025-.011.011-.025-.025-.025.025-.011-.011.025-.025-.025-.025.011-.011.025.025.025-.025z" fill="url(#o)" transform="matrix(-356.177784942 -356.177784942 -356.177784942 356.177784942 822.9178807 396.24680268)"/><path d="m.24-.016-.016.016.016.016-.007.007-.016-.016-.017.016-.007-.007.017-.016-.017-.016.007-.007.017.016.016-.016z" fill="url(#k)" transform="matrix(-356.177784942 -356.177784942 -356.177784942 356.177784942 928.21379827 290.95088511)"/><path d="m.47-.016-.017.016.017.016-.007.007-.017-.016-.016.016-.007-.007.016-.016-.016-.016.007-.007.016.016.017-.016z" fill="url(#p)" transform="matrix(-356.177784942 -356.177784942 -356.177784942 356.177784942 908.70544933 310.45923405)"/><path d="m.929-.016-.017.016.017.016-.007.007-.017-.016-.016.016-.007-.007.016-.016-.016-.016.007-.007.016.016.017-.016z" fill="url(#e)" transform="matrix(-356.177784942 -356.177784942 -356.177784942 356.177784942 852.88457134 366.28011204)"/><path d="m.75-.016-.016.016.016.016-.007.007-.016-.016-.017.016-.007-.007.017-.016-.017-.016.007-.007.017.016.016-.016z" fill="url(#g)" transform="matrix(-356.177784942 -356.177784942 -356.177784942 356.177784942 794.58869137 424.57599201)"/><path d="m.778-.021-.022.021.022.021-.009.01-.022-.022-.021.022-.009-.01.021-.021-.021-.021.009-.01.021.022.022-.022z" fill="url(#g)" transform="matrix(-356.177784942 -356.177784942 -356.177784942 356.177784942 934.04713627 285.11754711)"/></g><path d="m.0005557 39.58818402h57.29587917v326.06276085h-57.29587917z" fill="#1eb3e9" stroke-width="4.16667"/><path d="m0 55.449 8.273-9.838c7.49 6.484 15.092 10.173 24.706 10.173 8.497 0 13.862-4.024 13.862-9.837v-.224c0-5.59-3.129-8.608-17.662-11.962-16.658-4.024-26.049-8.943-26.049-23.365v-.223c0-13.415 11.18-22.694 26.719-22.694 11.403 0 20.458 3.466 28.396 9.837l-7.378 10.398c-7.044-5.255-14.086-8.05-21.241-8.05-8.049 0-12.745 4.137-12.745 9.279v.223c0 6.037 3.577 8.72 18.67 12.298 16.546 4.025 25.041 9.95 25.041 22.918v.223c0 14.645-11.515 23.365-27.947 23.365-11.963 0-23.253-4.136-32.645-12.521" fill="#1eb3e9" fill-rule="nonzero" transform="matrix(4.16667 0 0 4.16667 122.49648703 87.10072203)"/></svg>