<svg clip-rule="evenodd" fill-rule="evenodd" stroke-linejoin="round" stroke-miterlimit="2" viewBox="0 0 1656 330" xmlns="http://www.w3.org/2000/svg"><g fill="#fff"><g fill-rule="nonzero"><path d="m0 2.5c8.309 0 13.489-4.646 13.489-11.167v-.179c0-7.325-5.269-11.167-13.489-11.167h-12.775v22.513zm-23.764-32.519h24.657c14.652 0 23.764 8.308 23.764 20.906v.177c0 14.028-11.257 21.354-25.014 21.354h-12.418v20.101h-10.989z" transform="matrix(4.16667 0 0 4.16667 816.530561 151.873284)"/><path d="m0-62.537h10.988v52.531h32.877v10.006h-43.865z" transform="matrix(4.16667 0 0 4.16667 966.164014 287.365059)"/><path d="m0 8.488v-36.004h10.989v35.557c0 11.614 5.985 17.779 15.813 17.779 9.738 0 15.723-5.808 15.723-17.332v-36.004h10.989v35.468c0 18.672-10.541 28.052-26.891 28.052-16.26 0-26.623-9.38-26.623-27.516" transform="matrix(4.16667 0 0 4.16667 1185.397523 141.444109)"/><path d="m0 44.312 6.611-7.862c5.986 5.181 12.061 8.131 19.743 8.131 6.791 0 11.079-3.217 11.079-7.864v-.178c0-4.466-2.502-6.879-14.117-9.559-13.311-3.217-20.815-7.147-20.815-18.672v-.179c0-10.72 8.935-18.135 21.353-18.135 9.112 0 16.348 2.769 22.691 7.861l-5.897 8.309c-5.627-4.199-11.256-6.433-16.973-6.433-6.434 0-10.185 3.307-10.185 7.416v.179c0 4.823 2.859 6.968 14.919 9.827 13.222 3.217 20.013 7.95 20.013 18.314v.179c0 11.703-9.202 18.672-22.335 18.672-9.56 0-18.583-3.306-26.087-10.006" transform="matrix(4.16667 0 0 4.16667 1453.768571 64.764881)"/><path d="m0 6.164v14.456h-6.164v-14.456h-14.456v-6.164h14.456v-14.456h6.164v14.456h14.456v6.164z" transform="matrix(4.16667 0 0 4.16667 401.713562 147.256614)"/><path d="m0 19.012v-7.835h7.836v-3.341h-7.836v-7.836h-3.34v7.836h-7.836v3.341h7.836v7.835z" transform="matrix(4.16667 0 0 4.16667 490.134466 250.67753)"/><path d="m0-5.095v5.095h11.95v11.95h5.095v-11.95h11.95v-5.095h-11.95v-11.95h-5.095v11.95z" transform="matrix(4.16667 0 0 4.16667 553.763684 102.035744)"/><path d="m0-25.874h-4.547v10.663h-10.663v4.547h10.663v10.664h4.547v-10.664h10.664v-4.547h-10.664z" transform="matrix(4.16667 0 0 4.16667 594.492883 309.377577)"/><path d="m0 20.562h3.613v-8.475h8.474v-3.612h-8.474v-8.475h-3.613v8.475h-8.474v3.612h8.474z" transform="matrix(4.16667 0 0 4.16667 466.934448 .002329)"/><path d="m0-2.15v2.151h5.045v5.045h2.151v-5.045h5.046v-2.151h-5.046v-5.046h-2.151v5.046z" transform="matrix(4.16667 0 0 4.16667 624.105407 212.148332)"/><path d="m0-2.107v2.105h4.937v4.939h2.106v-4.939h4.938v-2.105h-4.938v-4.937h-2.106v4.937z" transform="matrix(4.16667 0 0 4.16667 544.80951 41.664862)"/><path d="m0-2.107v2.105h4.938v4.939h2.105v-4.939h4.938v-2.105h-4.938v-4.937h-2.105v4.937z" transform="matrix(4.16667 0 0 4.16667 418.609409 250.906696)"/><path d="m0-1.628v1.629h3.82v3.819h1.629v-3.819h3.82v-1.629h-3.82v-3.82h-1.629v3.82z" transform="matrix(4.16667 0 0 4.16667 512.226151 65.627382)"/><path d="m0-1.63v1.629h3.82v3.82h1.629v-3.82h3.82v-1.629h-3.82v-3.819h-1.629v3.819z" transform="matrix(4.16667 0 0 4.16667 399.296894 286.998392)"/><path d="m0 1.609v-1.608h-3.771v-3.772h-1.609v3.772h-3.771v1.608h3.771v3.771h1.609v-3.771z" transform="matrix(4.16667 0 0 4.16667 570.576197 299.310902)"/><path d="m0-1.627v1.627h3.816v3.816h1.628v-3.816h3.816v-1.627h-3.816v-3.816h-1.628v3.816z" transform="matrix(4.16667 0 0 4.16667 630.176245 138.935774)"/><path d="m0-1.62v1.619h3.798v3.798h1.619v-3.798h3.798v-1.619h-3.798v-3.797h-1.619v3.797z" transform="matrix(4.16667 0 0 4.16667 599.13872 181.377474)"/><path d="m0 1.9v-1.9h-4.458v-4.458h-1.9v4.458h-4.458v1.9h4.458v4.458h1.9v-4.458z" transform="matrix(4.16667 0 0 4.16667 451.592769 75.131556)"/><path d="m0 1.295v-1.295h-3.037v-3.036h-1.294v3.036h-3.036v1.295h3.036v3.036h1.294v-3.036z" transform="matrix(4.16667 0 0 4.16667 369.90937 123.414928)"/><path d="m0 1.541v-1.541h-3.614v-3.614h-1.541v3.614h-3.614v1.541h3.614v3.614h1.541v-3.614z" transform="matrix(4.16667 0 0 4.16667 408.484401 256.569201)"/><path d="m0-5.322h-.936v2.193h-2.193v.936h2.193v2.193h.936v-2.193h2.193v-.936h-2.193z" transform="matrix(4.16667 0 0 4.16667 615.897067 240.094188)"/><path d="m0-6.345h-1.115v2.615h-2.614v1.114h2.614v2.616h1.115v-2.616h2.615v-1.114h-2.615z" transform="matrix(4.16667 0 0 4.16667 420.930244 231.144181)"/><path d="m0-6.345h-1.115v2.615h-2.614v1.115h2.614v2.615h1.115v-2.615h2.615v-1.115h-2.615z" transform="matrix(4.16667 0 0 4.16667 361.05103 204.70666)"/><path d="m0-5.322h-.935v2.193h-2.193v.936h2.193v2.193h.935v-2.193h2.194v-.936h-2.194z" transform="matrix(4.16667 0 0 4.16667 514.171986 324.840089)"/><path d="m0-5.322h-.935v2.194h-2.193v.935h2.193v2.193h.935v-2.193h2.194v-.935h-2.194z" transform="matrix(4.16667 0 0 4.16667 514.171986 278.048385)"/><path d="m0-8.161h-1.434v3.364h-3.363v1.434h3.363v3.363h1.434v-3.363h3.364v-1.434h-3.364z" transform="matrix(4.16667 0 0 4.16667 398.080226 78.689892)"/><path d="m0-5.322h-.936v2.193h-2.193v.936h2.193v2.193h.936v-2.193h2.193v-.936h-2.193z" transform="matrix(4.16667 0 0 4.16667 666.905441 178.085805)"/><path d="m0-5.322h-.935v2.193h-2.193v.936h2.193v2.193h.935v-2.193h2.194v-.936h-2.194z" transform="matrix(4.16667 0 0 4.16667 587.809545 129.477433)"/><path d="m0-5.322h-.936v2.193h-2.193v.936h2.193v2.193h.936v-2.193h2.193v-.936h-2.193z" transform="matrix(4.16667 0 0 4.16667 416.388574 45.294032)"/><path d="m0-5.322h-.936v2.193h-2.193v.936h2.193v2.193h.936v-2.193h2.193v-.936h-2.193z" transform="matrix(4.16667 0 0 4.16667 420.555244 140.564942)"/><path d="m0 1.221h2.859v2.857h1.219v-2.857h2.859v-1.22h-2.859v-2.858h-1.219v2.858h-2.859z" transform="matrix(4.16667 0 0 4.16667 507.451147 12.281506)"/></g><path d="m.00074094 30.93985382h44.77086915v254.78770383h-44.77086915z" stroke-width="4.16667"/><path d="m0 43.33 6.465-7.687c5.852 5.066 11.793 7.949 19.306 7.949 6.639 0 10.832-3.145 10.832-7.688v-.175c0-4.368-2.446-6.726-13.802-9.346-13.017-3.146-20.355-6.99-20.355-18.258v-.175c0-10.482 8.736-17.733 20.878-17.733 8.911 0 15.987 2.708 22.19 7.687l-5.766 8.124c-5.504-4.105-11.007-6.29-16.598-6.29-6.29 0-9.959 3.233-9.959 7.251v.175c0 4.717 2.795 6.813 14.589 9.609 12.929 3.145 19.568 7.775 19.568 17.909v.174c0 11.444-8.998 18.257-21.839 18.257-9.348 0-18.17-3.231-25.509-9.783" fill-rule="nonzero" transform="matrix(4.16667 0 0 4.16667 95.721651 68.064884)"/></g></svg>