<svg fill="none" height="33" viewBox="0 0 33 33" width="33" xmlns="http://www.w3.org/2000/svg"><path d="m8.37823 22.658c-.46396 0-.84015-.3755-.84015-.8402v-10.1208c0-.464.37553-.8402.84015-.8402.46463 0 .84017.3756.84017.8402v10.1208c-.00066.4647-.3762.8402-.84017.8402zm14.27877-.6415v-10.5175c0-.464-.3755-.8402-.8402-.8402-.4639 0-.8401.3756-.8401.8402v10.5175c0 .464.3755.8402.8401.8402.4647 0 .8402-.3756.8402-.8402zm-10.0793 4.4423v-19.40283c0-.46397-.3755-.84016-.8401-.84016-.4647 0-.8402.37553-.8402.84016v19.40283c0 .464.3755.8402.8402.8402.4646 0 .8401-.3755.8401-.8402zm3.36 5.4581v-30.31966c0-.46397-.3755-.84016-.8402-.84016-.4646 0-.8401.37553-.8401.84016v30.31966c0 .464.3755.8402.8401.8402.4647 0 .8402-.3755.8402-.8402zm16.7992-14.6813v-.9557c0-.464-.3755-.8401-.8401-.8401-.4647 0-.8402.3755-.8402.8401v.9557c0 .4639.3755.8401.8402.8401.4646 0 .8401-.3762.8401-.8401zm-6.7199 7.1087v-15.1744c0-.46397-.3756-.84016-.8402-.84016s-.8401.37553-.8401.84016v15.1744c0 .4639.3755.8401.8401.8401s.8402-.3755.8402-.8401zm3.3593-6.0666v-3.0406c0-.4639-.3755-.8401-.8402-.8401-.4646 0-.8401.3755-.8401.8401v3.0406c0 .464.3755.8401.8401.8401.4647 0 .8402-.3755.8402-.8401zm-23.51788.5003v-4.0411c0-.464-.37554-.8402-.84017-.8402-.46396 0-.84015.3755-.84015.8402v4.0411c0 .4639.37553.8401.84015.8401.46463 0 .84017-.3755.84017-.8401zm-3.35998-1.3365v-1.3675c0-.464-.37554-.8402-.84017-.8402-.46462 0-.840155.3756-.840155.8402v1.3675c0 .464.375535.8401.840155.8401.46463 0 .84017-.3761.84017-.8401zm16.79856 6.2223v-13.81346c0-.46396-.3755-.84015-.8401-.84015-.4647 0-.8402.37553-.8402.84015v13.81286c0 .4639.3755.8401.8402.8401.4646 0 .8401-.3755.8401-.8395z" fill="#fff"/></svg>