<svg fill="none" height="31" viewBox="0 0 31 31" width="31" xmlns="http://www.w3.org/2000/svg"><path clip-rule="evenodd" d="m15 21.483-.06-.003c-.01 0-.01 0-.02 0-.74-.07-1.47-.22-2.18-.45-.6-.2-1.16-.49-1.67-.87-.11-.08-.18-.2-.2-.33s.02-.26.1-.37.19-.18.33-.2c.13-.01.26.02.37.1.42.31.88.55 1.38.72.64.2 1.29.34 1.96.41l.52.02c.81.02 1.61-.24 2.25-.74.48-.36.78-.92.8-1.52 0-.35-.12-.68-.32-.96-.36-.46-.81-.82-1.34-1.05-.61-.29-1.25-.54-1.9-.73-.52-.17-1.03-.36-1.53-.57-.48-.19-.92-.47-1.29-.83-.48-.48-.74-1.12-.75-1.79.01-.62.24-1.22.65-1.69.49-.55 1.13-.94 1.84-1.14.342-.108.7-.184 1.06-.22v-1.77c0-.13.05-.26.15-.35.09-.1.22-.15.35-.15s.26.05.35.15c.1.09.15.22.15.35v1.761c.113.01.227.022.34.039.44.06.88.17 1.3.33.49.19.97.42 1.43.69.11.07.19.18.23.31.03.13.01.26-.06.38-.07.11-.18.19-.31.22-.12.04-.26.02-.37-.05-.41-.24-.83-.45-1.27-.61-.36-.13-.72-.23-1.09-.28-.33-.05-.67-.06-1-.03-.34.02-.66.09-.98.19-.53.14-1.01.44-1.38.85-.24.28-.38.64-.39 1.02.01.4.17.79.45 1.07.28.27.61.48.97.63.47.2.96.38 1.45.53.69.21 1.36.47 2.02.78.67.3 1.26.77 1.72 1.35.33.46.52 1.01.52 1.58-.03.91-.47 1.76-1.19 2.3-.696.537-1.527.863-2.391.933.001.003.001.005.001.007v2c0 .13-.05.26-.15.35-.09.1-.22.15-.35.15s-.26-.05-.35-.15c-.1-.09-.15-.22-.15-.35v-2c0-.006 0-.011 0-.017zm-14-5.983c0-3.84 1.53-7.53 4.25-10.25s6.41-4.25 10.25-4.25 7.53 1.53 10.25 4.25 4.25 6.41 4.25 10.25-1.53 7.53-4.25 10.25-6.41 4.25-10.25 4.25-7.53-1.53-10.25-4.25-4.25-6.41-4.25-10.25zm-1 0c0-4.11 1.63-8.05 4.54-10.96s6.85-4.54 10.96-4.54 8.05 1.63 10.96 4.54 4.54 6.85 4.54 10.96-1.63 8.05-4.54 10.96-6.85 4.54-10.96 4.54-8.05-1.63-10.96-4.54-4.54-6.85-4.54-10.96z" fill="#fff" fill-rule="evenodd"/></svg>