<svg fill="none" height="32" viewBox="0 0 32 32" width="32" xmlns="http://www.w3.org/2000/svg"><g fill="#fff"><path d="m31.5274 32h-31.054826c-.260996 0-.472574-.2116-.472574-.4726v-31.054826c0-.260996.211578-.472574.472574-.472574h31.054826c.261 0 .4726.211578.4726.472574v31.054826c0 .261-.2116.4726-.4726.4726zm-30.582252-.9451h30.109752v-30.109752h-30.109752z"/><path d="m22.0756 32h-12.15185c-.261 0-.47258-.2116-.47258-.4726v-31.054826c0-.260996.21158-.472574.47258-.472574h12.15185c.261 0 .4726.211578.4726.472574v31.054826c0 .261-.2116.4726-.4726.4726zm-11.6793-.9451h11.2068v-30.109752h-11.2068z"/><path d="m31.5274 22.5485h-31.054826c-.260996 0-.472574-.2116-.472574-.4725v-12.15195c0-.26099.211578-.47257.472574-.47257h31.054826c.261 0 .4726.21158.4726.47257v12.15195c0 .2609-.2116.4725-.4726.4725zm-30.582252-.9451h30.109752v-11.2068h-30.109752z"/></g></svg>