<svg fill="none" height="42" viewBox="0 0 125 42" width="125" xmlns="http://www.w3.org/2000/svg" xmlns:xlink="http://www.w3.org/1999/xlink"><clipPath id="a"><path d="m0 0h124.422v42h-124.422z"/></clipPath><g clip-path="url(#a)" fill="#fff"><path d="m124.439 2.12503h-23.392l-2.1075 10.13197-4.08-10.13197h-6.2934c-.5519.01215-1.084.20848-1.5115.55779-.4276.34931-.7261.83154-.8481 1.37l-2.2541 10.87998-2.55-12.79757h-6.9428c-.3952.00069-.7844.09651-1.1348.27938-.3503.18286-.6515.44739-.878.77122l-8.4625 11.77417c-.2262.322-.5266.5849-.8757.7666s-.7368.2767-1.1303.2772h-4.7226l2.261-10.97178c.0245-.13805.0371-.27798.0374-.4182.0018-.32639-.0607-.64993-.184-.95216-.1232-.30222-.3048-.57721-.5343-.80927-.2296-.23205-.5026-.41662-.8034-.54317-.3009-.12655-.6237-.19261-.9501-.19439h-3.638l-1.7646 8.44217c-.0982-2.52676-1.1814-4.91474-3.0176-6.65317-1.8363-1.73844-4.28-2.6893-6.8083-2.64919-5.8718 0-10.9956 4.75997-11.4444 10.63176-.4488 5.8718 3.9508 10.6283 9.8192 10.6283 4.4574 0 8.4761-2.7404 10.3563-6.6265l-.51 2.4718c-.0769.2453-.1158.501-.1156.7581-.0022.3267.06.6506.183.9533.1231.3026.3046.578.5341.8104.2296.2324.5028.4173.8038.544.3011.1268.6242.193.9509.1947h13.8685c.3903.0009.7752-.0911 1.1228-.2685.3477-.1774.6481-.4349.8764-.7515l7.718-10.80171.884 4.53561c-1.0982.6358-3.111 3.06-1.7442 3.06.6589.0031 1.2965.234 1.8046.6535s.8555 1.0018.9834 1.6482l.3774 1.938h10.9343l2.2032-10.6215 4.522 10.5943h5.7085c.579-.0027 1.139-.2083 1.583-.581.443-.3726.742-.8888.845-1.459l2.169-10.4685c.117-.55373.421-1.05049.86-1.40748.439-.35698.988-.55263 1.554-.55431h2.672l-2.999 14.47029h4.72c.562-.0116 1.104-.2141 1.537-.5743.432-.3601.729-.8566.843-1.4079l2.597-12.48469h3.308c.566-.0045 1.113-.20166 1.551-.55895.438-.35728.742-.85332.86-1.40624zm-78.58 9.46217c-.1397 1.3708-.7731 2.644-1.7821 3.5823s-2.3248 1.4777-3.7021 1.5177c-.5806.0172-1.1581-.0905-1.6934-.3157-.5354-.2253-1.0161-.5629-1.4097-.99-.3936-.4272-.6909-.9338-.8718-1.4858-.1808-.5519-.241-1.1363-.1765-1.7135.1404-1.3705.774-2.64333 1.7828-3.58152 1.0089-.93818 2.3243-1.47782 3.7014-1.51847.5763-.01117 1.1487.09762 1.6807.31945.5321.22184 1.0122.55187 1.4099.96914.3902.4332.6861.94287.8687 1.4966.1826.5537.248 1.1394.1921 1.7198z"/><path d="m22.2358 24.3643-.0272-.0476c-2.1352-3.893-3.3694-7.14-3.3694-12.3148-.0397-3.39664.9734-6.72227 2.9002-9.51991.0741-.12425.1547-.24454.2414-.3604.1917-.20359.3271-.45368.3927-.72557s.0591-.556188-.0187-.824823c-.0815-.166574-.2069-.307777-.3627-.408421-.1557-.1006443-.336-.15692052-.5213-.162776h-11.3424c-.59693.00336903-1.17267.221777-1.62165.615188-.44899.393412-.74115.935462-.82291 1.526802l-7.629565 36.83201c-.0354312.1723-.05365398.3477-.05439971.5236-.00223932.3267.05994411.6506.18299371.9532.12305.3026.304551.578.534123.8104.229572.2325.502708.4173.803798.5441.30108.1268.6242.1929.95087.1947h9.91434c3.74 0 12.1482-4.9742 12.1482-10.6555.1258-2.4786-1.6524-5.8786-2.2984-6.9802zm-8.4116-5.1306c-.1073.5245-.39.9969-.8016 1.3392-.4116.3424-.9275.5344-1.4628.5444h-4.49476l2.65199-12.65474h6.36477zm2.9002-14.16092c-.1117.52498-.3995.99599-.8157 1.33489s-.9358.52531-1.4725.5283h-4.46418l.90778-4.32478h6.3546z"/><path d="m44.9784 40.8678-.2312-2.38h-4.6784l-1.343 2.38h-2.6859l7.8811-13.5149h2.0162l1.7 13.5149zm-.8942-9.5199-2.788 4.9198h3.2742z"/><path d="m48.8271 40.8678 2.2576-9.8906h2.4072l-2.261 9.8906zm3.74-11.1248c-.1901.0042-.3784-.0371-.5493-.1204s-.3194-.2063-.4332-.3586c-.1138-.1524-.1895-.3297-.2208-.5172-.0314-.1876-.0175-.3799.0405-.561.1068-.4222.346-.7991.6825-1.0757.3364-.2765.7526-.4381 1.1875-.4611.833 0 1.36.68 1.1458 1.5368-.102.4229-.3365.802-.6692 1.0822-.3328.2801-.7464.4466-1.1804.475z"/><path d="m56.7797 40.9835c-1.513 0-2.8458-.17-3.7774-1.4246l1.938-1.615c.612.816 1.6218.9316 2.3596.9316.833 0 1.768-.2856 1.9346-1.02.1156-.4964-.068-.8364-.8058-.9146l-1.4824-.1496c-1.7-.17-2.5942-.9486-2.1794-2.771.4692-2.04 2.4786-3.1552 4.42-3.1552 1.4994 0 2.6962.2686 3.4 1.1594l-1.8292 1.5368c-.4352-.51-1.2512-.68-2.0842-.68-.9622 0-1.4722.4556-1.5844.9486-.085.3604-.0306.7786.8024.8568l1.4824.1496c1.8598.1904 2.584 1.2342 2.2032 2.907-.4794 2.1964-2.5296 3.2402-4.7974 3.2402z"/><path d="m65.3375 40.8678c-1.9788 0-2.4854-1.4211-2.1658-2.8287l2.448-10.6862h2.4072l-2.4072 10.54c-.136.5882.034.8908.646.8908h.9248l-.4794 2.0875z"/><path d="m73.2901 40.8678.1972-.8534c-.7017.6459-1.6311.9871-2.584.9486-1.0948 0-1.8224-.2856-2.261-.8738-.2014-.3291-.3312-.6968-.381-1.0793-.0498-.3826-.0184-.7713.092-1.1409.3604-1.5742 1.7-2.8662 3.9474-2.8662h2.2746l.1122-.493c.2482-1.0846-.1598-1.5572-1.4382-1.5572-.3792-.0227-.7587.0387-1.1114.1797-.3526.1411-.6698.3584-.9286.6363l-1.1696-1.5368c1.1866-1.0642 2.1828-1.36 3.791-1.36 2.6995 0 3.8351 1.1798 3.3081 3.4952l-1.4892 6.511zm.901-4.1752h-1.9074c-.867 0-1.445.4182-1.6048 1.1186s.1836 1.139 1.1254 1.139c.5826.061 1.166-.1087 1.6252-.4726.3519-.3316.5778-.775.6392-1.2546z"/><path d="m83.558 40.8678 1.36-5.9806c.306-1.36-.4216-1.802-1.1798-1.802s-1.7.4556-2.0196 1.802l-1.36 5.9806h-2.4072l2.261-9.8906h2.3494l-.2074.9112c.7297-.6437 1.6654-1.0055 2.6384-1.02.9622 0 1.666.34 2.074.8738.595.799.5882 1.7306.34 2.8118l-1.445 6.3206z"/><path d="m91.2895 40.8678c-1.9584 0-2.4684-1.4212-2.1454-2.8288l1.1186-4.896h-1.02l.4318-1.8632h1.02l.68-2.924h2.4038l-.68 2.924h1.7l-.4284 1.8802h-1.7l-1.0846 4.76c-.1292.5678.0544.8908.629.8908h.8704l-.4794 2.0876z"/><path d="m97.2905 36.6927c-.2924 1.2716.255 2.2032 1.6048 2.2032.4415.012.8808-.0642 1.2927-.2242.411-.16.787-.4005 1.104-.7074l1.126 1.462c-1.211 1.0199-2.278 1.5571-4.0157 1.5571-2.278 0-4.2159-1.0642-3.3014-5.0693.7378-3.2266 2.856-5.0524 5.3521-5.0524 2.682 0 3.739 2.0162 3.117 4.7294l-.251 1.1016zm4.0805-2.754c-.061-.3115-.236-.589-.491-.7778s-.571-.2752-.8865-.2422c-.368.002-.7296.0965-1.0516.2747s-.5941.4345-.7912.7453c-.2136.3262-.371.6859-.4658 1.0642h3.6651c.074-.3505.078-.7124.01-1.0642z"/><path d="m107.439 40.9835c-1.516 0-2.845-.17-3.78-1.4246l1.941-1.615c.609.816 1.618.9316 2.356.9316.833 0 1.768-.2856 1.938-1.02.112-.4964-.068-.8364-.809-.9146l-1.482-.1496c-1.7-.17-2.595-.9486-2.18-2.771.469-2.04 2.479-3.1552 4.437-3.1552 1.5 0 2.696.2686 3.417 1.1594l-1.826 1.5334c-.435-.51-1.251-.68-2.084-.68-.962 0-1.472.4556-1.584.9486-.085.3604-.031.7786.802.8568l1.483.1496c1.859.1904 2.584 1.2342 2.203 2.907-.5 2.1998-2.55 3.2436-4.832 3.2436z"/><path d="m34.9688 1.67279c.34-.2482 1.411-.917994 1.4892-1.67279h-7.5071c-1.4657.00048765-2.8797.541629-3.9712 1.51979-1.3727 1.37526-2.4566 3.01097-3.1882 4.81105-.7316 1.80007-1.0961 3.72816-1.072 5.67106 0 4.5934 1.02 7.5276 3.1382 11.4104 0 0 2.5806 4.3826 2.5568 7.9491-.0046.398-.0421.7949-.1122 1.1866-.9673 3.213-3.0526 5.9737-5.8786 7.7826-.34.2482-1.411.9146-1.4892 1.6694h8.8774c1.4652.0025 2.8792-.5391 3.9678-1.5198 2.2785-2.502 3.5397-5.7653 3.5359-9.1493 0-5.6202-3.0599-9.4622-4.3587-11.56-1.4572-2.3866-2.2354-5.1257-2.2508-7.922-.0442-2.46155 1.8054-7.38472 6.2627-10.17611z"/></g></svg>