<svg clip-rule="evenodd" fill-rule="evenodd" stroke-linejoin="round" stroke-miterlimit="2" viewBox="0 0 1041 338" xmlns="http://www.w3.org/2000/svg"><g fill-rule="nonzero"><path d="m0-.575c-.205 2.671-2.633 4.926-5.294 4.926-1.179 0-2.242-.442-2.985-1.247-.75-.808-1.114-1.912-1.022-3.102.201-2.673 2.626-4.929 5.294-4.929 1.18 0 2.239.441 2.983 1.244.751.813 1.111 1.913 1.024 3.108m75.85-9.137h-22.583l-2.027 9.782-3.95-9.782h-6.058c-1.11.021-2.037.808-2.28 1.861l-.001.005-2.173 10.492-2.465-12.358h-6.693c-.801 0-1.51.401-1.943 1.014l-.002.002-8.175 11.39s-.006.002-.008.007c-.433.609-1.139 1.009-1.936 1.009h-4.551l2.181-10.597-.006-.007c.021-.13.037-.266.037-.403 0-1.334-1.071-2.415-2.39-2.415h-3.512l-1.686 8.141c-.243-5.063-4.263-8.98-9.495-8.98-5.67 0-10.618 4.594-11.049 10.263-.434 5.67 3.812 10.264 9.482 10.264 4.298 0 8.184-2.646 9.995-6.397l-.492 2.37c-.07.233-.113.48-.113.734 0 1.334 1.07 2.418 2.387 2.418h13.396c.793 0 1.493-.398 1.928-1.002h.005l7.453-10.433.854 4.381c-1.064.618-3.003 2.958-1.685 2.958 1.327 0 2.435.954 2.694 2.222l.364 1.874h10.552l2.12-10.233 4.364 10.233h5.513c1.168 0 2.139-.851 2.345-1.972l2.091-10.106c.236-1.084 1.189-1.894 2.333-1.894h2.579l-2.891 13.972h4.555v-.001c1.134-.016 2.079-.832 2.308-1.917l2.497-12.054h3.191v-.002c1.138 0 2.09-.811 2.323-1.898l.008-.003z" fill="#34763d" transform="matrix(8.33333 0 0 8.33333 407.98175127 98.02068823)"/><path d="m0-30.752-.012.006c-.223 1.029-1.123 1.798-2.206 1.8h-4.304l.865-4.185h6.15zm-2.803 13.671-.004.003c-.213 1.029-1.11 1.801-2.189 1.814l-.003.005h-4.329l2.559-12.218h6.143zm8.121 4.954-.026-.049c-2.059-3.758-3.25-6.907-3.25-11.888 0-4.018 1.32-7.051 2.798-9.187.067-.113.142-.229.231-.345.354-.463.55-.965.363-1.5-.062-.181-.389-.555-.853-.555h-10.951c-1.202 0-2.192.901-2.362 2.068l-7.367 35.563c-.03.161-.05.329-.05.503 0 1.335 1.065 2.416 2.384 2.416l.032-.002v.002h9.542c3.601 0 11.728-4.803 11.728-10.286.123-2.393-1.594-5.678-2.219-6.74" fill="#34763d" transform="matrix(8.33333 0 0 8.33333 173.59851169 297.08727527)"/><g fill="#8dbf45"><path d="m0 4.602 1.174-1.399c.714.544 1.531.77 2.301.77.395 0 .564-.104.564-.282v-.019c0-.187-.207-.291-.912-.432-1.474-.3-2.77-.723-2.77-2.113v-.019c0-1.249.977-2.216 2.79-2.216 1.267 0 2.207.3 2.967.901l-1.07 1.484c-.62-.45-1.362-.648-1.973-.648-.328 0-.479.113-.479.272v.02c0 .178.179.29.874.422 1.681.31 2.808.799 2.808 2.123v.019c0 1.38-1.136 2.225-2.902 2.225-1.334 0-2.536-.376-3.372-1.108" transform="matrix(8.33333 0 0 8.33333 370.67343286 218.42064007)"/><path d="m0 .544v-3.625h2.235v3.597c0 .817.423 1.164 1.014 1.164.592 0 1.015-.319 1.015-1.117v-3.644h2.235v3.578c0 2.245-1.305 3.128-3.268 3.128s-3.231-.902-3.231-3.081" transform="matrix(8.33333 0 0 8.33333 426.69007712 235.87896642)"/><path d="m0 4.602 1.174-1.399c.714.544 1.531.77 2.301.77.395 0 .564-.104.564-.282v-.019c0-.187-.207-.291-.912-.432-1.474-.3-2.77-.723-2.77-2.113v-.019c0-1.249.977-2.216 2.79-2.216 1.267 0 2.207.3 2.967.901l-1.07 1.484c-.62-.45-1.362-.648-1.973-.648-.328 0-.479.113-.479.272v.02c0 .178.179.29.874.422 1.681.31 2.808.799 2.808 2.123v.019c0 1.38-1.136 2.225-2.902 2.225-1.334 0-2.536-.376-3.372-1.108" transform="matrix(8.33333 0 0 8.33333 482.0733883 218.42064007)"/><path d="m0-2.856h-1.935v-1.859h6.067v1.859h-1.934v4.715h-2.198z" transform="matrix(8.33333 0 0 8.33333 550.69002752 249.49562764)"/><path d="m0-6.574h5.607v1.803h-3.447v.667h3.212v1.587h-3.212v.714h3.494v1.803h-5.654z" transform="matrix(8.33333 0 0 8.33333 589.24834543 264.98728811)"/><path d="m0-6.574h2.057l2.338 2.902v-2.902h2.179v6.574h-1.953l-2.442-3.033v3.033h-2.179z" transform="matrix(8.33333 0 0 8.33333 641.2399913 264.98728811)"/><path d="m0-2.856h-1.935v-1.859h6.067v1.859h-1.934v4.715h-2.198z" transform="matrix(8.33333 0 0 8.33333 716.3232946 249.49562764)"/><path d="m0 1.737-.601-1.596-.601 1.596zm-1.672-4.179h2.179l2.771 6.621h-2.386l-.347-.882h-2.302l-.337.882h-2.349z" transform="matrix(8.33333 0 0 8.33333 780.8232688 230.15396871)"/><path d="m0 1.295h-1.108v.978h1.099c.479 0 .723-.198.723-.479v-.02c0-.282-.235-.479-.714-.479m.545-1.822c0-.291-.235-.45-.705-.45h-.948v.92h.958c.469 0 .695-.16.695-.451zm-3.794-2.113h3.681c.911 0 1.484.206 1.869.592.235.235.404.573.404 1.024v.018c0 .78-.469 1.259-1.174 1.503.845.244 1.39.695 1.39 1.596v.02c0 1.051-.864 1.822-2.526 1.822h-3.644z" transform="matrix(8.33333 0 0 8.33333 837.4899128 232.19563456)"/><path d="m0-6.574h2.198v4.695h3.09v1.879h-5.288z" transform="matrix(8.33333 0 0 8.33333 865.8232348 264.98728811)"/><path d="m0-6.574h5.607v1.803h-3.447v.667h3.212v1.587h-3.212v.714h3.494v1.803h-5.654z" transform="matrix(8.33333 0 0 8.33333 913.8232156 264.98728811)"/><path d="m0 2.487c.101 2.177-.023 3.53-.174 5.157-.074.814-.158 1.49-.222 1.965-.018.123-.034.163-.047.258l.322-.245c.076-.094 1.916-1.407 3.156-4.29 1.366-3.175.514-8.505-4.808-12.303l-.441-.313c-.133-.096-.316-.081-.433.034l-.408.404c-.081.078-1.96 1.954-2.799 4.953-.831 2.964-.768 6.281 4.245 11.147l.195.19c.023-.11.049-.239.082-.402.244-1.26.338-1.973.328-1.912.24-1.589.485-2.488.509-4.634.037-2.144-.187-4.3-.689-5.833-.12-.384-.26-.726-.393-1.025-.14-.296-.275-.548-.404-.745-.115-.207-.24-.345-.312-.449-.075-.102-.116-.156-.116-.156s.043.052.125.148c.078.1.211.233.339.433.141.191.291.437.45.728.152.294.314.633.457 1.015.599 1.525.951 3.701 1.038 5.875" transform="matrix(8.33333 0 0 8.33333 208.33183113 225.262304)"/><path d="m0 2.015c-.917.84-1.555 1.281-2.323 1.81-.384.265-.711.475-.943.621-.06.037-.084.045-.13.073l.225.052c.069-.001 1.317.325 3.034-.185 1.891-.563 3.915-2.885 3.633-6.606l-.023-.307c-.007-.094-.081-.169-.174-.178l-.326-.031c-.063-.007-1.573-.145-3.194.584-1.603.72-3.033 1.96-3.333 5.937l-.012.154c.057-.03.123-.066.206-.111.642-.353.988-.573.958-.555.784-.476 1.268-.697 2.217-1.471.953-.768 1.816-1.654 2.304-2.435.125-.193.223-.379.306-.547.078-.17.14-.321.179-.45.048-.126.063-.231.083-.3.016-.071.025-.108.025-.108s-.006.037-.019.109c-.015.07-.025.177-.066.306-.032.132-.085.288-.155.464-.073.174-.162.368-.277.571-.449.82-1.274 1.77-2.195 2.603" transform="matrix(8.33333 0 0 8.33333 318.29012048 298.57060801)"/><path d="m0 17.408 2.215-.751c-.095-.115-.372-.21-.513-.381-.401-.474-.984-1.148-1.709-1.935-1.447-1.573-3.459-3.61-5.664-5.423-2.191-1.825-4.612-3.392-6.621-4.149-.498-.197-.969-.337-1.39-.447-.424-.102-.797-.173-1.109-.204-.311-.053-.558-.039-.726-.051-.169-.006-.258-.009-.258-.009s.089-.002.258-.005c.168.002.417-.027.731.009.316.013.696.062 1.13.14.431.088.917.202 1.433.373 2.08.651 4.63 2.1 6.956 3.822 2.341 1.711 4.497 3.656 6.057 5.168.782.757 1.413 1.407 1.852 1.869.112.121.211.227.298.32l-.14-.649c-.034-.157-.86-3.901-3.359-7.399-2.672-3.741-7.616-7.706-15.991-5.356l-.692.195c-.211.059-.348.26-.326.478l.077.76c.015.147.393 3.66 2.802 7.031 2.381 3.334 5.024 6.594 14.689 6.594" transform="matrix(8.33333 0 0 8.33333 146.42352256 192.85398363)"/><path d="m0-37.323c.336-.239 1.362-.886 1.438-1.614h-7.248c-1.471 0-2.812.555-3.834 1.468-1.731 1.735-4.116 5.043-4.116 10.12 0 4.432.977 7.269 3.029 11.014 0 0 2.493 4.232 2.473 7.677-.006.39-.044.772-.107 1.144-.72 2.448-2.522 5.534-5.679 7.515-.336.238-1.363.884-1.439 1.613h1.646c4.004-2.114 7.647-6.172 7.644-13.918.65 6.036-1.15 10.783-4.407 13.918h3.689c1.472 0 2.812-.554 3.83-1.467 1.463-1.626 3.417-4.591 3.417-8.836 0-5.427-2.942-9.135-4.212-11.15-1.268-2.012-2.115-4.635-2.172-7.646-.044-2.391 1.743-7.143 6.048-9.838" transform="matrix(8.33333 0 0 8.33333 320.37345298 324.47059765)"/></g></g></svg>