<svg fill="none" height="16" viewBox="0 0 16 16" width="16" xmlns="http://www.w3.org/2000/svg"><path d="m8.01758 3.93945c2.21482 0 4.04292 1.82813 4.04292 4.04297 0 2.24998-1.8281 4.04298-4.04292 4.04298-2.25 0-4.04297-1.793-4.04297-4.04298 0-2.21484 1.79297-4.04297 4.04297-4.04297zm0 6.67965c1.4414 0 2.60152-1.16012 2.60152-2.63668 0-1.4414-1.16012-2.60156-2.60152-2.60156-1.47656 0-2.63672 1.16016-2.63672 2.60156 0 1.47656 1.19531 2.63668 2.63672 2.63668zm5.13282-6.82027c0-.52735-.4219-.94922-.9492-.94922-.5274 0-.9492.42187-.9492.94922 0 .52734.4218.94922.9492.94922.5273 0 .9492-.42188.9492-.94922zm2.6719.94922c.0703 1.30078.0703 5.20312 0 6.50395-.0703 1.2656-.3516 2.3554-1.2657 3.3046-.914.9141-2.039 1.1954-3.3046 1.2657-1.30083.0703-5.20317.0703-6.50395 0-1.26563-.0703-2.35547-.3516-3.30469-1.2657-.914063-.9492-1.195313-2.039-1.265626-3.3046-.070312-1.30083-.070312-5.20317 0-6.50395.070313-1.26563.351563-2.39063 1.265626-3.30469.94922-.914063 2.03906-1.195313 3.30469-1.265626 1.30078-.070312 5.20312-.070312 6.50395 0 1.2656.070313 2.3906.351563 3.3046 1.265626.9141.91406 1.1954 2.03906 1.2657 3.30469zm-1.6875 7.87495c.4218-1.0195.3164-3.48042.3164-4.64058 0-1.125.1054-3.58594-.3164-4.64062-.2813-.66797-.8086-1.23047-1.4766-1.47657-1.0547-.42187-3.51562-.3164-4.64062-.3164-1.16016 0-3.6211-.10547-4.64063.3164-.70312.28125-1.23047.8086-1.51172 1.47657-.42187 1.05468-.3164 3.51562-.3164 4.64062 0 1.16016-.10547 3.62108.3164 4.64058.28125.7032.8086 1.2305 1.51172 1.5118 1.01953.4218 3.48047.3164 4.64063.3164 1.125 0 3.58592.1054 4.64062-.3164.668-.2813 1.2305-.8086 1.4766-1.5118z" fill="#fff"/></svg>