<svg fill="none" height="16" viewBox="0 0 16 16" width="16" xmlns="http://www.w3.org/2000/svg"><path d="m13.4844 2.44531c1.4765 1.47657 2.3906 3.41016 2.3906 5.51953 0 4.28906-3.5859 7.80466-7.91016 7.80466-1.30078 0-2.5664-.3515-3.72656-.9492l-4.11328 1.0547 1.08984-4.043c-.667965-1.1601-1.054684-2.49606-1.054684-3.90231 0-4.28907 3.515624-7.80469 7.804684-7.80469 2.10936 0 4.07816.84375 5.51956 2.32031zm-5.51956 11.98829c3.58596 0 6.57426-2.918 6.57426-6.46876 0-1.75781-.7383-3.375-1.9688-4.60546-1.2305-1.23047-2.84764-1.89844-4.5703-1.89844-3.58594 0-6.50391 2.91797-6.50391 6.46875 0 1.23047.35157 2.42581.98438 3.48051l.17578.246-.66797 2.3907 2.46094-.668.21094.1406c1.01953.5977 2.14453.9141 3.30468.9141zm3.58596-4.85157c.1758.10547.3164.14063.3515.24609.0704.07032.0704.45708-.1054.91408s-.9492.8789-1.3008.914c-.63282.1055-1.12501.0704-2.35548-.4921-1.96874-.8438-3.23437-2.81254-3.33984-2.91801-.10547-.14062-.77344-1.05468-.77344-2.03906 0-.94922.49219-1.40625.66797-1.61719.17578-.21093.38672-.24609.52735-.24609h.35156c.14062 0 .28125-.03516.45703.35156.14063.38672.5625 1.33594.59766 1.44141.03515.10547.07031.21094 0 .35156-.35157.73828-.77344.70313-.5625 1.05469.77343 1.30078 1.51171 1.75781 2.67187 2.32031.17578.10547.28125.07031.42188-.03516.10546-.14062.49218-.59765.59765-.77343.14063-.21094.28129-.17578.45699-.10547.1758.07031 1.125.52734 1.336.63281z" fill="#fff"/></svg>