<svg fill="none" height="14" viewBox="0 0 20 14" width="20" xmlns="http://www.w3.org/2000/svg"><path d="m19.1934 2.39453c.4218 1.47656.4218 4.64063.4218 4.64063s0 3.12894-.4218 4.64064c-.211.8437-.8789 1.4765-1.6875 1.6875-1.5118.3867-7.4883.3867-7.4883.3867s-6.01174 0-7.52346-.3867c-.80859-.211-1.47656-.8438-1.687499-1.6875-.421875-1.5117-.421875-4.64064-.421875-4.64064s0-3.16407.421875-4.64063c.210939-.84375.878909-1.511718 1.687499-1.722655 1.51172-.421875 7.52346-.421875 7.52346-.421875s5.9765 0 7.4883.421875c.8086.210937 1.4765.878905 1.6875 1.722655zm-11.14457 7.48828 4.99217-2.84765-4.99217-2.84766z" fill="#fff"/></svg>