<svg fill="none" height="32" viewBox="0 0 32 32" width="32" xmlns="http://www.w3.org/2000/svg"><path d="m2.90918 31.0303v-22.62553l-2.186539 1.22994c-.233385.13128-.52901.04849-.6602891-.1849-.131279-.23338-.0485047-.52899.1848811-.66027l15.515167-8.7272738c.1476-.0830216.3278-.0830216.4754 0l15.5151 8.7272738c.2334.13128.3162.42689.1849.66027-.1313.23339-.4269.31618-.6603.1849l-2.1865-1.22994v22.62553h2.4242c.2678 0 .4849.2171.4849.4849 0 .2677-.2171.4848-.4849.4848h-31.030263c-.267774 0-.48484836-.2171-.48484836-.4848 0-.2678.21707436-.4849.48484836-.4849zm.9697 0h24.24242v-23.17098l-12.1212-6.81818-12.12122 6.81818zm10.03982-21.47534c-.1894.18934-.4963.18934-.6857 0-.1893-.18935-.1893-.49632 0-.68567l2.4242-2.42424c.1894-.18935.4964-.18935.6857 0l2.4243 2.42424c.1893.18935.1893.49632 0 .68567-.1894.18934-.4964.18934-.6857 0l-1.5966-1.59657v7.07191c0 .2678-.217.4849-.4848.4849s-.4849-.2171-.4849-.4849v-7.07191zm-6.78789 3.39394c-.18935.1893-.49634.1893-.68568 0-.18935-.1894-.18935-.4963 0-.6857l2.42424-2.42421c.18934-.18935.49633-.18935.68568 0l2.42425 2.42421c.1893.1894.1893.4963 0 .6857-.1894.1893-.4963.1893-.6857 0l-1.59654-1.5966v7.0719c0 .2678-.21708.4849-.48485.4849-.26778 0-.48485-.2171-.48485-.4849v-7.0719zm16.14199 5.4753c0 .2678-.2171.4849-.4848.4849-.2678 0-.4849-.2171-.4849-.4849v-7.0719l-1.5965 1.5966c-.1894.1893-.4964.1893-.6857 0-.1894-.1894-.1894-.4963 0-.6857l2.4242-2.42421c.1894-.18935.4964-.18935.6857 0l2.4242 2.42421c.1894.1894.1894.4963 0 .6857-.1893.1893-.4963.1893-.6856 0l-1.5966-1.5966z" fill="#fff"/></svg>