<svg fill="none" height="226" viewBox="0 0 160 226" width="160" xmlns="http://www.w3.org/2000/svg" xmlns:xlink="http://www.w3.org/1999/xlink"><clipPath id="a"><path d="m-56 0h216v226h-216z"/></clipPath><g clip-path="url(#a)"><path d="m5.01873 2.94304c27.03057-12.02557 119.77527 14.63116 138.75627 46.77946 18.982 32.1484 20.464 54.1155 8.77 86.3035-11.693 32.189-40.766 55.558-70.0387 59.927-29.2731 4.37-71.641 13.148-97.9507-19s-36.5213-35.115-37.9629-48.263-8.7699-54.0745 10.2116-83.3368c18.9814-29.2622 21.9047-30.7053 48.21443-42.41016z" fill="#c89956"/><path d="m.493618 53.9316c19.341882-8.6183 85.736882 10.4622 99.352282 33.4712 13.6151 23.0092 14.6561 38.7222 6.2871 61.7712-8.3695 23.049-29.193 39.765-50.1767 42.891-20.9837 3.127-51.29798 9.42-70.1192-13.589-18.8213-23.008-26.1095-25.133-27.1507-34.553s-6.2871-38.722 7.3283-59.6469c13.6153-20.9245 15.6577-21.9667 34.478918-30.3445z" fill="#e6b66b"/><path d="m47.579 175.559c6.8868-3.063 30.516 3.726 35.352 11.914 4.8361 8.188 5.2136 13.783 2.2344 21.981-2.9791 8.198-10.3862 14.15-17.8443 15.263s-18.2525 3.349-24.9556-4.839-9.3048-8.944-9.6721-12.292c-.3673-3.349-2.2343-13.773 2.6017-21.226s5.5808-7.82 12.2839-10.801z" fill="#575756"/></g></svg>