<svg fill="none" height="226" viewBox="0 0 160 226" width="160" xmlns="http://www.w3.org/2000/svg" xmlns:xlink="http://www.w3.org/1999/xlink"><clipPath id="a"><path d="m0 0h242v226h-242z" transform="matrix(-1 0 0 1 242 0)"/></clipPath><mask id="b" height="283" maskUnits="userSpaceOnUse" width="295" x="-21" y="-49"><path d="m86.6966-48.0677-106.9945 138.0667 186.4499 143.823 106.995-138.0664z" fill="#fff"/></mask><g clip-path="url(#a)"><g mask="url(#b)"><path d="m266 94.3043s-2.045 10.6617-30.658 48.8597c-28.613 38.197-50.311 62.297-58.72 71.124s-12.664 11.693-12.664 11.693-95.4311-67.464-111.2149-85.788c-15.7839-18.324-38.7549-52.3434-23.6735-92.7999 15.0813-40.45662 29.2314-40.79487 55.6905-46.893981 26.4589-6.099119 124.2199 45.760781 150.0079 66.697081s31.232 27.1081 31.232 27.1081z" fill="#f2cb7e"/></g><path d="m50.5565 46.764c0-.1441-.0311-.2883-.0934-.4118-1.2557-2.5225-5.0123-2.6461-23.2561.1853-18.66921 2.8931-26.255203 3.8609-26.255203 3.8609s-.197174 4.2419 8.364313 8.4941c8.56149 4.2522 27.25149 7.413 35.79219-1.3487 5.0954-5.2406 5.4378-9.7399 5.4482-10.7798z" fill="#a2d8f6"/></g></svg>