<svg fill="none" height="22" viewBox="0 0 33 22" width="33" xmlns="http://www.w3.org/2000/svg"><path d="m31.7855 11.6552c-.2563.1922-.7047.1281-.8969-.1282-3.0956-4.44161-9.5143-4.77154-13.1981-1.0891l-2.3704 2.3704c-4.4737 4.4744-11.67268 3.6614-15.183457-1.2813-.1915546-.2562-.12748921-.7047.128772-.8969.256261-.1922.704717-.1281.896915.1282 3.09627 4.4422 9.51627 4.7715 13.19747 1.0891l2.3704-2.37045c4.3205-4.32056 11.5727-3.79971 15.1834 1.28135.1922.3203.1282.7047-.1281.8969zm-14.9272 4.1642-2.5626 2.5626c-2.5626 2.5626-6.79091 2.5626-9.35352 0-.25626-.2556-.64066-.2556-.89692 0-.25626.2563-.25626.6407 0 .8969 3.07001 3.0688 8.07284 3.0739 11.14734 0l2.5626-2.5626c2.5626-2.5626 6.7909-2.5626 9.3535 0 .2563.2556.6407.2556.897 0 .2556-.2562.2556-.6406 0-.8969-3.0752-3.0751-8.0723-3.0751-11.1474 0zm-1.6657-9.35352 2.5626-2.56261c2.5626-2.5626 6.7909-2.5626 9.3535 0 .2563.25627.6407.25627.897 0 .2556-.25626.2556-.64065 0-.89691-3.0752-3.0751305-8.0729-3.0751305-11.1474 0l-2.5626 2.56261c-2.5626 2.56261-6.79091 2.56261-9.35352 0-.25626-.25626-.64066-.25626-.89692 0s-.25626.64065 0 .89691c3.07642 3.07578 8.06584 3.08154 11.14734 0z" fill="#fff"/></svg>