<svg fill="none" height="34" viewBox="0 0 35 34" width="35" xmlns="http://www.w3.org/2000/svg"><g fill="#fff"><path d="m13.4244 25.9174c-.0689.0614-.174.062-.2436-.0001l-9.74216-8.5441c-.69498.3775-1.32814.8506-1.90001 1.3961l11.76577 10.3189c6.1522-5.2058 11.9453-1.4374 18.2881-4.4895.7963-.3832 1.5522-.8485 2.2632-1.3729l-2.0446-1.7932c-6.4685 3.3686-12.5949-.5669-18.3867 4.4848zm-5.4284-24.9174c.37404 0 .74852.38348 1.04078.88195.3317.56573.57268 1.2954.57268 1.74019 0 1.00606-.79012 1.61278-1.58837 1.62844-.81497.01599-1.63853-.58023-1.63853-1.62844 0-.44479.24098-1.17445.57267-1.74018.29227-.49849.66675-.88196 1.04077-.88196zm.72486 1.06721c-.23183-.3954-.50009-.69958-.72486-.69958-.22475 0-.49302.30418-.72484.69958-.30175.51465-.52097 1.16669-.52097 1.55493 0 .79748.62919 1.27455 1.25517 1.2667.61975-.00776 1.23647-.4927 1.23647-1.2667 0-.38823-.21922-1.04028-.52097-1.55493zm6.58624.15874c.4507 0 .9065.4874 1.2646 1.12097.4106.72652.709 1.66128.709 2.22931 0 1.08993-.8836 1.97356-1.9736 1.97356-1.0899 0-1.9735-.88363-1.9735-1.97356 0-.56803.2983-1.50279.7089-2.22931.3581-.63357.8139-1.12097 1.2646-1.12097zm.9458 1.30048c-.298-.52724-.6468-.93285-.9458-.93285-.2989 0-.6477.40561-.9458.93285-.3823.67649-.6601 1.53603-.6601 2.0498 0 .88695.719 1.60593 1.6059 1.60593.887 0 1.6059-.71898 1.6059-1.60593 0-.51377-.2777-1.37331-.6601-2.0498zm-4.9597 4.50562c.5257 0 1.0619.5767 1.4857 1.32635.4899.8668.8458 1.981.8458 2.6572 0 1.2876-1.0438 2.3315-2.3315 2.3315-1.2876 0-2.33145-1.0439-2.33145-2.3315 0-.6762.35595-1.7904.84588-2.65719.42367-.74965.95997-1.32636 1.48557-1.32636zm1.1669 1.50586c-.3637-.64332-.793-1.13823-1.1669-1.13823-.3738 0-.8031.49491-1.1668 1.13824-.46162.81678-.79702 1.85578-.79702 2.47768 0 1.0847.87922 1.9639 1.96382 1.9639 1.0847 0 1.9639-.8792 1.9639-1.9639 0-.6219-.3354-1.6609-.797-2.47769zm.9596 23.41999c-.0736.0609-.1807.0547-.2469-.0118l-12.17265-10.6756c.65463-.6491 1.2962-1.1832 2.10179-1.6428l-2.10179-1.8433c.66757-.662 1.32153-1.2039 2.14592-1.6678l-2.14592-1.882c2.28409-2.2649 4.53539-2.8146 7.26735-2.9842.02547.1137.05562.2481.06843.3626-2.45822.1524-4.73758.6424-6.79718 2.6067l11.76515 10.3182c6.5066-5.5454 13.1592-.1499 20.5551-5.8591l-11.7568-10.31086c-2.6567 1.95276-5.21 2.67446-7.642 2.96036-.0002-.1257.0062-.2549-.0054-.3801 2.7012-.3176 5.0406-1.086 7.6666-3.0507l12.1378 10.645c.0928.0726.0946.214.0012.2882-.7144.5664-1.4156 1.0323-2.1052 1.4164l2.1117 1.852c.091.0797.0803.2238-.0189.2902-.7113.5393-1.4097.9798-2.097 1.3402l2.1159 1.8557c.089.0779.0812.2182-.0137.2866-7.3383 5.7192-13.7829.2474-20.8335 6.0861zm-.1131-.3817c7.068-5.7408 13.4469-.4769 20.5512-5.8624l-2.0592-1.806c-6.4309 3.1361-12.2982-.6912-18.376 4.5611-.0714.0618-.177.0586-.2446-.0043l-9.78404-8.5808c-.6781.3736-1.29556.8376-1.85533 1.3716z"/><path clip-rule="evenodd" d="m8.08619 12.6297c-2.29036.1654-4.42268.6606-6.36339 2.4188-.06154.0558-.12289.1128-.18405.1712l11.76515 10.3182c3.2314-2.754 6.4987-2.8095 9.8753-2.8669 3.36-.0572 6.8281-.1162 10.4765-2.8379.0677-.0505.1354-.1019.2033-.1543l-11.7568-10.31086c-2.5658 1.88596-5.0351 2.62366-7.3919 2.92946-.0835.0108-.1669.0211-.2501.0309-.0001-.0335.0004-.0672.0008-.101.0006-.0502.0012-.1007.0003-.1509-.0007-.043-.0026-.0858-.0065-.1282 2.7012-.3176 5.0406-1.086 7.6666-3.0507l12.1378 10.645c.0928.0726.0946.214.0012.2882-.6351.5035-1.2598.9277-1.8753 1.2855-.0768.0447-.1534.0883-.2299.1309l2.1117 1.852c.091.0797.0803.2238-.0189.2902-.6303.4779-1.2505.8782-1.8618 1.2139-.0786.0432-.157.0853-.2352.1263l2.1159 1.8557c.089.0779.0812.2182-.0137.2866-3.6486 2.8436-7.0763 2.9207-10.4673 2.997-3.4293.0771-6.8212.1534-10.3662 3.0891-.0736.0609-.1807.0547-.2469-.0118l-12.17265-10.6756c.05986-.0594.11961-.1178.17938-.1752.53149-.5109 1.06505-.9482 1.69584-1.3338.07413-.0453.1496-.0899.22657-.1338l-2.10179-1.8433c.05986-.0594.11961-.1178.17938-.1752.54426-.5232 1.09046-.9688 1.73874-1.3599.07453-.0449.15042-.0891.2278-.1327l-2.14592-1.882c.05996-.0595.11989-.1177.17981-.1748 2.2228-2.1187 4.42729-2.6443 7.08754-2.8094l.00027.0012c.00812.0362.01669.0745.02503.1136.01777.0833.03444.1701.04313.2478-.08346.0052-.1667.0107-.24974.0167zm-5.36488 4.4469-2.08752-1.8308.190334-.1887c2.342346-2.3227 4.661006-2.8845 7.427886-3.0562l.21282-.0132.0483.2155c.0245.1093.05696.2542.07125.382l.0292.2611-.26218.0162c-2.35097.1458-4.49428.6007-6.43936 2.352l11.39556 9.9942c3.2461-2.6753 6.537-2.7312 9.8482-2.7874l.0879-.0015c3.3224-.0566 6.6815-.135 10.2198-2.7553l-11.376-9.97692c-2.6408 1.89512-5.1831 2.60512-7.5981 2.88902l-.2788.0328-.0004-.2807c-.0001-.0418.0004-.0803.0009-.1166.001-.0879.002-.163-.0052-.241l-.0223-.2427.242-.0285c2.6628-.3131 4.9594-1.0673 7.5461-3.00258l.1622-.12139 12.2859 10.77497c.2124.1727.2151.5015-.0038.6755-.6194.491-1.2301.9085-1.8328 1.2635l1.8483 1.621c.214.1873.1903.5223-.0372.6811-.6109.463-1.2134.8547-1.8084 1.1864l1.8456 1.6186c.2099.1836.1922.5117-.0276.6743-3.7129 2.8923-7.2113 2.9709-10.5991 3.0471l-.0706.0016c-3.4072.0767-6.7015.1705-10.155 3.0304-.1715.1419-.4193.1296-.5762-.0207l-12.369211-10.848.190335-.1887c.582926-.5781 1.161286-1.0717 1.854636-1.5039l-2.044965-1.7935.190324-.1887c.595641-.5907 1.186371-1.0928 1.897191-1.5303zm13.85039-13.72968.2177-.12301c.4223.74727.7413 1.72532.7413 2.35232 0 1.228-.9956 2.22356-2.2236 2.22356s-2.2235-.99556-2.2235-2.22356c0-.627.3189-1.60505.7413-2.35232l.2176.12301c-.4106.72652-.7089 1.66128-.7089 2.22931 0 1.08993.8836 1.97356 1.9735 1.97356 1.09 0 1.9736-.88363 1.9736-1.97356 0-.56803-.2984-1.50279-.709-2.22931zm0 0 .2177-.12301c-.1866-.33002-.4047-.63344-.6445-.85769-.2365-.22105-.5216-.39027-.8378-.39027-.3161 0-.6013.16922-.8377.39027-.2399.22425-.458.52767-.6445.85769l.2176.12301c.3581-.63357.8139-1.12097 1.2646-1.12097s.9065.4874 1.2646 1.12097zm-7.31925-1.59142c.17545.29925.32569.63943.43251.96367.10566.32074.1745.64295.1745.90297 0 1.16089-.91855 1.86044-1.83346 1.87839-.93513.01835-1.89344-.67115-1.89344-1.87839 0-.26002.06884-.58222.17451-.90296.10681-.32425.25705-.66442.4325-.96367.15421-.26302.33623-.50675.53875-.68783.19994-.178768.44427-.31768.71769-.31768s.51775.138914.71769.31768c.20252.18108.38454.42482.53875.68782zm3.76285 24.3492c-.0003-.0003-.0007-.0006-.001-.0009l-9.60796-8.4264c-.536.3063-1.0341.6723-1.49443 1.0868l11.39659 9.995c3.0823-2.5319 6.0836-2.8841 9.061-2.9733.4162-.0125.8312-.0199 1.2453-.0274 2.6073-.0468 5.1843-.0931 7.8693-1.3851.6877-.3309 1.3456-.7248 1.9708-1.1666l-1.681-1.4743c-2.9004 1.4614-5.7374 1.5039-8.4472 1.5446-.3208.0048-.6399.0095-.9571.0167-3.0508.0683-5.9536.3464-8.78 2.8113-.1628.144-.4096.1457-.5743-.0004zm.4091-.1873c-.0689.0614-.174.062-.2436-.0001l-9.74216-8.5441c-.62126.3375-1.19313.7513-1.71597 1.225-.06203.0562-.12338.1133-.18404.1711l11.76577 10.3189c3.4966-2.9588 6.8772-3.0186 10.3087-3.0793 2.6061-.0461 5.2416-.0928 7.9794-1.4102.7193-.3462 1.4056-.7593 2.0556-1.2224.0696-.0496.1388-.0998.2076-.1505l-2.0446-1.7932c-2.8981 1.5092-5.7275 1.5523-8.4888 1.5943-3.4021.0518-6.701.1021-9.8979 2.8905zm-5.37747-24.2793c-.03536-.02032-.05122-.02047-.05092-.02047-.00048.00002-.01643.00065-.05092.02047-.03507.02015-.07931.05449-.13114.10688-.10402.10513-.21693.26073-.32713.44868-.14164.24159-.26491.51742-.35227.77792-.0887.26445-.13436.49521-.13436.65056 0 .64303.4997 1.02302 1.00204 1.01672.49932-.00626.9896-.39541.9896-1.01672 0-.15535-.04565-.3861-.13435-.65056-.08737-.2605-.21063-.53633-.35228-.77793-.1102-.18793-.22311-.34353-.32713-.44867-.05183-.05238-.09607-.08673-.13114-.10688zm7.55377 1.398c-.1513-.15638-.2507-.19252-.2936-.19252-.0428 0-.1423.03614-.2935.19252-.1416.14635-.2912.35971-.4346.61334-.1823.32257-.3408.69094-.4532 1.03962-.1136.35238-.1746.66748-.1746.88717 0 .74888.607 1.35593 1.3559 1.35593s1.3559-.60705 1.3559-1.35593c0-.21969-.061-.53479-.1746-.88717-.1124-.34868-.2708-.71705-.4531-1.03962-.1434-.25363-.2931-.46699-.4346-.61334zm-3.3551 5.19596c.2773.26095.5317.61551.7509 1.00333.5016.88751.8782 2.04501.8782 2.78021 0 1.4257-1.1558 2.5815-2.5815 2.5815-1.42564 0-2.58145-1.1558-2.58145-2.5815 0-.7352.37663-1.8927.87824-2.7802.2192-.38783.47361-.74239.75091-1.00333.2735-.25744.5977-.45002.9523-.45002.3547 0 .6789.19258.9524.45001zm-.5439.67023c-.1877-.19204-.3264-.25261-.4085-.25261-.082 0-.2207.06057-.4084.25261-.1788.18292-.3647.44727-.5407.75864-.222.39267-.41462.84097-.55134 1.26557-.13792.4282-.21338.8153-.21338 1.0891 0 .9466.76732 1.7139 1.71382 1.7139.9466 0 1.7139-.7673 1.7139-1.7139 0-.2738-.0755-.6609-.2134-1.0891-.1367-.4246-.3293-.8729-.5513-1.26558-.176-.31137-.3619-.57571-.5407-.75863zm22.1561 17.81151-2.0592-1.806c-2.7896 1.3604-5.4732 1.4105-8.1139 1.4598-3.4469.0644-6.8208.1273-10.2621 3.1013-.0714.0618-.177.0586-.2446-.0043l-9.78404-8.5808c-.60461.3331-1.16102.7381-1.67131 1.2005-.06202.0562-.12336.1133-.18402.1711l11.76797 10.3208c3.5922-2.9177 7.0064-2.9928 10.4283-3.0681 3.2462-.0715 6.4993-.1431 9.9179-2.6417.0683-.0499.1366-.1008.205-.1526zm-.3977-.0163-1.7022-1.4929c-2.7892 1.316-5.4812 1.3656-8.0738 1.4133-.4018.0074-.8013.0147-1.1984.0268-3.0105.0911-5.926.4436-8.8996 3.0133-.1679.1452-.415.1386-.5751-.0073l-9.64851-8.462c-.51973.3012-1.0028.6582-1.45061 1.0616l11.40202 9.9998c3.5446-2.7992 6.9296-2.9145 10.2491-2.9883.0507-.0011.1013-.0023.152-.0034 3.2363-.0713 6.4071-.1412 9.7451-2.5609zm-24.42332-24.81555c-.29226-.49847-.66674-.88195-1.04078-.88195-.37402 0-.7485.38347-1.04077.88196-.33169.56573-.57267 1.29539-.57267 1.74018 0 1.04821.82356 1.64443 1.63853 1.62844.79825-.01566 1.58837-.62238 1.58837-1.62844 0-.44479-.24098-1.17446-.57268-1.74019zm-1.04078-.51432c.22477 0 .49303.30418.72486.69958.30175.51465.52097 1.1667.52097 1.55493 0 .774-.61672 1.25894-1.23647 1.2667-.62598.00785-1.25517-.46922-1.25517-1.2667 0-.38824.21922-1.04028.52097-1.55493.23182-.3954.50009-.69958.72484-.69958zm7.3111 1.22595c.299 0 .6478.40561.9458.93285.3824.67649.6601 1.53603.6601 2.0498 0 .88695-.7189 1.60593-1.6059 1.60593-.8869 0-1.6059-.71898-1.6059-1.60593 0-.51377.2778-1.37331.6601-2.0498.2981-.52724.6469-.93285.9458-.93285zm-2.5282 6.76482c-.4238-.74965-.96-1.32635-1.4857-1.32635-.5256 0-1.0619.57671-1.48557 1.32636-.48993.86679-.84588 1.98099-.84588 2.65719 0 1.2876 1.04385 2.3315 2.33145 2.3315 1.2877 0 2.3315-1.0439 2.3315-2.3315 0-.6762-.3559-1.7904-.8458-2.6572zm-1.4857-.95872c.3739 0 .8032.49491 1.1669 1.13823.4616.81679.797 1.85579.797 2.47769 0 1.0847-.8792 1.9639-1.9639 1.9639-1.0846 0-1.96382-.8792-1.96382-1.9639 0-.6219.3354-1.6609.79702-2.47768.3637-.64333.793-1.13824 1.1668-1.13824z" fill-rule="evenodd"/></g></svg>