<?xml version="1.0" standalone="no"?>
<!DOCTYPE svg PUBLIC "-//W3C//DTD SVG 20010904//EN"
 "http://www.w3.org/TR/2001/REC-SVG-20010904/DTD/svg10.dtd">
<svg version="1.0" xmlns="http://www.w3.org/2000/svg"
 width="800.000000pt" height="800.000000pt" viewBox="0 0 800.000000 800.000000"
 preserveAspectRatio="xMidYMid meet">
<metadata>
Created by potrace 1.14, written by Peter Selinger 2001-2017
</metadata>
<g transform="translate(0.000000,800.000000) scale(0.100000,-0.100000)"
fill="#000000" stroke="none">
<path d="M2757 6989 c-123 -29 -240 -154 -261 -279 -9 -53 -16 -90 -27 -140
-6 -25 -13 -56 -15 -70 -3 -14 -14 -68 -25 -120 -11 -52 -22 -106 -25 -120 -2
-14 -10 -56 -19 -93 -8 -37 -17 -82 -20 -100 -3 -18 -8 -39 -10 -47 -2 -8 -6
-26 -9 -40 -10 -50 -48 -236 -52 -255 -3 -11 -11 -51 -19 -90 -7 -38 -29 -144
-48 -235 -20 -91 -38 -182 -41 -204 -4 -21 -8 -41 -10 -45 -2 -3 -7 -22 -10
-41 -3 -19 -21 -109 -40 -200 -19 -91 -37 -176 -40 -190 -2 -14 -18 -92 -35
-175 -18 -82 -49 -235 -71 -340 -21 -104 -43 -210 -49 -235 -5 -25 -12 -56
-15 -70 -2 -14 -10 -50 -16 -80 -6 -30 -13 -66 -16 -80 -3 -14 -12 -59 -20
-100 -9 -41 -17 -84 -20 -95 -2 -11 -13 -63 -23 -115 -64 -302 -83 -397 -86
-410 -2 -8 -18 -85 -35 -170 -18 -85 -34 -165 -35 -177 -2 -11 -6 -30 -9 -41
-4 -11 -9 -33 -11 -48 -3 -16 -19 -94 -36 -174 -16 -80 -32 -156 -35 -170 -3
-14 -18 -88 -34 -165 -16 -77 -31 -151 -34 -165 -2 -14 -20 -101 -40 -195 -19
-93 -37 -181 -40 -195 -2 -14 -10 -50 -16 -80 -37 -164 44 -331 196 -406 l59
-29 815 0 815 0 100 28 c370 101 774 339 1057 619 57 57 120 123 141 148 50
59 157 221 191 288 31 61 85 218 91 265 3 18 7 43 10 57 13 57 5 305 -10 330
-2 3 -6 26 -10 50 -7 47 -81 281 -110 347 -53 122 -117 251 -168 343 -65 116
-197 379 -241 480 -70 158 -159 429 -192 585 -9 43 -34 193 -39 240 -4 28 -8
61 -11 75 -18 109 -25 540 -11 680 37 369 164 733 363 1043 138 213 134 206
134 267 0 67 -23 110 -73 133 -32 16 -110 17 -879 16 -463 -1 -860 -5 -881
-10z m1088 -405 c-3 -24 -8 -49 -10 -56 -2 -7 -7 -24 -9 -38 -37 -180 -58
-265 -76 -300 -28 -55 -97 -121 -157 -151 -48 -24 -52 -24 -411 -27 -347 -3
-363 -2 -358 15 6 23 68 321 71 348 2 11 8 40 15 65 7 25 13 54 15 65 2 23 14
82 21 106 4 15 46 17 455 17 l450 -1 -6 -43z m-160 -816 c-3 -13 -12 -57 -21
-98 -8 -41 -17 -82 -19 -90 -2 -8 -22 -105 -45 -215 -43 -208 -54 -263 -64
-305 -3 -14 -10 -47 -16 -75 -61 -317 -161 -769 -178 -808 -31 -67 -87 -123
-159 -159 l-66 -32 -353 -1 c-281 -2 -354 1 -354 11 0 7 7 41 14 76 8 35 17
74 19 88 3 14 23 111 45 215 22 105 43 204 45 220 3 17 21 104 41 195 19 91
37 176 40 190 5 28 89 427 137 658 l32 152 454 0 453 0 -5 -22z"/>
<path d="M5429 6996 c-2 -2 -25 -6 -50 -9 -153 -18 -349 -124 -469 -253 -245
-264 -414 -577 -499 -927 -48 -194 -56 -277 -56 -547 0 -193 8 -360 20 -415 4
-20 11 -61 21 -140 11 -79 83 -342 123 -452 56 -152 127 -308 218 -482 160
-306 220 -430 260 -536 8 -22 21 -53 28 -70 34 -80 101 -323 120 -435 13 -76
17 -268 7 -330 -21 -138 -140 -405 -259 -584 -151 -226 -330 -404 -579 -574
-128 -88 -213 -176 -214 -225 0 -16 36 -17 670 -17 679 1 725 3 845 40 227 70
401 236 572 545 97 175 188 431 208 580 2 17 4 30 5 30 10 0 24 198 24 330 0
174 -10 282 -39 435 -51 262 -175 567 -348 852 -40 66 -77 127 -82 136 -6 9
-37 58 -69 107 -32 50 -69 106 -81 125 -94 145 -214 435 -256 617 -10 46 -13
59 -24 112 -6 30 -26 174 -30 221 -6 57 -7 284 -1 300 3 8 8 35 11 60 10 71
13 81 34 154 89 303 274 616 492 835 108 108 200 184 338 276 129 87 221 185
221 235 0 7 -179 10 -579 10 -318 0 -580 -2 -582 -4z"/>
</g>
</svg>
