<svg fill="none" height="33" viewBox="0 0 43 33" width="43" xmlns="http://www.w3.org/2000/svg"><path d="m33.1185 22.2223c-1.0801.0207-2.1556.1445-3.2121.3697-1.3456.2807-2.7156.4278-4.0901.4391-1.658 0-4.5581-4.9394-7.1231-9.2953-1.8082-3.0791-3.68-6.26227-5.4189-8.34778-4.11323-4.933596-6.6609-5.078022-6.93243-5.078022h-.09243c-.05199 0-5.349538.953212-5.349538 6.250762 0 1.99885.623918 4.52344 1.421148 7.72394 1.15541 4.7371 2.64011 10.6355 2.64011 17.4351 0 .1532.06087.3001.16921.4085.10834.1083.25528.1692.4085.1692h2.43213c.15322 0 .30016-.0609.4085-.1692.10834-.1084.1692-.2553.1692-.4085.06741-4.8871.42622-9.7658 1.07453-14.6102 4.04397 1.0168 8.01277 5.2802 11.59457 12.4438.9127 1.8255 2.7267 2.7556 5.3842 2.7556h13.8186c.2915.0088.5816-.0421.8526-.1496.2711-.1075.5172-.2693.7234-.4755.2062-.2061.368-.4523.4755-.7233s.1584-.5612.1496-.8526c0-1.8602-.9243-2.7903-2.6055-4.4657-2.5187-2.5245-3.9399-3.42-6.8977-3.42zm7.3021 8.9255h-13.7955c-2.2184 0-3.6396-.6932-4.3501-2.1144-4.795-9.5725-9.5148-12.5246-12.91751-13.1716-.0446-.0173-.09118-.0289-.13865-.0347h-.08088c-.27152-.0462-.53726-.0751-.79145-.0924s-.45639 0-.68169 0c-.15322 0-.30016.0609-.4085.1692s-.16921.2553-.16921.4085.06087.3002.16921.4085.25528.1692.4085.1692h.5777.23686c-.63851 4.7222-1.01268 9.4764-1.12075 14.2404h-1.25939c-.08088-6.6725-1.51359-12.4495-2.66899-17.1347-.74524-2.9983-1.38649-5.58639-1.38649-7.4466 0-4.04393 3.76085-4.98558 4.32122-5.10112.32929.04043 2.53612.47949 6.01972 4.65629 1.6753 2.01041 3.524 5.15313 5.3091 8.19183 3.1138 5.3207 5.7943 9.8903 8.1051 9.8903 1.4442-.0112 2.8838-.1641 4.2982-.4564.988-.2115 1.9938-.3295 3.004-.3524 2.5708 0 3.7724.7684 6.0832 3.0792 1.6003 1.6002 2.2646 2.2646 2.2646 3.6511.0083.1377-.0125.2756-.0611.4048-.0486.1291-.1238.2466-.2209.3447-.097.0981-.2136.1746-.3422.2247-.1286.05-.2663.0724-.4041.0656z" fill="#fff"/></svg>