<svg fill="none" height="32" viewBox="0 0 40 32" width="40" xmlns="http://www.w3.org/2000/svg"><path d="m38.7924 22.0936h-8.9615c.0115-.011.0234-.0216.0344-.0331l4.0919-4.0933c2.3826-2.3821 3.6949-5.5483 3.6944-8.91553 0-3.36727-1.3122-6.53436-3.6958-8.916974-.1801-.1795946-.4981-.1795946-.6772 0l-4.0919 4.093314c-.1872.18726-.1872.49041 0 .67719 3.1614 3.16086 4.1168 7.6996 2.8793 11.7-1.9986 1.51-4.4755 2.3519-6.998 2.3668-.0081 0-.0158-.0005-.0239-.0005h-18.32152c-.26485 0-.47892.2146-.47892.4789v2.6432h-2.64315c-.26484 0-.47892.2145-.47892.4789v2.6431h-2.642672c-.264842 0-.478918.2146-.478918.479v5.8265c0 .2643.214076.4789.478918.4789h35.191382c.2649 0 .4789-.2146.4789-.4789v-2.6432h2.6432c.2648 0 .4789-.2145.4789-.4789v-5.8265c0-.2644-.2141-.4789-.4789-.4789zm-8.5956-17.52077 3.4142-3.41564c1.9918 2.158 3.0832 4.94291 3.0832 7.89448.0005 3.11153-1.2121 6.03673-3.4137 8.23833l-.6829.683c1.8299-4.4315 1.0292-9.70292-2.4008-13.40017zm-22.99531 15.35647h17.80951c.0187.0015.0369.0015.0537.0005 2.2504-.0119 4.4649-.6389 6.3873-1.7705-.5546 1.1647-1.3007 2.2605-2.2634 3.2236-2.2217 2.2202-5.1895 3.4324-8.3097 3.4151h-13.67741zm27.98991 11.1124h-34.233564v-4.8682h2.164234v2.2255c0 .2644.21407.4789.47892.4789h31.59091v2.1638zm3.1221-3.1216h-34.2336v-4.8687h2.16424v2.2255c0 .2644.21407.479.47891.479h14.15295.0748c2.8634 0 5.5794-.9521 7.7958-2.7045h9.5669z" fill="#fff"/></svg>