<svg fill="none" height="37" viewBox="0 0 33 37" width="33" xmlns="http://www.w3.org/2000/svg"><path d="m16.7763.96152c-.1981.021776-.3809.11699-.5124.26687-.1314.14988-.2019.34356-.1977.54287v4.27292l-3.4756-2.9026c-.0819-.0699-.1771-.1225-.2799-.15462-.1027-.03211-.2109-.04308-.3181-.03224-.159.0141-.3101.07562-.4338.1766-.1237.10097-.2142.23675-.2598.38975-.0457.153-.0443.31618.0039.4684.0481.15223.1409.28649.2662.3854l4.4971 3.74971v9.01922l-7.78588-4.4224-1.00906-5.86749c-.03088-.2004-.13696-.38151-.29664-.50648s-.36098-.18441-.56293-.16622c-.11107.01014-.21878.04348-.31616.09785-.09739.05437-.18228.12856-.2492.21779-.06692.08922-.11438.1915-.13931.30021-.02492.10872-.02677.22145-.0054.33092l.78482 4.57192-3.97394-2.25483c-.13871-.08327-.29947-.12237-.46093-.11212-.17263.01028-.33724.0764-.46901.1884s-.22356.2638-.26152.43252c-.03796.16873-.02004.34523.05106.50283.0711.1577.19153.2879.34312.3712l3.83691 2.18-4.12343 1.5198c-.10377.0316-.2.084-.28281.1541-.08281.07-.150452.1563-.198794.2534s-.076365.203-.082354.3113.010181.2167.047521.3185c.03734.1019.095067.195.169647.2738.07458.0787.16444.1414.26409.1843.09965.0428.20699.0649.31546.0648s.21578-.0223.31537-.0653l5.39409-1.9807 7.87318 4.4722-7.87318 4.4723-5.39409-1.9932c-.12645-.0504-.26369-.0676-.39864-.0499-.17793.0243-.34245.108-.46692.2374-.124473.1294-.201602.2971-.218899.4759-.017298.1787.026248.3581.123589.509.09734.1509.24277.2645.41274.3225l4.12343 1.5198-3.83691 2.18c-.18232.1063-.31514.2804-.3694.4844-.05426.2039-.02555.421.07986.6038.1054.1828.27892.3165.48259.3717.20368.0552.42093.0275.60423-.0771l3.98639-2.2672-.79727 4.5843c-.02279.105-.02412.2135-.0039.3191.02021.1055.06154.2059.12151.295.05997.0892.13734.1653.22747.2238s.19115.0982.297.1167c.10584.0184.21433.0153.31895-.0092s.20321-.0698.28985-.1334c.08663-.0636.15953-.144.2143-.2364.05478-.0925.09031-.195.10446-.3015l1.00906-5.8675 7.78588-4.4224v9.0192l-4.4971 3.7497c-.081.0671-.148.1495-.1971.2424-.0492.093-.0795.1947-.0893.2994-.0099.1047.001.2103.032.3108.031.1004.0814.1938.1485.2748s.1494.148.2424.1971c.093.0492.1947.0795.2994.0894.1047.0098.2103-.0011.3107-.0321.1005-.031.1939-.0814.2749-.1485l3.4756-2.9026v4.2854c-.0014.1056.0181.2105.0575.3086.0394.098.0979.1872.172.2625.0742.0752.1626.135.2601.1757.0975.0408.2021.0618.3077.0618.1057 0 .2103-.021.3078-.0618.0974-.0407.1858-.1005.26-.1757.0742-.0753.1327-.1645.1721-.2625.0394-.0981.0589-.203.0574-.3086v-4.2854l3.4756 2.9026c.081.0671.1744.1175.2749.1485s.2061.0419.3108.0321c.1047-.0099.2064-.0402.2993-.0894.093-.0491.1754-.1161.2424-.1971.0671-.081.1176-.1744.1486-.2748.0309-.1005.0418-.2061.032-.3108s-.0402-.2064-.0893-.2994c-.0492-.0929-.1162-.1753-.1971-.2424l-4.4972-3.7497v-9.0192l7.7859 4.4224 1.0091 5.8675c.0141.1065.0497.209.1044.3015.0548.0924.1277.1728.2144.2364.0866.0636.1852.1089.2898.1334s.2131.0276.319.0092c.1058-.0185.2068-.0582.297-.1167.0901-.0585.1674-.1346.2274-.2238.06-.0891.1013-.1895.1215-.295.0202-.1056.0189-.2141-.0039-.3191l-.7972-4.5843 3.9864 2.2672c.1833.1046.4005.1323.6042.0771s.3772-.1889.4826-.3717.1341-.3999.0798-.6038c-.0542-.204-.187-.3781-.3694-.4844l-3.8369-2.18 4.1235-1.5198c.1818-.0656.3337-.195.4273-.3642s.1225-.3667.0813-.5556c-.0411-.1889-.1495-.3564-.3049-.4714-.1555-.115-.3474-.1696-.5401-.1536-.0725.0069-.1438.0237-.2118.0499l-5.3941 1.9932-7.8731-4.4723 7.8731-4.4722 5.3941 1.9807c.0996.043.2069.0652.3154.0653s.2158-.022.3155-.0648c.0996-.0429.1895-.1056.264-.1843.0746-.0788.1323-.1719.1697-.2738.0373-.1018.0535-.2102.0475-.3185s-.034-.2142-.0823-.3113c-.0484-.0971-.116-.1834-.1988-.2534-.0828-.0701-.1791-.1225-.2828-.1541l-4.1235-1.5198 3.8369-2.18c.1593-.0873.284-.2263.3535-.3941.0696-.1677.0797-.3542.0289-.5285-.0508-.17434-.1597-.32609-.3085-.43016-.1488-.10408-.3287-.15424-.5099-.14219-.1277.00786-.2516.04631-.3612.11212l-3.974 2.25483.7848-4.57192c.0225-.11752.0183-.2386-.0124-.35426-.0307-.11565-.087-.22292-.1648-.31385-.0777-.09094-.175-.1632-.2845-.21144-.1095-.04823-.2284-.07121-.348-.06722-.1851.00644-.3621.07709-.5008.19984s-.2303.28994-.2591.47286l-1.0091 5.86749-7.7859 4.4224v-9.01922l4.4972-3.74971c.0809-.06707.1479-.14944.1971-.24239.0491-.09296.0795-.19469.0893-.29938s-.0011-.21029-.032-.31077c-.031-.10048-.0815-.19388-.1486-.27486-.067-.08098-.1494-.14795-.2424-.1971-.0929-.04915-.1946-.0795-.2993-.08934-.1047-.00983-.2103.00105-.3108.03203s-.1939.08145-.2749.14852l-3.4756 2.9026v-4.27292c.0025-.1135-.0194-.22621-.064-.3306-.0446-.10438-.111-.19804-.1947-.27469-.0838-.07666-.1829-.13456-.2908-.169814-.1079-.035257-.2221-.047066-.335-.034636z" fill="#fff"/></svg>