<svg fill="none" height="32" viewBox="0 0 32 32" width="32" xmlns="http://www.w3.org/2000/svg"><path d="m27.0375 4.43342c-.0075-.00853-.0103-.01991-.0188-.02809-.0107-.01066-.0246-.01422-.0356-.02382-2.8679-2.71289-6.7331-4.38151-10.9831-4.38151-8.8224 0-16 7.1776-16 16 0 4.2396 1.66044 8.0964 4.3616 10.9625.01458.0195.0224.0423.03982.0601.01387.0138.03236.0195.04765.0316 2.91449 3.0443 7.01373 4.9458 11.55093 4.9458 8.8224 0 16-7.1776 16-16 0-4.5454-1.9086-8.65102-4.9625-11.56658zm-11.0375-3.36675c3.7792 0 7.2327 1.41404 9.866 3.73724l-5.4724 5.47239c-.6713-.82563-1.3835-1.60074-2.1191-2.39754-.3253-.35272-.6549-.71005-.9874-1.07876-.662-.73458-1.4531-1.56338-2.47-2.09849-.2016-.10631-.4473-.07289-.613.08249s-.2151.39858-.1227.60622c1.4176 3.18187 1.4429 6.97028.1252 10.19518-.6379-1.8215-1.904-4.1898-2.6578-4.3157-.1465-.0242-.2958.0135-.4128.1031-.1173.0903-.192.2254-.2059.3726-.0035.0352-.3491 3.5353-1.60388 5.3643-1.10329 1.6082-1.59573 3.4787-1.35146 5.1324.0192.1295.04408.256.07253.3801l-3.24373 3.2438c-2.32285-2.6329-3.73689-6.0864-3.73689-9.866 0-8.23431 6.69902-14.93333 14.93333-14.93333zm2.9536 16.66203c-.1006-.1472-.2667-.2325-.4405-.2325-.0352 0-.0711.0035-.1067.0106-.2105.0431-.3748.208-.4164.4189-.3534 1.7781-1.766 2.9788-2.3576 3.4133-.0697.0509-.5437.3556-.8896.5778-.1672.1077-.3346.2151-.4822.3104-.5084-.901-1.0983-1.7557-1.7525-2.5568l7.782-7.782c.2941.406.5764.8277.8427 1.2739.7772 1.3024 1.4553 3.211 1.7703 4.9821l.0189.1105c.4309 2.6361-.5906 5.4749-2.6024 7.2327-.2193.1917-.4295.3481-.6318.4708 1.0962-2.3125 1.514-4.9333-.7342-8.2297zm-8.347 7.1492c-.5294-.5021-1.05282-1.1552-1.3554-1.9506l.9006-.9006c-.0569.8394.0932 1.7955.4548 2.8512zm-.4004-7.1648c.928-1.3533 1.4016-3.3963 1.6214-4.6809.651 1.061 1.5669 2.9706 1.6956 4.1145l-4.52871 4.529c-.07076-1.2782.36444-2.7278 1.21171-3.9626zm5.2836-2.533c.9177-2.7293.9916-5.75539.1891-8.51912.2934.28018.5647.57386.816.85262.335.37191.6678.7328.9959 1.08836.7474.80995 1.4696 1.59684 2.1437 2.43344zm.5102 15.7532c-4.0718 0-7.76676-1.6398-10.46329-4.2919l2.90453-2.9045c.68125 1.408 1.87946 2.3712 2.65356 2.8811.0366.0241.1272.07.2321.1176.0548.0249.117.052.1622.0758.1589.1408.3936.1781.5945.0761.2624-.133.3676-.4537.2346-.7168v-.0004c-.9347-1.8421-1.7262-4.2467-.5024-5.6672.6788.8519 1.2765 1.7703 1.7803 2.736.0003.0007.0003.0014.0007.0018.1365.261.459.3623.7196.2261.0356-.0188.0683-.0409.0978-.0658.1074-.0746.5654-.369.9046-.587.5795-.3726.8618-.555.9447-.6158.5571-.4089 1.7401-1.4055 2.401-2.8999 1.4592 2.7051.8921 4.8259-.4992 7.264-.0942.165-.0832.3676.0121.5319.0957.1646.2816.2656.4715.2656.7723 0 1.5481-.3495 2.3719-1.0692 2.283-1.9946 3.4425-5.2167 2.9532-8.2076l-.0216-.1266c-.336-1.8887-1.066-3.9346-1.9044-5.3408-.315-.5283-.6496-1.019-.9966-1.4894l5.5893-5.58933c2.6528 2.69617 4.2926 6.39113 4.2926 10.46293 0 8.2343-6.699 14.9333-14.9333 14.9333z" fill="#fff"/></svg>