<svg fill="none" height="32" viewBox="0 0 28 32" width="28" xmlns="http://www.w3.org/2000/svg"><g fill="#fff"><path d="m17.8551 17.9886v-13.77694c0-2.32225-1.8902-4.21166-4.2136-4.21166-2.3233 0-4.21349 1.88941-4.21349 4.21166v13.77694c-2.15224 1.4211-3.42801 3.7788-3.42801 6.368 0 4.2146 3.42838 7.6434 7.6423 7.6434 4.2135 0 7.6408-3.4288 7.6408-7.6434 0-2.5892-1.2758-4.9469-3.428-6.368zm-4.2128 12.893c-3.5973 0-6.52386-2.9274-6.52386-6.525 0-2.301 1.1807-4.3873 3.15806-5.5814.1674-.101.2703-.2826.2703-.4783v-14.08524c0-1.70561 1.3887-3.09322 3.0951-3.09322s3.0951 1.38761 3.0951 3.09322v14.08524c0 .1957.1025.3773.2703.4783 1.9778 1.1941 3.1581 3.2804 3.1581 5.5814-.0008 3.5976-2.9266 6.525-6.5231 6.525zm.5585-9.9183v-12.03183c0-.30906-.2502-.55922-.5593-.55922-.309 0-.5592.25016-.5592.55922v12.03183c-1.6333.2684-2.8844 1.6854-2.8844 3.3933 0 1.9006 1.5453 3.4463 3.4436 3.4463 1.8995 0 3.4445-1.5457 3.4445-3.4463 0-1.7075-1.2516-3.1253-2.8852-3.3933zm-.5593 5.7211c-1.2821 0-2.3252-1.0442-2.3252-2.3278 0-1.2817 1.0431-2.3241 2.3252-2.3241 1.2825 0 2.326 1.0427 2.326 2.3241 0 1.2836-1.0435 2.3278-2.326 2.3278z"/><path d="m6.01188 17.6783c.27613 0 .49996-.2239.49996-.4999v-.565l.72499.5c.08281.0493.17884.0719.27502.0649.27608-.0022.49822-.2277.49606-.5038-.00121-.1651-.08407-.3191-.22108-.4111l-1.27494-.855v-.8177-1.4821-1.064-1.7317-1.06409-1.03989-1.25993l1.27494-.85494c.21508-.1732.24895-.48795.07575-.70298-.15087-.18731-.41373-.24062-.6257-.12695l-.72499.47999v-.56495c0-.27614-.22382-.49996-.49996-.49996-.27613 0-.49995.22382-.49995.49996v.56495l-.72494-.49995c-.21508-.1732-.52988-.13933-.70308.07575-.17315.21508-.13928.52977.07575.70297.02413.01944.04999.03656.07728.05125l1.27493.87491v2.29988c-.35056.0897-.67026.27286-.92495.52998l-1.99987-1.14994-.07502-1.52989c-.02207-.27608-.26385-.48205-.53993-.45987-.27608.02207-.482.26381-.45993.53994l.05495.86495-.49996-.28503c-.240258-.13807-.546891-.05521-.684904.185-.138119.24026-.055257.54694.184949.6849l.499955.28003-.779985.38497c-.2404176.13569-.325333.44064-.1896375.68116.0850205.15058.2418395.24658.4146725.25368.07812-.0014.154975-.0203.224983-.055l1.374917-.67994 1.99983 1.15494c-.10662.3452-.10662.7146 0 1.0599l-1.99983 1.1549-1.38993-.6849c-.24716-.1227-.546943-.0221-.6699438.225-.1227371.247-.0220191.5469.2249828.6699l.779931.385-.499954.28c-.240259.138-.323014.4447-.185.6849.138066.2403.444697.3231.684954.185l.49996-.285-.04499.8549c-.01991.2755.18716.5149.46256.5349.00079 0 .00152.0001.00242.0001h.03503c.26475.0005.484-.2056.4999-.47l.09998-1.5299 1.99983-1.1499c.246.2588.55669.4469.89993.5449v2.2999l-1.27494.855c-.21502.1732-.24895.4879-.07575.703.15082.1873.41373.2406.6257.1269l.72494-.4999v.5849c.0001.2761.22393.5.50011.5z"/><path d="m26.8673 10.6924h-1.5299c-.0484-.4488-.1665-.88742-.35-1.29994l1.3249-.76492c.2403-.13806.323-.44475.185-.68501-.1381-.24026-.4447-.32306-.6849-.185l-1.33.76993c-.2647-.36463-.5852-.68528-.9499-.94993l.7699-1.32993c.138-.24026.0553-.54689-.185-.68501-.2403-.13801-.5469-.05515-.685.18506l-.7649 1.32487c-.4125-.18352-.851-.30163-1.3-.34998v-1.5299c0-.27613-.2238-.49995-.4999-.49995s-.4999.22382-.4999.49995v1.5299 1.00602c.1634-.02339.3302-.03614.4999-.03614 1.9328 0 3.4998 1.56693 3.4998 3.49978 0 1.9328-1.5669 3.4998-3.4998 3.4998-.1698 0-.3366-.0128-.4999-.0362v1.0062 1.5298c0 .2761.2238.5.4999.5s.4999-.2239.4999-.5v-1.5298c.4489-.0485.8875-.1666 1.3-.3501l.7649 1.3249c.1381.2403.4447.3231.685.185s.323-.4447.185-.6849l-.7699-1.3299c.3647-.2647.6852-.5853.9499-.95l1.33.7699c.2402.1381.5468.0553.6849-.185.138-.2403.0553-.5468-.185-.6849l-1.3249-.7649c.1834-.4126.3016-.8512.35-1.3h1.5299c.2761 0 .5-.2239.5-.4999s-.2239-.4998-.5-.4998z"/></g></svg>