<svg fill="none" height="33" viewBox="0 0 33 33" width="33" xmlns="http://www.w3.org/2000/svg"><g fill="#fff"><path d="m16.1231 6.525c.442 0 .8001-.35806.8001-.80009v-4.798118c0-.000682.0003-.001024.0003-.001707 0-.441685-.3584-.800085-.8001-.800085-.442 0-.8004.3584-.8004.800085v4.799825c0 .44203.3584.80009.8001.80009z"/><path d="m6.52305 16.125c0-.4417-.35806-.8001-.80009-.8001h-4.798121c-.000682 0-.001024 0-.001707 0-.441685 0-.800085.3581-.800085.8001s.3584.8001.800085.8001h4.799828c.44203 0 .80009-.3581.80009-.8001z"/><path d="m31.324 15.3249h-4.7808c-.0006 0-.001 0-.0017 0-.4416 0-.8.3581-.8.8001s.3584.8001.8.8001h4.7825c.442 0 .7997-.3581.7997-.8001 0-.4417-.3577-.8001-.7997-.8001z"/><path d="m16.1242 25.6895c-.4421 0-.8001.3581-.8001.8001v4.8336c0 .0007-.0004.001-.0004.0017 0 .4417.3584.8001.8001.8001.442 0 .8004-.3584.8004-.8001v-4.8353c0-.442-.3584-.8001-.8-.8001z"/><path d="m24.0422 9.33622 3.3928-3.39251c.0007-.00068.0011-.00068.0014-.00136.3123-.31198.3123-.81852 0-1.13118-.3123-.31232-.8189-.31232-1.1312 0l-3.3942 3.39387c-.3123.31267-.3123.81886 0 1.13118.3127.31266.8189.31266 1.1312 0z"/><path d="m8.20344 9.33622c.31232.31266.81852.31266 1.13118 0 .31198-.31232.31232-.81852 0-1.13118l-3.39285-3.39251c-.00035-.00068-.00069-.00102-.00103-.00136-.31232-.31232-.81886-.31267-1.13118 0-.31266.31266-.31232.81885 0 1.13117z"/><path d="m24.0565 22.9271c-.0003-.0004-.0007-.0007-.001-.001-.3123-.3124-.8189-.3124-1.1312 0-.3127.3126-.3123.8188 0 1.1311l3.3813 3.3816c.3126.3127.8188.3127 1.1315 0 .312-.3123.3123-.8185 0-1.1311z"/><path d="m8.22891 22.8885-3.41811 3.4178c-.00068.0007-.00102.0007-.00136.0014-.31232.3119-.31232.8185 0 1.1311.31266.3124.81885.3124 1.13117 0l3.41982-3.4188c.31232-.3126.31232-.8188 0-1.1311-.31266-.313-.8192-.313-1.13152-.0004z"/><path d="m16.1736 8.1262v-.00137h-.0996v.00137c-4.3991.02662-7.95071 3.5936-7.95071 7.9988 0 4.4053 3.55161 7.9722 7.95071 7.9988v.0014h.0996v-.0014c4.3991-.0266 7.9511-3.5932 7.9511-7.9988s-3.552-7.97218-7.9511-7.9988zm-.0426 14.3985h-.0137c-3.5345-.0038-6.3935-2.8648-6.3935-6.3997 0-3.5348 2.859-6.3959 6.3932-6.39966h.0136c3.5342.00376 6.3932 2.86486 6.3932 6.39966 0 3.5349-2.8587 6.3959-6.3928 6.3997z"/></g></svg>