<svg fill="none" height="86" viewBox="0 0 219 86" width="219" xmlns="http://www.w3.org/2000/svg" xmlns:xlink="http://www.w3.org/1999/xlink"><clipPath id="a"><path d="m0 0h219v86h-219z"/></clipPath><g clip-path="url(#a)" fill="#fff"><g clip-rule="evenodd" fill-rule="evenodd"><path d="m145.652 41.1403c-.57.7476-1.078 1.4131-1.587 2.0796-.389.5098-.36.5418.222.818.995.4756 1.973.9918 3.064 1.5474-.582.2997-1.094.3648-1.594.4416-2.818.4372-5.548.081-8.109-1.3417-4.651-2.5851-7.342-6.7891-8.033-12.5651-.216-1.8076-.098-3.6121.251-5.3931.045-.225.151-.3722.32-.4938.824-.5876 1.648-1.1816 2.457-1.7959.255-.1941.363-.1653.449.1749.27 1.0345.552 2.0689.844 3.0991.155.5535-.018 1.0857-.063 1.6253-.134 1.6104.016 3.2048.525 4.6872 1.104 3.2207 3.114 5.4859 6.028 6.6697 1.539.6249 3.131.7614 4.747.482.12-.0213.246-.0149.479-.0352z"/><path d="m130.697 24.1352c-.046-.1941.06-.3434.124-.4981 2.971-7.2391 10.324-10.8886 17.091-8.489 1.782.6313 3.365 1.6508 4.827 2.9445.555.4927.859 1.0494.862 1.8482.003.8499.052 1.6978.093 2.5456.015.3232-.07.3946-.354.3146-1.007-.289-2.02-.5535-3.03-.818-.408-.1055-.668-.466-.982-.7166-3.83-3.1109-9.082-2.5094-12.356.9161-.805.8414-1.425 1.8194-1.962 2.8784-.092.1823-.142.3978-.316.5449-.216-.3434-.254-.7572-.366-1.1326-.188-.6366-.342-1.2818-.522-1.9196-.138-.4906-.32-.5098-.7-.16-.739.6879-1.551 1.2553-2.403 1.749z"/><path d="m151.624 23.7597c.928.2453 1.747.4511 2.562.674.774.209.812.1781.777-.705-.039-.9203-.069-1.8385-.1-2.7589-.002-.048.015-.0981.028-.176.195.0608.288.2304.377.3861.9 1.5656 1.664 3.2047 2.064 5.0305.876 4.0227.559 7.8897-1.18 11.5755-1.042 2.2086-2.486 4.0355-4.281 5.4912-.722.5855-1.496 1.0931-2.304 1.5229-.278.1461-.547.1898-.853.016-.891-.4916-1.789-.9641-2.694-1.4216-.305-.1557-.28-.2922-.086-.5375.645-.8233 1.276-1.6573 1.917-2.4849.267-.3466.649-.4969.975-.7412 3.462-2.5584 4.962-6.178 4.562-10.7819-.149-1.7299-.752-3.304-1.593-4.7576-.041-.0693-.076-.1471-.171-.3316z"/></g><path d="m45.5107 20.2249.2451-.1109v-20.11363379l-45.515788 18.91063379-.23976786.1141v20.1072z"/><path d="m45.5107 41.7094.2462-.1152-.0011-20.1114-45.515788 18.9106-.23976786.0853.00214367 20.1381z"/><path d="m30.578 69.396v-20.1263l-30.337841 12.6067-.23869416.1077v20.1157z"/><path d="m1.63232 82.7834h28.94628v-12.0277z"/><path d="m60.9307 82.7834h28.9463l-28.9463-12.0277z"/><path d="m60.9316 49.2694v20.1264l30.5765 12.7038.0032-20.1115z"/><path d="m45.7537 21.4829v20.1115l.2461.1151 45.5084 18.9074.0032-20.1189z"/><path d="m45.7558 0-.0021 20.1146.2461.1099 45.5084 18.9085.0021-20.1083z"/><path d="m101.635 14.8739h-.5v30.875h.5z"/><path clip-rule="evenodd" d="m100.857 14.5967h1.056v31.4295h-1.056z" fill-rule="evenodd"/><path d="m108.865 43.6705c-1.8-1.379-2.823-3.4767-3.075-6.2933h.458c.279 2.6769 1.282 4.6669 3.012 5.9637 1.734 1.2979 4.36 1.9453 7.877 1.9453 2.217 0 4.066-.3264 5.547-.9727 1.483-.6473 2.577-1.5378 3.283-2.6725.706-1.1316 1.06-2.4134 1.06-3.8489 0-1.2979-.25-2.4145-.747-3.353-.499-.9395-1.366-1.7415-2.597-2.4038-1.234-.6612-2.916-1.1849-5.05-1.572l-3.49-.6228c-2.024-.3551-3.652-.882-4.883-1.5741-1.234-.6879-2.12-1.5293-2.66-2.5233-.541-.995-.811-2.1798-.811-3.5588 0-1.412.36-2.6576 1.082-3.7507.719-1.0889 1.812-1.9463 3.282-2.567 1.467-.6207 3.255-.9311 5.36-.9311 2.215 0 4.073.3307 5.57.9951 1.496.6612 2.611 1.5666 3.344 2.7109.733 1.1465 1.144 2.4646 1.227 3.9545h-.5c-.138-2.2353-1.009-3.9961-2.619-5.278-1.606-1.2861-3.946-1.926-7.022-1.926-2.023 0-3.727.2954-5.112.8894-1.384.5941-2.418 1.4024-3.096 2.423-.678 1.0196-1.017 2.1799-1.017 3.4799 0 1.3214.262 2.454.79 3.3903.525.9407 1.377 1.7202 2.555 2.3431 1.178.6206 2.749 1.1112 4.717 1.4674l3.408.6239c2.243.4127 4.003.9705 5.279 1.6754 1.272.7028 2.173 1.5528 2.697 2.5467.529.9929.793 2.181.793 3.561 0 1.5464-.382 2.9178-1.144 4.1198-.761 1.1997-1.919 2.1372-3.468 2.8165-1.554.6729-3.466 1.0131-5.737 1.0131-3.741 0-6.511-.69-8.313-2.071z"/><path d="m111.044 15.6113c1.511-.639 3.338-.953 5.469-.953 2.241 0 4.14.3342 5.683 1.0189 1.536.6789 2.698 1.6166 3.466 2.8152v.0003c.76 1.19 1.184 2.555 1.27 4.0879l.016.2927h-1.055l-.017-.2602c-.133-2.1655-.973-3.8504-2.515-5.0784v-.0005c-1.537-1.2311-3.806-1.8649-6.848-1.8649-1.997 0-3.661.292-5.002.8668-1.345.5776-2.332 1.3552-2.974 2.3215-.646.9713-.971 2.0777-.971 3.3268 0 1.2851.255 2.3685.754 3.2545l.001.0009c.494.8837 1.301 1.6291 2.442 2.2328 1.144.6027 2.685 1.0864 4.637 1.4398v.0001l3.408.6239c2.259.4154 4.051.9803 5.364 1.7056 1.305.7213 2.252 1.6059 2.808 2.6597.555 1.0411.825 2.2758.825 3.6904 0 1.5942-.394 3.0179-1.186 4.2679-.796 1.255-2.002 2.2251-3.592 2.9222l-.001.0006c-1.598.6921-3.55 1.0361-5.848 1.0361-3.766 0-6.609-.6929-8.482-2.1285-1.877-1.4376-2.926-3.6157-3.183-6.4885l-.027-.3019h1.013l.026.2487c.273 2.6207 1.249 4.5313 2.903 5.7707 1.664 1.2454 4.218 1.8895 7.709 1.8895 2.192 0 3.999-.3228 5.435-.9493 1.442-.6296 2.487-1.4869 3.158-2.5647l.001-.0003c.677-1.0842 1.017-2.3147 1.017-3.7025 0-1.2625-.242-2.3326-.715-3.2234-.466-.8779-1.285-1.6451-2.483-2.2894-1.198-.6419-2.848-1.1587-4.967-1.5431l-3.488-.6226c-2.043-.3584-3.704-.8928-4.971-1.6054-1.269-.7072-2.198-1.5829-2.768-2.633-.568-1.0436-.845-2.2759-.845-3.6908 0-1.4618.373-2.7613 1.128-3.9032.755-1.1434 1.896-2.0323 3.405-2.6698z"/><path d="m102.965 80.4616c-1.801-1.38-2.828-3.4789-3.0756-6.2954h.4556c.278 2.679 1.283 4.6679 3.015 5.9637 1.731 1.2968 4.356 1.9463 7.875 1.9463 2.216 0 4.066-.3253 5.548-.9758 1.482-.6474 2.576-1.5379 3.281-2.6683.707-1.1315 1.061-2.4145 1.061-3.8532 0-1.2936-.25-2.4123-.749-3.3529-.496-.9353-1.363-1.7395-2.597-2.3996-1.234-.6623-2.915-1.1848-5.049-1.573l-3.491-.6218c-2.023-.3594-3.651-.883-4.882-1.5741-1.232-.6879-2.119-1.5314-2.659-2.5254-.542-.9939-.81-2.1809-.81-3.562 0-1.4035.359-2.6544 1.079-3.7465.72-1.0889 1.815-1.9463 3.285-2.5681 1.465-.6174 3.253-.9299 5.359-.9299 2.216 0 4.073.3317 5.567.9939 1.498.6634 2.613 1.5667 3.348 2.711.733 1.1475 1.142 2.4657 1.224 3.9566h-.5c-.136-2.2353-1.008-3.9982-2.617-5.2801-1.605-1.2851-3.947-1.926-7.022-1.926-2.023 0-3.727.2964-5.112.8915-1.386.593-2.417 1.3992-3.095 2.4209-.681 1.0228-1.017 2.1799-1.017 3.4767 0 1.3278.262 2.4582.788 3.3956.526.9407 1.377 1.7192 2.557 2.3409 1.176.6229 2.747 1.1092 4.715 1.4696l3.408.6207c2.246.4138 4.002.9726 5.278 1.6765 1.273.7049 2.175 1.5538 2.701 2.5457.526.996.788 2.1819.788 3.5598 0 1.5507-.378 2.9221-1.141 4.1209-.762 1.2008-1.918 2.1393-3.47 2.8165-1.553.6751-3.462 1.0153-5.737 1.0153-3.739 0-6.508-.69-8.309-2.07z"/><path d="m126.07 51.7947h-.499v31.3363h.499z"/><path clip-rule="evenodd" d="m125.293 51.5173h1.055v31.8909h-1.055z" fill-rule="evenodd"/><path d="m147.202 80.7683c2.145-1.2467 3.739-3.0085 4.777-5.2833 1.041-2.2737 1.561-4.9505 1.561-8.0305 0-3.1119-.506-5.8037-1.518-8.0795-1.011-2.2716-2.554-4.026-4.632-5.2567-2.08-1.2328-4.683-1.8513-7.813-1.8513h-7.605v30.3708h7.105c3.268 0 5.977-.6239 8.125-1.8695zm.416-27.0691c2.144 1.2745 3.753 3.0885 4.819 5.4347 1.068 2.3463 1.601 5.1212 1.601 8.3206 0 3.1984-.541 5.9712-1.621 8.3163-1.081 2.3495-2.735 4.1614-4.964 5.4369-2.232 1.2755-5.023 1.9132-8.376 1.9132h-7.605v-31.336h8.147c3.183 0 5.851.6378 7.999 1.9143z"/><path clip-rule="evenodd" d="m131.194 51.5076h8.425c3.219 0 5.94.6451 8.141 1.9534 2.195 1.3045 3.842 3.1625 4.931 5.5584 1.087 2.3899 1.625 5.2055 1.625 8.4351 0 3.2289-.546 6.0429-1.646 8.4319-1.105 2.4013-2.798 4.2572-5.079 5.5617-2.285 1.3058-5.126 1.9501-8.514 1.9501h-7.883zm1.056 1.0366v29.8163h6.827c3.234 0 5.891-.6174 7.985-1.8318 2.095-1.2175 3.649-2.9355 4.664-5.1585v-.0003c1.021-2.2302 1.536-4.8662 1.536-7.9154 0-3.0826-.502-5.7343-1.494-7.9672m-19.518-6.9431h7.327c3.094 0 5.644.6114 7.67 1.8124v.0001c2.027 1.2001 3.532 2.9096 4.521 5.1306" fill-rule="evenodd"/><path d="m158.899 51.7947h-.498v31.3363h.498z"/><path clip-rule="evenodd" d="m158.122 51.5173h1.056v31.8909h-1.056z" fill-rule="evenodd"/><path d="m185.994 51.7854v31.336h-.665l-18.118-27.0669c-1.304-1.9357-2.107-3.1685-2.41-3.6964v30.7633h-.499v-31.336h.664l18.119 27.067c1.301 1.9388 2.103 3.1684 2.409 3.6974v-30.7644z"/><path clip-rule="evenodd" d="m164.634 51.5081h.481l18.201 27.1901v.0003c.838 1.2486 1.472 2.207 1.9 2.8746v-30.065h1.056v31.8906h-.5v.1871l-.108-.1871h-.484l-18.2-27.1897c0-.0001 0-.0001 0-.0002-.839-1.2446-1.473-2.2027-1.9-2.8709v30.0608h-1.057v-31.8906h.5v-.1936z" fill-rule="evenodd"/><path d="m216.165 67.5425v14.3259h-.499v-9.6068c-.36 2.0156-1.053 3.7977-2.079 5.3409-1.024 1.5474-2.382 2.7536-4.071 3.6228-1.689.8713-3.67 1.3064-5.943 1.3064-2.688 0-5.029-.6516-7.023-1.9474-1.993-1.2968-3.527-3.1109-4.59-5.4443-1.07-2.3324-1.602-5.0017-1.602-8.0113 0-3.0373.524-5.7141 1.579-8.0337 1.052-2.3196 2.561-4.1262 4.531-5.4219 1.967-1.3 4.293-1.9474 6.982-1.9474 2.296 0 4.313.4501 6.046 1.347 1.73.8969 3.124 2.1254 4.176 3.6814 1.052 1.5613 1.746 3.3348 2.077 5.3217h-.498c-.332-1.9037-1.005-3.6004-2.016-5.0913-1.01-1.491-2.349-2.663-4.009-3.5194-1.662-.8564-3.589-1.284-5.776-1.284-2.578 0-4.817.6292-6.713 1.8812-1.898 1.2595-3.351 3.0192-4.364 5.2823-1.01 2.2641-1.516 4.8567-1.516 7.7841 0 2.8987.519 5.4795 1.557 7.7426 1.041 2.263 2.517 4.028 4.427 5.2982 1.912 1.2701 4.158 1.9068 6.732 1.9068 2.631 0 4.855-.6079 6.669-1.8215 1.816-1.2168 3.175-2.8869 4.073-5.0103.901-2.1286 1.351-4.541 1.351-7.2466h-11.386v-.4554z"/><path clip-rule="evenodd" d="m215.388 74.5089c-.389 1.175-.912 2.258-1.569 3.2467-1.051 1.588-2.446 2.8257-4.175 3.716-1.736.8953-3.762 1.3374-6.071 1.3374-2.735 0-5.13-.6637-7.175-1.9924-2.041-1.3277-3.608-3.1839-4.691-5.5615-1.09-2.3744-1.627-5.0841-1.627-8.1263 0-3.069.53-5.7861 1.603-8.1479m24.203 13.2757-.35-.0308c.17-.8255.287-1.684.35-2.5755zm-.498 2.2523v7.6368h1.055v-14.8804h-12.441v1.0099h11.384c-.03 2.562-.473 4.8449-1.327 6.8616-.878 2.0764-2.204 3.7029-3.972 4.888-1.76 1.1771-3.927 1.7743-6.514 1.7743-2.526 0-4.717-.624-6.577-1.8602-1.864-1.2392-3.308-2.9626-4.329-5.1831-1.019-2.2213-1.532-4.7617-1.532-7.627 0-2.8954.501-5.4484 1.493-7.6713m3.686-6.0156c2.019-1.3342 4.4-1.9934 7.136-1.9934 2.333 0 4.396.4575 6.175 1.3782v.0001c1.769.9174 3.199 2.1767 4.278 3.7724v.0004c1.076 1.5963 1.783 3.4075 2.121 5.4307l.054.3228h-1.061l-.041-.2298c-.325-1.8678-.985-3.5273-1.972-4.9836-.983-1.4508-2.286-2.5922-3.906-3.4283-1.616-.8327-3.498-1.253-5.648-1.253-2.53 0-4.714.6169-6.559 1.835-1.851 1.2277-3.27 2.9445-4.263 5.1641m3.686-6.0156c-2.017 1.327-3.559 3.1759-4.631 5.539z" fill-rule="evenodd"/></g></svg>