<svg fill="none" height="128" viewBox="0 0 272 128" width="272" xmlns="http://www.w3.org/2000/svg" xmlns:xlink="http://www.w3.org/1999/xlink"><filter id="a" color-interpolation-filters="sRGB" filterUnits="userSpaceOnUse" height="128" width="128" x="0" y="0"><feFlood flood-opacity="0" result="BackgroundImageFix"/><feColorMatrix in="SourceAlpha" result="hardAlpha" type="matrix" values="0 0 0 0 0 0 0 0 0 0 0 0 0 0 0 0 0 0 127 0"/><feOffset dx="2" dy="-4"/><feGaussianBlur stdDeviation="12"/><feComposite in2="hardAlpha" operator="out"/><feColorMatrix type="matrix" values="0 0 0 0 0 0 0 0 0 0 0 0 0 0 0 0 0 0 0.21 0"/><feBlend in2="BackgroundImageFix" mode="normal" result="effect1_dropShadow_504_8573"/><feBlend in="SourceGraphic" in2="effect1_dropShadow_504_8573" mode="normal" result="shape"/></filter><filter id="b" color-interpolation-filters="sRGB" filterUnits="userSpaceOnUse" height="128" width="128" x="144" y="0"><feFlood flood-opacity="0" result="BackgroundImageFix"/><feColorMatrix in="SourceAlpha" result="hardAlpha" type="matrix" values="0 0 0 0 0 0 0 0 0 0 0 0 0 0 0 0 0 0 127 0"/><feOffset dx="2" dy="-4"/><feGaussianBlur stdDeviation="12"/><feComposite in2="hardAlpha" operator="out"/><feColorMatrix type="matrix" values="0 0 0 0 0 0 0 0 0 0 0 0 0 0 0 0 0 0 0.21 0"/><feBlend in2="BackgroundImageFix" mode="normal" result="effect1_dropShadow_504_8573"/><feBlend in="SourceGraphic" in2="effect1_dropShadow_504_8573" mode="normal" result="shape"/></filter><clipPath id="c"><path d="m177 53h57v30h-57z"/></clipPath><g filter="url(#a)"><circle cx="62" cy="68" fill="#fff" r="40"/><circle cx="62" cy="68" r="38.5" stroke="#fff" stroke-width="3"/></g><path d="m65.7364 71.2106-.0254-.0453c-1.9912-3.7087-3.1422-6.8019-3.1422-11.7317-.037-3.2358.9078-6.404 2.7046-9.0691.0692-.1184.1443-.233.2251-.3434.1789-.1939.3051-.4322.3663-.6912s.0551-.5298-.0175-.7857c-.076-.1587-.1929-.2933-.3382-.3891-.1452-.0959-.3133-.1495-.4862-.1551h-10.5775c-.5567.0032-1.0936.2113-1.5123.5861-.4187.3747-.6912.8911-.7675 1.4545l-7.1151 35.088c-.033.1641-.05.3312-.0507.4988-.0021.3112.0559.6197.1707.908.1147.2883.284.5507.4981.7721s.4688.3975.7496.5183c.2807.1207.5821.1838.8867.1855h9.2459c3.4878 0 11.329-4.7387 11.329-10.151.1173-2.3613-1.541-5.6002-2.1434-6.6497zm-7.8444-4.8876c-.1001.4997-.3637.9496-.7476 1.2758-.3838.3262-.8649.5091-1.3641.5186h-4.1917l2.4731-12.0555h5.9356zm2.7046-13.4904c-.1041.5001-.3726.9488-.7607 1.2717-.3881.3228-.8727.5004-1.3732.5032h-4.1632l.8466-4.12h5.9261z" fill="#15bef0"/><path d="m77.6111 49.5936c.3171-.2365 1.3158-.8745 1.3888-1.5936h-7.001c-1.3668.0005-2.6855.516-3.7034 1.4478-1.2801 1.3102-2.2909 2.8684-2.9732 4.5833-.6823 1.7148-1.0221 3.5516-.9997 5.4025 0 4.3759.9512 7.1712 2.9266 10.8701 0 0 2.4065 4.1751 2.3844 7.5728-.0043.3791-.0393.7572-.1047 1.1304-.902 3.0608-2.8467 5.6908-5.4822 7.414-.317.2365-1.3158.8713-1.3887 1.5904h8.2787c1.3664.0024 2.6851-.5136 3.7003-1.4479 2.1249-2.3835 3.301-5.4923 3.2975-8.7161 0-5.354-2.8536-9.0141-4.0649-11.0126-1.3589-2.2736-2.0846-4.8829-2.099-7.5468-.0412-2.345 1.6837-7.0351 5.8405-9.6943z" fill="#ee2e27"/><g filter="url(#b)"><circle cx="206" cy="68" fill="#fff" r="40"/><circle cx="206" cy="68" r="38.5" stroke="#fff" stroke-width="3"/></g><g clip-path="url(#c)"><path d="m224.606 64.9813c0 .075-.019.1125-.131.1125h-.28v-.3563h.28c.112 0 .131.0375.131.1125zm.056.2625c.093-.0375.149-.1313.149-.2625v-.1688c0-.1875-.112-.2813-.336-.2813h-.486v1.0688h.206v-.3375h.261l.224.3375h.243zm-.28.675c-.449 0-.804-.3751-.822-.8063 0-.45.373-.8063.822-.8063.448 0 .803.3563.803.8063 0 .4312-.355.8063-.803.8063zm0-1.8376c-.561 0-1.009.45-1.009 1.0126 0 .5624.448 1.0125 1.009 1.0125.56 0 1.008-.4501 1.008-1.0125 0-.5438-.448-1.0126-1.008-1.0126zm-5.753 5.7188h-3.866v-3.4312h3.829c.429 0 1.699.3 1.699 1.7812 0 1.275-1.008 1.65-1.662 1.65zm.859-5.7188h-7.788v10.0313h3.063v-1.8937h4.744c1.177 0 3.866-1.0125 3.866-4.0688-.019-2.4375-2.204-4.0688-3.885-4.0688zm-23.252 5.8313h-3.828c-.43 0-1.7-.3-1.7-1.7813 0-1.2562 1.009-1.6499 1.662-1.6499h3.866zm3.063-7.725h-3.063v1.8937h-4.743c-1.177 0-3.866 1.0126-3.866 4.0688.018 2.4375 2.203 4.05 3.866 4.05h7.788zm9.114 1.8937-2.913 5.1938-2.914-5.1938h-3.287l4.557 8.1188h3.287l4.557-8.1188zm23.476 5.1376-24.652 12.3375c-.971.4875-2.41.4874-3.381.0187l-24.727-12.1313c-1.345-.6562-1.345-2.0062-.019-2.6812l24.653-12.3375c.971-.4875 2.409-.4875 3.38-.0188l24.746 12.1313c1.326.675 1.345 2.025 0 2.6813zm2.111-1.425c-.056-.8625-.56-1.6126-1.27-1.95l-25.307-12.4313c-.56-.2625-1.251-.4125-1.961-.4125-.728 0-1.438.15-1.998.4312l-25.25 12.6375h-.019c-.71.4125-1.158 1.1063-1.195 1.8938-.038.825.392 1.6313 1.139 2.1375l.019.0188s.018-.0001.018.0187l25.4 12.45c.56.2625 1.251.4125 1.961.4125.729 0 1.438-.15 1.999-.4313l25.362-12.6937h.019l.037-.0187c.71-.4501 1.102-1.2188 1.046-2.0625z" fill="#193c6a"/></g><path d="m142.32 70.112h-6.048v6.208h-4.224v-6.208h-6.048v-3.904h6.048v-6.208h4.224v6.208h6.048z" fill="#666"/></svg>