<svg fill="none" height="32" viewBox="0 0 34 32" width="34" xmlns="http://www.w3.org/2000/svg"><g fill="#fff"><path d="m15.8052 9.84132c-.3517 0-.6363-.28458-.6363-.63623v-8.568855c0-.351674.2846-.636235.6363-.636235.3516 0 .6362.284576.6362.636235v8.568855c0 .35167-.2852.63623-.6362.63623z"/><path d="m15.8054 32c-.3517 0-.6362-.2846-.6362-.6362l-.0006-7.7559c-3.887-.2923-6.95913-3.5479-6.95913-7.5091 0-4.1523 3.37763-7.53004 7.52943-7.53004.3517 0 .6363.28457.6363.63623 0 .35167-.2846.63623-.6363.63623-3.4495 0-6.25754 2.80738-6.25754 6.25818 0 3.4496 2.80684 6.2576 6.25754 6.2576.0995 0 .1972.0228.2852.0671l.0659.0336c.2151.1084.3511.3277.3511.5685v8.337c.0006.3516-.2846.6368-.6356.6368z"/><path d="m5.32574 26.9849c-.16594 0-.3319-.0642-.45711-.1936-.24504-.2522-.23845-.6548.01377-.8992l5.5435-5.372c.2522-.2439.6554-.2397.8993.0137.245.2523.2384.6548-.0138.8993l-5.54353 5.372c-.12281.1198-.28217.1798-.44213.1798z"/><path d="m5.32574 26.9849c-.16594 0-.3319-.0642-.45711-.1936-.24504-.2522-.23845-.6548.01377-.8992l5.5435-5.372c.2522-.2439.6554-.2397.8993.0137.245.2523.2384.6548-.0138.8993l-5.54353 5.372c-.12281.1198-.28217.1798-.44213.1798z"/><path d="m11.1091 11.1986c-.1462 0-.293-.0503-.4134-.1521l-5.86941-5.01274c-.26719-.22766-.29894-.62966-.07009-.89686.22826-.2672.62905-.29894.89685-.07009l5.86945 5.01269c.2672.2277.2989.6297.0701.8969-.1253.1467-.3038.2222-.4835.2222z"/><path d="m8.35313 16.5803h-7.716895c-.351674 0-.636235-.2845-.636235-.6362s.284576-.6362.636235-.6362h7.716895c.35167 0 .63623.2845.63623.6362s-.28458.6362-.63623.6362z"/><path d="m19.3972 31.8466c-.3517 0-.6362-.2846-.6362-.6362v-30.572487c0-.351674.2846-.63623453.6362-.63623453.3517 0 .6363.28457653.6363.63623453v30.572487c0 .3511-.2852.6362-.6363.6362z"/><path d="m32.4427 23.9988c-.1078 0-.2169-.0276-.3169-.0851l-12.663-7.2898c-.3044-.1755-.4092-.5649-.2337-.8687.1756-.3043.5656-.4086.8687-.2336l12.6631 7.2904c.3043.1749.4091.5649.2336.8687-.1168.2036-.3313.3181-.5518.3181z"/><path d="m19.7806 16.7092c-.2145 0-.4235-.1085-.5434-.305-.1827-.3001-.0886-.6913.2115-.8747l12.7063-7.7601c.3013-.18273.6919-.08867.8747.21148.1827.30014.0886.69135-.2115.87467l-12.7069 7.76015c-.1036.0635-.2181.0935-.3307.0935z"/><path d="m19.4385 9.2033c-.1659 0-.3325-.0647-.4577-.1941-.2444-.25282-.2378-.65541.015-.89985l3.8804-3.75216c.2528-.24444.6548-.23665.8998.01498.2445.25281.2379.6554-.015.89984l-3.8803 3.75216c-.1234.12042-.2828.17914-.4422.17914z"/><path d="m23.3188 27.6673c-.1594 0-.3187-.0593-.4421-.1785l-3.8804-3.7515c-.2528-.2445-.2594-.6465-.015-.8993.2444-.2534.647-.26.8999-.015l3.8803 3.7516c.2528.2444.2594.6464.015.8992-.1252.1288-.2917.1935-.4577.1935z"/><path d="m26.3417 20.183c-.269 0-.5188-.1714-.6063-.4416-.1072-.3343.0767-.6931.4122-.7998l5.0713-1.6254c.3331-.1078.6925.0761.7997.4122.1073.3343-.0766.6932-.4121.7998l-5.0713 1.6254c-.0635.0198-.1288.0294-.1935.0294z"/><path d="m27.6636 25.5094c-.2534 0-.493-.1521-.5919-.4026l-2.1544-5.4511c-.1288-.3265.0312-.6962.3583-.8256.3259-.1288.6962.0318.8256.3583l2.1543 5.4511c.1288.3266-.0311.6962-.3582.8256-.0767.0306-.1558.0443-.2337.0443z"/><path d="m26.1009 12.5605c-.0772 0-.1569-.0143-.233-.0449-.3271-.1288-.4871-.4984-.3583-.8255l2.1544-5.45244c.1282-.32651.4967-.48767.8256-.35825.3271.1288.487.49845.3582.82555l-2.1544 5.45244c-.0994.2504-.339.4032-.5925.4032z"/><path d="m31.4152 14.3227c-.0641 0-.1294-.0095-.1947-.0305l-5.0713-1.6248c-.3343-.1072-.5188-.4655-.4122-.7998.1072-.3349.4661-.52.7998-.4122l5.0713 1.6248c.3343.1073.5188.4655.4122.7998-.0857.2708-.3367.4427-.6051.4427z"/></g></svg>