<svg fill="none" height="32" viewBox="0 0 32 32" width="32" xmlns="http://www.w3.org/2000/svg" xmlns:xlink="http://www.w3.org/1999/xlink"><clipPath id="a"><path d="m0 0h32v31.411h-32z"/></clipPath><g clip-path="url(#a)" fill="#004a26"><path d="m5.69165 29.2317c-.33783 0-.63395-.0147-.92434-.0842-1.15746-.2724-1.8045-.9882-1.92638-1.1346-.14642-.1505-1.2548-1.3039-2.271575-2.6258-1.233538-1.6073-.085889-3.7194-.036809-3.8094l3.075664-5.3881c-.28139-.1759-.57014-.3542-.66012-.4017-.1636-.0875-.66012-.3542-.67321-1.0969-.00982-.5513.44581-.9039.87198-.9955.01882-.0082 4.58896-1.3022 5.52721-1.5779.55869-.1644.93742-.0425 1.15828.0867.42945.2528.53665.6961.54805.7444.0074.0319 1.1493 4.5611 1.3276 5.1893.1293.4638.373 1.3244-.2511 1.8217-.4466.3559-.9955.1816-1.2507.0237l-.77467-.4744c-.7092 1.2041-2.78528 4.7567-3.72107 6.5497-.25848.4949-.31165.9243-.15787 1.2769.29448.6789 1.2589.9603 1.2679.962.2274.0621.37137.283.34192.5161-.0319.2323-.23068.4049-.46544.4049-.2045 0-.39182.0041-.56687.0074-.15379.0041-.29939.0057-.43845.0057zm3.50184-16.2569c-.07362 0-.15951.0156-.25521.0434-.94152.2757-5.51821 1.5738-5.5632 1.5869-.07689.0188-.14969.0581-.16687.0802.00818.1652.05808.2102.18405.2756.2045.1113 1.00532.6176 1.09693.6733.21187.1333.2814.4114.15624.6282l-3.29571 5.775c-.00572.0115-.89243 1.6614-.03517 2.778 1.03149 1.3439 2.19959 2.5447 2.21268 2.5562.01145.0131.0229.0262.03354.0393.00409.0032.49325.6053 1.42004.8229.01718.004.03354.0073.04908.0114-.13333-.1554-.24949-.3337-.33783-.5341-.27239-.625-.21023-1.326.18568-2.0859 1.14438-2.1923 3.95911-6.9563 3.98692-7.0054.0638-.1079.16932-.1856.29121-.2151.12351-.0303.25112-.0114.35828.054l1.18525.7264c.0556.0335.1538.0556.1743.0409.0621-.0507.0989-.2348-.0696-.8327-.1816-.6414-1.28995-5.043-1.3374-5.2287 0-.0041-.02944-.1088-.11615-.1562-.0409-.0221-.09325-.0336-.15706-.0336z"/><path d="m12.6267 29.2195h-5.93045c-.25849 0-.46871-.2103-.46871-.4688 0-.2593.21022-.4687.46871-.4687h5.88545c.0262-.0719.0409-.2118.0336-.2985-.0017-.0131-.0017-.0246-.0017-.0377v-4.0392c0-.2143-.2118-.2683-.3206-.2839h-5.51577c-.2593 0-.46871-.2094-.46871-.4687 0-.2585.20941-.4687.46871-.4687h5.54197c.013 0 .0261 0 .0376.0016.4802.0393 1.1943.3959 1.1943 1.2197v4.0229c.0098.1497.0188.6806-.2921 1.0184-.1652.1775-.3828.2716-.6323.2716z"/><path d="m23.4733 14.6027c-.1611 0-.2773-.0303-.3002-.0376-.0319-.0074-4.5611-1.1461-5.1983-1.2868-.4712-.1047-1.3448-.2977-1.488-1.0838-.1006-.5603.3117-.9636.5726-1.1141l.7837-.4573c-.7256-1.19507-2.8696-4.70591-4.0082-6.37707-.3125-.46136-.6634-.71248-1.0462-.74438-.7428-.06708-1.4463.6544-1.452.66176-.1628.16932-.4253.19141-.6151.0548-.189-.13906-.2471-.39427-.1366-.60041.0957-.17996.1816-.34683.2609-.50061.2438-.47444.4368-.8499.7166-1.16483.7853-.8908 1.7251-1.121471 1.9108-1.159099.2029-.058077 1.7424-.489162 3.3873-.7574646 2.0009-.3263804 3.3178 1.6842536 3.3735 1.7701436l3.2899 5.26136c.2888-.16524.5816-.3362.6659-.39264.1554-.10307.6266-.41391 1.2842-.07444.4917.25521.5857.82127.4655 1.24172-.0016.01799-1.0258 4.65846-1.2262 5.61306-.1202.5702-.4057.8475-.6249.9808-.2193.1333-.4426.1669-.6152.1669zm-10.7746-12.04257c.054 0 .1088.00164.1652.00573.679.05644 1.2655.44417 1.7481 1.15174 1.3897 2.04417 4.2536 6.7812 4.2814 6.8286.0654.1088.0842.2364.0548.3583-.0319.1219-.1113.2266-.2201.2904l-1.2.6978c-.0548.0335-.1219.1104-.1161.1349.0131.0786.157.1988.7648.3338.6511.1448 5.0511 1.2507 5.2385 1.2981.0032.0017.1104.0246.193-.0302.081-.0524.1481-.1841.1857-.3673.2028-.9603 1.227-5.60411 1.2376-5.65074.0188-.07525.0188-.15951.0057-.18568-.1464-.07199-.2102-.04745-.328.0319-.193.12679-1.02.59386-1.1141.64704-.2176.12351-.4949.05398-.6282-.15951l-3.5256-5.636c-.0057-.01145-1.0396-1.569737-2.4294-1.346423-1.6704.271573-3.2818.732923-3.299.737013-.0164.00573-.0335.009-.0507.01309-.0049 0-.7665.14806-1.3972.86053-.0106.01145-.022.02454-.0335.03763.1505-.0319.3059-.05072.4671-.05072z"/><path d="m12.5791 12.3197c-.1783 0-.3656-.0434-.5586-.1481l-3.54525-1.9035c-.1366-.0638-.60695-.30754-.75746-.74272-.08016-.22903-.05971-.46544.05808-.68466l2.80733-5.22291.8278.44418-2.78687 5.18364c.0499.05644.16687.13497.24703.17096.01146.00327.02291.009.03354.01636l3.5599 1.91325c.1857.0998.3362-.0621.3992-.1496l2.6111-4.85977c.1218-.22658.4073-.31329.6355-.18977.2291.1227.3133.40736.1914.63395l-2.6233 4.88259c-.0057.0107-.0131.0221-.0212.0336-.1914.2961-.5923.6225-1.0782.6225z"/><path d="m20.0549 31.3626c-.319 0-.6225-.1627-.8212-.3754-.0156-.0131-3.4733-3.2704-4.1898-3.9321-.4295-.3959-.5219-.7845-.5219-1.0397-.0033-.499.3207-.8172.3583-.8532.0229-.0221 3.3235-3.3268 3.7718-3.8012.3304-.3509.9456-1.0021 1.6899-.7223.5342.2029.6692.7632.6634 1.0618l-.009.9096c1.3972-.0115 5.5117-.0532 7.5297-.171.5571-.0319.953-.2061 1.1763-.5178.4351-.6037.1783-1.5754.1767-1.5869-.0622-.2249.054-.463.2699-.5546.2151-.09.4646-.0098.5849.1914.1047.1742.2045.3338.2961.4818.2814.4515.5047.8098.6323 1.2098.3615 1.133.0769 2.0573.0147 2.2356-.054.2021-.472 1.7456-1.0871 3.2965-.7452 1.8855-3.1476 1.9845-3.2491 1.9886l-6.2037.1276c-.0057.3321-.0098.6716-.0057.7722.009.184.036.7485-.5947 1.1403-.157.0981-.3206.139-.4818.139zm-.0769-9.8503c-.0883 0-.2715.0982-.6454.4916-.4556.4843-3.663 3.6966-3.7996 3.8315-.0016.0017-.0769.0826-.0728.1824.0033.0974.0802.2209.2193.3485.7198.6642 4.1824 3.9256 4.2176 3.9591.0548.0548.1276.0974.1562.0998.1366-.09.148-.1579.1423-.2986-.0114-.2306.0115-1.1795.0131-1.2867.0074-.2511.2078-.4515.4597-.4572l6.6487-.1375c.0106 0 1.883-.0858 2.4-1.3946.6233-1.5755 1.0544-3.1943 1.0577-3.2115.0041-.0164.0098-.0335.0171-.0507.0017-.0033.2667-.7329-.0245-1.6385-.0033-.0171-.009-.0343-.0147-.049-.0655.193-.1579.3861-.2855.5644-.3951.5529-1.029.8605-1.8847.9096-2.4679.1464-8.0024.1767-8.0589.1767-.1366.0106-.2454-.0491-.3337-.1391-.09-.0883-.1391-.2102-.1366-.3354l.0147-1.3881c0-.0654-.0319-.1636-.0564-.171-.009-.0032-.0205-.0057-.0336-.0057z"/><path d="m25.4871 23.4845c-.1595 0-.3149-.081-.4032-.2291l-2.845-4.7558c-.0074-.0098-.0131-.0204-.0188-.0319-.2135-.4335-.2741-1.2286.4311-1.6523l3.4552-2.0647c.1235-.0867.575-.3664 1.0233-.2724.2364.0508.4302.1898.557.4033l3.0463 5.088c.1333.2233.0597.512-.1612.6454-.2233.1333-.5104.0597-.6438-.1628l-3.0233-5.0512c-.0728.0148-.2004.0753-.2715.1236-.0099.0081-.0205.0155-.0319.0229l-3.4675 2.0744c-.1824.1088-.1203.319-.0769.4196l2.8319 4.7321c.1325.2234.0613.5121-.162.643-.0744.0474-.157.0679-.2397.0679z"/></g></svg>