<svg width="40" height="40" viewBox="0 0 40 40" fill="none" xmlns="http://www.w3.org/2000/svg">
<mask id="mask0_503_8015" style="mask-type:alpha" maskUnits="userSpaceOnUse" x="0" y="0" width="40" height="40">
<rect width="40" height="40" fill="#13381F"/>
</mask>
<g mask="url(#mask0_503_8015)">
<path d="M8.54199 31.667C8.18066 31.667 7.88199 31.5487 7.64599 31.312C7.40999 31.076 7.29199 30.7913 7.29199 30.458V17.833C7.29199 17.6943 7.32666 17.5557 7.39599 17.417C7.46533 17.2777 7.55566 17.1387 7.66699 17L14.792 9.87499C14.9027 9.76366 15.0347 9.67333 15.188 9.60399C15.3407 9.53466 15.5003 9.49999 15.667 9.49999C15.8337 9.49999 15.9793 9.53466 16.104 9.60399C16.2293 9.67333 16.3613 9.76366 16.5 9.87499L23.625 17C23.7363 17.1387 23.8197 17.2777 23.875 17.417C23.9303 17.5557 23.958 17.6943 23.958 17.833V30.458C23.958 30.7913 23.847 31.076 23.625 31.312C23.403 31.5487 23.1113 31.667 22.75 31.667H8.54199ZM8.70799 30.25H14.5V27.583C14.5 27.2497 14.611 26.972 14.833 26.75C15.0557 26.528 15.3337 26.417 15.667 26.417C15.9723 26.417 16.236 26.528 16.458 26.75C16.6807 26.972 16.792 27.2497 16.792 27.583V30.25H22.583V17.958L15.625 11.042L8.70799 17.958V30.25ZM15.625 21.167C15.2917 21.167 15.0207 21.0557 14.812 20.833C14.604 20.611 14.5 20.3333 14.5 20C14.5 19.6947 14.611 19.424 14.833 19.188C15.0557 18.9513 15.3197 18.833 15.625 18.833C15.9583 18.833 16.236 18.9513 16.458 19.188C16.6807 19.424 16.792 19.6947 16.792 20C16.792 20.3053 16.674 20.576 16.438 20.812C16.2013 21.0487 15.9303 21.167 15.625 21.167ZM27.625 31.708C27.4303 31.708 27.2637 31.6387 27.125 31.5C26.9863 31.3613 26.917 31.1947 26.917 31V16.542C26.917 16.486 26.8613 16.333 26.75 16.083L20.958 10.292C20.736 10.0693 20.6873 9.80533 20.812 9.49999C20.9373 9.19466 21.1667 9.04199 21.5 9.04199C21.6113 9.04199 21.7087 9.06266 21.792 9.10399C21.8753 9.14599 21.9587 9.19466 22.042 9.24999L27.958 15.208C28.0973 15.3193 28.1947 15.4513 28.25 15.604C28.3053 15.7567 28.333 15.9027 28.333 16.042V31C28.333 31.1947 28.2637 31.3613 28.125 31.5C27.9863 31.6387 27.8197 31.708 27.625 31.708ZM32 31.708C31.778 31.708 31.6043 31.6387 31.479 31.5C31.3543 31.3613 31.292 31.1947 31.292 31V14.708C31.292 14.6807 31.2223 14.528 31.083 14.25L27.167 10.333C26.9443 10.111 26.8957 9.84033 27.021 9.52099C27.1457 9.20166 27.3747 9.04199 27.708 9.04199C27.8193 9.04199 27.9167 9.06266 28 9.10399C28.0833 9.14599 28.1667 9.19466 28.25 9.24999L32.333 13.375C32.4443 13.4863 32.5347 13.6183 32.604 13.771C32.6733 13.9237 32.708 14.0693 32.708 14.208V31C32.708 31.1947 32.6387 31.3613 32.5 31.5C32.3613 31.6387 32.1947 31.708 32 31.708Z" fill="#13381F"/>
</g>
</svg>
