<svg fill="none" height="38" viewBox="0 0 27 38" width="27" xmlns="http://www.w3.org/2000/svg" xmlns:xlink="http://www.w3.org/1999/xlink"><clipPath id="a"><path d="m0 0h27v38h-27z"/></clipPath><g clip-path="url(#a)" fill="#004a26"><path d="m10.5584.00189209c-1.34292 0-2.63008.54182991-3.58076 1.50416791-.95067.96439-1.48277 2.27013-1.48277 3.63242 0 1.36228.5321 2.6711 1.48277 3.63241.95068.9644 2.23784 1.50621 3.58076 1.50621 1.3429 0 2.6301-.54181 3.5807-1.50621.9507-.96131 1.4828-2.27013 1.4828-3.63241 0-1.36023-.5341-2.66597-1.4848-3.63036-.9486-.964398-2.2358-1.50417163-3.5787-1.50622791zm.3902 9.48355791v-.65801c0-.14085-.074-.27143-.1946-.34134-.1216-.07094-.2696-.07094-.3912 0-.1206.06991-.1946.20049-.1946.34134v.63642c-.99528-.09151-1.92873-.53772-2.63515-1.25433-.70845-.71867-1.14628-1.66353-1.23851-2.67522h.62736c.13885 0 .2696-.07505.33649-.1974.06993-.12338.06993-.27349 0-.39686-.06689-.1203-.19764-.19535-.33649-.19535h-.62736c.09223-1.01169.53006-1.95655 1.23851-2.67522.70642-.7197 1.63987-1.162825 2.63515-1.256385v.638475c0 .1388.074.27143.1946.34134.1216.07094.2696.07094.3912 0 .1206-.06991.1946-.20254.1946-.34134v-.638475c.9943.09356 1.9287.536685 2.6351 1.256385.7085.71661 1.1463 1.66353 1.2385 2.67522h-.6273c-.1389 0-.2696.07505-.3365.19535-.0699.12337-.0699.27348 0 .39686.0669.12235.1976.1974.3365.1974h.6273c-.0922 1.01169-.53 1.95655-1.2385 2.67522-.7064.71661-1.6408 1.16282-2.6351 1.25433z"/><path d="m10.5585 3.16241c-.1023.00206-.2017.04216-.2746.11824-.072.073-.1135.1717-.1156.2776v1.41677l-1.44321 1.46407c-.07196.07506-.11352.17479-.11352.28069 0 .10384.04156.2046.11352.27759.07196.07609.17229.11618.27466.11618.10439 0 .20169-.04009.27567-.11618l1.55778-1.57922c.074-.07505.1155-.17375.1155-.28068v-1.57922c-.002-.1059-.0435-.2046-.1155-.2776-.073-.07608-.1723-.11618-.2747-.11824z"/><path d="m26.1159 19.9735c-.4389-.4452-.9902-.7074-1.5406-.7824.1095-.8564-.1469-1.7119-.7713-2.3812-.4043-.4102-.9557-.6714-1.504-.7824.0355-.1491.0355-.2622.0355-.4102 0-.7454-.2929-1.4877-.8068-2.0111-.2574-.2591-.5503-.4451-.8807-.5942l2.9726-3.01453c1.1007-1.11759 1.1007-2.90449 0-4.02208-1.1017-1.11656-2.8632-1.11656-3.9649 0l-10.38444 10.53531c-.40236-.8184-1.06216-1.973-1.90844-3.0155-.55034-.7063-1.28514-1.3767-2.16284-2.01-1.28514-.9295-2.97467-.9295-4.222304 0-1.0277037.7444-1.28311 2.1241-.585812 3.2037l1.540546 2.4182c.80878 1.2656 1.21115 2.7554 1.17365 4.2811l-.10946 4.6153c0 .4483-.18345.8555-.51386 1.1927l-2.090876 2.1221c-.3304061.3341-.3304061.8934 0 1.2656.183446.1861.404392.2591.622296.2591.22095 0 .44189-.073.62534-.2591l2.09189-2.1221c.6223-.6333.98919-1.4898 1.02669-2.4202l.10946-4.6164c.0375-1.8619-.47635-3.7218-1.46655-5.2867l-1.54054-2.4192c-.18345-.2611-.11149-.5963.14594-.7824.66081-.4832 1.54156-.4832 2.16386 0 .73479.5213 1.35912 1.1176 1.79898 1.6759 1.32163 1.6759 2.20237 3.7599 2.20237 3.7599.10946.2591.36689.4832.62331.5213.29493.075.58784-.0381.80879-.2622l11.2652-11.42778c.4044-.41023 1.0642-.41023 1.4686 0 .4024.41022.4024 1.07954 0 1.48977l-8.551 8.78541c-.6973.7074-.9558 1.6759-.7723 2.5694.8088 3.7979-2.0544 5.5468-2.1629 5.6198-.4044.2621-.5513.7834-.3324 1.2286.149.2992.4409.4483.7713.4483.1469 0 .2949-.0381.4419-.1111 1.0986-.6343 2.8257-2.3832 3.155-5.0636.293.1111.5859.1481.9183.1481.1459 0 .2929-.037.4024-.037.1114.5583.3668 1.0795.7712 1.5268.5504.5593 1.2477.8184 1.9825.8184.1084 0 .2179-.0381.3669-.0381.0719.5593.3294 1.1176.7692 1.5659.295.2971.6618.5202 1.0287.6693-1.4685 2.084-3.23 3.984-4.5517 5.3227-1.1736 1.1546-2.7881 1.6378-4.4037 1.2656l-.9527-.2241c-.2949-.073-.5878.038-.8088.2241l-2.9351 2.9775c-.32939.3342-.32939.8935 0 1.2656.18345.1861.4044.2622.62331.2622.22095 0 .44088-.0761.62534-.2622l2.56725-2.6042.4784.11c2.1638.5212 4.4392-.1481 6.0162-1.7108 1.653-1.6389 3.8899-4.0951 5.5429-6.7395.2574-.1491.5128-.2971.6963-.5213l2.1294-2.1591c.5128-.5212.8057-1.2656.8057-2.0089 0-.7825-.2929-1.4898-.8432-2.0481zm-9.6163.2591c-.4013.4102-1.0611.4102-1.4655 0-.4044-.4071-.4044-1.0775 0-1.4877l3.7784-3.835c.4044-.4082 1.0642-.4082 1.4686 0 .1834.1861.2929.4853.2929.7454 0 .2972-.1095.5583-.2929.7444zm3.1561 2.3102c-.4023.4082-1.0621.4082-1.4665 0-.4044-.4102-.4044-1.0795 0-1.4897l2.8976-2.9395c.221-.2241.4794-.2992.7348-.2992.2574 0 .5504.1131.7338.2992.4044.4082.4044 1.0775 0 1.4877zm5.2125.2221-2.1283 2.1591c-.4044.4102-1.0652.4102-1.4686 0-.4024-.4082-.4024-1.0796 0-1.4877l2.1284-2.1591c.4043-.4102 1.0641-.4102 1.4685 0 .1835.1861.2929.4832.2929.7444.0365.2601-.0719.5212-.2929.7433z"/></g></svg>