<svg fill="none" height="48" viewBox="0 0 42 48" width="42" xmlns="http://www.w3.org/2000/svg"><g fill="#004a26"><path clip-rule="evenodd" d="m20.5404 4.2901h.87l.1393.17622.0002.0002.0003.00034.0011.00135c.0016.00199.0044.00549.0085.01045.0081.00992.0212.02568.0392.04682.0361.0423.0919.10615.1677.18802.1515.16378.3824.39945.6934.67889.6221.55905 1.5632 1.29189 2.8293 1.97489 2.5269 1.36323 6.3617 2.5359 11.5695 1.7142l.4552-.07182.0752.46271-.4591.07745c.4591-.07745.4592-.07717.4593-.07678l.0001.00124.0007.00418.0024.01513c.002.01307.005.03209.0087.05689.0073.0496.0178.12235.0306.21699.0255.18928.06.46623.0966.82063.0733.7087.1552 1.7282.191 2.9775.0716 2.4971-.0411 5.9208-.7806 9.6216-1.4794 7.404-5.4815 15.9627-15.568 20.366l-.0878.0384h-.6156l-.0878-.0384c-10.0875-4.4033-14.08955-12.962-15.56874-20.366-.73936-3.7008-.85188-7.1245-.78021-9.6216.03586-1.2494.11789-2.2688.19122-2.9775.03666-.3545.07117-.63138.09667-.82066.01275-.09464.02325-.1674.03064-.217.0037-.0248.00662-.04381.00866-.05688l.00239-.01513.00067-.00419.0002-.00124c.00006-.00038.00011-.00067.45927.07682l-.45916-.07749.0753-.46268.45514.07183c5.20685.82169 9.04165-.35096 11.56885-1.7142 1.2662-.68302 2.2075-1.41587 2.8298-1.97492.311-.27945.542-.51513.6935-.67891.0758-.08187.1317-.14572.1678-.18802.018-.02115.0311-.03691.0392-.04683.0041-.00496.0069-.00846.0085-.01045l.0011-.00136.0003-.00034.0001-.00019zm.4349.94787c-.0326.03678-.0706.07879-.1138.12555-.1695.18314-.4209.43931-.7552.73961-.6683.60042-1.6693 1.37859-3.0099 2.10174-2.6086 1.40721-6.4905 2.59863-11.68026 1.88233-.02019.161-.04373.3622-.06834.6002-.07119.688-.1514 1.6834-.18649 2.9059-.07022 2.4464.04054 5.7941.76192 9.4049 1.43795 7.1976 5.28827 15.395 14.93587 19.6455h.2325c9.6467-4.2505 13.497-12.4479 14.9352-19.6455.7215-3.6108.8324-6.9585.7624-9.405-.035-1.2224-.1152-2.2178-.1863-2.9059-.0246-.2379-.0482-.4391-.0683-.6001-5.1906.7163-9.0726-.47511-11.681-1.88234-1.3405-.72315-2.3413-1.50133-3.0095-2.10176-.3341-.30031-.5855-.55648-.755-.73963-.0432-.04674-.0812-.08873-.1138-.1255z" fill-rule="evenodd"/><path d="m26.5585 23.3451c.0512-.309.094-.6218.094-.9431 0-3.1887-2.5486-5.783-5.6791-5.783-3.1314 0-5.6773 2.5943-5.6773 5.783 0 .3213.0429.6341.0941.9431h.8275c-.0615-.3175-.1871-.6085-.1871-.9431 0-2.7773 2.2173-5.0332 4.9428-5.0332 2.7274 0 4.9447 2.2559 4.9447 5.0332 0 .3346-.1257.6256-.188.9431z"/><path d="m26.5585 23.3451c.0512-.309.094-.6218.094-.9431 0-3.1887-2.5486-5.783-5.6791-5.783-3.1314 0-5.6773 2.5943-5.6773 5.783 0 .3213.0429.6341.0941.9431h.8275c-.0615-.3175-.1871-.6085-.1871-.9431 0-2.7773 2.2173-5.0332 4.9428-5.0332 2.7274 0 4.9447 2.2559 4.9447 5.0332 0 .3346-.1257.6256-.188.9431z"/><path d="m20.9744 15.1469c-.2029 0-.3667-.1677-.3667-.3734v-3.3669c0-.2066.1638-.3734.3667-.3734s.3668.1668.3668.3734v3.3669c0 .2057-.1639.3734-.3668.3734z"/><path d="m20.9744 15.1469c-.2029 0-.3667-.1677-.3667-.3734v-3.3669c0-.2066.1638-.3734.3667-.3734s.3668.1668.3668.3734v3.3669c0 .2057-.1639.3734-.3668.3734z"/><path d="m26.272 17.3811c-.094 0-.188-.037-.2606-.109-.1425-.1479-.1425-.3839 0-.5298l2.3373-2.3801c.1452-.1451.378-.1451.5204 0 .1433.1459.1433.3829 0 .5279l-2.3365 2.382c-.0726.072-.1666.109-.2606.109z"/><path d="m26.272 17.3811c-.094 0-.188-.037-.2606-.109-.1425-.1479-.1425-.3839 0-.5298l2.3373-2.3801c.1452-.1451.378-.1451.5204 0 .1433.1459.1433.3829 0 .5279l-2.3365 2.382c-.0726.072-.1666.109-.2606.109z"/><path d="m31.7713 22.7754h-3.3064c-.202 0-.3668-.1678-.3668-.3735 0-.2066.1648-.3744.3668-.3744h3.3064c.2029 0 .3667.1678.3667.3744 0 .2057-.1638.3735-.3667.3735z"/><path d="m31.7713 22.7754h-3.3064c-.202 0-.3668-.1678-.3668-.3735 0-.2066.1648-.3744.3668-.3744h3.3064c.2029 0 .3667.1678.3667.3744 0 .2057-.1638.3735-.3667.3735z"/><path d="m13.483 22.7754h-3.3064c-.20202 0-.36679-.1678-.36679-.3735 0-.2066.16477-.3744.36679-.3744h3.3064c.2029 0 .3667.1678.3667.3744 0 .2057-.1638.3735-.3667.3735z"/><path d="m13.483 22.7754h-3.3064c-.20202 0-.36679-.1678-.36679-.3735 0-.2066.16477-.3744.36679-.3744h3.3064c.2029 0 .3667.1678.3667.3744 0 .2057-.1638.3735-.3667.3735z"/><path d="m15.677 17.3811c-.094 0-.188-.037-.2606-.109l-2.3365-2.382c-.1433-.145-.1433-.382 0-.5279.1424-.1451.3752-.1451.5204 0l2.3373 2.3801c.1425.1459.1425.3819 0 .5298-.0726.072-.1666.109-.2606.109z"/><path d="m15.677 17.3811c-.094 0-.188-.037-.2606-.109l-2.3365-2.382c-.1433-.145-.1433-.382 0-.5279.1424-.1451.3752-.1451.5204 0l2.3373 2.3801c.1425.1459.1425.3819 0 .5298-.0726.072-.1666.109-.2606.109z"/><path d="m17.2445 35.9707c.6553 0 1.2119-.1214 1.6709-.365.4607-.2436.8107-.6 1.0546-1.0673.243-.4692.3649-1.0369.3649-1.7014v-5.036h-.9281v5.036c0 .7716-.1861 1.3431-.5575 1.7185-.3714.3744-.9067.5611-1.6048.5611-.6982 0-1.2334-.1867-1.6048-.5611-.3714-.3754-.5576-.9469-.5576-1.7185v-5.036h-.928v5.036c0 .6645.1219 1.2322.3648 1.7014.243.4673.5939.8237 1.0547 1.0673.4589.2436 1.0156.365 1.6709.365zm9.5784-8.1697-1.7881 5.0682c-.2802.7868-.5036 1.4493-.673 1.9887-.1704-.5394-.3947-1.2019-.674-1.9887l-1.8207-5.0682h-.9821l2.9583 8h1.0379l2.9126-8z"/><path d="m17.2445 35.9707c.6553 0 1.2119-.1214 1.6709-.365.4607-.2436.8107-.6 1.0546-1.0673.243-.4692.3649-1.0369.3649-1.7014v-5.036h-.9281v5.036c0 .7716-.1861 1.3431-.5575 1.7185-.3714.3744-.9067.5611-1.6048.5611-.6982 0-1.2334-.1867-1.6048-.5611-.3714-.3754-.5576-.9469-.5576-1.7185v-5.036h-.928v5.036c0 .6645.1219 1.2322.3648 1.7014.243.4673.5939.8237 1.0547 1.0673.4589.2436 1.0156.365 1.6709.365zm9.5784-8.1697-1.7881 5.0682c-.2802.7868-.5036 1.4493-.673 1.9887-.1704-.5394-.3947-1.2019-.674-1.9887l-1.8207-5.0682h-.9821l2.9583 8h1.0379l2.9126-8z"/></g></svg>