<svg fill="none" height="40" viewBox="0 0 40 40" width="40" xmlns="http://www.w3.org/2000/svg" xmlns:xlink="http://www.w3.org/1999/xlink"><mask id="a" height="40" maskUnits="userSpaceOnUse" width="40" x="0" y="0"><path d="m0 0h40v40h-40z" fill="#13381f"/></mask><g mask="url(#a)"><path d="m30.792 33.917c-.3613 0-.7157-.0627-1.063-.188-.3473-.1247-.6597-.34-.937-.646l-10-10c-.6393.278-1.2923.5073-1.959.688s-1.375.271-2.125.271c-2.5 0-4.632-.882-6.39601-2.646-1.76333-1.764-2.645-3.91-2.645-6.438 0-.6667.06934-1.3193.208-1.958.13867-.6387.347-1.2497.625-1.833l5.87501 5.791 4.417-4.333-5.792-5.87499c.5833-.278 1.1873-.50034 1.812-.667.6253-.16667 1.2573-.25 1.896-.25 2.556 0 4.7227.889 6.5 2.667 1.778 1.77799 2.667 3.93069 2.667 6.45799 0 .778-.0833 1.5003-.25 2.167s-.4027 1.3057-.708 1.917l9.958 9.916c.278.306.4863.6327.625.98.1387.3467.208.7147.208 1.104 0 .3887-.0693.7637-.208 1.125-.1387.3607-.361.68-.667.958-.2773.278-.5897.4793-.937.604-.3473.1253-.7153.188-1.104.188zm-1.042-1.834c.3053.278.6663.417 1.083.417s.764-.139 1.042-.417c.278-.2773.417-.6243.417-1.041s-.139-.764-.417-1.042l-10.708-10.708c.4167-.6113.736-1.292.958-2.042s.333-1.514.333-2.292c0-2.1387-.861-4.0483-2.583-5.72899-1.722-1.68067-3.861-2.32634-6.417-1.937l4.5 4.49999c.2227.222.3407.4927.354.812.014.3193-.09.5903-.312.813l-4.792 4.708c-.222.222-.4997.333-.833.333s-.611-.111-.833-.333l-4.45901-4.458c-.30533 2.8607.38934 5.069 2.084 6.625 1.69401 1.5553 3.54101 2.333 5.54101 2.333.75 0 1.5-.1043 2.25-.313.75-.208 1.4307-.5343 2.042-.979z" fill="#13381f"/></g></svg>