<svg fill="none" height="46" viewBox="0 0 46 46" width="46" xmlns="http://www.w3.org/2000/svg" xmlns:xlink="http://www.w3.org/1999/xlink"><clipPath id="a"><path d="m7.0498 2.2998h32.2v41.4h-32.2z"/></clipPath><mask height="46" maskUnits="userSpaceOnUse" width="46" x="0" y="0"><path d="m0 0h46v46h-46z" fill="#263a48"/></mask><g clip-path="url(#a)" fill="#13381f"><path d="m24.153 35.5076c0-.2695-.1057-.5279-.2938-.7185s-.4433-.2976-.7093-.2976c-.2661 0-.5213.107-.7094.2976s-.2938.449-.2938.7185v2.5091c-.0333.2746.0239.5527.1628.7909.1389.2383.3516.4233.605.5264h.4954c.2535-.1031.4662-.2881.6051-.5264.1389-.2382.1961-.5163.1628-.7909-.0496-.8531-.0248-1.6811-.0248-2.5091z"/><path d="m23.1499 13.9545c-1.7666-.0049-3.4949.521-4.9663 1.5114-1.4714.9903-2.6198 2.4005-3.2998 4.0521-.68 1.6517-.8611 3.4705-.5203 5.2264.3407 1.7559 1.188 3.37 2.4345 4.638 1.2466 1.268 2.8364 2.133 4.5684 2.4855 1.7319.3524 3.5282.1766 5.1615-.5054 1.6333-.6819 3.0301-1.8393 4.0139-3.3257.9837-1.4864 1.5102-3.2349 1.5126-5.0244 0-2.3958-.9369-4.694-2.6058-6.3916s-3.9337-2.6563-6.2987-2.6663zm0 16.0457c-1.3672-.0001-2.7037-.4101-3.841-1.1785-1.1374-.7684-2.0248-1.8607-2.5502-3.1393-.5254-1.2785-.6653-2.686-.4022-4.0449.2631-1.359.9176-2.6087 1.8808-3.5914.9633-.9827 2.1922-1.6546 3.5319-1.9308 1.3396-.2763 2.73-.1445 3.9958.3786 1.2659.5231 2.3505 1.4141 3.1171 2.5608.7667 1.1466 1.181 2.4975 1.1908 3.8824.0082.9256-.165 1.8437-.5094 2.7011-.3443.8574-.8532 1.6371-1.497 2.2939-.6439.6569-1.4099 1.1779-2.2539 1.5329-.8439.355-1.7489.5369-2.6627.5352z"/><path d="m22.1465 10.5171c-.0066.1382.0143.2763.0615.4062.0473.1298.1199.2486.2136.3493.0937.1008.2064.1813.3315.2369.1251.0555.26.085.3966.0865.136.0001.2706-.0277.3957-.0819.125-.0542.2379-.1335.3317-.2333.0939-.0997.1667-.2177.2141-.3469.0474-.1291.0684-.2667.0616-.4043 0-.92835 0-1.85671 0-2.77253.005-.13718-.0172-.27398-.0652-.40234s-.1209-.24568-.2144-.34505c-.0935-.09938-.2057-.1788-.3299-.23358-.1243-.05478-.2581-.08381-.3936-.0854-.1339.00159-.2661.0303-.3888.08445-.1228.05415-.2336.13264-.3259.23085-.0924.09821-.1644.21415-.2118.34099s-.0692.262-.0643.39753v1.36746c0 .45163-.0248.94092-.0124 1.40512z"/><path d="m38.0113 21.9711c-.8174 0-1.6347 0-2.4769 0-.266 0-.5212.107-.7093.2976-.1882.1906-.2939.4491-.2938.7186-.0001.2695.1056.5279.2938.7185.1881.1906.4433.2976.7093.2976h2.4769c.2582.0216.5166-.0395.7388-.1745s.3969-.3373.4997-.5782v-.5018c-.0988-.2456-.2719-.4532-.4944-.5929-.2225-.1398-.483-.2045-.7441-.1849z"/><path d="m11.8922 22.9998c.0002-.1378-.0273-.2741-.0808-.4008s-.1319-.241-.2303-.3361c-.0985-.095-.215-.1688-.3425-.2168s-.2633-.0693-.3991-.0625h-2.737c-.13646-.005-.27252.0178-.40005.0673-.12753.0494-.24392.1244-.34219.2204s-.17641.2112-.22976.3385c-.05334.1273-.08079.2642-.0807.4026.00157.1356.02991.2695.08337.3938.05345.1244.13094.2366.22789.3302.09695.0935.21141.1664.33662.2145.12521.048.25864.0701.39243.0651h1.34993 1.38706c.1364.0068.2728-.0144.401-.0623.1281-.0479.2455-.1215.3449-.2163.0994-.0949.179-.2091.2338-.3359.0548-.1267.0839-.2633.0854-.4017z"/><path d="m32.5992 14.8453c.5697-.5771 1.1394-1.1919 1.7338-1.7439.2163-.1692.3712-.4062.4407-.674.0694-.2677.0495-.5512-.0568-.8063l-.3591-.3638c-.2518-.1076-.5317-.1278-.796-.0575-.2644.0703-.4983.2273-.6654.4464-.5449.6022-1.1518 1.1792-1.7215 1.7563-.1144.0893-.2087.2022-.2766.3313s-.1078.2714-.1171.4174.0122.2923.0631.4292c.0509.1368.1301.2612.2322.3646s.2248.1836.3599.2352c.1352.0516.2796.0734.4237.064.1441-.0095.2846-.0499.412-.1187.1275-.0688.239-.1643.3271-.2802z"/><path d="m13.7251 31.1544-1.932 1.9069c-.0935.0963-.1674.2104-.2174.3357s-.0751.2594-.074.3945c.0012.1351.0286.2687.0807.3931s.1279.2372.2231.3319c.0951.0948.2077.1696.3314.2202.1237.0507.256.0761.3894.075.1334-.0012.2653-.029.3881-.0818s.2342-.1295.3277-.2259c.322-.3136.6316-.6398.9536-.966s.6564-.6524.9784-.9911c.0981-.0959.1762-.2109.2295-.3381s.0808-.2639.0808-.4021c0-.1381-.0275-.2749-.0808-.4021-.0533-.1271-.1314-.2421-.2295-.3381-.0994-.0936-.2165-.1658-.3442-.2122-.1277-.0465-.2634-.0662-.3989-.058-.1354.0082-.2678.0442-.3892.1057-.1213.0616-.2291.1474-.3167.2524z"/><path d="m34.2959 32.8731c-.5944-.552-1.1641-1.1668-1.7338-1.7439-.0881-.1158-.1996-.2114-.3271-.2802-.1274-.0687-.2679-.1092-.412-.1186-.1441-.0095-.2885.0123-.4237.0639-.1351.0516-.2578.1318-.3599.2352-.1021.1035-.1813.2278-.2322.3646-.0509.1369-.0725.2832-.0631.4292.0093.146.0492.2883.1171.4174s.1622.242.2766.3313c.5697.5771 1.1766 1.1542 1.7215 1.7563.1671.2191.401.3761.6654.4464.2643.0704.5442.0501.796-.0575l.3591-.3638c.1063-.2551.1262-.5386.0568-.8063-.0695-.2678-.2244-.5048-.4407-.674z"/><path d="m12.7467 13.9044.9784.9911c.0947.0994.2082.1784.3338.2324.1255.054.2605.0819.3969.0819s.2714-.0279.3969-.0819.2391-.133.3338-.2324c.0997-.0951.1792-.2097.2335-.337s.0823-.2646.0823-.4032c0-.1387-.028-.2759-.0823-.4032s-.1338-.242-.2335-.337l-1.9444-1.9195c-.0935-.0963-.2049-.1731-.3277-.2259s-.2547-.0806-.3881-.0817c-.2694-.0024-.5287.1038-.7208.2951-.0952.0947-.171.2075-.2231.3319s-.0795.258-.0807.3931c-.0023.2729.1025.5356.2914.7303z"/></g></svg>