<svg fill="none" height="46" viewBox="0 0 46 46" width="46" xmlns="http://www.w3.org/2000/svg"><mask height="46" maskUnits="userSpaceOnUse" width="46" x="0" y="0"><path d="m0 0h46v46h-46z" fill="#d9d9d9"/></mask><g fill="#13381f"><path d="m29.3481 34.109c-.4751.2893-.9709.543-1.4835.759-.1034.0376-.1981.096-.2781.1716-.0799.0755-.1436.1667-.1869.2679-.0434.1011-.0655.2101-.0651.3201.0004.1101.0234.2189.0675.3197s.1084.1915.1889.2665c.0806.075.1756.1327.2793.1695s.2139.0519.3237.0445c.1098-.0075.2169-.0373.3147-.0878.5761-.2421 1.1334-.5265 1.6675-.851.1765-.1129.302-.2901.3499-.4941s.0144-.4186-.0934-.5982c-.1077-.1797-.2813-.3102-.4839-.364-.2025-.0537-.4179-.0263-.6006.0763z"/><path d="m33.1547 30.498c-.3195.4706-.669.9201-1.0465 1.3455-.1041.1149-.1728.2573-.1979.4103-.0251.1529-.0055.3099.0564.4519.062.1421.1636.2633.2927.349.1291.0858.2803.1324.4353.1343.1125-.0005.2237-.0243.3266-.0698s.1953-.1118.2714-.1947c.4169-.4797.8011-.9868 1.15-1.518.0647-.0881.1109-.1884.1356-.295.0247-.1065.0275-.2169.0081-.3245s-.0605-.2101-.1208-.3014c-.0603-.0912-.1385-.1691-.2299-.2291-.1776-.103-.3874-.1353-.5878-.0906-.2003.0448-.3764.1633-.4932.3321z"/><path d="m36.018 25.3c-.1036-.0217-.2104-.0225-.3142-.0022-.1039.0202-.2027.0609-.2905.1199-.0879.0589-.1631.1348-.2212.2232s-.0979.1876-.1171.2916c-.0942.4974-.217.9889-.368 1.472-.0339.1004-.0474.2065-.0396.3122.0078.1056.0367.2086.0849.303.0482.0943.1149.178.196.2461.0811.0682.175.1194.2762.1507.0797.0164.1618.0164.2415 0 .1717.0006.3392-.0538.4778-.1552s.2412-.2445.2927-.4083c.1755-.5467.3176-1.1036.4255-1.6675.0269-.2021-.0249-.4067-.1448-.5716s-.2987-.2773-.4992-.3139z"/><path d="m22.195 14.835v8.4065l-4.2665 4.209c-.1517.1529-.2368.3596-.2368.575s.0851.4221.2368.575c.0751.0755.1648.1348.2637.1744.0989.0395.2048.0584.3113.0556.1044.0006.2079-.0193.3046-.0588s.1847-.0977.2589-.1712l4.4965-4.4505c.0781-.0737.1399-.1629.1815-.262.0416-.099.062-.2056.06-.313v-8.74c0-.2135-.0849-.4182-.2358-.5692-.151-.151-.3557-.2358-.5692-.2358s-.4183.0848-.5693.2358c-.1509.151-.2357.3557-.2357.5692z"/><path d="m36.0985 12.19c-.2135 0-.4182.0848-.5692.2358s-.2358.3557-.2358.5692v3.6455c-.0059.1131-.0252.225-.0575.3335-1.1668-2.163-2.8861-3.978-4.9827-5.2602s-4.4957-1.9858-6.9527-2.03903c-2.4571-.05323-4.8843.54583-7.0345 1.73603s-3.9465 2.9291-5.2059 5.0395c-1.25939 2.1104-1.93688 4.517-1.96344 6.9744-.02656 2.4575.59874 4.8781 1.81224 7.0153 1.2135 2.1371 2.9717 3.9145 5.0957 5.1509s4.5377 1.8877 6.9953 1.8876c.5265-.0016 1.0525-.0324 1.5755-.092.2119-.0231.4059-.1294.5396-.2954.1336-.166.196-.3782.1734-.5901-.0287-.2116-.1381-.4039-.3052-.5367-.1672-.1329-.3792-.196-.5918-.1763-.4617.0558-.9264.0827-1.3915.0805-2.1766.0046-4.3154-.5687-6.1979-1.6615-1.8824-1.0928-3.441-2.6657-4.5164-4.5581s-1.6291-4.0365-1.6044-6.2129c.0246-2.1765.6266-4.3075 1.7446-6.1751 1.1179-1.8676 2.7117-3.4048 4.6184-4.4547s4.0579-1.5748 6.2339-1.5209c2.1759.0539 4.2986.6845 6.151 1.8274s3.3682 2.7572 4.3923 4.6778h-3.611c-.1984.0237-.3812.1193-.5138.2687-.1327.1494-.2059.3423-.2059.5421s.0732.3926.2059.542c.1326.1494.3154.245.5138.2687h3.933c.3635 0 .7233-.0718 1.0589-.2112s.6404-.3437.8968-.6012c.2565-.2575.4595-.5632.5976-.8994.138-.3361.2083-.6963.2067-1.0597v-3.6455c0-.2135-.0848-.4182-.2357-.5692-.151-.151-.3558-.2358-.5693-.2358z"/></g></svg>