<svg fill="none" height="36" viewBox="0 0 32 36" width="32" xmlns="http://www.w3.org/2000/svg" xmlns:xlink="http://www.w3.org/1999/xlink"><clipPath id="a"><path d="m0 0h32v35.6312h-32z"/></clipPath><g clip-path="url(#a)" fill="#004a26"><path d="m26.8688 9.98643v-.69314c0-.14941-.0795-.28653-.2081-.36028-.1286-.07471-.2874-.07471-.416 0-.1287.07375-.2081.21181-.2081.36028v.67139c-1.0638-.09929-2.0605-.56737-2.8161-1.32293-.7555-.75555-1.2236-1.75225-1.3229-2.81608h.6714c.1485 0 .2865-.07943.3603-.20803.0747-.12861.0747-.28747 0-.41608-.0738-.12861-.2118-.20804-.3603-.20804h-.6714c.0993-1.06383.5674-2.06052 1.3229-2.81608.7556-.75555 1.7513-1.223637 2.8161-1.322928v.671398c0 .14846.0794.28652.2081.36028.1286.07471.2874.07471.416 0 .1286-.07376.2081-.21182.2081-.36028v-.671398c1.0638.099291 2.0605.567378 2.816 1.322928.7556.75556 1.2237 1.75131 1.323 2.81608h-.6714c-.1485 0-.2865.07943-.3603.20804-.0747.12861-.0747.28747 0 .41608.0738.1286.2118.20803.3603.20803h.6714c-.0993 1.06383-.5674 2.06053-1.323 2.81608-.7555.75556-1.7513 1.22364-2.816 1.32293zm-.4161-9.98581965c-1.4345 0-2.8104.57021265-3.8251 1.58392965-1.0137 1.01465-1.5839 2.39054-1.5839 3.82506 0 1.43451.5702 2.8104 1.5839 3.82506 1.0147 1.01374 2.3906 1.58394 3.8251 1.58394s2.8104-.5702 3.8251-1.58394c1.0137-1.01466 1.5839-2.39055 1.5839-3.82506-.0019-1.43357-.5721-2.80851-1.5858-3.82317-1.0138-1.013715-2.3887-1.58392839-3.8232-1.58581965z"/><path d="m26.4527 3.32928c-.1097.00095-.2147.04539-.2922.12388-.0785.07754-.1229.18251-.1239.2922v1.4922l-1.5423 1.54232c-.0775.07849-.122.18345-.122.29409s.0445.2156.122.29409c.0785.07754.1835.12199.2941.12199s.2156-.04445.2941-.12199l1.6643-1.6643c.0775-.07755.122-.18346.122-.2941v-1.6643c-.001-.10969-.0454-.21466-.1239-.2922-.0775-.07849-.1825-.12293-.2922-.12388z"/><path d="m8.32588 29.5666c-.22222.643-.25343 1.373-.09172 2.1825.59385 2.9693 3.39004 2.8501 3.50454 2.8425.5787-.0312 2.0208-.2118 2.903-1.2198.5788-.6591.8265-1.5745.7376-2.7196-.1664-2.1334-2.0075-3.8497-3.2255-4.7622.4189 1.7002.365 3.2047-.1768 4.1721-.2979.5314-.732.8681-1.254.9721-1.08553.2203-1.92147-.7196-2.39712-1.4676zm3.38442 5.9726c-.5475 0-3.71444-.1523-4.40475-3.6048-.2818-1.4052-.0747-2.6364.6156-3.6586.0974-.1447.26478-.2232.43972-.2061.17305.017.32341.1286.39055.2884.20992.5049.98628 1.9035 1.78538 1.7475.2468-.0492.4529-.2194.6137-.5059.4-.714.5655-2.3669-.2837-4.6771-.069-.1863-.0142-.3943.1362-.5229.1494-.1286.364-.1513.5371-.0549.1834.1012 4.4945 2.5267 4.783 6.2345.1096 1.4081-.2156 2.558-.9684 3.4175-1.0799 1.2322-2.6969 1.4941-3.564 1.5414-.0048 0-.0331.001-.0804.001z"/><path d="m10.2265 18.0347c.1002 1.6605-.9759 3.3201-2.10593 5.061-1.25484 1.9329-2.67707 4.1239-2.66194 6.609.02648 4.6667 5.95177 4.8785 6.30637 4.887.8965-.017 1.6785-.1012 2.3896-.2582 2.3669-.521 3.7778-2.0122 3.8705-4.0898.1021-2.2988-1.1357-4.1248-2.4473-6.0586l-.0246-.0378c-.0085-.0123-.5485-1.0157-.8123-1.8261-.33.3216-.5456.8379-.6156 1.0733-.0671.227-.2931.3688-.5258.3338-.2345-.0359-.4056-.2392-.4019-.4756.0606-3.3995-1.8836-4.7367-2.9711-5.218zm1.547 17.5036h-.0179c-2.4946-.0445-7.21895-1.3201-7.24449-5.8279-.01607-2.7698 1.48748-5.0866 2.81514-7.131 1.24917-1.9244 2.32719-3.5868 1.8383-5.1064-.05107-.1598-.01419-.3357.09834-.4605.11159-.1258.2818-.1816.44728-.1485.04066.0085 3.62833.7915 4.32153 4.8256.2525-.2591.5702-.4738.9636-.557.2553-.052.5068.1087.5617.3641.017.0803.0132.1607-.0095.2345.0965.4075.6695 1.6917.7925 1.8903l.0227.0321c1.339 1.9764 2.7243 4.0199 2.608 6.6317-.1106 2.5021-1.8355 4.3622-4.6128 4.9731-.7754.1711-1.6208.2629-2.5844.2799z"/><path d="m7.00101 12.2645c-.32152 1.8393-2.16265 3.7022-2.25627 3.7948-3.924353 4.3868-3.798585 8.3225-3.796694 8.3613.800944 10.5768 10.383954 10.1957 10.791454 10.1721.0067 0 .0133-.001.0199-.001 5.9991-.0709 9.4421-3.042 10.5267-9.0837.8123-4.5295-1.6283-8.0416-5.008-12.903-2.6194-3.76836-2.749-7.18207-2.6222-8.76978-6.0218 3.30969-5.38633 10.55508-5.35513 10.87378.02459.2525-.15319.4785-.40284.5154-.24775.0368-.4851-.1296-.53333-.3774-.24775-1.2699-.86809-2.0992-1.36359-2.5825zm4.57309 23.2776c-1.5424 0-10.767898-.4501-11.57168085-11.0648-.00851065-.191-.14278915-4.3782 4.05485085-9.0686.67329-.6761 2.30922-2.6713 2.00946-3.999-.04067-.1806.02742-.3688.17494-.4804.14657-.1135.3461-.1286.50969-.0416.05485.0293.92577.5059 1.65863 1.6028.29031-2.85859 1.56312-7.62549 6.64211-9.91013.1636-.07376.3555-.04823.4955.06619.139.11537.2005.29882.1589.47471-.0095.04066-.9277 4.22884 2.3498 8.94283 3.5093 5.0487 6.0445 8.696 5.1622 13.6113-1.1773 6.5579-4.9201 9.7844-11.4411 9.8639-.0284.0009-.0984.0028-.2033.0028z"/></g></svg>