<svg fill="none" height="40" viewBox="0 0 40 40" width="40" xmlns="http://www.w3.org/2000/svg" xmlns:xlink="http://www.w3.org/1999/xlink"><clipPath id="a"><path d="m4.5 1h31v39h-31z"/></clipPath><mask height="40" maskUnits="userSpaceOnUse" width="40" x="0" y="0"><path d="m0 0h40v40h-40z" fill="#13381f"/></mask><g clip-path="url(#a)" fill="#13381f"><path d="m35.6668 21.2209c0-.13-.0954-.2718-.1311-.4018-.0975-.3135-.213-.6213-.3458-.9218-.3935-.8155-.8108-1.6309-1.1923-2.4228l-.3696-.7209c-.0328-.1192-.0959-.228-.1833-.3161-.0874-.088-.1962-.1523-.3159-.1868-.1197-.0344-.2463-.0377-.3677-.0097-.1213.0281-.2334.0866-.3254.1699l-5.89 3.4036c-.1144.0404-.2172.1076-.2996.196s-.142.1952-.1737.3114c-.0316.1162-.0344.2382-.008.3557.0263.1174.081.2268.1594.3188l1.8719 3.3563h-4.3043v-.7918c0-.3309 0-.6618 0-.9927.0107-.1476-.0264-.2947-.1057-.4201-.0793-.1253-.1968-.2224-.3354-.2772-.1437-.0514-.3-.0575-.4473-.0173-.1474.0403-.2785.1247-.3754.2419l-4.9719 5.4245c-.0876.0721-.158.1624-.2064.2645-.0484.1022-.0734.2136-.0734.3264s.025.2243.0734.3264.1188.1924.2064.2645l4.8288 6.4173.0835.1182c.0672.0911.1551.1654.2566.2167s.2137.0783.3276.0787h.2385c.1412-.0463.2631-.1374.3471-.259.084-.1217.1254-.2674.1179-.4146 0-.2482 0-.4846 0-.7327v-.5909h.6915 2.5039.2027c.2461.0173.4931.0173.7392 0 .521-.101 1.0127-.3157 1.4396-.6284.4269-.3128.7782-.7158 1.0285-1.1798l.3577-.6146c1.2638-2.1391 2.5276-4.2782 3.8153-6.4172l.1789-.2955c.4731-.6667.8019-1.4231.9658-2.2218v-.9337zm-2.7184 3.1909c-1.0652 0-2.1263 0-3.1835 0h-.0835l-1.7765-3.1673-.2623-.4609 4.9719-2.8718.1431.26.0596.1418 1.1923 2.3637c.1985.3655.2965.7764.2839 1.1913s-.1351.8193-.3554 1.1723c-.2266.39-.4889.8036-.8466 1.3355.0239 0-.1073.0354-.143.0354zm-9.61 1.4064h8.8827l-.5485.9218c-.8465 1.4418-1.6931 2.8836-2.5515 4.3255-.1754.3235-.4373.5928-.757.7784s-.6849.2801-1.0553.2734h-3.9108c-.7035 0-.93.1536-.9896.7327l-3.6008-4.6682 3.5769-3.9v.5437c0 .7681.2266.9927.9539.9927z"/><path d="m12.0354 10.9509 5.3296 3.3682c.1009.0766.216.1327.3387.1652.1228.0324.2508.0406.3767.0239.1206-.0424.2307-.1096.3232-.1972.0924-.0876.1652-.1936.2133-.311l1.8958-3.3918 2.1462 4.0182-.1789.1063c-.608.3664-1.1923.7209-1.7884 1.0637-.1376.0675-.2486.1785-.3155.3154-.0669.137-.086.2921-.0542.4409.0228.1536.1002.2939.2183.3958s.2691.1585.4256.1597h.1073.1192l7.1539.8036h.2742c.3696 0 .5365-.1418.7392-.5672l3.1835-6.5119.3935-.8036c.0594-.10888.0906-.23073.0906-.35455 0-.12381-.0312-.24567-.0906-.35454-.0609-.08836-.1427-.16048-.2384-.20995-.0957-.04948-.2022-.07479-.3101-.07369-.1751.03182-.3368.11402-.465.23636-.5008.23637-.9896.48455-1.4785.73277l-.4411.2245-.0954-.1536c-.1788-.3073-.3577-.60276-.5246-.91003-.3935-.66182-.7869-1.35909-1.1923-2.02091-.2731-.49546-.6745-.90989-1.1627-1.20067-.4883-.29079-1.0458-.44745-1.6154-.45387-3.1954 0-6.2954 0-8.9065 0-.6759-.00893-1.3418.16313-1.9272.49801-.5855.33489-1.069.82019-1.3994 1.40471l-1.4427 2.36364c-.3338.50822-.2623.83912.2981 1.19362zm11.7562 4.6091c.5365-.3309.6319-.6382.3338-1.1818l-3.9704-7.4691c.0039-.02744.0039-.05529 0-.08273h4.8646c.4387-.0042.8701.11162 1.2466.33473.3765.2231.6837.54484.8877.92982.453.80363.93 1.59545 1.395 2.36368l.465.7681c.0366.1163.1015.2219.1888.3075.0874.0856.1946.1487.3123.1837s.2423.0408.3628.017.2332-.0766.3284-.1536l.6557-.3309-.8942 1.8318c-.5365 1.0991-1.0731 2.1982-1.5977 3.2973-.0596.13-.0715.13-.1788.1181l-3.7796-.4372-1.2758-.1418zm-4.1254-6.4409c.0084.03895.0084.07922 0 .11818l-1.6454 2.95452-.4054.6264-4.4473-2.7891.3815-.60273c.3577-.57909.6916-1.18182 1.0731-1.65455.2076-.2771.4798-.5003.7933-.65053s.6591-.22303 1.0071-.21219h2.0508c.0406.02076.077.04881.1073.08272.3577.66182.7273 1.39455 1.085 2.12728z"/><path d="m13.9549 14.2127c-.2027-.4609-.3935-.5672-.93-.5436l-6.77232.4254-1.32346.0946c-.15223-.0035-.30003.0509-.4131.152-.11307.101-.18283.2412-.19498.3916.00993.2248.08439.4421.21462.6264.06626.0933.15696.1668.26231.2127h.07154l2.15807 1.3355-.08346.1654-.54846 1.0991c-.35769.7091-.71538 1.4064-1.06115 2.1155-.29995.5718-.44551 1.2108-.42252 1.8548.02298.6441.21372 1.2713.55367 1.8206 1.49038 2.5882 3.02846 5.2237 4.36385 7.4809.27309.5268.67249.979 1.16309 1.3169.4906.338 1.0575.5513 1.6508.6213.6177.0647 1.2391.0884 1.86.0709h.7273c.1108.0111.2228.0001.3293-.0324.1064-.0324.2053-.0857.2907-.1567.0789-.0902.1386-.1954.1755-.3091.0368-.1138.0501-.2337.0391-.3527v-6.7836c0-.5909-.2623-.8509-.8585-.8509h-3.4338l2.3846-4.0418.4769.1772 1.3473.52c.145.0828.3133.1161.4792.0947.1659-.0213.3201-.0961.4389-.2129.1006-.1329.155-.2946.155-.4609 0-.1662-.0544-.3279-.155-.4609zm-2.9569 12.22.0834-.0945h3.577v5.7791h-.62c-.5842.0598-1.1745-.0088-1.7289-.2009-.5414-.2153-.9889-.6128-1.2638-1.1228l-1.28773-2.1745c-.02346-.026-.03644-.0597-.03644-.0946 0-.0348.01298-.0685.03644-.0945l.70343-1.0518zm-4.36388-5.6018 1.29962-2.5764.53654-1.0754c.28615-.5791.21461-.8509-.33385-1.1818l-.93-.5673 3.46957-.2482 2.0389-.1182c.0537.027.099.0678.1311.1182.7154 1.5009 1.407 3.0137 2.1104 4.5146v.1063l-.775-.2954c-.0972-.057-.206-.0919-.3184-.1021-.1125-.0103-.2259.0043-.332.0428-.1061.0384-.2022.0997-.2815.1795-.0793.0797-.1397.1759-.1769.2816l-4.14925 7.15v.0709l-.66769-1.1818c-.53654-.8391-1.03731-1.69-1.53808-2.4937-.25353-.3883-.39529-.8379-.41-1.3003-.01471-.4623.0982-.9199.32654-1.3233z"/></g></svg>