<svg fill="none" height="33" viewBox="0 0 26 33" width="26" xmlns="http://www.w3.org/2000/svg" xmlns:xlink="http://www.w3.org/1999/xlink"><clipPath id="a"><path d="m0 0h26v33h-26z"/></clipPath><g clip-path="url(#a)" fill="#13381f"><path d="m18.4101 15.68c.7806-.9108 1.2408-2.0525 1.31-3.25.09-.83.19-1.65.33-2.47.0773-.34717.1983-.68317.36-1 .12-.27.34-.53.66-.44.2504.07364.4622.24232.59.47.73 1.7 1.48 3.4 2.1 5.14.7105 2.0213 1.1608 4.1249 1.34 6.26.2196 2.5224-.5475 5.0316-2.14 7-1.2638 1.7065-2.9558 3.049-4.9049 3.8919-1.9491.8428-4.0862 1.1561-6.1951.9081-1.8256-.0977-3.60372-.6172-5.19477-1.5177s-2.95174-2.1575-3.97526-3.6723c-1.23671-1.7255-1.875798-3.8078-1.820005-5.93.045801-1.8525.755565-3.6269 2.000005-5 .65971-.7434 1.39727-1.4139 2.2-2 2.32363-1.7588 4.02887-4.20984 4.87-7 .63623-1.78933.97413-3.67108 1.00003-5.57 0-.74.29-1 1-.8 1.654.43237 3.1045 1.43005 4.1 2.82 1.062 1.34094 1.8489 2.87829 2.3157 4.52394.4667 1.64564.6041 3.36726.4043 5.06606 0 .41-.08.81-.14 1.22s-.12.86-.21 1.35zm2.88-4.68h-.15c-.07.57-.14 1.13-.19 1.7-.101 1.0843-.4514 2.1306-1.0239 3.0569-.5725.9264-1.3515 1.7078-2.2761 2.2831-.1019.0932-.232.1497-.3697.1606s-.2751-.0245-.3903-.1006c-.1371-.0903-.2355-.2285-.2762-.3875s-.0207-.3275.0562-.4725c.7413-2.1925 1.0271-4.5132.84-6.82-.2255-2.7061-1.4352-5.23567-3.4-7.11-.535-.52835-1.1805-.93138-1.89-1.18-.0048.05323-.0048.10677 0 .16-.1321 2.52383-.7679 4.9957-1.87 7.27-.91792 2.0835-2.3534 3.8977-4.17003 5.27-.69526.5052-1.34748 1.0671-1.95 1.68-.69398.6526-1.23701 1.449-1.59111 2.3333-.35409.8844-.51071 1.8355-.45889 2.7867.08291 1.3205.44485 2.6085 1.06194 3.7789s1.47531 2.1966 2.51806 3.0111c.66.55 1.40999 1 2.15 1.5 0-.14 0-.15 0-.16-.00375-.0366-.00375-.0734 0-.11-.61953-1.1065-.95231-2.3505-.96803-3.6186-.01572-1.268.28612-2.5199.87803-3.6414 1.13753-2.036 2.74133-3.7735 4.68003-5.07.66-.48 1.07-.23 1.22.59.1444.8547.3653 1.6948.66 2.51.1671.4796.4399.9156.7982 1.2756s.7929.6349 1.2718.8044c.4863.1833.9577.4039 1.41.66.369.1891.6794.4753.8979.8277s.3368.7577.3421 1.1723c.0354.7632-.0149 1.528-.15 2.28-.1931.7904-.4335 1.5685-.72 2.33.0628-.0239.1231-.054.18-.09 1.7681-.9022 3.2424-2.2897 4.25-4 .9284-1.4953 1.3655-3.2437 1.25-5-.1727-2.0405-.5821-4.0541-1.22-6-.46-1.18-.95-2.43-1.4-3.68zm-8.82 7.8c-.82.82-1.6 1.53-2.3 2.33-.80947.8101-1.40221 1.8108-1.72374 2.9099-.32152 1.0991-.36151 2.2615-.11629 3.3801.10786.7831.43715 1.5192.94913 2.1215s1.1853 1.0459 1.9409 1.2785c1.0939.3262 2.2568.3435 3.36.05.6635-.1448 1.2765-.4639 1.7757-.9244.4991-.4606.8665-1.0459 1.0643-1.6956.1916-.5981.3189-1.2149.38-1.84.18-1.59 0-1.93-1.51-2.56h-.07c-.8677-.3054-1.6419-.8294-2.248-1.5213s-1.0235-1.5284-1.212-2.4287c-.09-.35-.17-.67-.29-1.11z"/><path d="m5.77989 5.94.77-.77c.10184-.1084.15899-.25126.16-.4.0099-.1202-.01926-.24039-.08316-.34268-.06389-.1023-.15911-.18123-.27148-.22505-.11237-.04383-.23588-.0502-.35216-.01818-.11628.03203-.21912.10074-.2932.19591l-.71.77-.77-.77c-.10494-.10442-.24696-.16304-.395-.16304-.14805 0-.29007.05862-.395.16304-.05293.04985-.09459.11043-.12219.1777-.02759.06726-.04049.13965-.03781.2123-.00163.07401.01171.14759.0392.21632s.06858.13121.1208.18368l.77.77-.77.76c-.05222.05248-.09331.11495-.1208.18368-.02749.06874-.04083.14231-.0392.21632-.00268.07266.01022.14504.03781.21231.0276.06726.06926.12785.12219.17769.10493.10442.24695.16304.395.16304.14804 0 .29006-.05862.395-.16304l.77-.76.77.76c.10257.10577.24269.16685.38999.17.14836-.00291.29057-.05979.40001-.16.10271-.10784.15999-.25107.15999-.4s-.05728-.29215-.15999-.4z"/></g></svg>