<svg fill="none" height="32" viewBox="0 0 32 32" width="32" xmlns="http://www.w3.org/2000/svg" xmlns:xlink="http://www.w3.org/1999/xlink"><clipPath id="a"><path d="m0 0h32v31.0244h-32z"/></clipPath><g clip-path="url(#a)" fill="#004a26"><path d="m10.5298 7.83478c.2797-.52927.4512-1.10732.5106-1.70163h-.3708c.4195-.08374.8577-.17723 1.3163-.28943 2.1585-.52195 4.6951-1.3626 7.3236-2.72276 1.1723.58536 4.2317 2.0187 7.3146 2.69919l-1.2114 1.36585c-1.2813-.3878-4.204-1.3065-5.6723-1.99431l-.435-.20488-.4358.20325c-.039.01464-3.3927 1.54472-7.2309 2.41545-.3634.08374-.7341.16017-1.1089.22927z"/><path d="m19.3193 31.0161c-2.1496-.9211-12.63253-6.0602-12.63253-18.8382v-1.7146c.56992-.0732 1.12032-.2423 1.62358-.48867-.02033.28697-.04147.61867-.04878.99187-.09838 4.0675.90244 12.8821 10.55853 17.9878l.4114.2204.4382-.1659c.4195-.1602 10.3155-4.0455 10.4943-16.9797l.0342-2.43983-10.9236 11.14473-5.7577-5.1407 1.2593-1.2943 4.5951 4.2017 11.3651-12.05615 1.1707.09106v5.67069l.0016.0261c.0285.5439.5708 13.326-12.5894 18.7837z"/><path d="m10.2322 1.67217c-1.12601-1.065856-2.64878-1.66829569-4.23658-1.67236074-1.59431 0-3.11545.60243974-4.2431 1.66829074-1.12195 1.0683-1.75203172 2.51708-1.75203172 4.02684 0 1.51138.63008172 2.96179 1.75203172 4.02764 1.12765 1.06662 2.64879 1.66912 4.2431 1.66912.23252 0 .46341-.0138.69105-.0398.54228-.0594 1.07561-.1895 1.57561-.3854.73009-.2838 1.40326-.7049 1.96992-1.24392.6342-.60163 1.113-1.32683 1.4073-2.11707.2122-.56098.3317-1.15366.3464-1.76179.0024-.05041.0024-.10082.0024-.14878-.0024-1.50976-.6317-2.95692-1.7561-4.02277zm.8089 4.46098c-.0593.59431-.2308 1.17398-.5105 1.70162-.2423.46586-.56506.89106-.95612 1.26342-.3748.35447-.80163.64716-1.26423.87642-.50325.24639-1.05284.41549-1.62358.49029-.07642.0089-.15609.0187-.23252.026v-.70816c0-.15691-.0878-.29837-.22764-.37886-.1439-.07642-.3187-.07642-.4626 0-.14309.08049-.2309.22195-.2309.37886v.70816c-1.17967-.1025-2.28536-.5984-3.12276-1.39271-.83496-.79594-1.35285-1.84472-1.465046-2.96504h.745526c.16423 0 .31545-.08456.39919-.22033.08049-.13252.08049-.30162 0-.43414-.08374-.13659-.23496-.22033-.39919-.22033h-.745526c.112196-1.12033.630086-2.16911 1.465046-2.96586.8374-.79756 1.94309-1.2878 3.12276-1.391867v.708127c0 .15691.08781.3.2309.37805.1439.07643.3187.07643.4626 0 .13984-.07805.22764-.22114.22764-.37805v-.708127c1.1813.104067 2.28293.594307 3.12033 1.391867.84062.79675 1.35692 1.84553 1.46662 2.96586h-.7414c-.1667 0-.31953.08374-.3992.22033-.08374.13252-.08374.30162 0 .43414.07967.13577.2325.22033.3992.22033z"/><path d="m5.99319 3.50548c-.12114.00162-.23821.04878-.32439.13089-.08536.0813-.13577.19187-.13577.30732v1.57155l-1.70976 1.62357c-.0878.08212-.13577.1935-.13577.30895 0 .11544.04797.22764.13577.30975.08618.08212.20325.12846.32439.12846.12277 0 .24065-.04634.32602-.12846l1.84553-1.75203c.08618-.08211.13415-.19431.13415-.30976v-1.75203c0-.11545-.05041-.22602-.13578-.30732-.08618-.08211-.20325-.12927-.32439-.13089z"/></g></svg>