<svg fill="none" height="36" viewBox="0 0 34 36" width="34" xmlns="http://www.w3.org/2000/svg" xmlns:xlink="http://www.w3.org/1999/xlink"><clipPath id="a"><path d="m0 0h34v36h-34z"/></clipPath><g clip-path="url(#a)" fill="#004a26"><path d="m27.8908 16.6355c-2.3477-5.6513-7.7578-9.3016-13.785-9.3016-5.95233 0-11.33567 3.59-13.715676 9.1454-.628056 1.4605-.491111 3.1291.365973 4.4551.845283 1.3152 2.272173 2.1008 3.817133 2.1008h13.49767c.2723-.1918.5557-.3564.8532-.5033.3715-.1864.7634-.3372 1.1624-.4508h-15.51327c-1.24352 0-2.35167-.6078-3.0356-1.6678-.678431-1.0601-.788615-2.3861-.28649-3.5528 2.22811-5.2083 7.27381-8.57325 12.85466-8.57325 5.6502 0 10.7211 3.42135 12.9185 8.72085.4698 1.125.3502 2.3645-.3211 3.3944-.3479.5319-.8099.9556-1.3443 1.2425-.4691.2536-.9925.4044-1.5355.4291.5304.1492 1.0373.3634 1.5119.6333.3392-.1369.6572-.3124.9547-.525.4659-.3317.872-.7554 1.1947-1.2518.8374-1.2851.9869-2.891.4061-4.2951z"/><path d="m17.989 23.0352v.0549c.0291-.0178.052-.0356.0811-.0549zm0 5.3521v5.141c0 .7886-.6312 1.4304-1.4072 1.4304h-4.9214c-.7736 0-1.4056-.6418-1.4056-1.4304v-10.4931h7.7342v.0549c.0291-.0178.052-.0356.0811-.0549.2723-.1917.5556-.3564.8539-.5033-.0094-.2521-.2164-.4524-.4659-.4524h-8.67238c-.25972 0-.46907.215-.46907.4787v10.9701c0 1.3136 1.04995 2.386 2.34375 2.386h4.9214c1.2955 0 2.3454-1.0724 2.3454-2.386v-5.141zm0-5.3521v.0549c.0291-.0178.052-.0356.0811-.0549z"/><path d="m5.65626 21.0443c-1.12074 0-2.0337-.9287-2.0337-2.0707s.91296-2.0706 2.0337-2.0706c1.12075 0 2.03371.9286 2.03371 2.0706s-.91296 2.0707-2.03371 2.0707zm0-3.5049c-.77602 0-1.40958.6433-1.40958 1.4342 0 .791.63356 1.4343 1.40958 1.4343s1.40959-.6433 1.40959-1.4343c0-.7909-.63357-1.4342-1.40959-1.4342z"/><path d="m6.45117 15.5027c-.61153 0-1.10815-.5049-1.10815-1.1273s.49662-1.1273 1.10815-1.1273c.61152 0 1.10815.5049 1.10815 1.1273s-.49663 1.1273-1.10815 1.1273zm0-1.6183c-.26681 0-.48324.2196-.48324.491s.21643.491.48324.491c.2668 0 .48166-.2196.48166-.491s-.21486-.491-.48166-.491z"/><path d="m18.4581 22.0803c.2511 0 .4565.2003.466.4523.3715-.1878.7626-.3371 1.1632-.4523zm10.751 3.682c-.6186-1.5-1.6473-2.7263-2.9191-3.5807-.296-.2003-.61-.3812-.9311-.5374-1.0381-.5049-2.1943-.7817-3.3984-.7817-1.5049 0-2.9428.4377-4.1643 1.2178-.4391.2768-.8484.5992-1.2254.9557-.7579.7252-1.3804 1.6059-1.8117 2.6111-.3558.8242-.2818 1.7636.1967 2.516.4762.7368 1.279 1.1806 2.1486 1.1806h9.7231c.8657 0 1.6693-.4438 2.151-1.1791.4691-.7183.5572-1.6168.2306-2.4023zm-1.0122 1.8742c-.3069.4709-.8193.7516-1.3694.7516h-9.7231c-.5588 0-1.057-.273-1.36-.7485-.3085-.4802-.3557-1.0778-.1282-1.6059.521-1.2109 1.3513-2.2199 2.3729-2.9444.0291-.0162.0543-.0355.081-.0533.2724-.1918.5573-.3565.854-.5034.3715-.1878.7626-.3371 1.1632-.4523.5997-.1716 1.2294-.2644 1.8732-.2644.6406 0 1.2655.0889 1.8621.2575.5328.1507 1.0381.3634 1.5143.6348 1.323.75 2.391 1.9376 3.0064 3.4229.207.5003.1535 1.0477-.1464 1.5054z"/><path d="m23.0214 35.9144h-2.1077c-.8988 0-1.6276-.7431-1.6276-1.6578v-5.3907c0-.2644.2094-.4786.4675-.4786h4.4263c.2598 0 .4691.2142.4691.4786v5.3907c0 .9147-.7312 1.6578-1.6276 1.6578zm-2.7987-6.5714v4.9136c0 .3882.3101.7021.691.7021h2.1077c.3809 0 .6895-.3139.6895-.7021v-4.9136z"/><path d="m17.4979 27.9535c-.6572 0-1.1908-.5443-1.1908-1.2123 0-.6688.5336-1.2132 1.1908-1.2132s1.1908.5444 1.1908 1.2132c0 .668-.5336 1.2123-1.1908 1.2123zm0-2.0172c-.4352 0-.7902.3618-.7902.8049 0 .443.355.8049.7902.8049.4368 0 .7902-.3619.7902-.8049 0-.4431-.3534-.8049-.7902-.8049z"/><path d="m18.1529 25.3185c-.3967 0-.7186-.3279-.7186-.7323 0-.402.3219-.7306.7186-.7306s.7186.3286.7186.7306c0 .4044-.3219.7323-.7186.7323zm0-1.1591c-.2306 0-.4203.191-.4203.4268 0 .2374.1897.4292.4203.4292s.4203-.1918.4203-.4292c0-.2358-.1897-.4268-.4203-.4268z"/><path d="m33.8464 5.09861c0-2.81675-2.3242-5.09845741-5.1898-5.09845741-2.8671 0-5.1913 2.28170741-5.1913 5.09845741 0 2.81521 2.3242 5.09849 5.1913 5.09849 2.8656 0 5.1898-2.28328 5.1898-5.09849zm-3.9431-.00696 1.9259 2.12552-1.3986 1.2232-1.7669-1.95001-1.7448 1.96779-1.4128-1.20773 1.9039-2.14485-1.9275-2.12552 1.3986-1.2232 1.7669 1.95001 1.7464-1.96934 1.4112 1.20928z"/></g></svg>