<svg fill="none" height="39" viewBox="0 0 36 39" width="36" xmlns="http://www.w3.org/2000/svg" xmlns:xlink="http://www.w3.org/1999/xlink"><clipPath id="a"><path d="m0 0h36v39h-36z"/></clipPath><g clip-path="url(#a)" fill="#004a26"><path d="m35.8369 5.43968c0-3.00502-2.4608-5.43922224-5.495-5.43922224-3.0358 0-5.4967 2.43420224-5.4967 5.43922224 0 3.00336 2.4609 5.43922 5.4967 5.43922 3.0342 0 5.495-2.43586 5.495-5.43922zm-4.175-.00743 2.0392 2.26758-1.4809 1.30495-1.8708-2.08033-1.8475 2.0993-1.4959-1.28845 2.0159-2.2882-2.0409-2.26758 1.4809-1.30495 1.8708 2.08033 1.8492-2.10095 1.4942 1.2901z"/><path d="m22.4794 19.1078h-19.01082c-1.9125 0-3.46833586-1.5392-3.46833586-3.4323v-3.768c0-1.8931 1.55583586-3.43394 3.46833586-3.43394h19.01082c1.9125 0 3.4675 1.54084 3.4675 3.43394v3.768c0 1.8931-1.555 3.4323-3.4675 3.4323zm-19.01082-9.59407c-1.33333 0-2.41917 1.07397-2.41917 2.39377v3.768c0 1.3198 1.08584 2.3938 2.41917 2.3938h19.01082c1.3334 0 2.4192-1.074 2.4192-2.3938v-3.768c0-1.3198-1.0858-2.39377-2.4192-2.39377z"/><path d="m13.0471 38.8033h-3.68333c-.29084 0-.52417-.2326-.52417-.5197v-9.5949c0-.287.23333-.5197.52417-.5197h3.68333c.29 0 .5258.2327.5258.5197v9.5949c0 .2871-.2358.5197-.5258.5197zm-3.15833-1.0385h2.63503v-8.5564h-2.63503z"/><path d="m11.2053 29.2084c-.2909 0-.5259-.2326-.5259-.5197v-5.0441c0-1.521 1.25-2.7559 2.7842-2.7559h12.855c1.2684 0 2.3025-1.0212 2.3025-2.2791v-3.707c0-.6178-.5083-1.121-1.1333-1.121h-2.065c-.2892 0-.5242-.2326-.5242-.5205 0-.2854.235-.518.5242-.518h2.065c1.2033 0 2.1817.9684 2.1817 2.1595v3.707c0 1.8287-1.5034 3.3176-3.3509 3.3176h-12.855c-.955 0-1.7333.7697-1.7333 1.7174v5.0441c0 .2871-.235.5197-.525.5197z"/></g></svg>