<svg fill="none" height="40" viewBox="0 0 40 40" width="40" xmlns="http://www.w3.org/2000/svg" xmlns:xlink="http://www.w3.org/1999/xlink"><mask id="a" height="40" maskUnits="userSpaceOnUse" width="40" x="0" y="0"><path d="m0 0h40v40h-40z" fill="#d9d9d9"/></mask><g mask="url(#a)"><path d="m22.5 37.417h-3.875c-.3333 0-.618-.1183-.854-.355-.236-.236-.354-.5067-.354-.812v-8.875c0-.3333.118-.611.354-.833.236-.2227.5207-.334.854-.334h1.208v-6.708c0-.3053-.097-.5553-.291-.75-.1947-.1947-.431-.292-.709-.292h-10.70801c-.66666 0-1.243-.243-1.729-.729s-.729-1.0623-.729-1.729v-5.458c0-.69467.243-1.278.729-1.75.486-.47267 1.06234-.709 1.729-.709h2.00001v-1.25c0-.30533.118-.583.354-.833s.5207-.375.854-.375h18.459c.3333 0 .618.125.854.375s.354.52767.354.833v4c0 .3333-.118.6183-.354.855-.236.236-.5207.354-.854.354h-18.459c-.3333 0-.618-.118-.854-.354-.236-.2367-.354-.5217-.354-.855v-1.333h-2.00001c-.30533 0-.55533.09733-.75.292-.19466.194-.292.444-.292.75v5.458c0 .3053.09734.5553.292.75.19467.1947.44467.292.75.292h10.70801c.6667 0 1.2363.236 1.709.708.472.472.708 1.0553.708 1.75v6.708h1.25c.3333 0 .618.1113.854.334.236.222.354.4997.354.833v8.875c0 .3053-.118.576-.354.812-.236.2367-.5207.355-.854.355zm-3.667-1.375h3.459v-8.459h-3.459zm-7.291-25.417h18.041v-3.583h-18.041z" fill="#13381f"/></g></svg>