<svg fill="none" height="40" viewBox="0 0 40 40" width="40" xmlns="http://www.w3.org/2000/svg" xmlns:xlink="http://www.w3.org/1999/xlink"><mask id="a" height="40" maskUnits="userSpaceOnUse" width="40" x="0" y="0"><path d="m0 0h40v40h-40z" fill="#13381f"/></mask><g mask="url(#a)"><path d="m8.54199 31.667c-.36133 0-.66-.1183-.896-.355-.236-.236-.354-.5207-.354-.854v-12.625c0-.1387.03467-.2773.104-.416.06934-.1393.15967-.2783.271-.417l7.12501-7.12501c.1107-.11133.2427-.20166.396-.271.1527-.06933.3123-.104.479-.104s.3123.03467.437.104c.1253.06934.2573.15967.396.271l7.125 7.12501c.1113.1387.1947.2777.25.417.0553.1387.083.2773.083.416v12.625c0 .3333-.111.618-.333.854-.222.2367-.5137.355-.875.355zm.166-1.417h5.79201v-2.667c0-.3333.111-.611.333-.833.2227-.222.5007-.333.834-.333.3053 0 .569.111.791.333.2227.222.334.4997.334.833v2.667h5.791v-12.292l-6.958-6.916-6.91701 6.916zm6.91701-9.083c-.3333 0-.6043-.1113-.813-.334-.208-.222-.312-.4997-.312-.833 0-.3053.111-.576.333-.812.2227-.2367.4867-.355.792-.355.3333 0 .611.1183.833.355.2227.236.334.5067.334.812s-.118.576-.354.812c-.2367.2367-.5077.355-.813.355zm12 10.541c-.1947 0-.3613-.0693-.5-.208s-.208-.3053-.208-.5v-14.458c0-.056-.0557-.209-.167-.459l-5.792-5.791c-.222-.2227-.2707-.48667-.146-.79201.1253-.30533.3547-.458.688-.458.1113 0 .2087.02067.292.062.0833.042.1667.09067.25.146l5.916 5.95801c.1393.1113.2367.2433.292.396s.083.2987.083.438v14.958c0 .1947-.0693.3613-.208.5s-.3053.208-.5.208zm4.375 0c-.222 0-.3957-.0693-.521-.208-.1247-.1387-.187-.3053-.187-.5v-16.292c0-.0273-.0697-.18-.209-.458l-3.916-3.917c-.2227-.222-.2713-.49267-.146-.81201.1247-.31933.3537-.479.687-.479.1113 0 .2087.02067.292.062.0833.042.1667.09067.25.146l4.083 4.12501c.1113.1113.2017.2433.271.396s.104.2983.104.437v16.792c0 .1947-.0693.3613-.208.5s-.3053.208-.5.208z" fill="#13381f"/></g></svg>