<svg fill="none" height="40" viewBox="0 0 40 40" width="40" xmlns="http://www.w3.org/2000/svg" xmlns:xlink="http://www.w3.org/1999/xlink"><mask id="a" height="40" maskUnits="userSpaceOnUse" width="40" x="0" y="0"><path d="m0 0h40v40h-40z" fill="#d9d9d9"/></mask><g mask="url(#a)"><path d="m20 35c-3.0833 0-5.7987-1.0763-8.146-3.229-2.34733-2.1527-3.52099-5.0763-3.52099-8.771 0-2.3333.896-4.875 2.68799-7.625 1.7913-2.75 4.4927-5.77766 8.104-9.08299.1387-.11134.2777-.19467.417-.25.1387-.056.2913-.084.458-.084s.3193.028.458.084c.1393.05533.2783.13866.417.25 3.6113 3.30533 6.3127 6.33299 8.104 9.08299 1.792 2.75 2.688 5.2917 2.688 7.625 0 3.6947-1.1737 6.6183-3.521 8.771s-5.0627 3.229-8.146 3.229zm0-1.417c2.8613 0 5.285-.993 7.271-2.979s2.979-4.5207 2.979-7.604c0-2.028-.8473-4.3543-2.542-6.979-1.694-2.6253-4.2633-5.4933-7.708-8.60399-3.4447 3.11069-6.014 5.97869-7.708 8.60399-1.6947 2.6247-2.54199 4.951-2.54199 6.979 0 3.0833.99299 5.618 2.97899 7.604s4.4097 2.979 7.271 2.979zm.208-2.541c.278 0 .4863-.0627.625-.188.1393-.1247.209-.2843.209-.479s-.0767-.3473-.23-.458c-.1527-.1113-.3677-.167-.645-.167-1.1393.0553-2.4033-.3127-3.792-1.104-1.3887-.792-2.2497-2.1183-2.583-3.979-.028-.25-.1047-.4377-.23-.563-.1247-.1247-.2703-.187-.437-.187-.1947 0-.3543.0763-.479.229-.1253.1527-.174.368-.146.646.4167 2.2773 1.4513 3.9023 3.104 4.875 1.6527.972 3.1873 1.4303 4.604 1.375z" fill="#13381f"/></g></svg>