<svg fill="none" height="37" viewBox="0 0 37 37" width="37" xmlns="http://www.w3.org/2000/svg"><g stroke="#13381f"><path d="m17.9861 16.4444c-6.8861 0-10.99722-1.1305-12.43611-1.6444-.61667-.2056-1.02778-.7194-1.23334-1.3361-.61666-2.5695-.10277-4.93334 1.43889-6.78334 2.36389-2.98056 6.78336-4.625 12.23056-4.625s9.8667 1.64444 12.2306 4.52222c1.5416 1.85 2.0555 4.21392 1.4388 6.78332-.1027.6167-.6166 1.1306-1.2333 1.3361-1.4389.6167-5.55 1.7472-12.4361 1.7472zm0-13.6694c-5.1389 0-9.45556 1.64445-11.61389 4.21389-1.43889 1.74722-1.85 3.80281-1.33611 6.16671.10278.4111.41111.6166.71944.7194 1.43889.5139 5.34446 1.6444 12.23056 1.6444 6.7833 0 10.7917-1.1305 12.2306-1.6444.4111-.1028.6166-.4111.7194-.7194.5139-2.3639.1028-4.41949-1.3361-6.16671-2.1583-2.56944-6.475-4.21389-11.6139-4.21389z" fill="#13381f" stroke-width=".5"/><path d="m13.3612 15.9306-2.0556 15.3138c-.2056 1.6445 1.1306 3.1862 2.775 3.1862h9.0444c1.7473 0 3.0834-1.6445 2.775-3.3917l-3.0833-15.1083" stroke-width="1.35"/></g></svg>