<svg fill="none" height="40" viewBox="0 0 40 40" width="40" xmlns="http://www.w3.org/2000/svg"><path d="m34 18c2.75 0 5-2.1875 5-5 0-2.75-2.25-5-5-5-2.8125 0-5 2.25-5 5 0 2.8125 2.1875 5 5 5zm0-8c1.625 0 3 1.375 3 3 0 1.6875-1.375 3-3 3-1.6875 0-3-1.3125-3-3 0-1.625 1.3125-3 3-3zm-14 10c3.8125 0 7-3.125 7-7 0-3.8125-3.1875-7-7-7-3.875 0-7 3.1875-7 7 0 3.875 3.125 7 7 7zm0-12c2.75 0 5 2.25 5 5 0 2.8125-2.25 5-5 5-2.8125 0-5-2.1875-5-5 0-2.75 2.1875-5 5-5zm15.25 12h-2.5c-1 0-1.875.3125-2.625.8125.625.4375 1.125.875 1.625 1.4375.3125-.125.625-.25 1-.25h2.5c1.5 0 2.75 1.375 2.75 3 0 .5625.4375 1 1 1 .5 0 1-.4375 1-1 0-2.75-2.1875-5-4.75-5zm-29.25-2c2.75 0 5-2.1875 5-5 0-2.75-2.25-5-5-5-2.8125 0-5 2.25-5 5 0 2.8125 2.1875 5 5 5zm0-8c1.625 0 3 1.375 3 3 0 1.6875-1.375 3-3 3-1.6875 0-3-1.3125-3-3 0-1.625 1.3125-3 3-3zm19 11.25c-2.125 0-2.625.75-5 .75-2.4375 0-2.9375-.75-5.0625-.75-2.25 0-4.4375 1.0625-5.75 2.9375-.75 1.1875-1.1875 2.5625-1.1875 4.0625v2.75c0 1.6875 1.3125 3 3 3h18c1.625 0 3-1.3125 3-3v-2.75c0-1.5-.5-2.875-1.25-4.0625-1.3125-1.875-3.5-2.9375-5.75-2.9375zm5 9.75c0 .5625-.5 1-1 1h-18c-.5625 0-1-.4375-1-1v-2.75c0-1.0625.25-2.0625.875-2.9375.8125-1.25 2.375-2.0625 4.0625-2.0625 1.75 0 2.375.75 5.0625.75s3.25-.75 5-.75c1.6875 0 3.25.8125 4.0625 2.0625.625.875.875 1.875.875 2.9375v2.75zm-20.1875-10.1875c-.75-.5-1.625-.8125-2.5625-.8125h-2.5c-2.625 0-4.75 2.25-4.75 5 0 .5625.4375 1 1 1 .5 0 1-.4375 1-1 0-1.625 1.1875-3 2.75-3h2.5c.3125 0 .625.125.9375.25.5-.5625 1-1 1.625-1.4375z" fill="#84cc16"/></svg>