<svg fill="none" height="32" viewBox="0 0 32 32" width="32" xmlns="http://www.w3.org/2000/svg"><path d="m31.5 26h-29.5v-21.5c0-.25-.25-.5-.5-.5h-1c-.3125 0-.5.25-.5.5v22.5c0 .5625.4375 1 1 1h30.5c.25 0 .5-.1875.5-.5v-1c0-.25-.25-.5-.5-.5zm-25.375-9.5c-.1875.1875-.1875.5 0 .6875l.6875.6875c.1875.1875.5.1875.6875 0l4.5625-4.5 5.3125 5.3125c.375.375 1 .375 1.375 0l5.875-5.875 2.75 2.75c.3125.3125.6875.4375 1.0625.4375.8125 0 1.5625-.5625 1.5625-1.5v-7.4375c0-.5625-.5-1.0625-1.0625-1.0625h-7.4375c-1.375 0-2.0625 1.6875-1.0625 2.625l2.75 2.8125-5.125 5.125-5.25-5.3125c-.4375-.375-1.0625-.375-1.4375 0zm16.5-8.5h5.375v5.375z" fill="#84cc16"/></svg>