<svg fill="none" height="24" viewBox="0 0 32 24" width="32" xmlns="http://www.w3.org/2000/svg"><path d="m23.4527 0 .4048.298514-.1855-.298514zm8.5473.69316-8.4823.010119-.113.109624v.003372c-1.6225 1.561715-3.3857 3.359545-5.0916 5.102565-1.4058 1.43691-2.8553 2.91936-4.2037 4.24076l-.2024.2024h-.3187l-.0278-.0034c-.0844-.0067-.167-.011-.2404-.0135h-.0033c-.2497-.011-.5052-.0076-.7649.0101-.7378.0591-1.4167.1822-2.0314.4495l-.0346.0135c-.62483.2352-1.22607.5599-1.78768.9638-1.01023.7261-1.60388 1.6326-2.23042 2.6074v.0033c-.28502.4453-.56667.8804-.90566 1.3138-1.35512 1.7363-3.48604 2.4641-5.112683 2.9203l-.449457.1273.167808.436v.0033c.564141 1.4909 1.846742 2.6428 3.469172 3.438s3.56108 1.2118 5.26699 1.2522h.00338c.10962.0034.21756.0068.31538.0068.44271 0 .89727-.0219 1.35507-.0683l.1097-.0101c2.9817-.3222 6.0723-1.6452 7.4839-4.5258.5827-1.189.7665-2.5526.5523-3.8672l-.0582-.3466.2471-.2538c1.1612-1.2025 3.6564-3.9321 6.2756-6.79077 2.4555-2.67904 4.9878-5.44408 6.1077-6.60525zm-3.6269.85759h1.6124l-1.098 1.18057c-1.2041 1.29862-2.7389 2.97586-4.3267 4.71129l-.4942.54221-.0067-.00674c-1.8577 2.02892-3.7551 4.10242-4.9719 5.39772l-.6552.6999-.4697-.8374c-.0219-.0388-.043-.0759-.0649-.113-.5481-.9217-1.2868-1.6342-2.1478-2.1098l-.8205-.4528.662-.65862c1.0903-1.08696 2.2321-2.24897 3.3418-3.38316 1.5794-1.61484 3.2111-3.28449 4.7383-4.7661l.2057-.19901zm-15.0909 9.65195h.0033c2.1639.0911 3.3756 1.5314 3.8706 2.3603.9706 1.6292 1.0701 3.6589.2471 5.3387-1.1199 2.286-3.4801 3.4278-5.7401 3.8806-.7353.1468-1.4681.2235-2.16125.2404-.19564.0059-.38959.0059-.58017 0-2.1267-.0523-5.43986-.7632-7.20565-2.8789l-.64846-.7724.95035-.3399c1.5322-.5447 3.11078-1.3745 4.22389-2.7996.35332-.4537.65436-.9141.95372-1.3796.55824-.8711 1.08865-1.7185 2.00021-2.3746 1.21596-.8745 2.66136-1.3357 4.08646-1.2767z" fill="#fff"/></svg>