<svg fill="none" height="33" viewBox="0 0 33 33" width="33" xmlns="http://www.w3.org/2000/svg"><g fill="#fff"><path d="m17.114 32.5548c-1.6092 0-3.2452-.2369-4.8276-.7152-3.23174-.9744-6.09251-2.901-8.05482-5.4265-1.96231-2.521-3.12449-5.7707-3.276473-9.141-.147509-3.3704.719663-6.7094 2.449533-9.39588 1.72987-2.68644 4.40737-4.85884 7.54086-6.11936 3.1334-1.25606 6.5708-1.542137 9.6774-.800125 3.8397.916345 7.0491 3.057445 9.2841 6.186415 2.0025 2.80713 3.0753 6.23115 3.0306 9.64615-.0447 3.196-1.1666 6.4546-3.1558 9.1813-1.9891 2.7267-4.756 4.7873-7.7866 5.802-1.5422.523-3.2005.7822-4.8812.7822zm-.009-30.21685c-4.7873 0-9.59247 2.46741-12.19398 6.50825-3.1692 4.9214-2.86077 11.8498.73307 16.4718 3.59384 4.6219 10.23621 6.6245 15.78791 4.765 5.5516-1.864 9.6372-7.4604 9.7221-13.316.076-5.4981-3.3122-12.24324-10.9424-14.06698-1.0192-.24585-2.0607-.36207-3.1067-.36207z"/><path d="m15.1694 24.1066-.7152-.6436c-1.1354-1.0192-2.0607-1.8327-2.9591-2.6194-.903-.7912-1.83273-1.6092-2.97703-2.6373l1.19347-1.3276c1.13536 1.0192 2.06066 1.8327 2.95916 2.6194.7062.6213 1.4348 1.2561 2.2662 1.9981 2.8519-3.5447 6.173-6.6692 9.892-9.2975l1.0326 1.4616c-3.8352 2.7088-7.2324 5.9674-10.1021 9.682z"/></g></svg>