<svg fill="none" height="22" viewBox="0 0 25 22" width="25" xmlns="http://www.w3.org/2000/svg"><path d="m7.9679 16.9062c1.23046 0 2.2969 1.0665 2.2969 2.2969 0 1.2715-1.06644 2.2969-2.2969 2.2969-1.27149 0-2.29688-1.0254-2.29688-2.2969 0-1.2304 1.02539-2.2969 2.29688-2.2969zm0 3.2813c.5332 0 .98437-.4102.98437-.9844 0-.5332-.45117-.9843-.98437-.9843-.57422 0-.98438.4511-.98438.9843 0 .5742.41016.9844.98438.9844zm15.791-16.5293c.2461.32813.3281.73828.2051 1.10742l-2.1328 7.50588c-.2461.8203-1.0254 1.3535-1.8867 1.3535h-12.7559l.28711 1.3125h13.28909c.3281 0 .6562.3281.6562.6563 0 .3691-.3281.6562-.6562.6562h-13.78128c-.32812 0-.57422-.2051-.65625-.4922l-3.1582-13.9453h-2.0918c-.36914 0-.656249-.28711-.656249-.65625 0-.328125.287109-.65625.656249-.65625h2.625c.28711 0 .5332.246094.61523.5332l.49219 2.0918h17.92381c.4102 0 .7793.20508 1.0254.5332zm-3.1992 8.2441 2.1738-7.50582-17.6367.04102 1.80469 7.916s.04101-.041.08203-.041h12.96098c.2871 0 .5742-.1641.6152-.4102zm-1.4356 5.0039c1.2305 0 2.2969 1.0665 2.2969 2.2969 0 1.2715-1.0664 2.2969-2.2969 2.2969-1.2714 0-2.2968-1.0254-2.2968-2.2969 0-1.2304 1.0254-2.2969 2.2968-2.2969zm0 3.2813c.5332 0 .9844-.4102.9844-.9844 0-.5332-.4512-.9843-.9844-.9843-.5742 0-.9843.4511-.9843.9843 0 .5742.4101.9844.9843.9844z"/></svg>