<svg fill="none" height="15" viewBox="0 0 14 15" width="14" xmlns="http://www.w3.org/2000/svg"><path d="m7 .96875c-3.74609 0-6.78125 3.03516-6.78125 6.78125 0 3.7461 3.03516 6.7812 6.78125 6.7812 3.7461 0 6.7812-3.0351 6.7812-6.7812 0-3.74609-3.0351-6.78125-6.7812-6.78125zm0 12.25005c-3.03516 0-5.46875-2.4336-5.46875-5.4688 0-3.00781 2.43359-5.46875 5.46875-5.46875 3.0078 0 5.4688 2.46094 5.4688 5.46875 0 3.0352-2.461 5.4688-5.4688 5.4688zm1.66797-2.8438c.16406.1094.35547.082.46484-.082l.51953-.68362c.10938-.16407.08204-.35547-.08203-.46485l-1.80469-1.33984v-3.88281c0-.16407-.16406-.32813-.32812-.32813h-.875c-.19141 0-.32812.16406-.32812.32813v4.51171c0 .08203.02734.19141.10937.2461z" /></svg>