<svg fill="none" height="15" viewBox="0 0 11 15" width="11" xmlns="http://www.w3.org/2000/svg"><path d="m5.25.75c-2.92578 0-5.25 2.37891-5.25 5.25 0 1.96875.628906 2.57031 4.12891 8.1484.51953.8204 1.69531.8204 2.21484 0 3.5-5.57809 4.15625-6.17965 4.15625-8.1484 0-2.89844-2.37891-5.25-5.25-5.25zm0 12.6875c-3.5-5.57812-3.9375-5.93359-3.9375-7.4375 0-2.16016 1.75-3.9375 3.9375-3.9375 2.16016 0 3.9375 1.77734 3.9375 3.9375 0 1.50391-.4375 1.80469-3.9375 7.4375zm-2.1875-7.4375c0 1.23047.95703 2.1875 2.1875 2.1875 1.20312 0 2.1875-.95703 2.1875-2.1875 0-1.20312-.98438-2.1875-2.1875-2.1875-1.23047 0-2.1875.98438-2.1875 2.1875z" /></svg>