<svg width="54" height="54" viewBox="0 0 54 54" fill="none" xmlns="http://www.w3.org/2000/svg">
<path d="M35.7695 45.5115C35.3115 45.5115 34.8985 45.1955 34.7945 44.7295C34.6735 44.1905 35.0135 43.6565 35.5525 43.5355C36.7835 43.2605 37.9965 42.8725 39.1585 42.3815C39.6675 42.1675 40.2545 42.4045 40.4695 42.9125C40.6845 43.4215 40.4475 44.0085 39.9385 44.2235C38.6665 44.7615 37.3365 45.1875 35.9885 45.4885C35.9145 45.5035 35.8415 45.5115 35.7695 45.5115Z" />
<path d="M47.679 38.3675C47.448 38.3675 47.216 38.2875 47.028 38.1255C46.609 37.7655 46.561 37.1345 46.921 36.7155C52.681 30.0135 53.587 20.0085 49.126 12.3865C44.612 4.67652 35.347 0.588517 26.593 2.44252C21.443 3.53452 16.753 6.64452 13.728 10.9755C13.413 11.4285 12.789 11.5385 12.335 11.2225C11.882 10.9065 11.772 10.2825 12.088 9.82952C15.401 5.08752 20.537 1.68252 26.178 0.486516C35.766 -1.54748 45.909 2.93252 50.852 11.3765C55.737 19.7245 54.745 30.6805 48.438 38.0195C48.24 38.2495 47.96 38.3675 47.679 38.3675Z" />
<path d="M48.8871 48.5625C48.3871 48.5625 47.9551 48.1885 47.8951 47.6805L46.6861 37.4865C46.6221 36.9385 47.0131 36.4405 47.5611 36.3755C48.1131 36.3135 48.6071 36.7025 48.6721 37.2505L49.8811 47.4445C49.9451 47.9925 49.5541 48.4905 49.0061 48.5555C48.9661 48.5595 48.9261 48.5625 48.8871 48.5625Z" />
<path d="M48.8872 48.5625C48.7482 48.5625 48.6082 48.5335 48.4732 48.4725L39.1332 44.2115C38.6302 43.9825 38.4092 43.3895 38.6382 42.8865C38.8672 42.3845 39.4572 42.1605 39.9632 42.3915L49.3032 46.6525C49.8062 46.8815 50.0272 47.4745 49.7982 47.9775C49.6302 48.3455 49.2672 48.5625 48.8872 48.5625Z" />
<path d="M18.988 41.6785C18.74 41.6785 18.493 41.5875 18.299 41.4035C14.426 37.7235 11.345 33.1525 9.38805 28.1825C9.18605 27.6685 9.43805 27.0885 9.95205 26.8855C10.468 26.6825 11.046 26.9365 11.249 27.4495C13.099 32.1495 16.013 36.4725 19.676 39.9525C20.076 40.3325 20.093 40.9665 19.712 41.3665C19.516 41.5745 19.252 41.6785 18.988 41.6785Z" />
<path d="M24.0161 53.7605C23.8621 53.7605 23.7051 53.7245 23.5581 53.6495C10.1971 46.7475 1.39415 33.6865 0.0121465 18.7115C-0.0388535 18.1615 0.366146 17.6745 0.916146 17.6245C1.46515 17.5695 1.95315 17.9785 2.00315 18.5285C3.32215 32.8205 11.7231 45.2855 24.4761 51.8725C24.9671 52.1255 25.1591 52.7295 24.9061 53.2205C24.7281 53.5625 24.3791 53.7605 24.0161 53.7605Z" />
<path d="M1.00748 19.6195C0.49648 19.6195 0.0604797 19.2295 0.0124797 18.7105C-0.0765203 17.7375 0.31448 16.7805 1.05848 16.1485C1.47848 15.7905 2.11048 15.8415 2.46748 16.2635C2.82448 16.6845 2.77348 17.3155 2.35248 17.6725C2.10448 17.8835 1.97348 18.2025 2.00348 18.5275C2.05448 19.0775 1.64948 19.5645 1.09948 19.6145C1.06848 19.6175 1.03748 19.6195 1.00748 19.6195Z" />
<path d="M1.70613 17.9105C1.42313 17.9105 1.14113 17.7905 0.943131 17.5575C0.586131 17.1365 0.637131 16.5055 1.05813 16.1485C2.95513 14.5375 5.22713 13.3355 7.62813 12.6705C8.16113 12.5255 8.71113 12.8355 8.85813 13.3675C9.00513 13.8995 8.69313 14.4505 8.16113 14.5975C6.03813 15.1845 4.03013 16.2475 2.35213 17.6725C2.16413 17.8325 1.93413 17.9105 1.70613 17.9105Z" />
<path d="M10.3024 15.8645C9.89738 15.8645 9.51538 15.6155 9.36538 15.2135C9.18238 14.7225 8.66138 14.4605 8.16138 14.5985C7.62438 14.7435 7.07838 14.4325 6.93138 13.9015C6.78438 13.3695 7.09638 12.8185 7.62838 12.6715C9.13938 12.2535 10.6914 13.0465 11.2394 14.5145C11.4324 15.0325 11.1694 15.6085 10.6524 15.8015C10.5364 15.8435 10.4184 15.8645 10.3024 15.8645Z" />
<path d="M24.9351 53.9825C24.4621 53.9825 23.9901 53.8715 23.5581 53.6485C23.0671 53.3955 22.8751 52.7915 23.1281 52.3005C23.3811 51.8095 23.9821 51.6175 24.4761 51.8705C24.7661 52.0205 25.1101 52.0195 25.3991 51.8685C25.8871 51.6135 26.4921 51.8015 26.7491 52.2915C27.0051 52.7805 26.8161 53.3845 26.3261 53.6415C25.8911 53.8685 25.4131 53.9825 24.9351 53.9825Z" />
<path d="M25.8645 53.7555C25.5045 53.7555 25.1565 53.5605 24.9775 53.2195C24.7215 52.7305 24.9105 52.1255 25.3995 51.8695C27.3495 50.8485 29.0885 49.3855 30.4305 47.6385C30.7655 47.2015 31.3935 47.1175 31.8325 47.4545C32.2705 47.7905 32.3535 48.4185 32.0165 48.8565C30.4995 50.8325 28.5335 52.4865 26.3275 53.6415C26.1795 53.7185 26.0205 53.7555 25.8645 53.7555Z" />
<path d="M31.2223 49.2475C31.0103 49.2475 30.7963 49.1805 30.6153 49.0405C30.1773 48.7045 30.0943 48.0765 30.4293 47.6385C30.7473 47.2235 30.6973 46.6445 30.3123 46.2925C29.9053 45.9195 29.8763 45.2875 30.2493 44.8795C30.6233 44.4715 31.2573 44.4435 31.6623 44.8165C32.8193 45.8745 32.9723 47.6105 32.0173 48.8555C31.8203 49.1125 31.5233 49.2475 31.2223 49.2475Z" />
<path d="M30.9872 46.5545C30.7462 46.5545 30.5042 46.4675 30.3112 46.2915L24.1992 40.6925C23.9422 40.4575 23.5782 40.3725 23.2422 40.4705L19.2692 41.6375C18.7402 41.7955 18.1842 41.4905 18.0282 40.9595C17.8722 40.4295 18.1762 39.8745 18.7062 39.7185L22.6792 38.5515C23.6802 38.2575 24.7802 38.5125 25.5502 39.2185L31.6632 44.8175C32.0702 45.1905 32.0982 45.8225 31.7252 46.2305C31.5272 46.4455 31.2572 46.5545 30.9872 46.5545Z" />
<path d="M10.3181 28.8165C10.1001 28.8165 9.8811 28.7455 9.6971 28.6005C9.2641 28.2575 9.1911 27.6285 9.5341 27.1955L12.1061 23.9505C12.3221 23.6785 12.3811 23.3055 12.2591 22.9795L9.3641 15.2125C9.1711 14.6945 9.4341 14.1195 9.9521 13.9265C10.4681 13.7335 11.0451 13.9965 11.2381 14.5145L14.1331 22.2815C14.4981 23.2595 14.3211 24.3745 13.6731 25.1925L11.1011 28.4375C10.9051 28.6865 10.6131 28.8165 10.3181 28.8165Z" />
<path d="M30.9242 40.0375C30.5052 40.0375 30.0872 40.0215 29.6682 39.9895C29.1172 39.9475 28.7052 39.4665 28.7472 38.9155C28.7892 38.3655 29.2812 37.9495 29.8202 37.9955C33.9992 38.3155 38.1662 36.8045 41.2722 33.8495C44.3852 30.8875 46.1062 26.7835 45.9942 22.5895C45.8822 18.4055 43.9392 14.4085 40.6642 11.6245C37.3802 8.83253 33.1122 7.55553 28.9482 8.11853C23.2872 8.88653 18.4772 12.8905 16.6932 18.3205C16.5202 18.8445 15.9542 19.1285 15.4312 18.9585C14.9062 18.7865 14.6202 18.2205 14.7932 17.6965C16.8142 11.5435 22.2652 7.00653 28.6792 6.13653C33.4082 5.49453 38.2442 6.94053 41.9602 10.0995C45.6672 13.2515 47.8662 17.7845 47.9942 22.5355C48.1212 27.2945 46.1742 31.9465 42.6512 35.2985C39.4472 38.3475 35.2312 40.0375 30.9242 40.0375Z" />
<path d="M30.9712 24.0115C30.4182 24.0115 29.9712 23.5635 29.9712 23.0115V15.0115C29.9712 14.4595 30.4182 14.0115 30.9712 14.0115C31.5242 14.0115 31.9712 14.4595 31.9712 15.0115V23.0115C31.9712 23.5635 31.5242 24.0115 30.9712 24.0115Z" />
<path d="M38.9712 24.0115H30.9712C30.4182 24.0115 29.9712 23.5635 29.9712 23.0115C29.9712 22.4595 30.4182 22.0115 30.9712 22.0115H38.9712C39.5242 22.0115 39.9712 22.4595 39.9712 23.0115C39.9712 23.5635 39.5242 24.0115 38.9712 24.0115Z" />
</svg>
