<svg width="60" height="55" viewBox="0 0 60 55" fill="none" xmlns="http://www.w3.org/2000/svg">
<path d="M5.25813 54.0754H25.1566C25.3493 54.0723 25.5333 53.9753 25.6687 53.8054C25.804 53.6356 25.8799 53.4065 25.8799 53.1679C25.8799 52.9292 25.804 52.7001 25.6687 52.5303C25.5333 52.3604 25.3493 52.2634 25.1566 52.2603H5.99112V32.4898C5.98858 32.2512 5.91025 32.0234 5.77307 31.8558C5.6359 31.6881 5.45092 31.5941 5.25819 31.5941C5.06546 31.5941 4.88049 31.6881 4.74331 31.8558C4.60614 32.0234 4.5278 32.2512 4.52527 32.4898V53.1679C4.5253 53.4086 4.60252 53.6394 4.73996 53.8096C4.87739 53.9798 5.06377 54.0754 5.25813 54.0754Z" />
<path d="M53.3049 53.1679V28.8806C53.3049 28.6399 53.2277 28.409 53.0903 28.2389C52.9528 28.0687 52.7664 27.9731 52.5721 27.9731C52.3777 27.9731 52.1913 28.0687 52.0539 28.2389C51.9164 28.409 51.8392 28.6399 51.8392 28.8806V52.2603H45.661V40.2705C45.661 38.6444 45.1394 37.0849 44.2108 35.9351C43.2823 34.7853 42.0229 34.1393 40.7097 34.1393C39.3965 34.1393 38.1371 34.7853 37.2086 35.9351C36.28 37.0849 35.7584 38.6444 35.7584 40.2705V52.2603H29.565V28.8806C29.565 28.6399 29.4878 28.409 29.3503 28.2389C29.2129 28.0687 29.0265 27.9731 28.8321 27.9731C28.6377 27.9731 28.4513 28.0687 28.3139 28.2389C28.1765 28.409 28.0992 28.6399 28.0992 28.8806V53.1679C28.0993 53.4086 28.1765 53.6394 28.3139 53.8096C28.4514 53.9798 28.6377 54.0754 28.8321 54.0754H52.5721C52.7664 54.0754 52.9528 53.9798 53.0902 53.8096C53.2277 53.6394 53.3049 53.4086 53.3049 53.1679ZM37.2241 52.2603V40.2705C37.2241 39.1258 37.5913 38.0279 38.245 37.2185C38.8987 36.409 39.7853 35.9543 40.7097 35.9543C41.6341 35.9543 42.5207 36.409 43.1744 37.2185C43.8281 38.0279 44.1953 39.1258 44.1953 40.2705V52.2603H37.2241Z" />
<path d="M12.3931 34.1393C12.1988 34.1393 12.0124 34.2349 11.8749 34.4051C11.7375 34.5753 11.6603 34.8061 11.6603 35.0468V45.0504C11.6603 45.1695 11.6792 45.2875 11.7161 45.3976C11.7529 45.5077 11.8069 45.6078 11.8749 45.6921C11.943 45.7763 12.0238 45.8432 12.1127 45.8888C12.2016 45.9344 12.2969 45.9579 12.3931 45.9579H20.4717C20.568 45.9579 20.6633 45.9344 20.7522 45.8888C20.8411 45.8432 20.9219 45.7763 20.9899 45.6921C21.058 45.6078 21.112 45.5077 21.1488 45.3976C21.1856 45.2875 21.2046 45.1695 21.2046 45.0504V35.0468C21.2046 34.8061 21.1274 34.5753 20.9899 34.4051C20.8525 34.2349 20.6661 34.1393 20.4717 34.1393H12.3931ZM19.7389 44.1429H13.1261V35.9543H19.7389V44.1429Z" />
<path d="M21.9474 27.3714C21.9474 27.4905 21.9663 27.6086 22.0032 27.7187C22.04 27.8288 22.094 27.9288 22.162 28.0131C22.2301 28.0973 22.3109 28.1642 22.3998 28.2098C22.4887 28.2554 22.584 28.2789 22.6803 28.2789H24.0544C24.1029 28.2788 24.1512 28.2727 24.1988 28.2608C24.277 28.2433 24.3517 28.2072 24.4188 28.1543C24.4337 28.1438 24.4494 28.1361 24.4637 28.1242C24.5037 28.0907 24.5408 28.0524 24.5747 28.0098C24.5757 28.0086 24.577 28.0078 24.578 28.0065L25.5397 26.791C25.6737 26.6186 25.7474 26.3876 25.7446 26.1483C25.7417 25.909 25.6627 25.6807 25.5246 25.5132C25.3866 25.3457 25.2007 25.2525 25.0074 25.2539C24.8141 25.2552 24.6291 25.3511 24.4926 25.5205L23.7463 26.4639H22.6803C22.4859 26.4639 22.2995 26.5595 22.162 26.7297C22.0246 26.8999 21.9474 27.1307 21.9474 27.3714Z" />
<path d="M14.5312 27.3714C14.5313 27.4906 14.5502 27.6086 14.587 27.7187C14.6239 27.8288 14.6778 27.9288 14.7459 28.0131C14.814 28.0973 14.8947 28.1642 14.9837 28.2098C15.0726 28.2554 15.1679 28.2789 15.2641 28.2789H18.0451C18.2395 28.2789 18.4259 28.1833 18.5634 28.0131C18.7008 27.8429 18.778 27.6121 18.778 27.3714C18.778 27.1307 18.7008 26.8999 18.5634 26.7297C18.4259 26.5595 18.2395 26.4639 18.0451 26.4639H15.2641C15.0697 26.4639 14.8833 26.5595 14.7459 26.7297C14.6085 26.8999 14.5313 27.1307 14.5312 27.3714Z" />
<path d="M7.11511 27.3714C7.11518 27.612 7.19242 27.8428 7.32985 28.0129C7.46729 28.183 7.65365 28.2786 7.84798 28.2786H10.629C10.8234 28.2786 11.0098 28.183 11.1472 28.0128C11.2847 27.8426 11.3619 27.6118 11.3619 27.3711C11.3619 27.1304 11.2847 26.8996 11.1472 26.7294C11.0098 26.5592 10.8234 26.4636 10.629 26.4636H7.84798C7.75172 26.4636 7.6564 26.487 7.56746 26.5327C7.47853 26.5783 7.39773 26.6452 7.32967 26.7295C7.26162 26.8138 7.20764 26.9139 7.17083 27.024C7.13401 27.1341 7.11508 27.2522 7.11511 27.3714Z" />
<path d="M27.7615 7.85345e-05H25.0942C24.9971 -0.00150261 24.9008 0.0208055 24.8107 0.0657063C24.7207 0.110607 24.6388 0.177207 24.5697 0.261641C24.5006 0.346074 24.4457 0.44666 24.4083 0.557559C24.3708 0.668458 24.3516 0.787461 24.3516 0.907661C24.3516 1.02786 24.3708 1.14686 24.4083 1.25776C24.4457 1.36866 24.5006 1.46925 24.5697 1.55368C24.6388 1.63812 24.7207 1.70472 24.8107 1.74962C24.9008 1.79452 24.9971 1.81683 25.0942 1.81524H27.7615C27.9542 1.8121 28.1382 1.7151 28.2736 1.54524C28.409 1.37538 28.4849 1.14632 28.4849 0.907661C28.4849 0.669003 28.409 0.439947 28.2736 0.270084C28.1382 0.10022 27.9542 0.0032179 27.7615 7.85345e-05Z" />
<path d="M34.8746 7.85345e-05H32.2069C32.0142 0.0032179 31.8303 0.10022 31.6949 0.270084C31.5595 0.439947 31.4836 0.669003 31.4836 0.907661C31.4836 1.14632 31.5595 1.37538 31.6949 1.54524C31.8303 1.7151 32.0142 1.8121 32.2069 1.81524H34.8743C34.9714 1.81683 35.0677 1.79452 35.1578 1.74962C35.2478 1.70472 35.3297 1.63812 35.3988 1.55368C35.4679 1.46925 35.5228 1.36866 35.5602 1.25776C35.5977 1.14686 35.6169 1.02786 35.6169 0.907661C35.6169 0.787461 35.5977 0.668458 35.5602 0.557559C35.5228 0.44666 35.4679 0.346074 35.3988 0.261641C35.3297 0.177207 35.2478 0.110607 35.1578 0.0657063C35.0677 0.0208055 34.9714 -0.00150261 34.8743 7.85345e-05H34.8746Z" />
<path d="M20.6482 8.06603e-05C20.1161 -0.00176879 19.589 0.127116 19.0974 0.379273C18.6058 0.63143 18.1594 1.00185 17.7842 1.46908C17.7152 1.55307 17.6603 1.65317 17.6226 1.76359C17.585 1.87401 17.5654 1.99258 17.5649 2.11243C17.5645 2.23229 17.5833 2.35106 17.6201 2.4619C17.6569 2.57273 17.7111 2.67343 17.7796 2.75819C17.848 2.84294 17.9294 2.91006 18.0189 2.95568C18.1084 3.0013 18.2043 3.02451 18.3011 3.02398C18.3979 3.02344 18.4936 2.99917 18.5828 2.95256C18.6719 2.90595 18.7528 2.83793 18.8206 2.75243C19.0601 2.45435 19.3449 2.21804 19.6586 2.05717C19.9723 1.8963 20.3086 1.81407 20.6482 1.81524C20.8409 1.8121 21.0249 1.7151 21.1602 1.54524C21.2956 1.37537 21.3715 1.14632 21.3715 0.907662C21.3715 0.669003 21.2956 0.439948 21.1602 0.270085C21.0249 0.100222 20.8409 0.00322001 20.6482 8.06603e-05Z" />
<path d="M14.9226 5.01303L13.2055 7.13934C13.1375 7.22359 13.0835 7.32362 13.0466 7.43371C13.0098 7.5438 12.9909 7.6618 12.9908 7.78096C12.9908 7.90012 13.0098 8.01812 13.0466 8.12822C13.0834 8.23831 13.1374 8.33835 13.2054 8.42262C13.2735 8.50688 13.3543 8.57373 13.4432 8.61934C13.5321 8.66495 13.6273 8.68842 13.7236 8.68843C13.8198 8.68844 13.9151 8.66498 14.004 8.61938C14.0929 8.57379 14.1737 8.50695 14.2417 8.4227L15.9592 6.29638C16.0946 6.12568 16.1701 5.89566 16.1692 5.65638C16.1684 5.4171 16.0912 5.18793 15.9546 5.01873C15.818 4.84953 15.6329 4.75401 15.4397 4.75294C15.2464 4.75187 15.0607 4.84535 14.9228 5.01303H14.9226Z" />
<path d="M5.08385 19.7628L6.80083 17.6364C6.93824 17.4662 7.01544 17.2354 7.01544 16.9948C7.01544 16.7541 6.93824 16.5233 6.80083 16.3532C6.66341 16.183 6.47704 16.0874 6.2827 16.0874C6.08837 16.0874 5.902 16.183 5.76458 16.3532L4.04761 18.4795C3.97956 18.5637 3.92557 18.6637 3.88874 18.7738C3.85191 18.8839 3.83295 19.0019 3.83295 19.1211C3.83294 19.2402 3.85189 19.3582 3.88871 19.4683C3.92553 19.5784 3.9795 19.6785 4.04754 19.7627C4.11558 19.847 4.19636 19.9138 4.28526 19.9595C4.37417 20.0051 4.46945 20.0285 4.56568 20.0285C4.66191 20.0286 4.7572 20.0051 4.84611 19.9595C4.93502 19.9139 5.0158 19.8471 5.08385 19.7628Z" />
<path d="M10.3437 10.6831L8.62653 12.8094C8.55848 12.8936 8.50449 12.9937 8.46766 13.1038C8.43083 13.2138 8.41187 13.3318 8.41187 13.451C8.41186 13.5702 8.43081 13.6882 8.46763 13.7983C8.50445 13.9083 8.55842 14.0084 8.62646 14.0926C8.69451 14.1769 8.77529 14.2438 8.86419 14.2894C8.95309 14.335 9.04838 14.3585 9.14462 14.3585C9.24085 14.3585 9.33614 14.335 9.42505 14.2894C9.51396 14.2438 9.59474 14.177 9.66279 14.0927L11.3804 11.9664C11.4495 11.8824 11.5044 11.7823 11.5421 11.6719C11.5797 11.5615 11.5993 11.4429 11.5997 11.3231C11.6002 11.2032 11.5814 11.0845 11.5446 10.9736C11.5077 10.8628 11.4535 10.7621 11.3851 10.6773C11.3166 10.5926 11.2353 10.5255 11.1458 10.4798C11.0563 10.4342 10.9604 10.411 10.8636 10.4115C10.7668 10.4121 10.6711 10.4363 10.5819 10.483C10.4927 10.5296 10.4119 10.5976 10.344 10.6831H10.3437Z" />
<path d="M0.00520388 23.9436C0.00622862 23.9732 0.00851472 24.0028 0.0120529 24.0321C0.0185181 24.0703 0.026992 24.1079 0.0374202 24.1447C0.0421131 24.1626 0.0440157 24.181 0.0501038 24.1989L0.0532747 24.2088L0.0539088 24.2106L0.550599 25.7835C0.568274 25.8379 0.590193 25.89 0.616046 25.9391C0.624462 26 0.637848 26.0597 0.655999 26.1172L1.15649 27.7021C1.21026 27.8719 1.30408 28.0177 1.42573 28.1205C1.54737 28.2233 1.69121 28.2784 1.83849 28.2785H3.21276C3.40713 28.2785 3.59353 28.1829 3.73097 28.0127C3.86841 27.8425 3.94562 27.6117 3.94562 27.371C3.94562 27.1304 3.86841 26.8995 3.73097 26.7293C3.59353 26.5591 3.40713 26.4635 3.21276 26.4635H2.33886L2.02075 25.4555C2.00291 25.3997 1.98074 25.3461 1.95455 25.2956C1.9461 25.2363 1.93297 25.1781 1.91535 25.1219L1.58939 24.0899L2.22217 23.3061C2.29021 23.2218 2.34418 23.1218 2.38099 23.0116C2.4178 22.9015 2.43673 22.7835 2.43671 22.6643C2.43669 22.5451 2.41771 22.4271 2.38085 22.317C2.344 22.2069 2.28999 22.1069 2.22192 22.0226C2.15384 21.9384 2.07303 21.8715 1.9841 21.826C1.89517 21.7804 1.79986 21.7569 1.70361 21.757C1.60736 21.757 1.51206 21.7805 1.42315 21.8261C1.33424 21.8718 1.25345 21.9386 1.18541 22.0229L0.221459 23.2166L0.219303 23.2194L0.213722 23.2262C0.203829 23.2384 0.19698 23.2529 0.187721 23.2658C0.165105 23.2956 0.14417 23.3274 0.125064 23.3608C0.11238 23.3843 0.102868 23.4096 0.0919597 23.4344C0.0659141 23.485 0.0468398 23.5406 0.0355175 23.5989C0.0285415 23.6267 0.0202973 23.6539 0.0154775 23.6824C0.0106577 23.711 0.00976989 23.7374 0.00710634 23.7651C0.00431595 23.7965 0.000384062 23.826 3.55356e-06 23.8573C-0.000123282 23.8863 0.0031745 23.9147 0.00520388 23.9436Z" />
<path d="M4.77943 24.7761H7.1613C7.35401 24.7729 7.53797 24.6759 7.67335 24.5061C7.80873 24.3362 7.88464 24.1071 7.88464 23.8685C7.88464 23.6298 7.80873 23.4008 7.67335 23.2309C7.53797 23.061 7.35401 22.964 7.1613 22.9609H4.77943C4.68237 22.9593 4.58603 22.9816 4.49598 23.0265C4.40594 23.0714 4.324 23.138 4.25491 23.2225C4.18582 23.3069 4.13097 23.4075 4.09353 23.5184C4.05608 23.6293 4.0368 23.7483 4.0368 23.8685C4.0368 23.9887 4.05608 24.1077 4.09353 24.2186C4.13097 24.3295 4.18582 24.4301 4.25491 24.5145C4.324 24.5989 4.40594 24.6655 4.49598 24.7104C4.58603 24.7553 4.68237 24.7776 4.77943 24.7761Z" />
<path d="M21.4525 23.8681C21.4525 23.6274 21.3752 23.3966 21.2378 23.2264C21.1004 23.0562 20.914 22.9606 20.7196 22.9606H18.3377C18.2407 22.959 18.1443 22.9813 18.0543 23.0262C17.9642 23.0711 17.8823 23.1377 17.8132 23.2222C17.7441 23.3066 17.6893 23.4072 17.6518 23.5181C17.6144 23.629 17.5951 23.748 17.5951 23.8682C17.5951 23.9884 17.6144 24.1074 17.6518 24.2183C17.6893 24.3292 17.7441 24.4298 17.8132 24.5142C17.8823 24.5986 17.9642 24.6652 18.0543 24.7101C18.1443 24.755 18.2407 24.7773 18.3377 24.7758H20.7196C20.914 24.7757 21.1004 24.6801 21.2378 24.5098C21.3752 24.3396 21.4525 24.1088 21.4525 23.8681Z" />
<path d="M10.8256 23.8681C10.8257 24.1088 10.9029 24.3396 11.0403 24.5098C11.1778 24.6801 11.3642 24.7757 11.5586 24.7757H13.9405C14.1332 24.7726 14.3171 24.6756 14.4525 24.5057C14.5879 24.3359 14.6638 24.1068 14.6638 23.8682C14.6638 23.6295 14.5879 23.4004 14.4525 23.2306C14.3171 23.0607 14.1332 22.9637 13.9405 22.9606H11.5586C11.3642 22.9606 11.1778 23.0562 11.0404 23.2264C10.9029 23.3965 10.8257 23.6274 10.8256 23.8681Z" />
<path d="M23.7303 21.9143C23.8677 22.0845 24.0541 22.1801 24.2485 22.1801C24.4428 22.1801 24.6292 22.0845 24.7667 21.9143L26.4509 19.8287C26.5863 19.658 26.6618 19.4279 26.6609 19.1887C26.6601 18.9494 26.5829 18.7202 26.4463 18.551C26.3097 18.3818 26.1246 18.2863 25.9314 18.2852C25.7381 18.2842 25.5524 18.3776 25.4145 18.5453L23.7303 20.6309C23.6622 20.7152 23.6083 20.8152 23.5714 20.9253C23.5346 21.0354 23.5156 21.1534 23.5156 21.2726C23.5156 21.3918 23.5346 21.5098 23.5714 21.6199C23.6083 21.73 23.6622 21.83 23.7303 21.9143Z" />
<path d="M31.2445 12.6093C31.1765 12.525 31.0957 12.4581 31.0068 12.4125C30.9179 12.3669 30.8226 12.3434 30.7264 12.3434C30.6301 12.3434 30.5348 12.3669 30.4459 12.4125C30.357 12.4581 30.2763 12.525 30.2082 12.6093L28.524 14.6949C28.4549 14.7789 28.4 14.879 28.3624 14.9894C28.3247 15.0999 28.3051 15.2184 28.3047 15.3383C28.3043 15.4581 28.323 15.5769 28.3598 15.6877C28.3967 15.7986 28.4509 15.8993 28.5193 15.984C28.5878 16.0688 28.6691 16.1359 28.7586 16.1815C28.8481 16.2271 28.944 16.2504 29.0408 16.2498C29.1376 16.2493 29.2334 16.225 29.3225 16.1784C29.4117 16.1318 29.4925 16.0638 29.5604 15.9783L31.2445 13.8927C31.3126 13.8084 31.3666 13.7084 31.4035 13.5983C31.4403 13.4882 31.4593 13.3702 31.4593 13.251C31.4593 13.1318 31.4403 13.0138 31.4035 12.9037C31.3666 12.7936 31.3126 12.6935 31.2445 12.6093Z" />
<path d="M35.0017 6.67347L33.3176 8.75908C33.2495 8.84334 33.1956 8.94336 33.1587 9.05345C33.1219 9.16353 33.103 9.28152 33.103 9.40068C33.103 9.51983 33.1219 9.63782 33.1587 9.7479C33.1956 9.85799 33.2495 9.95802 33.3176 10.0423C33.3856 10.1265 33.4664 10.1934 33.5553 10.239C33.6442 10.2846 33.7395 10.308 33.8357 10.308C33.9319 10.308 34.0272 10.2846 34.1161 10.239C34.205 10.1934 34.2858 10.1265 34.3538 10.0423L36.0381 7.95666C36.1061 7.87239 36.1601 7.77235 36.1969 7.66226C36.2337 7.55216 36.2527 7.43417 36.2527 7.31501C36.2527 7.19584 36.2337 7.07785 36.1969 6.96776C36.1601 6.85767 36.1061 6.75764 36.038 6.67339C35.97 6.58913 35.8892 6.5223 35.8003 6.4767C35.7114 6.43111 35.6161 6.40765 35.5199 6.40765C35.4236 6.40766 35.3283 6.43114 35.2394 6.47675C35.1505 6.52236 35.0698 6.5892 35.0017 6.67347Z" />
<path d="M41.2223 0.277934C41.1515 0.186935 41.0661 0.115296 40.9716 0.0676281C40.9617 0.0626021 40.9513 0.0604037 40.9413 0.0560059C40.9072 0.0399266 40.8722 0.027114 40.8365 0.0176824C40.8033 0.0105835 40.7697 0.0063857 40.736 0.00511836C40.7226 0.00417599 40.7098 9.15527e-05 40.6961 9.15527e-05H40.6942C40.6459 0.00022019 40.5977 0.00627125 40.5504 0.0181545C40.5313 0.0228664 40.5138 0.0318186 40.4954 0.0382581C40.4676 0.0467524 40.4402 0.0572404 40.4134 0.06967C40.3931 0.0801931 40.3753 0.0948007 40.3557 0.107366C40.3321 0.121176 40.3092 0.136592 40.287 0.153542C40.2604 0.177015 40.2349 0.202617 40.2109 0.230187C40.1995 0.242752 40.1867 0.252333 40.1758 0.26584L39.9313 0.569597C39.9093 0.598658 39.889 0.629513 39.8704 0.66195C39.8442 0.685036 39.8192 0.710274 39.7957 0.737496L38.1112 2.82312C37.9737 2.9933 37.8964 3.22414 37.8964 3.46484C37.8964 3.70554 37.9736 3.9364 38.111 4.10663C38.2485 4.27685 38.4349 4.3725 38.6293 4.37253C38.8236 4.37256 39.0101 4.27697 39.1475 4.10678L40.695 2.19063L41.1493 2.75213C41.2869 2.92218 41.4733 3.01761 41.6677 3.0174C41.8621 3.01719 42.0485 2.92138 42.1858 2.75103C42.3231 2.58068 42.4002 2.34975 42.4 2.10905C42.3999 1.86834 42.3225 1.63758 42.1849 1.46752L41.2223 0.277934Z" />
<path d="M55.4276 20.0294C55.5727 20.0294 55.7144 19.9762 55.835 19.8764C55.9556 19.7766 56.0496 19.6348 56.105 19.4688C56.1605 19.3029 56.1749 19.1203 56.1465 18.9442C56.1181 18.7681 56.0482 18.6063 55.9455 18.4795L54.2257 16.3529C54.0878 16.1849 53.9018 16.0913 53.7084 16.0925C53.515 16.0936 53.3297 16.1894 53.1931 16.3589C53.0564 16.5284 52.9794 16.758 52.9789 16.9975C52.9783 17.237 53.0543 17.4671 53.1901 17.6376L54.9101 19.7641C54.9781 19.8483 55.0588 19.915 55.1476 19.9606C55.2364 20.0061 55.3315 20.0295 55.4276 20.0294Z" />
<path d="M45.0515 5.01176C44.9834 4.92756 44.9026 4.86079 44.8136 4.81528C44.7247 4.76976 44.6293 4.74639 44.5331 4.74649C44.4368 4.74659 44.3415 4.77017 44.2526 4.81587C44.1638 4.86158 44.083 4.92851 44.015 5.01286C43.947 5.09721 43.8931 5.19732 43.8563 5.30747C43.8196 5.41762 43.8007 5.53566 43.8008 5.65484C43.8009 5.77403 43.8199 5.89202 43.8568 6.0021C43.8937 6.11217 43.9478 6.21216 44.0159 6.29637L45.7359 8.42297C45.8739 8.59089 46.0598 8.68449 46.2533 8.68335C46.4467 8.68222 46.6319 8.58646 46.7686 8.41693C46.9052 8.2474 46.9822 8.01786 46.9828 7.77833C46.9833 7.5388 46.9074 7.30871 46.7716 7.13821L45.0515 5.01176Z" />
<path d="M50.8407 14.3586C50.9857 14.3587 51.1275 14.3054 51.2481 14.2057C51.3687 14.1059 51.4627 13.964 51.5181 13.7981C51.5736 13.6321 51.588 13.4496 51.5596 13.2734C51.5312 13.0973 51.4613 12.9356 51.3586 12.8087L49.6386 10.6824C49.501 10.5124 49.3145 10.417 49.1201 10.4172C48.9257 10.4174 48.7394 10.5132 48.602 10.6835C48.4647 10.8539 48.3877 11.0848 48.3878 11.3255C48.388 11.5662 48.4654 11.797 48.6029 11.9671L50.323 14.0934C50.3909 14.1776 50.4716 14.2444 50.5605 14.2899C50.6493 14.3354 50.7446 14.3588 50.8407 14.3586Z" />
<path d="M59.7847 23.2259L58.8122 22.0236C58.6743 21.8557 58.4883 21.7621 58.2949 21.7632C58.1015 21.7643 57.9163 21.8601 57.7796 22.0296C57.643 22.1991 57.566 22.4287 57.5654 22.6682C57.5648 22.9078 57.6408 23.1378 57.7766 23.3083L58.2301 23.8686L57.7771 24.4296C57.7176 24.5601 57.6304 24.668 57.5251 24.7419L57.0717 25.3032L56.6181 24.7415C56.4803 24.5735 56.2944 24.4798 56.1009 24.4807C55.9075 24.4817 55.7222 24.5773 55.5855 24.7467C55.4488 24.9161 55.3716 25.1455 55.3709 25.3851C55.3702 25.6246 55.446 25.8547 55.5817 26.0254L56.5535 27.2285C56.6216 27.3127 56.7024 27.3795 56.7913 27.4251C56.8802 27.4707 56.9754 27.4942 57.0717 27.4942C57.1679 27.4942 57.2632 27.4707 57.3521 27.4251C57.441 27.3795 57.5218 27.3127 57.5898 27.2285L58.5614 26.0254C58.6209 25.8948 58.7081 25.7869 58.8135 25.7133L59.7851 24.5102C59.8532 24.4259 59.9073 24.3258 59.9441 24.2157C59.981 24.1055 60 23.9874 60 23.8682C60 23.7489 59.981 23.6309 59.9441 23.5207C59.9073 23.4105 59.8532 23.3105 59.7851 23.2262L59.7847 23.2259Z" />
<path d="M53.1857 20.4906L51.126 17.94C51.0582 17.8544 50.9773 17.7864 50.8881 17.7398C50.799 17.6932 50.7032 17.6689 50.6064 17.6684C50.5096 17.6679 50.4137 17.6911 50.3242 17.7367C50.2347 17.7823 50.1534 17.8494 50.0849 17.9342C50.0165 18.0189 49.9623 18.1196 49.9255 18.2305C49.8886 18.3413 49.8699 18.4601 49.8703 18.5799C49.8707 18.6998 49.8903 18.8184 49.928 18.9288C49.9656 19.0392 50.0205 19.1393 50.0896 19.2233L52.1494 21.774C52.2869 21.9441 52.4732 22.0397 52.6676 22.0397C52.8619 22.0397 53.0483 21.9441 53.1857 21.7739C53.3232 21.6037 53.4003 21.3729 53.4003 21.1322C53.4003 20.8916 53.3231 20.6608 53.1857 20.4906Z" />
<path d="M44.5962 11.1381C44.5282 11.2224 44.4742 11.3224 44.4373 11.4325C44.4005 11.5426 44.3815 11.6606 44.3815 11.7798C44.3815 11.8989 44.4005 12.0169 44.4373 12.127C44.4742 12.2371 44.5282 12.3372 44.5962 12.4214L46.656 14.9721C46.7939 15.1398 46.9796 15.2333 47.1729 15.2322C47.3661 15.2311 47.5512 15.1356 47.6878 14.9664C47.8245 14.7972 47.9016 14.568 47.9025 14.3288C47.9033 14.0895 47.8278 13.8595 47.6924 13.6888L45.6326 11.1381C45.5646 11.0538 45.4838 10.987 45.3949 10.9413C45.3059 10.8957 45.2106 10.8723 45.1144 10.8723C45.0182 10.8723 44.9229 10.8957 44.834 10.9413C44.745 10.987 44.6643 11.0538 44.5962 11.1381Z" />
<path d="M40.706 5.41809C40.6091 5.41865 40.5132 5.44301 40.4239 5.48976C40.3347 5.53651 40.2538 5.60472 40.186 5.69044L39.2242 6.90594C39.1568 6.99104 39.1036 7.09174 39.0677 7.20228C39.0318 7.31283 39.0138 7.43105 39.0147 7.55021C39.0157 7.66936 39.0356 7.78712 39.0733 7.89674C39.1111 8.00637 39.1658 8.10573 39.2346 8.18914C39.3033 8.27255 39.3846 8.33838 39.4739 8.38287C39.5631 8.42737 39.6586 8.44965 39.7548 8.44846C39.8511 8.44726 39.9462 8.42261 40.0347 8.3759C40.1232 8.3292 40.2034 8.26136 40.2708 8.17626L40.7147 7.61555L41.1627 8.1706C41.2308 8.25489 41.3116 8.32175 41.4005 8.36738C41.4894 8.413 41.5847 8.43649 41.6809 8.4365C41.7772 8.43652 41.8725 8.41306 41.9614 8.36746C42.0503 8.32186 42.1311 8.25503 42.1992 8.17076C42.2673 8.08649 42.3213 7.98645 42.3581 7.87634C42.395 7.76624 42.4139 7.64822 42.4139 7.52904C42.414 7.40985 42.395 7.29183 42.3582 7.18171C42.3214 7.0716 42.2674 6.97154 42.1993 6.88725L41.2278 5.684C41.1595 5.5988 41.0782 5.53138 40.9886 5.48572C40.899 5.44005 40.8029 5.41706 40.706 5.41809Z" />
<path d="M30.1047 18.4292L28.0003 21.0886C27.8662 21.261 27.7926 21.492 27.7954 21.7313C27.7982 21.9706 27.8773 22.1989 28.0153 22.3664C28.1534 22.5339 28.3393 22.6271 28.5325 22.6257C28.7258 22.6244 28.9108 22.5285 29.0473 22.359L31.1519 19.6997C31.2193 19.6145 31.2724 19.5138 31.3084 19.4032C31.3443 19.2926 31.3623 19.1744 31.3613 19.0552C31.3603 18.936 31.3404 18.8182 31.3026 18.7085C31.2649 18.5989 31.2101 18.4995 31.1413 18.4161C31.0726 18.3327 30.9912 18.2668 30.9019 18.2224C30.8126 18.1779 30.7171 18.1556 30.6208 18.1568C30.5246 18.158 30.4295 18.1827 30.3409 18.2295C30.2524 18.2762 30.1721 18.3441 30.1047 18.4292Z" />
<path d="M33.6124 13.9971C33.5439 14.0819 33.4897 14.1827 33.4528 14.2936C33.416 14.4045 33.3973 14.5234 33.3978 14.6433C33.3983 14.7633 33.418 14.8819 33.4557 14.9924C33.4934 15.1028 33.5485 15.2029 33.6177 15.2869C33.6869 15.3708 33.7688 15.4369 33.8587 15.4814C33.9487 15.5259 34.0448 15.5479 34.1417 15.5461C34.2385 15.5443 34.3341 15.5187 34.423 15.4709C34.5118 15.4231 34.5921 15.3539 34.6592 15.2674L36.7636 12.6082C36.831 12.5231 36.8842 12.4224 36.9201 12.3118C36.956 12.2013 36.974 12.0831 36.973 11.9639C36.9721 11.8448 36.9522 11.727 36.9145 11.6174C36.8767 11.5077 36.822 11.4084 36.7532 11.325C36.6845 11.2416 36.6032 11.1757 36.5139 11.1312C36.4246 11.0867 36.3292 11.0645 36.233 11.0657C36.1367 11.0669 36.0416 11.0915 35.9531 11.1382C35.8646 11.1849 35.7843 11.2528 35.717 11.3379L33.6124 13.9971Z" />
</svg>
