<svg fill="none" height="22" viewBox="0 0 21 22" width="21" xmlns="http://www.w3.org/2000/svg"><path d="m20.8154 20.3926c.2461.2461.2461.6972 0 .9433-.123.1231-.2871.1641-.4511.1641-.2051 0-.3692-.041-.5332-.1641l-5.7832-5.8242c-1.5176 1.3125-3.4454 2.0508-5.53716 2.0508-4.67578 0-8.4902322-3.8145-8.4902322-8.53125 0-4.67578 3.7734422-8.53125 8.4902322-8.53125 4.67576 0 8.53126 3.85547 8.53126 8.53125 0 2.13285-.7383 4.06055-2.0508 5.57815zm-12.26364-4.1426c3.97854 0 7.21874-3.1992 7.21874-7.21875 0-3.97852-3.2402-7.21875-7.21874-7.21875-4.01953 0-7.21875 3.24023-7.21875 7.21875 0 3.97855 3.19922 7.21875 7.21875 7.21875z" /></svg>