<svg fill="none" height="14" viewBox="0 0 15 14" width="15" xmlns="http://www.w3.org/2000/svg"><path d="m14.2969 1.79688c.1562-.15626.1562-.375 0-.53126l-.5938-.624995c-.1562-.125-.4062-.125-.5312 0l-5.65628 5.656255-5.6875-5.656255c-.125-.125-.375-.125-.53124 0l-.593755.624995c-.15625.15626-.15625.375 0 .53126l6.531255 6.5625c.15624.125.375.125.53124 0zm0 4.46874-.5938-.625c-.1562-.125-.4062-.125-.5312 0l-5.65628 5.65628-5.6875-5.65628c-.125-.125-.375-.125-.53124 0l-.593755.625c-.15625.15626-.15625.375 0 .53126l6.531255 6.56252c.15624.125.375.125.53124 0l6.53128-6.56252c.1562-.15626.1562-.375 0-.53126z" /></svg>