<svg fill="none" height="20" viewBox="0 0 24 20" width="24" xmlns="http://www.w3.org/2000/svg" xmlns:xlink="http://www.w3.org/1999/xlink"><linearGradient id="a" gradientUnits="userSpaceOnUse" x1="-19.3398" x2="27.2621" y1="7.28731" y2="7.28731"><stop offset="0" stop-color="#c88139"/><stop offset="1" stop-color="#f8d587"/></linearGradient><path d="m.874552 20c-.32497 0-.573477-.137-.74552-.411-.1720428-.2739-.1720428-.5479 0-.8219l11.125468-18.356141c.172-.273973.4205-.410959.7455-.410959s.5735.136986.7455.410959l11.1255 18.356141c.172.274.172.548 0 .8219-.1721.274-.4206.411-.7456.411zm11.240148-12.38356c-.2485 0-.454.07762-.6165.23288-.1625.15525-.2437.35159-.2437.58904v4.49314c0 .2375.0812.4338.2437.589.1625.1553.368.2329.6165.2329s.454-.0776.6165-.2329c.1625-.1552.2437-.3515.2437-.589v-4.49314c0-.23745-.0812-.43379-.2437-.58904-.1625-.15526-.368-.23288-.6165-.23288zm0 9.17806c.2485 0 .454-.0776.6165-.2329.1625-.1552.2437-.3516.2437-.589s-.0812-.4338-.2437-.589c-.1625-.1553-.368-.2329-.6165-.2329s-.454.0776-.6165.2329c-.1625.1552-.2437.3516-.2437.589s.0812.4338.2437.589c.1625.1553.368.2329.6165.2329z" fill="url(#a)"/></svg>