<svg fill="none" height="28" viewBox="0 0 32 28" width="32" xmlns="http://www.w3.org/2000/svg"><path d="m31.8125 12.375-14.5625-11.875c-.375-.3125-.8125-.4375-1.3125-.4375-.4375 0-.875.125-1.25.4375l-14.5 11.875c-.125.0625-.1875.1875-.1875.375 0 .125 0 .25.0625.3125l.625.75c.125.125.25.1875.4375.1875.125 0 .1875 0 .3125-.125l2.5625-2.0625v15.1875c0 .5625.4375 1 1 1h8c.5 0 1-.4375 1-1v-8h4v8c0 .5625.4375 1 1 1h8c.5 0 1-.4375 1-1v-15.1875l2.5 2.0625c.125.125.1875.125.3125.125.1875 0 .3125-.0625.4375-.1875l.625-.75c.0625-.0625.0625-.1875.0625-.3125 0-.1875-.0625-.3125-.125-.375zm-5.875 13.625-6 .0625v-8.0625c0-.5-.4375-1-.9375-1h-6-.0625c-.5 0-1 .4375-1 1v8h-5.9375v-15.8125l10-8.1875 10 8.1875z" fill="#fff"/></svg>