<svg fill="none" height="33" viewBox="0 0 30 33" width="30" xmlns="http://www.w3.org/2000/svg"><path d="m9 22.1875v-3.1875c0-.5-.5-1-1-1-.5625 0-1 .5-1 1v3.1875c-1.1875.4375-2.0625 1.5625-2.0625 2.875 0 1.625 1.375 3 3 3 1.6875 0 3-1.375 3-3 0-1.3125-.8125-2.4375-1.9375-2.875zm4-17.1875c0-2.75-2.25-5-5-5-2.8125 0-5 2.25-5 5v15.125c-1.25 1.3125-2.0625 3-2.0625 4.9375 0 3.875 3.1875 7 7 7 3.875 0 7-3.125 7-7 0-1.9375-.75-3.625-1.9375-4.9375zm-5 25h-.0625c-2.75 0-4.9375-2.1875-4.9375-4.9375 0-1.6875.75-3.125 2-4v-16.0625c0-1.625 1.3125-3 3-3 1.625 0 3 1.375 3 3v16.0625c1.1875.875 2 2.375 2 4 0 2.75-2.25 5-5 5zm21.75-6.375-.375-.375c-.125-.125-.3125-.25-.5-.25s-.375.125-.5.25l-3.375 3.3125v-24.0625c0-.25-.25-.5-.5-.5h-1c-.3125 0-.5.25-.5.5v24l-3.375-3.25c-.1875-.125-.375-.1875-.5625-.1875s-.375.0625-.5.1875l-.375.375c-.125.125-.25.3125-.25.5 0 .25.125.4375.25.5625l5.25 5.125c.125.125.3125.1875.5.1875.25 0 .4375-.0625.5625-.1875l5.25-5.125c.125-.1875.25-.375.25-.5625s-.125-.375-.25-.5z" fill="#fff"/></svg>