<svg fill="none" height="29" viewBox="0 0 37 29" width="37" xmlns="http://www.w3.org/2000/svg"><path d="m36.5625 25.625c0-.0625-1.375-1.5625-2.3125-3.4375 1.6875-1.6875 2.75-3.8125 2.75-6.1875 0-5-4.8125-9.125-11.0625-9.8125-1.9375-3.625-6.5625-6.1875-11.9375-6.1875-7.18748 0-12.99998 4.5-12.99998 10 0 2.3125 1 4.4375 2.75 6.1875-1 1.875-2.375 3.375-2.375 3.4375-.375.375-.499997 1-.3125 1.5625.25.5.75.875 1.375.875 3.3125 0 6-1.3125 7.81248-2.4375.5625.125 1.125.1875 1.75.3125 1.9375 3.5625 6.5625 6.125 12 6.125 1.25 0 2.5-.1875 3.6875-.4375 1.8125 1.125 4.5 2.4375 7.875 2.4375.5625 0 1.0625-.375 1.3125-.875.1875-.5625.125-1.1875-.3125-1.5625zm-25.875-8-.81248-.1875-.75.5c-1.25.8125-3.125 1.75-5.4375 2 .5-.6875 1.25-1.6875 1.8125-2.875l.6875-1.3125-1.0625-1c-1-1-2.125-2.5625-2.125-4.75 0-4.375 4.9375-8 10.99998-8 6.0625 0 11 3.625 11 8 0 4.4375-4.9375 8-11 8-1.125 0-2.25-.125-3.3125-.375zm18.125 6.3125-.75-.5-.8125.25c-1.0625.25-2.1875.375-3.25.375-4.125 0-7.625-1.625-9.5625-4.0625 6.9375-.1875 12.5625-4.5625 12.5625-10 0-.5625-.125-1.125-.25-1.6875 4.75.875 8.25 4 8.25 7.6875 0 2.1875-1.1875 3.75-2.1875 4.75l-1 1 .625 1.3125c.5625 1.1875 1.3125 2.1875 1.8125 2.875-2.3125-.25-4.1875-1.1875-5.4375-2z" fill="#fff"/></svg>