<svg fill="none" height="24" viewBox="0 0 40 24" width="40" xmlns="http://www.w3.org/2000/svg"><path d="m38.25 5.625-16.5625-5.3125c-1.125-.375-2.3125-.375-3.4375 0l-16.5625 5.3125c-1.0625.375-1.6875 1.3125-1.6875 2.375 0 1.125.625 2.0625 1.6875 2.4375l1.875.5625c-.1875.375-.375.8125-.4375 1.25-.6875.3125-1.125 1-1.125 1.75 0 .8125.4375 1.5 1.125 1.8125l-1.125 7c-.125.625.25 1.1875.6875 1.1875h2.5625c.4375 0 .8125-.5625.6875-1.1875l-1.125-7c.6875-.3125 1.1875-1 1.1875-1.8125 0-.625-.375-1.1875-.875-1.5625.125-.3125.25-.5625.4375-.8125l3.3125 1.125-.875 7.25c0 2.25 5.3125 4 12 4 6.625 0 12-1.75 12-4l-.9375-7.25 7.1875-2.375c1.0625-.3125 1.75-1.25 1.75-2.375 0-1.0625-.6875-2-1.75-2.375zm-8.3125 14.25c-.6875.75-4.0625 2.125-9.9375 2.125-5.9375 0-9.3125-1.375-10-2.125l.8125-6.5 7.4375 2.375c.1875.0625 1.625.5625 3.4375 0l7.4375-2.375zm7.6875-11.375-16.5625 5.375c-.75.1875-1.4375.1875-2.1875 0l-10.9375-3.5625 12.1875-2.3125c.5625-.0625.9375-.625.8125-1.125-.0625-.5625-.625-.9375-1.125-.8125l-12.75 2.375c-.8125.125-1.5.5-2.0625.9375l-2.6875-.875c-.5-.125-.4375-.8125 0-.9375l16.5625-5.375c.9375-.3125 1.75-.125 2.1875 0l16.5625 5.375c.4375.125.5.8125 0 .9375z" fill="#fff"/></svg>