<svg fill="none" height="33" viewBox="0 0 33 33" width="33" xmlns="http://www.w3.org/2000/svg"><path d="m26.0704 9.64626.8761-3.26949c.1308-.48804.6324-.77766 1.1204-.64689.4881.13077.7777.63241.6469 1.12045l-1.4206 5.30197c-.1308.4881-.6324.7777-1.1205.6469l-5.3021-1.4206c-.488-.1308-.7777-.6324-.6469-1.1205.1308-.48803.6324-.77765 1.1205-.64689l3.0563.81889-.5342-.83938c-1.5009-2.35858-1.5009-2.35858-3.302-5.18888l-.1299-.20414c-.8396-1.31937-2.299-2.11412-3.8627-2.10362-1.5639.01051-3.0124.82477-3.8342 2.15531-1.2887 2.08655-1.2887 2.08655-1.6416 2.65783-.2655.42987-.8292.56311-1.25909.29759-.42987-.26551-.5631-.82923-.29759-1.2591.35286-.57127.35286-.57127 1.64158-2.65781 1.1528-1.8665 3.1848-3.008732 5.3786-3.023473 2.1937-.014742 4.2408 1.100123 5.4186 2.950933l.1298.20389c1.8013 2.83056 1.8013 2.83056 3.3022 5.18915zm-7.3286 18.73664 2.3196 2.3196c.3573.3573.3573.9366 0 1.2938-.3573.3573-.9365.3573-1.2938 0l-3.8814-3.8814c-.3572-.3573-.3572-.9365.0001-1.2938l3.8813-3.8813c.3573-.3573.9365-.3573 1.2938 0 .3573.3572.3573.9365 0 1.2938l-2.3196 2.3196h7.1345c1.664 0 3.1975-.9007 4.0079-2.3539.8105-1.4531.7709-3.2311-.1035-4.6468-.8224-1.3315-.8223-1.3315-1.0297-1.6671-.2655-.4299-.1322-.9936.2977-1.2591s.9936-.1322 1.2591.2976c.2073.3357.2073.3357 1.0296 1.6671 1.223 1.9801 1.2784 4.4671.1448 6.4996s-3.2785 3.2923-5.6059 3.2923zm-13.62601-15.2754-3.14282.8421c-.48804.1307-.989685-.1589-1.120455-.6469-.13077-.4881.158855-.9897.646895-1.1205l5.30201-1.4207c.48804-.1307.98969.1589 1.12046.6469l1.42067 5.3021c.13077.488-.15886.9896-.6469 1.1204s-.98969-.1588-1.12046-.6469l-.85526-3.1919-.37271.6035c-1.37283 2.2227-2.06647 3.3457-3.0578 4.9507-.87513 1.4169-.91478 3.1965-.1036 4.6509.81119 1.4545 2.34614 2.356 4.01156 2.356h2.93182c.5053 0 .9149.4095.9149.9148s-.4096.9149-.9149.9149h-2.93182c-2.32882 0-4.47521-1.2606-5.60953-3.2944-1.134321-2.0339-1.078877-4.5224.14487-6.5037.99133-1.605 1.68497-2.728 3.05779-4.9507z" fill="#fff"/></svg>