<svg fill="none" height="51" viewBox="0 0 33 51" width="33" xmlns="http://www.w3.org/2000/svg"><path d="m7.17917.18892c-.28404.031214-.5461.167695-.7345.382544-.18841.214849-.2895.492476-.28335.778166v8.17857h-4.19643c-.0357-.00167-.07145-.00167-.10714 0-.28416.02678-.54802.15891-.73968.3704-.191668.2115-.297269.487-.296038.7725v15.7857c0 7.9472 6.329848 14.3943 14.857168 14.9285v7.9643c-.0022.1515.0258.3018.0823.4424.0565.1405.1403.2684.2466.3762.1064.1079.2331.1935.3728.252.1397.0584.2897.0886.4411.0886.1515 0 .3014-.0302.4412-.0886.1397-.0585.2664-.1441.3727-.252.1064-.1078.1902-.2357.2467-.3762.0564-.1406.0844-.2909.0823-.4424v-7.9643c8.5273-.5342 14.8571-6.9813 14.8571-14.9285v-15.7857c0-.3031-.1204-.5938-.3347-.80813-.2144-.21432-.505-.33474-.8081-.33477h-4.1965v-8.17857c.0039-.16438-.0278-.32766-.0928-.478686-.065-.151027-.1619-.286248-.2839-.396432-.1221-.110184-.2664-.192737-.4233-.242025-.1569-.049287-.3225-.064147-.4857-.043567-.2808.035325-.5385.173582-.7232.388005-.1848.214423-.2834.489755-.2768.772705v8.17857h-16.74997v-8.17857c.0035-.16269-.02777-.32425-.09174-.473886-.06396-.149632-.15914-.28388-.27917-.393764-.12003-.109885-.26214-.192872-.41682-.243412s-.31838-.067467-.48013-.049648zm-4.07142 11.62498h27.42855v14.6429c0 7.0493-5.7051 12.6785-13.7143 12.6785-8.00912 0-13.71425-5.6292-13.71425-12.6785zm16.76785 4.3572c-.2985.0117-.5806.1399-.7857.3571l-6.1607 6.1429c-.1415.1422-.243.3192-.2944.5132-.0513.1939-.0507.398.0017.5916.0525.1936.1551.3701.2973.5115.1423.1415.3193.243.5132.2944l4.25 1.1785-4.7678 4.7679c-.109.1059-.1957.2326-.2552.3724-.0594.1399-.0904.2902-.091.4422-.0007.152.029.3026.0872.4429.0583.1404.144.2678.252.3746.1081.1069.2364.1911.3774.2478s.2919.0847.4438.0824c.152-.0023.302-.0349.4412-.0959s.2648-.1491.3696-.2593l6.1607-6.1428c.1414-.1423.2429-.3193.2943-.5132.0514-.194.0508-.398-.0017-.5917-.0525-.1936-.155-.37-.2973-.5115-.1422-.1414-.3192-.243-.5132-.2943l-4.25-1.1786 4.7679-4.7679c.1666-.1609.2804-.3686.3263-.5956s.0218-.4627-.0692-.6757-.2446-.3933-.4404-.517c-.1958-.1238-.4246-.1851-.656-.1759z" fill="#fff"/></svg>