<svg fill="none" height="32" viewBox="0 0 16 32" width="16" xmlns="http://www.w3.org/2000/svg"><path d="m11.9375 16.25-7.375-2.3125c-1.5-.5-2.5625-2.125-2.5625-3.875 0-2.25 1.5625-4.0625 3.5625-4.0625h4.5625c1.4375 0 2.75.5625 3.75 1.5625.25.1875.5.1875.6875 0l.75-.6875c.25-.1875.25-.5.0625-.6875-1.4375-1.375-3.3125-2.1875-5.25-2.1875h-1.125v-3.5c0-.25-.25-.5-.5-.5h-1c-.3125 0-.5.25-.5.5v3.5h-1.4375c-3.125 0-5.5625 2.75-5.5625 6.0625 0 2.625 1.625 5 4 5.75l7.375 2.3125c1.5.5 2.625 2.0625 2.625 3.875 0 2.25-1.625 4-3.5625 4h-4.625c-1.375 0-2.75-.5-3.75-1.5-.1875-.1875-.5-.1875-.6875 0l-.75.625c-.1875.1875-.25.5625 0 .75 1.375 1.375 3.25 2.125 5.1875 2.125h1.1875v3.5c0 .3125.1875.5.5.5h1c.25 0 .5-.1875.5-.5v-3.5h1.4375c3.0625 0 5.5625-2.6875 5.5625-6 0-2.625-1.6875-5-4.0625-5.75z" fill="#14bef0"/></svg>