<svg fill="none" height="32" viewBox="0 0 31 32" width="31" xmlns="http://www.w3.org/2000/svg"><path d="m15.5.5c-8.5625 0-15.5 6.9375-15.5 15.5s6.9375 15.5 15.5 15.5 15.5-6.9375 15.5-15.5-6.9375-15.5-15.5-15.5zm12.0625 9.5h-5.1875c-.5625-2.75-1.5-5.125-2.6875-6.8125 3.4375 1.1875 6.25 3.625 7.875 6.8125zm-6.5625 6c0 1.4375-.125 2.8125-.3125 4h-10.4375c-.1875-1.1875-.25-2.5625-.25-4 0-1.375.0625-2.75.25-4h10.4375c.1875 1.25.3125 2.625.3125 4zm-5.5-13.5c1.625 0 3.8125 2.8125 4.875 7.5h-9.8125c1.0625-4.6875 3.25-7.5 4.9375-7.5zm-4.25.6875c-1.1875 1.6875-2.125 4.0625-2.6875 6.8125h-5.1875c1.625-3.1875 4.4375-5.625 7.875-6.8125zm-9.25 12.8125c0-1.375.1875-2.6875.5625-4h5.6875c-.1875 1.3125-.25 2.625-.25 4 0 1.4375.0625 2.75.25 4h-5.6875c-.375-1.25-.5625-2.5625-.5625-4zm1.375 6h5.1875c.5625 2.8125 1.5 5.1875 2.6875 6.875-3.4375-1.1875-6.25-3.625-7.875-6.875zm12.125 7.5c-1.6875 0-3.875-2.75-4.9375-7.5h9.8125c-1.0625 4.75-3.25 7.5-4.875 7.5zm4.1875-.625c1.1875-1.6875 2.125-4.0625 2.6875-6.875h5.1875c-1.625 3.25-4.4375 5.6875-7.875 6.875zm3-8.875c.1875-1.25.3125-2.5625.3125-4 0-1.375-.125-2.6875-.3125-4h5.6875c.375 1.3125.625 2.625.625 4 0 1.4375-.25 2.75-.625 4z" fill="#14bef0"/></svg>