<svg fill="none" height="32" viewBox="0 0 32 32" width="32" xmlns="http://www.w3.org/2000/svg"><path d="m29.125 25.6875-9.125-12v-11.6875h1.625c.1875 0 .375-.125.375-.375v-1.25c0-.1875-.1875-.375-.375-.375h-11.25c-.25 0-.375.1875-.375.375v1.25c0 .25.125.375.375.375h1.625v11.6875l-9.1875 12c-2 2.625-.125 6.3125 3.125 6.3125h20.0625c3.3125 0 5.125-3.6875 3.125-6.3125zm-3.125 4.3125h-20.0625c-1.625 0-2.5625-1.8125-1.5625-3.0625l9.375-12.3125c.125-.1875.25-.375.25-.625v-12h4v12c0 .25.0625.4375.1875.625l9.375 12.3125c1 1.25.0625 3.0625-1.5625 3.0625z" fill="#14bef0"/></svg>