<svg fill="none" height="30" viewBox="0 0 40 30" width="40" xmlns="http://www.w3.org/2000/svg"><path d="m39.5 22h-1.5v-6.75c0-1-.4375-2.0625-1.1875-2.8125l-5.25-5.25c-.75-.75-1.75-1.1875-2.8125-1.1875h-2.75v-3.0625c0-1.625-1.4375-2.9375-3.125-2.9375h-19.8125c-1.6875 0-3.0625 1.3125-3.0625 2.9375v18.1875c0 1.625 1.375 2.875 3.0625 2.875h1c-.0625.375-.0625.6875-.0625 1 0 2.8125 2.1875 5 5 5 2.75 0 5-2.1875 5-5 0-.3125-.0625-.625-.125-1h12.1875c-.0625.375-.0625.6875-.0625 1 0 2.8125 2.1875 5 5 5 2.75 0 5-2.1875 5-5 0-.3125-.0625-.625-.125-1h3.625c.25 0 .5-.1875.5-.5v-1c0-.25-.25-.5-.5-.5zm-10.75-14c.5 0 1 .25 1.375.625l5.25 5.25c.0625.0625.0625.125.125.1875h-9.5v-6h2.75zm-19.75 20c-1.6875 0-3-1.3125-3-3 0-1.625 1.3125-3 3-3 1.625 0 3 1.375 3 3 0 1.6875-1.375 3-3 3zm3.9375-6c-.875-1.1875-2.3125-2-3.9375-2s-3.0625.8125-4 2h-1.9375c-.625 0-1.0625-.375-1.0625-.875v-18.1875c0-.5.4375-.9375 1.0625-.9375h19.8125c.625 0 1.125.4375 1.125.9375v19.0625zm18.0625 6c-1.6875 0-3-1.3125-3-3 0-1.625 1.3125-3 3-3 1.625 0 3 1.375 3 3 0 1.6875-1.375 3-3 3zm0-8c-1.6875 0-3.0625.8125-4 2h-1v-6h10v6h-1.0625c-.875-1.1875-2.3125-2-3.9375-2z" fill="#14bef0"/></svg>