<svg fill="none" height="33" viewBox="0 0 36 33" width="36" xmlns="http://www.w3.org/2000/svg"><path d="m34.875 20.875c-1.25-1.125-3.125-1.125-4.375-.0625l-3.875 3.0625c-.125.125-.25.125-.375.125h-2.625c.3125-.5625.4375-1.25.3125-2-.25-1.75-1.875-3-3.625-3h-9c-1.3125 0-2.5625.4375-3.625 1.25l-2.375 1.75h-4.8125c-.3125 0-.5.25-.5.5v1c0 .3125.1875.5.5.5h5.5l2.875-2.1875c.75-.5 1.5625-.8125 2.4375-.8125h9.1875c.8125 0 1.5.6875 1.5 1.5 0 .875-.6875 1.5-1.5 1.5h-5.5c-.5625 0-1 .5-1 1 0 .5625.4375 1 1 1h11.25c.5625 0 1.1875-.1875 1.625-.5625l3.875-3.0625c.5-.375 1.25-.5 1.75 0 .6875.5625.625 1.5 0 2.0625l-6.3125 5c-.5.375-1.0625.625-1.6875.625h-25c-.3125 0-.5.1875-.5.5v1c0 .25.1875.5.5.5h25c1.0625 0 2.0625-.375 2.9375-1.0625l6.3125-5.0625c.75-.5625 1.1875-1.5 1.25-2.5 0-.9375-.375-1.875-1.125-2.5625zm-17.6875-5.1875c.4375.4375 1.125.4375 1.5625 0l6.8125-7.125c2-2.0625 1.875-5.5-.3125-7.4375-2.25-1.874996-5.125-1.0624959-6.5625.5l-.6875.6875-.75-.6875c-1.4375-1.499996-4.3125-2.437496-6.5-.5-2.25 1.9375-2.375 5.375-.375 7.4375zm-5.1875-13.0625c1.3125-1.125 3-.5 3.875.375l2.125 2.1875 2.0625-2.1875c.875-.875 2.5625-1.5 3.875-.375 1.5 1.3125 1.25 3.4375.25 4.5l-6.1875 6.5-6.1875-6.5c-1.0625-1.0625-1.3125-3.1875.1875-4.5z" fill="#14bef0"/></svg>