<svg fill="none" height="32" viewBox="0 0 40 32" width="40" xmlns="http://www.w3.org/2000/svg"><path d="m39.8125 9.0625-.875-.875c-.1875-.1875-.5-.1875-.6875 0l-7.1875 7-3.375-3.375c-.1875-.1875-.5-.1875-.6875 0l-.875.875c-.1875.1875-.1875.5 0 .75l4.375 4.375c.3125.3125.75.3125 1.0625 0l8.25-8.0625c.1875-.1875.1875-.5 0-.6875zm-20.25 8.9375c-1.8125 0-2.625 1-5.5625 1-3 0-3.8125-1-5.625-1-4.625 0-8.375 3.8125-8.375 8.4375v2.5625c0 1.6875 1.3125 3 3 3h22c1.625 0 3-1.3125 3-3v-2.5625c0-4.625-3.8125-8.4375-8.4375-8.4375zm6.4375 11c0 .5625-.5 1-1 1h-22c-.5625 0-1-.4375-1-1v-2.5625c0-3.5625 2.8125-6.4375 6.375-6.4375 1.25 0 2.4375 1 5.625 1 3.125 0 4.375-1 5.5625-1 3.5625 0 6.4375 2.875 6.4375 6.4375zm-12-13c4.375 0 8-3.5625 8-8 0-4.375-3.625-8-8-8-4.4375 0-8 3.625-8 8 0 4.4375 3.5625 8 8 8zm0-14c3.25 0 6 2.75 6 6 0 3.3125-2.75 6-6 6-3.3125 0-6-2.6875-6-6 0-3.25 2.6875-6 6-6z" fill="#14bef0"/></svg>