<svg clip-rule="evenodd" fill-rule="evenodd" stroke-linejoin="round" stroke-miterlimit="2" viewBox="0 0 290 290" xmlns="http://www.w3.org/2000/svg"><g fill="#5d6068" fill-rule="nonzero"><path d="m0-50.56c-.007.249-.019.497-.019.746-.001 15.575-.001 31.151-.001 46.726 0 1.477 1.861 3.335 3.339 3.335 12.63-.001 25.26-.001 37.889.002.288 0 .624-.036.853.094.28.159.587.439.677.73.194.632-.089 1.146-.655 1.491h-39.666c-.854-.45-1.781-.804-2.547-1.374-1.329-.988-2.185-2.365-2.188-4.05-.028-16.325-.018-32.65-.021-48.975-.001-.582.15-1.046.797-1.184.054-.025.108-.05.162-.075.225-.01.451-.029.677-.029 20.531-.001 41.063-.001 61.595 0 .204 0 .407.014.61.022.052.029.103.057.155.086.634.086.907.559.907 1.089-.001.534-.282 1.002-.909 1.102-.099.026-.198.052-.297.079-.271.004-.542.011-.814.011-19.875.001-39.749.001-59.624.002-.27 0-.541.021-.811.033l.013-.049c-.045.022-.09.045-.135.067-.02.043-.015.083.013.121" transform="matrix(4.16667 0 0 4.16667 9.746078961 279.17203894)"/><path d="m0 .275c.287-5.427-4.645-10.92-11.274-10.375-5.164.424-9.303 4.672-9.485 9.965-.215 6.217 4.787 10.645 9.938 10.831 6.006.216 11.078-4.762 10.821-10.421m-11.954 12.734c-.648-.163-1.297-.32-1.944-.489-2.18-.567-4.04-1.722-5.572-3.325-1.904-1.992-3.089-4.373-3.492-7.142-.533-3.671.419-6.954 2.677-9.802 1.45-1.829 3.299-3.232 5.597-3.988 2.886-.949 5.759-.997 8.606-.004 3.875 1.353 6.454 4.063 7.833 7.91.299.833.466 1.714.694 2.573v3.261c-.09.164-.215.319-.264.494-.196.694-.313 1.415-.557 2.09-1.387 3.839-4.075 6.377-7.891 7.735-.831.296-1.707.461-2.563.687z" transform="matrix(4.16667 0 0 4.16667 279.61171152 235.65533746)"/><path d="m0 41.672c-.169.142-.318.359-.511.411-.374.1-.828.243-1.145.113-.289-.118-.494-.55-.635-.886-.097-.232-.027-.536-.027-.807 0-11.564-.009-23.128.008-34.691.003-1.976-1.228-3.425-2.712-3.871-.419-.125-.872-.18-1.311-.188-1.379-.025-2.76-.004-4.14-.02-.632-.007-1.222-.603-1.208-1.174.014-.582.607-1.136 1.252-1.139 1.606-.007 3.217-.074 4.818.016 2.595.145 4.937 2.162 5.486 4.808.015.072.082.133.125.199z" transform="matrix(4.16667 0 0 4.16667 289.80338634 12.055575247)"/><path d="m0-44.327c.009.406.027.811.027 1.217.002 6.799.002 13.598-.001 20.397 0 .269-.026.539-.04.808-.029.046-.059.092-.089.138-.178.668-.717.847-1.284.79-.605-.061-.896-.516-.912-1.126-.006-.226-.011-.452-.011-.678v-20.153h-55.631v.695c0 12.702.012 25.405-.016 38.107-.003 1.434.518 2.382 1.876 2.85.052-.016.104-.031.157-.047.316.014.631.04.947.04 10.431.002 20.861 0 31.292.008.348.001.717.047 1.038.171.564.218.651.757.518 1.241-.082.3-.428.529-.656.79-.046.029-.093.059-.139.089-.179.014-.359.04-.538.04-10.691.001-21.382.001-32.073 0-.18 0-.36-.021-.54-.032-.089.003-.178.005-.267.007-2.172-.436-3.469-1.747-3.911-3.913.002-.089.004-.179.007-.268-.011-.203-.032-.405-.032-.608-.001-13.364-.001-26.729 0-40.093 0-.157.017-.315.027-.472.031-.098.063-.196.095-.293.226-.221.452-.443.679-.664.143-.027.287-.053.431-.08.113-.004.226-.011.339-.011 19.055-.001 38.109-.001 57.164 0 .113 0 .226.007.339.011.099.026.198.052.296.078.457.079.74.333.813.802.031.053.063.106.095.159" transform="matrix(4.16667 0 0 4.16667 270.42837084 266.21369524)"/><path d="m0-4.126c-.008.053-.017.105-.025.158.001 1.531.002 3.061.004 4.592.005.054.01.107.015.16.087.535.388.877.93.938.699.078 1.118-.274 1.296-.938.005-.053.01-.106.015-.16.001-1.531.003-3.061.004-4.592-.008-.053-.017-.105-.025-.158-.191-.782-.696-1.117-1.552-.933-.444.096-.755.399-.662.933m4.594-.121c-.003 1.717-.005 3.433-.008 5.15-.025.051-.051.103-.076.154.02 1.412-1.751 3.023-3.19 2.99-2.09-.049-2.905-.638-3.716-2.862.002-.185.005-.369.007-.554.004-1.671.008-3.342.012-5.014-.007-.049-.015-.099-.023-.148.2-.873.592-1.613 1.292-2.217 1.688-1.458 4.745-.744 5.469 1.571.078.249.102.515.15.773.028.053.055.105.083.157" transform="matrix(4.16667 0 0 4.16667 67.841542104 31.308090649)"/><path d="m0 5.374c.002-1.531.003-3.062.005-4.592-.009-.053-.017-.106-.026-.158-.191-.782-.695-1.117-1.552-.933-.443.095-.755.399-.662.933-.008.052-.017.105-.025.158.001 1.53.002 3.061.004 4.592.005.053.01.107.015.16.087.534.388.877.931.938.699.078 1.117-.275 1.295-.938.005-.053.01-.107.015-.16m2.359-4.871c-.003 1.717-.005 3.433-.008 5.149-.025.052-.05.103-.076.155.02 1.412-1.751 3.023-3.19 2.99-2.089-.049-2.905-.638-3.716-2.862.002-.185.005-.37.007-.554.004-1.671.008-3.343.012-5.014-.007-.049-.015-.099-.022-.148.199-.874.591-1.613 1.291-2.217 1.688-1.458 4.745-.745 5.469 1.57.078.249.102.516.15.774.028.052.055.105.083.157" transform="matrix(4.16667 0 0 4.16667 222.052082139 11.517241483)"/><path d="m0-.197c0-.723.008-1.447-.002-2.17-.011-.752-.392-1.165-1.056-1.173-.861-.01-1.218.287-1.23 1.116-.021 1.492-.022 2.984.001 4.476.012.813.431 1.23 1.116 1.208.637-.02 1.16-.585 1.169-1.287.01-.723.002-1.447.002-2.17m-4.622-.015c0-.814.024-1.629-.004-2.443-.069-1.973 2.082-3.664 4.052-3.254 1.907.397 2.954 2.111 2.93 3.617-.022 1.38.008 2.76-.007 4.14-.02 1.879-.896 3.142-2.61 3.618-2.365.656-4.306-1.074-4.357-3.167-.021-.836-.004-1.674-.004-2.511" transform="matrix(4.16667 0 0 4.16667 173.792460198 24.936002218)"/><path d="m0 .21c0 .812-.025 1.625.007 2.436.033.853.889 1.305 1.636.894.46-.253.643-.668.646-1.166.008-1.421.009-2.842-.004-4.263-.002-.216-.071-.439-.147-.645-.254-.691-.853-.626-1.399-.569-.527.055-.735.445-.738.945-.006.789-.002 1.579-.001 2.368m-2.434 0c.083-1.139-.021-2.332.287-3.407.732-2.559 3.862-3.06 5.623-1.418.81.756 1.129 1.68 1.14 2.739.015 1.449.032 2.899-.004 4.347-.038 1.542-.907 2.969-2.534 3.405-2.203.591-4.229-.742-4.389-2.946-.065-.9-.01-1.809-.01-2.715-.038-.001-.076-.003-.113-.005" transform="matrix(4.16667 0 0 4.16667 116.028663987 23.176834144)"/><path d="m62.549 123.272h2.253v-2.119h-2.253zm4.684-3.366v4.608c-.03.096-.061.192-.091.288-.081.46-.351.731-.811.811-.097.031-.193.062-.29.092h-4.607c-.141-.031-.282-.062-.423-.093-.225-.225-.45-.45-.675-.675-.031-.142-.062-.283-.093-.425v-4.608c.031-.141.062-.282.093-.423.225-.225.45-.45.675-.675.142-.031.283-.062.424-.093h4.607c.097.03.193.061.289.091.461.08.731.351.811.812.03.096.061.193.091.29" transform="matrix(4.16667 0 0 4.16667 -193.122 -291.81175118)"/><path d="m74.087 123.252h2.235v-2.076h-2.235zm-1.105-4.532c1.536-.001 3.071-.002 4.607-.004.097.031.194.062.29.092.718.105.922.623.93 1.236.02 1.446.019 2.892.001 4.338-.008.616-.215 1.13-.93 1.237-.052.029-.105.058-.157.086-1.581.001-3.162.002-4.742.002-.099-.028-.198-.055-.297-.083-.576-.011-.789-.415-.797-.878-.03-1.687-.03-3.376 0-5.063.008-.463.221-.867.796-.88.1-.027.199-.055.299-.083" transform="matrix(4.16667 0 0 4.16667 -193.122 -291.83258453)"/><path d="m62.533 134.89h2.25v-2.091h-2.25zm-2.202-3.781c.163-.541.557-.788 1.092-.792 1.493-.012 2.987-.016 4.48 0 .619.007 1.131.214 1.242.928.03.099.06.197.09.296-.001 1.536-.003 3.072-.004 4.607-.028.099-.056.198-.084.297-.196.584-.646.831-1.217.837-1.484.017-2.968.019-4.451-.005-.547-.009-1.09-.109-1.15-.832-.028-.099-.056-.199-.084-.298-.001-1.536-.002-3.072-.004-4.608.03-.143.06-.287.09-.43" transform="matrix(4.16667 0 0 4.16667 -193.122 -388.41182846)"/><path d="m0-2.213c0 .654-.025 1.242.016 1.825.012.162.213.434.343.443.642.046 1.289.021 1.906.021v-2.289zm4.629 3.666c-.135.675-.571.94-1.232.936-1.484-.008-2.968-.017-4.452.004-.6.009-.946-.264-1.13-.803-.03-.144-.06-.288-.09-.432.002-1.536.003-3.072.004-4.608.028-.099.056-.198.084-.297.027-.562.408-.79.882-.799 1.64-.032 3.283-.069 4.92.01.351.017.678.513 1.017.789.028.099.055.199.083.299.002 1.536.003 3.071.004 4.607-.03.098-.06.196-.09.294" transform="matrix(4.16667 0 0 4.16667 212.259157638 125.35524922)"/><path d="m0-2.174h-2.294c0 .623-.031 1.211.019 1.792.014.169.244.445.393.457.62.052 1.247.022 1.882.022zm-4.569 3.352c.001-1.536.003-3.072.004-4.608.028-.099.056-.198.084-.298.027-.561.408-.789.882-.798 1.64-.032 3.283-.07 4.919.01.351.017.679.513 1.018.789.027.099.055.199.083.298.001 1.536.003 3.072.004 4.608-.03.098-.06.196-.09.294-.135.675-.571.94-1.233.936-1.483-.009-2.967-.017-4.451.004-.601.009-.946-.265-1.13-.803-.03-.144-.06-.288-.09-.432" transform="matrix(4.16667 0 0 4.16667 76.920299367 125.272332487)"/><path d="m0 2.212h2.151v-2.148c-.041-.035-.083-.07-.124-.105l-2.024.011c-.032.033-.065.065-.097.098-.004.674-.008 1.349-.011 2.023.035.041.07.081.105.121m-2.447-1.171c0-.769-.014-1.539.004-2.308.017-.729.397-1.108 1.122-1.113 1.516-.012 3.032-.014 4.548-.001.777.006 1.283.502 1.292 1.287.019 1.471.023 2.942 0 4.413-.013.817-.442 1.252-1.255 1.265-1.515.022-3.032.022-4.547-.008-.802-.015-1.155-.42-1.164-1.226-.008-.77-.002-1.539 0-2.309" transform="matrix(4.16667 0 0 4.16667 164.73245295 164.493197197)"/><path d="m0-2.218c-.035.04-.07.08-.106.12.004.675.008 1.35.011 2.024.033.033.065.066.098.098l2.023.011.121-.105v-2.148zm-2.448 1.102c0-.769-.011-1.539.002-2.308.013-.724.374-1.136 1.095-1.15 1.561-.031 3.122-.035 4.683-.008.743.013 1.165.441 1.18 1.189.029 1.516.025 3.032.003 4.548-.01.701-.525 1.21-1.221 1.218-1.561.018-3.123.015-4.684-.002-.667-.008-1.038-.408-1.054-1.11-.017-.792-.004-1.585-.004-2.377" transform="matrix(4.16667 0 0 4.16667 164.734952952 125.386499245)"/><path d="m0-2.277c-.72-.004-1.439-.007-2.159-.011-.04.035-.08.07-.12.105v2.148h2.282c.035-.04.07-.08.106-.12-.004-.675-.007-1.35-.011-2.024-.033-.033-.065-.065-.098-.098m-1.093-2.355c.747 0 1.494-.008 2.24.002.78.011 1.297.519 1.302 1.296.01 1.449.011 2.898.001 4.347-.006.822-.494 1.318-1.327 1.327-1.449.016-2.898-.012-4.346.01-.834.013-1.313-.548-1.304-1.276.018-1.472-.01-2.944.011-4.415.014-.938.393-1.286 1.318-1.29.701-.004 1.403-.001 2.105-.001" transform="matrix(4.16667 0 0 4.16667 125.059087878 173.854871353)"/><path d="m0 2.279c.72-.004 1.44-.007 2.159-.011.033-.032.066-.065.098-.098.004-.674.007-1.349.011-2.023-.035-.04-.07-.081-.105-.121h-2.283v2.147c.04.036.08.071.12.106m1.065 2.343c-.747 0-1.494.008-2.241-.002-.724-.009-1.149-.368-1.162-1.086-.029-1.606-.024-3.214.003-4.82.009-.615.378-1.02 1.001-1.033 1.606-.032 3.213-.037 4.819-.013.625.009 1.111.534 1.119 1.175.021 1.539.021 3.079-.001 4.618-.009.646-.561 1.145-1.229 1.158-.77.016-1.539.004-2.309.003" transform="matrix(4.16667 0 0 4.16667 116.062830681 116.036075098)"/><path d="m0-9.308c.746 0 1.493-.002 2.239 0 .961.004 1.435.394 1.433 1.175-.002.774-.444 1.148-1.386 1.152-1.334.006-2.671.055-4.003-.01-2.196-.107-4.068 2.08-3.873 3.872.086.787.003 1.612-.134 2.397-.127.727-.797.73-1.348.633-.477-.084-.824-.416-.803-.978.046-1.254-.085-2.546.177-3.753.521-2.4 2.871-4.44 5.459-4.484.746-.012 1.493-.002 2.239-.002z" transform="matrix(4.16667 0 0 4.16667 32.826930759 48.407270995)"/><path d="m0 .34c0 .33.003.641-.001.953-.007.728-.386 1.146-1.064 1.179-.729.035-1.2-.345-1.235-1.086-.039-.812-.03-1.628-.002-2.442.019-.566.561-1.08 1.146-1.086 1.538-.017 3.076-.038 4.613.007.714.021 1.202.316 1.168 1.201-.029.745-.008 1.492-.006 2.238.002.708-.386 1.129-1.06 1.168-.838.048-1.057-.343-1.236-1.075-.079-.319-.013-.674-.013-1.057z" transform="matrix(4.16667 0 0 4.16667 212.258740971 163.510279744)"/><path d="m0-2.042v2.174c.338 0 .648-.001.959 0 .823.001 1.27.332 1.327.983.054.624-.378 1.234-1.069 1.298-.852.077-1.717.059-2.573.014-.51-.026-.976-.639-.978-1.165-.004-1.559-.005-3.119 0-4.679.002-.68.393-1.07 1.057-1.071.836-.002 1.674.034 2.508-.012.607-.032.875.343 1.016.788.16.505.011 1.033-.509 1.245-.516.212-1.094.275-1.738.425" transform="matrix(4.16667 0 0 4.16667 164.264535909 221.939493154)"/><path d="m0-.554c-.002.185-.005.369-.007.554.002-.185.005-.369.007-.554" transform="matrix(4.16667 0 0 4.16667 57.888200808 36.245177932)"/><path d="m0-.554c-.002.185-.005.369-.007.554.002-.185.005-.369.007-.554" transform="matrix(4.16667 0 0 4.16667 202.786233393 36.245177932)"/><path d="m0-.43c-.03.143-.06.287-.089.43.029-.143.059-.287.089-.43" transform="matrix(4.16667 0 0 4.16667 58.256534436 159.666943336)"/><path d="m0-.08c-.144.027-.287.053-.431.08.144-.027.287-.053.431-.08" transform="matrix(4.16667 0 0 4.16667 24.399840684 77.524377622)"/><path d="m0-.093c.141.031.282.062.422.093-.14-.031-.281-.062-.422-.093" transform="matrix(4.16667 0 0 4.16667 61.092786705 231.95950117)"/><path d="m0-.432c.03.144.06.288.09.432-.03-.144-.06-.288-.09-.432" transform="matrix(4.16667 0 0 4.16667 202.782066723 131.980671187)"/><path d="m0-.423c-.031.141-.062.282-.093.423.031-.141.062-.282.093-.423" transform="matrix(4.16667 0 0 4.16667 58.277367786 207.7886485)"/><path d="m0-.432c.03.144.06.288.09.432-.03-.144-.06-.288-.09-.432" transform="matrix(4.16667 0 0 4.16667 57.883617471 131.980671187)"/><path d="m0-.425c.031.142.062.283.093.425-.031-.142-.062-.283-.093-.425" transform="matrix(4.16667 0 0 4.16667 57.890284143 228.759915277)"/><path d="m0-.093c-.141.031-.283.062-.424.093.141-.031.283-.062.424-.093" transform="matrix(4.16667 0 0 4.16667 62.859454785 203.212811506)"/><path d="m0-.293c-.032.098-.063.195-.095.293.032-.098.063-.195.095-.293" transform="matrix(4.16667 0 0 4.16667 19.774420317 81.509797477)"/><path d="m0 .091c-.096-.03-.193-.061-.289-.091.096.03.193.061.289.091" transform="matrix(4.16667 0 0 4.16667 83.259054438 202.827811198)"/><path d="m0 .29c-.03-.097-.061-.193-.091-.29.03.097.061.193.091.29" transform="matrix(4.16667 0 0 4.16667 87.016974111 206.587397539)"/><path d="m0 .299c-.028-.1-.056-.199-.083-.299.028.1.055.199.083.299" transform="matrix(4.16667 0 0 4.16667 231.90750669 109.741070062)"/><path d="m0-.298c-.028.099-.056.198-.084.298.028-.1.056-.199.084-.298" transform="matrix(4.16667 0 0 4.16667 203.145817014 110.982321055)"/><path d="m0 .299c-.028-.1-.055-.199-.083-.299.028.1.055.199.083.299" transform="matrix(4.16667 0 0 4.16667 87.00739077 109.741070062)"/><path d="m0 .289c.03-.096.061-.192.091-.289-.03.096-.061.193-.091.289" transform="matrix(4.16667 0 0 4.16667 86.636140473 226.994497198)"/><path d="m0-.298c-.028.099-.056.198-.084.298.028-.1.056-.199.084-.298" transform="matrix(4.16667 0 0 4.16667 58.247367762 110.982321055)"/><path d="m0 .294.09-.294c-.03.098-.06.196-.09.294" transform="matrix(4.16667 0 0 4.16667 86.64905715 130.18441975)"/><path d="m0 .092c-.097-.031-.194-.061-.29-.092.096.031.193.061.29.092" transform="matrix(4.16667 0 0 4.16667 131.375342931 202.819894525)"/><path d="m0 .294.09-.294c-.03.098-.06.196-.09.294" transform="matrix(4.16667 0 0 4.16667 231.54917307 130.18441975)"/><path d="m0 .078c.099-.026.198-.052.296-.078z" transform="matrix(4.16667 0 0 4.16667 265.40753349 67.408119529)"/><path d="m0 .092c.097-.031.193-.061.29-.092-.097.031-.193.061-.29.092" transform="matrix(4.16667 0 0 4.16667 82.04905347 231.57616753)"/><path d="m0-.084c.099.028.198.056.297.084-.099-.028-.198-.056-.297-.084" transform="matrix(4.16667 0 0 4.16667 109.728658947 231.95116783)"/><path d="m0-.083c-.1.028-.199.055-.299.083.1-.028.199-.055.299-.083" transform="matrix(4.16667 0 0 4.16667 110.970326607 203.181978148)"/><path d="m0 .295c-.03-.098-.06-.197-.09-.295.03.098.06.197.09.295" transform="matrix(4.16667 0 0 4.16667 87.024474117 158.445275692)"/><path d="m0-.268c-.002.089-.004.179-.006.268.002-.089.004-.179.006-.268" transform="matrix(4.16667 0 0 4.16667 19.39900335 254.18035228)"/><path d="m0 .007c.089-.002.178-.005.268-.007-.09.002-.179.005-.268.007" transform="matrix(4.16667 0 0 4.16667 35.666933031 270.4553653)"/><path d="m0 .297c.028-.099.056-.198.083-.297-.027.099-.055.198-.083.297" transform="matrix(4.16667 0 0 4.16667 86.658640491 178.873625368)"/><path d="m0-.298c.028.099.056.199.084.298-.028-.099-.056-.199-.084-.298" transform="matrix(4.16667 0 0 4.16667 57.899450817 180.10945969)"/><path d="m0 .078c-.099-.026-.197-.052-.296-.078.099.026.197.052.296.078" transform="matrix(4.16667 0 0 4.16667 266.64503448 77.190627355)"/><path d="m0 .089c.047-.03.093-.06.14-.089-.047.029-.093.059-.14.089" transform="matrix(4.16667 0 0 4.16667 174.908294424 270.05119831)"/><path d="m0 .138c.03-.046.059-.092.089-.138-.03.046-.059.092-.089.138" transform="matrix(4.16667 0 0 4.16667 269.99920383 174.944872225)"/><path d="m0 .159c-.032-.053-.064-.106-.095-.159.031.053.063.106.095.159" transform="matrix(4.16667 0 0 4.16667 270.42837084 80.856880288)"/><path d="m.058-.009c-.044.017-.07.047-.076.094.025.043.051.087.076.13l.016-.048c-.005-.058-.011-.118-.016-.176" transform="matrix(3.49521529617 2.26817264787 2.26817264787 -3.49521529617 9.562745481 68.341870276)"/><path d="m0 .086c-.052-.029-.104-.057-.155-.086.051.029.103.057.155.086" transform="matrix(4.16667 0 0 4.16667 266.65336782 57.917278603)"/><path d="m0-.075c-.054.025-.108.05-.162.075z" transform="matrix(4.16667 0 0 4.16667 3.994407693 58.259778877)"/><path d="m0 .154c.025-.051.051-.103.076-.154z" transform="matrix(4.16667 0 0 4.16667 231.53250639 35.070593659)"/><path d="m0 .154c.025-.051.051-.103.076-.154-.025.051-.051.103-.076.154" transform="matrix(4.16667 0 0 4.16667 86.633640471 35.070593659)"/><path d="m0 .086c.052-.029.105-.058.157-.086-.052.028-.105.057-.157.086" transform="matrix(4.16667 0 0 4.16667 130.723259076 231.5803342)"/><path d="m0 .157c-.028-.052-.055-.105-.083-.157.028.052.055.105.083.157" transform="matrix(4.16667 0 0 4.16667 231.88250667 12.95932597)"/><path d="m0 .157c-.028-.052-.055-.105-.083-.157.028.052.055.105.083.157" transform="matrix(4.16667 0 0 4.16667 86.982807417 12.95932597)"/><path d="m0-.148c.008.049.015.099.023.148-.008-.049-.015-.099-.023-.148" transform="matrix(4.16667 0 0 4.16667 202.741650024 13.045159372)"/><path d="m0-.047c-.052.016-.105.032-.157.047.052-.015.105-.031.157-.047" transform="matrix(4.16667 0 0 4.16667 37.409017758 260.8720243)"/><path d="m0-.148c.008.049.015.099.023.148-.008-.049-.015-.099-.023-.148" transform="matrix(4.16667 0 0 4.16667 57.843617439 13.045159372)"/><path d="m0-.067c-.045.022-.09.045-.135.067.045-.022.09-.045.135-.067" transform="matrix(4.16667 0 0 4.16667 10.255662702 68.000620003)"/><path d="m0 .16c.005-.053.01-.107.015-.16-.005.053-.01.107-.015.16" transform="matrix(4.16667 0 0 4.16667 77.090299503 33.908509396)"/><path d="m0-.16c.005.053.01.107.015.16-.005-.053-.01-.107-.015-.16" transform="matrix(4.16667 0 0 4.16667 67.7532087 34.575593263)"/><path d="m0 .158c-.008-.053-.017-.105-.025-.158.008.053.017.105.025.158" transform="matrix(4.16667 0 0 4.16667 77.172799569 14.115576895)"/><path d="m0-.158c-.008.053-.017.105-.025.158.008-.053.017-.105.025-.158" transform="matrix(4.16667 0 0 4.16667 67.841542104 14.774744089)"/><path d="m0 .16c.005-.053.01-.107.015-.16-.005.053-.01.107-.015.16" transform="matrix(4.16667 0 0 4.16667 221.988748755 33.908509396)"/><path d="m0-.16c.005.053.01.107.015.16-.005-.053-.01-.107-.015-.16" transform="matrix(4.16667 0 0 4.16667 212.651241285 34.575593263)"/><path d="m0 .158c-.008-.053-.017-.105-.025-.158.008.053.017.105.025.158" transform="matrix(4.16667 0 0 4.16667 222.070832154 14.115576895)"/><path d="m0-.158c-.008.053-.017.105-.025.158.008-.053.017-.105.025-.158" transform="matrix(4.16667 0 0 4.16667 212.739991356 14.774744089)"/><path d="m0-.121c.035.04.07.08.105.121-.035-.041-.07-.081-.105-.121" transform="matrix(4.16667 0 0 4.16667 164.294535933 173.710704571)"/><path d="m0-.098c-.033.033-.065.065-.098.098z" transform="matrix(4.16667 0 0 4.16667 164.746619628 164.77611409)"/><path d="m0 .105c-.041-.035-.083-.07-.124-.105.041.035.083.07.124.105" transform="matrix(4.16667 0 0 4.16667 173.697043455 164.323197061)"/><path d="m0 .105c.04-.035.08-.07.121-.105z" transform="matrix(4.16667 0 0 4.16667 173.176209705 125.094415678)"/><path d="m0-.098.098.098c-.033-.033-.065-.065-.098-.098" transform="matrix(4.16667 0 0 4.16667 164.339535969 125.488165993)"/><path d="m0-.12c-.035.04-.07.08-.106.12.036-.04.071-.08.106-.12" transform="matrix(4.16667 0 0 4.16667 164.734952952 116.644825585)"/><path d="m0 .12c.035-.04.07-.08.106-.12-.036.04-.071.08-.106.12" transform="matrix(4.16667 0 0 4.16667 125.072004555 173.210287504)"/><path d="m0 .098c-.033-.033-.065-.065-.098-.098z" transform="matrix(4.16667 0 0 4.16667 125.467421538 164.366530429)"/><path d="m0-.105-.121.105z" transform="matrix(4.16667 0 0 4.16667 116.064497349 164.760280744)"/><path d="m0 .098.098-.098c-.033.033-.065.065-.098.098" transform="matrix(4.16667 0 0 4.16667 125.060337879 125.078582332)"/><path d="m0-.106c.04.035.08.07.12.106-.04-.036-.08-.071-.12-.106" transform="matrix(4.16667 0 0 4.16667 115.561163613 125.533166029)"/><path d="m0 .121c-.035-.04-.07-.08-.105-.121.035.041.07.081.105.121" transform="matrix(4.16667 0 0 4.16667 125.512004907 116.143991851)"/><path d="m0-4.578v3.442c1.861 0 3.657-.031 5.451.023.416.012.959.203 1.207.506.572.696.254 1.435-.633 1.738-.052.031-.103.061-.155.092-2.352.001-4.704.002-7.057.003-.092.002-.185.003-.277.004-.675-.176-.889-.682-.894-1.304-.011-1.468-.025-2.936.01-4.403.012-.504.09-1.076.749-1.185.885-.146 1.226.053 1.504.795.031.097.063.193.095.289" transform="matrix(4.16667 0 0 4.16667 241.55334774 236.48450479)"/><path d="m0 .289c-.032-.096-.064-.192-.095-.289.031.097.063.193.095.289" transform="matrix(4.16667 0 0 4.16667 241.55334774 216.206155234)"/><path d="m0 .004c.093-.001.185-.003.278-.004-.093.001-.185.003-.278.004" transform="matrix(4.16667 0 0 4.16667 235.44917619 241.59284221)"/><path d="m0 .091c.051-.03.103-.061.154-.091-.051.03-.103.061-.154.091" transform="matrix(4.16667 0 0 4.16667 266.01170064 241.20117523)"/></g></svg>