<svg clip-rule="evenodd" fill-rule="evenodd" stroke-linejoin="round" stroke-miterlimit="2" viewBox="0 0 299 330" xmlns="http://www.w3.org/2000/svg"><g fill="#5d6068" fill-rule="nonzero"><path d="m0 72.497c4.576-.137 9.212-1.99 12.925-5.74 4.296-4.341 6.142-9.661 5.493-15.778-.501-4.729-2.493-8.769-5.972-11.98-4.224-3.9-9.281-5.531-15.021-5.067-4.638.375-8.643 2.22-11.847 5.519-4.207 4.331-6.159 9.57-5.571 15.67.861 8.928 8.507 17.298 19.993 17.376m-1.764-58.139c-.011-.052-.022-.105-.034-.157-3.653-3.848-7.307-7.696-11.081-11.67 0 2.935-.11 5.679.04 8.409.094 1.712 1.638 3.388 3.602 3.407 2.491.023 4.982.009 7.473.011m2.41 3.394c-.159-.054-.317-.156-.475-.156-3.176-.003-6.352.006-9.527.013-.378-.039-.764-.039-1.132-.121-3.114-.7-5.587-3.461-5.665-6.84-.005-3.494-.01-6.988-.016-10.482-.233-.053-.467-.152-.701-.152-7.974-.008-15.947-.008-23.92-.001-.269 0-.537.091-.805.139-2.407-.092-4.954 2.539-4.943 4.921-.046.376-.131.753-.131 1.129-.007 16.392-.006 32.784-.005 49.177 0 .359.023.718.036 1.078.039.218.066.439.12.653.594 2.342 2.59 4.255 5.079 4.298.245.045.49.128.736.129 6.051.007 12.102.007 18.153-.002.235 0 .471-.102.706-.156-.022-.097-.035-.198-.068-.291-.948-2.606-1.6-5.278-1.45-8.065.093-1.734.385-3.458.588-5.186-.26-.058-.52-.167-.779-.167-4.224-.011-8.448-.01-12.671-.003-.245.001-.489.075-.733.114-.985-.451-1.332-.962-1.246-1.834.076-.775.49-1.19 1.387-1.392 4.884.008 9.767.016 14.65.016.164 0 .327-.09.491-.139.144-.29.275-.589.435-.87.777-1.359 1.561-2.714 2.343-4.071-.003-.04.002-.113-.009-.116-.098-.02-.198-.039-.298-.039-5.867.004-11.734.01-17.601.016-.893-.179-1.372-.702-1.408-1.537-.039-.925.28-1.332 1.274-1.575.315-.077.644-.138.966-.138 6.523-.008 13.046 0 19.569-.021.379-.001.834-.112 1.122-.339 1.812-1.433 3.737-2.666 5.881-3.544 1.858-.761 3.762-1.363 5.776-1.509 1.373-.099 2.753-.123 4.129-.181.059-.125.169-.25.169-.375-.003-4.127-.016-8.254-.027-12.381m-3.821 57.979c-.963-.207-1.929-.402-2.889-.621-3.53-.807-6.633-2.437-9.4-4.773-1.748-1.476-3.15-3.217-4.4-5.111-.158-.239-.56-.448-.85-.449-7.017-.017-14.035.023-21.052-.018-1.606-.01-3.103-.638-4.398-1.579-2.415-1.755-3.743-4.134-3.745-7.159-.008-17.092-.027-34.184.025-51.276.006-1.894.907-3.59 2.185-5.013 1.218-1.357 2.675-2.351 4.51-2.687.565-.103 1.135-.259 1.703-.26 8.818-.019 17.635-.019 26.453-.009.738.001 1.401.205 1.957.794 2.551 2.7 5.14 5.366 7.709 8.051 2 2.09 3.99 4.188 5.985 6.283.811.853 1.607 1.721 2.437 2.555.606.608.868 1.317.866 2.167-.009 4.498.004 8.996-.013 13.494-.002.601.067.904.795 1.069 2.734.618 5.266 1.768 7.554 3.389 2.799 1.984 5.07 4.467 6.766 7.464 1.17 2.068 1.975 4.282 2.401 6.6.482 2.624.573 5.262.125 7.937-.364 2.173-.941 4.243-1.873 6.226-.866 1.843-1.876 3.607-3.339 5.036-1.412 1.377-2.841 2.763-4.417 3.939-2.563 1.913-5.548 2.948-8.652 3.634-.599.133-1.21.213-1.816.317z" transform="matrix(4.16667 0 0 4.16667 207.99367248 13.463059621)"/><path d="m0 .157c-.011-.052-.022-.104-.034-.157.012.053.023.105.034.157" transform="matrix(4.16667 0 0 4.16667 200.641583265 72.633106957)"/><path d="m0-3.26c.626.178 1.243.379 1.392 1.131.26 1.306-.436 2.129-1.82 2.131-5.366.005-10.732.003-16.098.001-1.006 0-1.743-.526-1.835-1.3-.132-1.104.34-1.707 1.541-1.97 5.607.002 11.213.005 16.82.007" transform="matrix(4.16667 0 0 4.16667 125.357356371 143.281913476)"/><path d="m0 13.087c.592-.666 1.17-1.345 1.778-1.996 1.552-1.665 3.111-3.324 4.681-4.971.506-.531 1.09-.719 1.848-.452 1.016.357 1.25 1.474.741 2.301-.433.703-1.048 1.299-1.617 1.909-1.798 1.927-3.617 3.833-5.417 5.758-.854.913-1.696 1.838-2.522 2.777-.818.93-1.968.908-2.804-.021-1.062-1.179-2.177-2.31-3.259-3.471-2.04-2.188-4.082-4.374-6.104-6.577-.639-.696-.6-1.859.019-2.414.677-.606 1.668-.541 2.382.21 2.198 2.317 4.38 4.649 6.568 6.975.105-.135.302-.27.302-.405.011-5.891.005-11.782.001-17.673.232-1.045.61-1.293 1.868-1.225.628.035 1.172.636 1.242 1.375-.004 5.819-.008 11.638-.008 17.456 0 .173.048.345.074.517.076-.024.151-.049.227-.073" transform="matrix(4.16667 0 0 4.16667 212.74367628 208.275715471)"/></g></svg>