<svg clip-rule="evenodd" fill-rule="evenodd" stroke-linejoin="round" stroke-miterlimit="2" viewBox="0 0 379 527" xmlns="http://www.w3.org/2000/svg"><g fill-rule="nonzero"><g fill="#5d6068"><path d="m0 6.342c-.06-.492-.138-1.011-.183-1.533-.066-.771-.124-1.497-.919-1.969-1.21-.72-2.359-1.542-3.553-2.29-.565-.353-1.169-.886-1.764-.897-1.238-.022-2.482.25-3.772.407.07.575.149 1.015.171 1.457.042.818.284 1.358 1.155 1.742 1.124.497 2.153 1.246 3.152 1.984 1.692 1.249 3.44 2.07 5.713 1.099m-4.187 4.384c-1.521-1.011-3.029-2.043-4.567-3.027-1.41-.902-2.853-1.752-4.282-2.625-.07-.069-.14-.137-.21-.206-.329-2.709-.659-5.418-.999-8.223 2.889-.352 5.676-.691 8.464-1.029.175.04.35.081.525.122 2.653 1.737 5.316 3.459 7.943 5.234.292.197.49.682.543 1.059.341 2.465.631 4.937.937 7.406-.018.094-.035.187-.053.28-2.767.337-5.534.673-8.301 1.009" transform="matrix(4.16667 0 0 4.16667 121.062142541 482.19627213)"/><path d="m0 .28c.017-.093.035-.187.052-.28.064.083.128.167.192.25-.081.01-.163.02-.244.03" transform="matrix(4.16667 0 0 4.16667 138.205906256 521.51713692)"/><path d="m0-20.819c-.874 2.483-1.748 4.966-2.622 7.449-.003.093-.007.186-.01.279.737 6.09 1.475 12.181 2.212 18.272-.036.104-.071.208-.107.312-1.015 1.347-2.03 2.694-3.045 4.041.001.095.001.19.002.284.497 4.135.993 8.27 1.49 12.404-.053.054-.106.107-.159.161-1.12.165-2.241.331-3.361.497-.082-.146-.164-.293-.245-.439-.553-4.545-1.105-9.09-1.658-13.635.03-.181.06-.362.089-.543.994-1.28 1.988-2.559 2.982-3.838.025-.084.049-.168.074-.251-.708-5.847-1.416-11.694-2.123-17.542.015-.117.031-.235.047-.353.89-2.552 1.78-5.104 2.67-7.656 0-.1.001-.199.002-.299-.374-3.074-.748-6.147-1.121-9.221.024-.11.049-.219.074-.329 2.684-3.344 5.368-6.687 8.069-10.051.555.346 1.271.67 1.828 1.17.812.728 1.409.432 1.701-.36.583-1.58 1.786-2.013 3.248-1.916 1.608.107 3.315-1.316 4.811.186 1.152 1.158 2.182 2.438 3.258 3.671.942 1.08 1.783 2.269 2.84 3.221.642.578 1.603.81 2.432 1.168.289.125.62.144.922.242.683.221 1.61.274 1.965.748.316.421-.013 1.319-.044 2.007-.062 1.359.6 2.402 1.649 2.618.984.203 1.764-.428 2.24-1.864.224-.674.382-1.37.585-2.111 2.836-.344 5.717-.695 8.598-1.045.069.072.137.144.206.216.394 3.241.788 6.483 1.181 9.724-.05.083-.101.167-.152.25-1.179.806-2.298 1.721-3.548 2.396-2.905 1.568-5.148 3.791-7.025 6.47-.687.98-1.169 1.892-.854 3.119.159.622.17 1.282.256 1.985-1.217.148-2.375.289-3.663.446-.196-1.613-.412-3.222-.567-4.837-.026-.269.162-.605.343-.839 1.623-2.109 3.227-4.234 4.928-6.278.512-.615 1.301-1.007 1.983-1.474 1.373-.939 2.759-1.859 4.178-2.813-.165-1.361-.336-2.77-.514-4.23-.799.097-1.557.189-2.316.28-.777 3.227-4.18 4.781-6.719 4.135-2.639-.67-4.547-2.682-4.491-5.436-.096-.028-.199-.07-.306-.089-3.647-.665-5.242-3.853-7.552-6.156-.535-.533-.977-1.157-1.48-1.724-.811-.915-3.017-.584-3.66.472-.755 1.238-1.603 2.418-2.446 3.676-.882-.59-1.654-1.183-2.502-1.631-.301-.159-.985-.121-1.163.098-1.5 1.834-2.924 3.731-4.37 5.61.001.09.003.181.004.271.353 2.921.705 5.841 1.058 8.762-.034.107-.068.213-.102.32" transform="matrix(4.16667 0 0 4.16667 31.262904035 178.70436267)"/><path d="m0-71.528 3.165-.402c.078.059.157.118.235.177-.08 1.656.96 2.614 2.131 3.529.823.642 1.57 1.381 2.351 2.077.046.103.092.206.139.309.339 2.764.621 5.537 1.05 8.286.14.899-.207 1.255-.894 1.53-3.283 1.317-6.586 2.588-9.838 3.977-.66.281-1.115 1.021-1.696 1.512-1.354 1.146-2.862 1.841-4.7 1.499-.155-.028-.424-.034-.473.049-.589 1.005-1.273 1.987-1.639 3.074-.115.343.535 1.158 1.02 1.447 1.185.709 2.479 1.237 3.775 1.859-1.767 3.885-3.502 7.724-5.27 11.547-.141.304-.533.731-.776.711-1.998-.162-2.629 1.117-3.015 2.705-.075.306-.161.609-.262.987 1.549.775 3.059 1.547 4.586 2.284.544.262.842.566.9 1.236.166 1.917.462 3.821.652 5.736.032.321-.121.76-.345.993-2.091 2.166-4.219 4.298-6.331 6.444-.712.723-1.229 1.395-.317 2.431 1.58 1.798 1.143 4.148 1.496 6.279-.059.072-.119.143-.178.215-3.823.466-7.646.933-11.469 1.399-.083.013-.165.027-.248.04-1.763-2.242-3.526-4.484-5.289-6.727-.062-.089-.125-.178-.188-.267-.26-2.184-.521-4.368-.781-6.552.032-.103.063-.206.095-.31.333-2.786.7-5.568.99-8.359.362-3.485 1.204-6.961.071-10.514 1.368-.166 2.524-.307 3.7-.45.787 3.195.671 6.366.164 9.576-.539 3.407-1.043 6.831-1.304 10.268-.238 3.133.847 5.913 3.106 8.178.33.33.606.715.907 1.075l.315.081c1.924-.234 3.847-.468 5.77-.701l.219-.009c-.03-.066-.06-.131-.09-.196-.917-1.578-1.834-3.155-2.783-4.786 1.505-1.543 3.094-3.187 4.7-4.814 1.21-1.225 2.493-2.384 3.63-3.672.294-.332.196-1.039.22-1.576.069-1.524-.494-2.493-2.07-3.059-1.665-.597-3.188-1.586-4.771-2.404.851-2.535 1.726-5.05 2.528-7.588.239-.757.577-1.2 1.413-1.142 1.438.099 2.245-.53 2.736-1.942.611-1.758 1.505-3.418 2.276-5.118-.763-.634-1.577-1.209-2.266-1.906-1.533-1.551-1.626-3.466-.904-5.352.694-1.813 1.666-3.52 2.522-5.286.799.259 1.568.553 2.361.757 1.209.311 2.4.023 2.92-1.084.706-1.505 2.044-1.911 3.339-2.445 2.448-1.009 4.923-1.954 7.421-2.94-.206-1.694-.197-3.382-.678-4.917-.288-.921-1.318-1.624-2.053-2.387-.586-.608-1.23-1.16-1.848-1.736-.067-.084-.135-.167-.202-.251-.127-1.055-.254-2.111-.381-3.167.052-.069.104-.139.156-.208" transform="matrix(4.16667 0 0 4.16667 141.272158709 455.14625049)"/><path d="m1.965-4.064c-.835.826-1.642 1.623-2.507 2.479.813.821 1.631 1.649 2.507 2.535.793-.784 1.62-1.602 2.507-2.479-.785-.793-1.602-1.62-2.507-2.535" transform="matrix(-2.5876687368 3.26574844593 3.26574844593 2.5876687368 27.417900959 293.831954772)"/><path d="m1.405-4.834c-.863.863-1.667 1.665-2.515 2.511.847.848 1.669 1.672 2.515 2.518.098-.054.22-.088.294-.168 2.634-2.818 3.034-1.684-.294-4.861" transform="matrix(-2.57166039066 3.27836928936 3.27836928936 2.57166039066 61.697511716 61.23760203)"/><path d="m1.909-4.199c-.865.858-1.671 1.657-2.513 2.493.852.858 1.673 1.685 2.513 2.532.123-.081.233-.131.313-.209 2.559-2.481 2.558-2.482-.313-4.816" transform="matrix(-2.5824187326 3.26990261592 3.26990261592 2.5824187326 64.720430801 88.568457228)"/><path d="m0 .122c-.175-.041-.35-.082-.525-.122.175.04.35.081.525.122" transform="matrix(4.16667 0 0 4.16667 99.162958355 463.92959085)"/><path d="m0-.439c.082.146.163.293.245.439-.082-.146-.163-.293-.245-.439" transform="matrix(4.16667 0 0 4.16667 6.907884551 274.037355603)"/><path d="m0-.544c-.03.181-.059.362-.089.544.03-.181.059-.363.089-.544" transform="matrix(4.16667 0 0 4.16667 .372879323 215.399392026)"/><path d="m0 .309c-.046-.103-.093-.206-.139-.309.046.103.093.206.139.309" transform="matrix(4.16667 0 0 4.16667 174.692185445 179.533946667)"/><path d="m0-.208c-.052.069-.104.139-.156.208.052-.069.104-.139.156-.208" transform="matrix(4.16667 0 0 4.16667 141.272158709 157.978512756)"/><path d="m0 .279c.003-.093.007-.186.01-.279-.003.093-.007.186-.01.279" transform="matrix(4.16667 0 0 4.16667 20.295811928 122.993901435)"/><path d="m0 .178c-.078-.059-.157-.119-.235-.178.078.059.157.119.235.178" transform="matrix(4.16667 0 0 4.16667 155.439670043 155.434344054)"/><path d="m0-.251c.067.084.135.167.202.251-.067-.084-.135-.167-.202-.251" transform="matrix(4.16667 0 0 4.16667 142.209659459 172.221857484)"/><path d="m0-.251c-.024.084-.049.167-.073.251.024-.084.049-.167.073-.251" transform="matrix(4.16667 0 0 4.16667 13.10247284 197.141460753)"/><path d="m0-.353c-.016.118-.031.235-.047.353.016-.118.031-.235.047-.353" transform="matrix(4.16667 0 0 4.16667 4.453715921 123.005568111)"/><path d="m0 .312c.036-.104.071-.208.107-.312-.036.104-.071.208-.107.312" transform="matrix(4.16667 0 0 4.16667 29.067068945 200.293546608)"/><path d="m0 .251c.051-.084.101-.167.152-.251-.051.084-.101.167-.152.251" transform="matrix(4.16667 0 0 4.16667 200.130955796 80.360533995)"/><path d="m0 .285c0-.095-.001-.19-.001-.285 0 .095.001.19.001.285" transform="matrix(4.16667 0 0 4.16667 16.387058801 218.427311115)"/><path d="m0 .32c.034-.107.068-.213.102-.32-.034.107-.068.213-.102.32" transform="matrix(4.16667 0 0 4.16667 31.262904035 90.62512554)"/><path d="m0 .16c.053-.053.106-.107.159-.16-.053.053-.106.107-.159.16" transform="matrix(4.16667 0 0 4.16667 21.933313238 271.299020079)"/><path d="m0-.299c-.001.1-.001.2-.002.299 0-.099.001-.199.002-.299" transform="matrix(4.16667 0 0 4.16667 15.587058161 89.633041413)"/><path d="m0-.31c-.032.103-.063.207-.095.31.032-.103.063-.207.095-.31" transform="matrix(4.16667 0 0 4.16667 7.463718329 400.37954001)"/><path d="m0-.267.189.267c-.063-.089-.126-.178-.189-.267" transform="matrix(4.16667 0 0 4.16667 10.321637282 428.79206274)"/><path d="m0 .08-.315-.08c.105.027.21.053.315.08" transform="matrix(4.16667 0 0 4.16667 40.586244827 439.81290489)"/><path d="m0-.205c.03.065.06.131.09.196-.073.003-.146.006-.218.009.042-.068.085-.137.128-.205" transform="matrix(4.16667 0 0 4.16667 65.163764489 437.22540282)"/><path d="m0 .04c.083-.013.165-.027.248-.04-.082.013-.165.027-.248.04" transform="matrix(4.16667 0 0 4.16667 33.142905539 456.65458503)"/><path d="m0 .215c.059-.072.119-.143.178-.215-.059.072-.119.143-.178.215" transform="matrix(4.16667 0 0 4.16667 81.963777929 449.92957965)"/><path d="m0 .216c-.069-.072-.138-.144-.207-.216.069.072.138.144.207.216" transform="matrix(4.16667 0 0 4.16667 195.843869033 38.946750864)"/><path d="m0 .271c-.001-.09-.003-.181-.004-.271.001.09.003.181.004.271" transform="matrix(4.16667 0 0 4.16667 27.279150848 52.988012097)"/><path d="m0-.33c-.025.11-.05.22-.075.33.025-.11.05-.22.075-.33" transform="matrix(4.16667 0 0 4.16667 11.226221339 49.969259682)"/><path d="m0-.207c.07.069.14.138.21.207-.07-.069-.14-.138-.21-.207" transform="matrix(4.16667 0 0 4.16667 65.870848388 503.34212238)"/></g><path d="m0 68.283c-4.846 0-9.423-1.565-13.604-4.652-3.492-2.577-6.09-5.981-7.725-10.116-.92-2.331-1.442-4.524-1.578-6.659-.258.002-.515.007-.772.02-.138.008-.276.011-.413.011-3.563 0-6.751-2.441-7.751-5.935-.228-.796-.261-1.599-.264-2.208-.009-1.464-.007-2.929-.005-4.395.002-1.187.003-2.375-.001-3.562-.01-2.855 1.991-5.83 4.598-7.023.089-.907.176-1.797.298-2.682.36-2.614 1.263-5.183 2.763-7.852 1.262-2.248 2.819-4.239 4.631-5.92 3.735-3.465 8.126-5.717 13.052-6.696 2.742-.544 5.466-.614 7.534-.614.987 0 1.975.017 2.963.035.589.011 1.178.021 1.767.028 3.243.038 6.442.644 9.508 1.802 2.664 1.008 5.109 2.419 7.269 4.196 3.206 2.639 5.619 5.757 7.172 9.268 1.009 2.28 1.591 4.428 1.778 6.563.053.615.112 1.258.186 1.9 2.96 1.361 4.657 4.102 4.688 7.646.012 1.479.01 2.957.007 4.436l-.003 2.316c.004 3.61-1.574 6.283-4.575 7.782-.27 1.522-.728 3.18-1.926 4.624-.972 1.17-2.486 2.804-4.644 3.833-1.094 3.107-3.075 5.791-6.199 8.406-3.098 2.592-6.696 4.28-10.697 5.016-1.812.334-3.624.357-5.377.379-.621.008-1.243.016-1.861.038-.275.01-.548.015-.819.015" fill="#fff" transform="matrix(4.16667 0 0 4.16667 219.717638132 138.798497412)"/><path d="m0-72.282c-2.159 0-5.012.074-7.926.653-5.294 1.051-10.011 3.47-14.022 7.19-1.963 1.82-3.65 3.976-5.016 6.407-1.625 2.892-2.606 5.692-2.999 8.56-.079.575-.144 1.145-.202 1.708-2.773 1.75-4.724 5.024-4.713 8.274.004 1.169.002 2.337 0 3.505-.002 1.487-.004 2.974.005 4.462.005.738.048 1.717.342 2.745 1.189 4.149 4.868 7.104 9.071 7.364.273 1.744.773 3.526 1.506 5.382 1.773 4.488 4.598 8.186 8.396 10.989 4.533 3.347 9.509 5.043 14.791 5.043.296 0 .594-.005.893-.016.601-.021 1.204-.028 1.808-.036 1.838-.023 3.738-.047 5.719-.412 4.344-.799 8.253-2.633 11.62-5.45 3.11-2.603 5.252-5.4 6.514-8.516 2.113-1.182 3.599-2.793 4.583-3.978 1.198-1.443 1.799-3.026 2.163-4.601 3.116-1.915 4.804-5.077 4.8-9.085-.001-.774.001-1.548.002-2.322.003-1.482.006-2.963-.007-4.445-.033-3.877-1.793-7.066-4.808-8.891-.026-.28-.051-.553-.073-.812-.207-2.36-.842-4.715-1.941-7.199-1.681-3.798-4.282-7.164-7.73-10.002-2.33-1.917-4.965-3.438-7.834-4.522-3.284-1.242-6.713-1.891-10.19-1.931-.582-.007-1.163-.017-1.745-.028-1.002-.018-2.005-.036-3.007-.036m0 4c1.568 0 3.138.045 4.705.063 3.023.035 5.982.6 8.823 1.673 2.444.924 4.683 2.205 6.705 3.869 2.852 2.347 5.118 5.15 6.615 8.533.835 1.887 1.432 3.855 1.614 5.929.082.937.17 1.874.299 2.805.025.177.221.416.391.475 2.828.985 4.152 3.287 4.176 6.108.02 2.246.003 4.491.005 6.737.003 2.986-1.266 5.133-4.098 6.274-.158.064-.31.316-.338.5-.24 1.562-.563 3.098-1.605 4.353-1.199 1.445-2.544 2.716-4.315 3.462-.22.093-.46.332-.531.554-1.046 3.285-3.143 5.792-5.74 7.965-2.863 2.396-6.165 3.919-9.777 4.585-2.263.416-4.627.301-6.947.384-.251.009-.501.013-.749.013-4.596 0-8.727-1.538-12.415-4.261-3.221-2.377-5.575-5.503-7.052-9.241-.941-2.384-1.533-4.851-1.47-7.441.003-.137-.012-.274-.021-.468-.609 0-1.201-.015-1.786-.015-.347 0-.691.005-1.034.023-.105.005-.208.007-.311.007-2.797 0-5.097-1.927-5.83-4.484-.152-.531-.184-1.111-.187-1.669-.017-2.651.004-5.303-.005-7.954-.008-2.269 1.89-4.772 3.969-5.4.197-.059.385-.143.497-.185.138-1.315.239-2.582.411-3.84.351-2.551 1.274-4.918 2.524-7.144 1.135-2.02 2.543-3.852 4.249-5.434 3.445-3.196 7.463-5.283 12.081-6.2 2.369-.47 4.756-.576 7.147-.576" fill="#fff" transform="matrix(4.16667 0 0 4.16667 222.906390683 431.64206502)"/><path d="m0 15.206c-1.194-.004-2.388-.008-3.582-.013v-13.586c1.279 0 2.521-.096 3.74.028 1.165.118 2.039 1.157 2.265 2.371.035.151.092.303.119.454-.027-.151-.084-.303-.119-.454.001 2.924.002 5.849.003 8.773-.228 1.328-1.098 2.199-2.426 2.427m-29.986 13.761c-.766-.174-1.119-.715-1.119-1.439 0-.723.351-1.265 1.118-1.439.177-.046.354-.131.532-.132-.178.001-.355.086-.532.132h6.905c.766.174 1.117.717 1.117 1.439s-.352 1.265-1.118 1.439c-.133.035-.265.091-.398.118.133-.027.265-.083.398-.118zm24.813-6.026c-.855.432-1.672.994-2.576 1.268-1.72.524-3.474.973-5.244 1.284-1.55.273-3.142.311-4.714.458-.467.044-.931.107-1.446.167-.56-1.445-1.475-2.521-3.02-2.907-.496-.123-1.007-.25-1.514-.258-1.886-.031-3.774-.01-5.661-.013-2.808-.006-4.475 1.702-4.897 4.247-.222 1.336.66 3.464 2.419 4.335.69.342 1.512.534 2.283.568 1.836.08 3.678-.011 5.516.035 2.281.058 3.884-.923 4.769-2.808 3.415-.418 6.726-.823 10.22-1.251-.719.946-1.32 1.907-2.084 2.715-2.753 2.909-6.131 4.668-10.054 5.526-2.861.626-5.74.498-8.585.336-3.6-.204-6.848-1.629-9.695-3.904-3.531-2.823-5.714-6.469-6.661-10.861-.207-.96-.215-1.963-.315-2.947-.002-5.777-.003-11.554-.005-17.33.001 0 .068-.006.068-.006l.067.007 6.3-.05c1.65-.157 3.068-.818 4.259-2.046 1.049 1.406 2.192 2.622 3.661 3.491 1.581.936 3.259 1.577 5.118 1.581 6.448.015 12.895.009 19.342.013.286 0 .573.014.859.021.025.059.061.117.091.176-.03-.059-.066-.117-.091-.176.003 3.876.003 7.752.014 11.628 0 .275.075.55.116.824.215.872.608 1.224 1.466 1.315h3.058c.291 1.695-1.451 3.712-3.064 4.562m-34.83-24.495c-.133.031-.267.081-.4.104.133-.023.267-.073.4-.104-2.01.001-4.021.002-6.032.004.186-1.7.87-3.226 1.73-4.667 2.442-4.089 6.07-6.49 10.725-7.36.695-.13 1.416-.171 2.125-.175 3.222-.018 6.445-.039 9.668-.002 6.44.073 12.137 4.076 14.245 10.233.446 1.301.537 2.723.792 4.09.029.145.057.289.087.44-.03-.151-.058-.295-.087-.44-.016.274-.032.547-.051.867h-.867c-6.157 0-12.313-.002-18.47.005-.275 0-.551.073-.826.112-2.611-.339-4.744-1.5-6.13-3.778-.51-.838-.827-1.806-1.144-2.745-.342-1.016-.7-1.297-1.833-1.193-.68.063-1.178.721-1.214 1.606-.07 1.713-1.057 2.804-2.718 3.003m-8.368-3.195c-.372 1-.608 2.051-.924 3.138h-1.816c.13-1.173.176-2.347.404-3.484.558-2.779 1.714-5.306 3.371-7.615 1.778-2.478 4.056-4.371 6.664-5.903 2.071-1.216 4.335-1.938 6.656-2.412 1.423-.29 2.911-.322 4.371-.349 2.459-.046 4.925-.094 7.379.034 4.456.231 8.548 1.577 12.158 4.286 2.871 2.154 5.098 4.834 6.463 8.137.643 1.554.949 3.254 1.326 4.906.172.752.145 1.549.213 2.378-.625.021-1.219.21-1.585 0-.302-.173-.358-.811-.478-1.256-.731-2.717-1.907-5.221-3.746-7.357-2.096-2.434-4.627-4.28-7.68-5.389-2.276-.827-4.62-1.17-7.023-1.174-3.177-.005-6.359-.083-9.53.053-3.666.157-7.003 1.356-9.968 3.588-2.922 2.2-4.987 5.013-6.255 8.419m-1.116 19.942c-.38.05-.761.147-1.14.14-.815-.014-1.629-.081-2.443-.127-1.304-.224-2.203-1.122-2.426-2.425-.045-.202-.129-.404-.13-.607-.009-2.521-.009-5.042 0-7.563.001-.203.087-.405.133-.607.27-1.453 1.397-2.42 2.834-2.424 1.024-.003 2.049-.001 3.172-.001zm55.055-10.256c-.024-2.822-1.348-5.124-4.176-6.108-.17-.059-.367-.298-.391-.476-.129-.93-.217-1.868-.299-2.804-.182-2.075-.779-4.042-1.614-5.929-1.497-3.384-3.763-6.186-6.615-8.533-2.022-1.665-4.261-2.946-6.705-3.869-2.841-1.074-5.8-1.638-8.823-1.673-3.956-.045-7.928-.266-11.853.513-4.617.917-8.635 3.004-12.08 6.199-1.706 1.582-3.114 3.415-4.249 5.434-1.25 2.226-2.174 4.593-2.524 7.144-.172 1.258-.273 2.526-.412 3.84-.111.042-.299.126-.496.186-2.079.628-3.977 3.13-3.969 5.399.009 2.652-.012 5.303.005 7.955.003.558.035 1.137.187 1.669.76 2.651 3.204 4.625 6.141 4.476.923-.047 1.85-.007 2.82-.007.009.193.024.331.021.468-.063 2.589.529 5.057 1.47 7.44 1.477 3.738 3.831 6.864 7.051 9.242 3.889 2.87 8.268 4.424 13.165 4.248 2.32-.084 4.684.032 6.947-.385 3.612-.665 6.914-2.189 9.777-4.584 2.597-2.174 4.693-4.68 5.74-7.965.071-.223.311-.462.531-.554 1.771-.746 3.116-2.018 4.315-3.462 1.042-1.256 1.365-2.791 1.605-4.354.028-.184.18-.436.338-.499 2.832-1.141 4.101-3.288 4.098-6.275-.003-2.245.015-4.491-.005-6.736" fill="#5d6068" transform="matrix(4.16667 0 0 4.16667 338.57356655 249.292335807)"/></g></svg>