<svg clip-rule="evenodd" fill-rule="evenodd" stroke-linecap="round" stroke-linejoin="round" stroke-miterlimit="10" viewBox="0 0 388 390" xmlns="http://www.w3.org/2000/svg"><g fill="none" stroke="#5d6068" stroke-width="3"><path d="m0-79.86v39.546c-1.202-.196-2.438-.297-3.697-.297-2.965 0-5.799.563-8.399 1.586.002-.014.002-.031.002-.048v-7.298c0-.869-.706-1.575-1.575-1.575h-7.298c-.869 0-1.575.706-1.575 1.575v7.298c0 .869.706 1.575 1.575 1.575h5.723c-6.821 3.98-11.404 11.374-11.404 19.841 0 12.312 9.703 22.365 21.878 22.923-.174.019-.348.028-.527.028h-60.106c-2.926 0-5.297-2.371-5.297-5.295v-79.859c0-2.923 2.371-5.294 5.297-5.294h60.106c2.926 0 5.297 2.371 5.297 5.294z" transform="matrix(4.16667 0 0 4.16667 300.83255725 361.05639222)"/><path d="m0 16.745h-43.053c-1.311 0-2.374-1.063-2.374-2.374v-11.997c0-1.311 1.063-2.374 2.374-2.374h43.053c1.311 0 2.374 1.063 2.374 2.374v11.997c0 1.311-1.063 2.374-2.374 2.374z" transform="matrix(4.16667 0 0 4.16667 243.23667784 55.140314154)"/><path d="m0 10.447h-7.565c-.796 0-1.441-.645-1.441-1.441v-7.565c0-.796.645-1.441 1.441-1.441h7.565c.796 0 1.441.645 1.441 1.441v7.565c0 .796-.645 1.441-1.441 1.441z" transform="matrix(4.16667 0 0 4.16667 91.483223104 161.288315739)"/><path d="m0 10.446-7.712.006c-.712.001-1.29-.576-1.291-1.288-.001-2.01-.004-5.866-.006-7.88 0-.713.578-1.291 1.292-1.29 2.013.002 5.873.003 7.883.003.71 0 1.285.574 1.284 1.283-.003 1.957-.004 5.677-.004 7.724 0 .799-.647 1.441-1.446 1.442z" transform="matrix(4.16667 0 0 4.16667 169.28245201 161.297482413)"/><path d="m0 10.447h-7.565c-.796 0-1.441-.645-1.441-1.441v-7.565c0-.796.645-1.441 1.441-1.441h7.565c.796 0 1.441.645 1.441 1.441v7.565c0 .796-.645 1.441-1.441 1.441z" transform="matrix(4.16667 0 0 4.16667 91.483223104 229.715453814)"/><path d="m0 10.447h-7.565c-.796 0-1.441-.645-1.441-1.441v-7.565c0-.796.645-1.441 1.441-1.441h7.565c.796 0 1.441.645 1.441 1.441v7.565c0 .796-.645 1.441-1.441 1.441z" transform="matrix(4.16667 0 0 4.16667 169.302452026 229.715453814)"/><path d="m0 10.447h-7.565c-.796 0-1.441-.645-1.441-1.441v-7.565c0-.796.645-1.441 1.441-1.441h7.565c.796 0 1.441.645 1.441 1.441v7.565c0 .796-.645 1.441-1.441 1.441z" transform="matrix(4.16667 0 0 4.16667 91.483223104 298.14384189)"/><path d="m0 10.449h-7.73c-.71 0-1.282-.573-1.282-1.283v-7.73c0-.795.645-1.435 1.441-1.435l7.721-.001c.71 0 1.286.574 1.286 1.284v7.729c0 .796-.64 1.436-1.436 1.436z" transform="matrix(4.16667 0 0 4.16667 169.325785378 298.13550855)"/><path d="m0-42.733c2.601-1.023 5.434-1.586 8.4-1.586 1.258 0 2.494.101 3.696.297 10.92 1.768 19.258 11.239 19.258 22.657 0 12.673-10.278 22.951-22.954 22.951-.362 0-.718-.009-1.074-.028-12.175-.558-21.877-10.611-21.877-22.923 0-8.467 4.582-15.861 11.404-19.841z" transform="matrix(4.16667 0 0 4.16667 250.43251693 376.50640458)"/><circle cx="-16.504" r="16.504" transform="matrix(0 -4.16667 -4.16667 0 285.4367116 218.715028347)"/></g><path d="m0 7.205c0 .751-.118 1.427-.354 2.026-.236.601-.568 1.132-.997 1.593s-.949.836-1.56 1.126c-.611.289-1.292.498-2.043.627v2.187c0 .322-.027.617-.08.885-.054.268-.188.477-.402.627-.215.15-.558.225-1.029.225-.43 0-.751-.08-.966-.241-.214-.161-.348-.375-.402-.643-.053-.269-.08-.553-.08-.853v-2.187c-.579-.107-1.137-.284-1.673-.531-.536-.246-1.019-.541-1.447-.884-.43-.343-.794-.729-1.094-1.158-.322-.494-.482-.912-.482-1.255s.246-.729.739-1.158c.343-.278.665-.429.965-.45.3-.022.579.059.837.241.257.183.493.424.707.724.365.493.783.863 1.255 1.109.471.247.997.371 1.576.371.686 0 1.265-.092 1.737-.274.471-.182.825-.445 1.062-.788.235-.343.353-.761.353-1.254 0-.58-.236-1.024-.707-1.336-.472-.31-1.073-.578-1.802-.804-.729-.225-1.469-.498-2.219-.82-.536-.193-1.051-.423-1.544-.692-.494-.267-.933-.595-1.319-.98-.386-.387-.697-.848-.933-1.384s-.354-1.179-.354-1.93c0-.664.102-1.27.306-1.817.203-.547.493-1.03.868-1.448s.831-.766 1.368-1.045c.535-.279 1.136-.483 1.801-.611v-1.995c0-.321.027-.611.08-.868.054-.258.188-.461.402-.611.215-.15.547-.225.997-.225.451 0 .783.075.998.225.214.15.348.353.402.611.053.257.08.547.08.868v1.962c.708.108 1.335.312 1.882.612s1.024.654 1.431 1.061c.429.386.66.719.692.997.032.279-.134.665-.499 1.158-.214.322-.45.553-.707.692-.258.14-.515.177-.772.112-.257-.064-.536-.203-.837-.418-.214-.214-.455-.407-.723-.579-.269-.171-.569-.31-.901-.418-.333-.107-.724-.161-1.174-.161-.344 0-.659.049-.949.145-.29.097-.536.231-.74.402-.204.172-.365.376-.482.611-.118.237-.177.494-.177.772 0 .494.177.891.531 1.19.353.301.82.542 1.399.724.579.183 1.201.37 1.865.563.6.193 1.201.408 1.802.643.6.237 1.152.553 1.656.949.504.398.906.896 1.207 1.496.3.601.45 1.362.45 2.284" fill="#5d6068" fill-rule="nonzero" transform="matrix(4.16667 0 0 4.16667 313.69090087 270.834236709)"/></svg>