<svg clip-rule="evenodd" fill-rule="evenodd" stroke-linejoin="round" stroke-miterlimit="2" viewBox="0 0 325 325" xmlns="http://www.w3.org/2000/svg"><g fill="#5d6068" fill-rule="nonzero"><path d="m0 46.816c0 1.858-.034 3.666.012 5.472.029 1.135 1.24 2.256 2.356 2.296 1.039.037 2.612-.991 2.647-1.89.075-1.948.023-3.9.023-5.878zm-2.614 5.17c-.81 0-1.564-.012-2.316.003-1.212.023-2.272.385-3.129 1.308-.956 1.029-1.332 2.638-.798 3.884.658 1.533 1.792 2.558 3.489 2.576 5.194.058 10.389.042 15.584.01 1.383-.008 2.548-.578 3.345-1.773 1.373-2.059.305-5.184-2.077-5.764-1.174-.286-2.431-.226-3.645-.323-.384 3.7-3.083 5.456-5.76 5.255-2.296-.172-4.631-2.042-4.693-5.176m-19.468-32.458c-.109 4.864 4.16 9.345 9.361 9.057 4.449-.247 9.08-3.57 8.649-9.854-.319-4.653-3.812-8.267-9.256-8.264-4.618.003-8.75 3.77-8.754 9.061m-2.564 24.617h23.46c-.15-1.621-.198-3.198-.457-4.739-.682-4.047-3.103-6.777-6.743-8.491-.384-.181-.911-.286-1.304-.179-2.249.61-4.477.706-6.718-.012-.224-.071-.512-.104-.723-.026-2.808 1.036-4.833 2.962-6.256 5.564-1.348 2.465-1.411 5.132-1.259 7.883m45.286-57.111c-5.71 0-11.42.021-17.129-.011-2.041-.012-3.546 1.769-3.532 3.502.05 6.278.017 12.556.021 18.834.001 2.001 1.497 3.469 3.514 3.469 1.434 0 2.868-.012 4.302.006.966.012 1.223.352 1.285 1.321.121 1.876-.638 3.503-1.353 5.151-.097.221-.135.467-.2.701.268-.01.561.046.802-.042 3.046-1.105 5.421-3.005 6.816-5.977.407-.866.952-1.182 1.905-1.177 6.9.033 13.801.01 20.701.022 2.21.004 3.77-1.508 3.782-3.697.036-6.088.032-12.177-.002-18.265-.007-1.298-.33-2.581-1.611-3.229-.68-.344-1.497-.576-2.254-.583-5.682-.047-11.365-.026-17.047-.025m-14.181 28.416c-1.084 0-2.024.019-2.962-.007-.527-.015-1.064-.051-1.576-.166-2.402-.542-4.528-2.931-4.523-5.592.01-5.52.002-11.041.001-16.561v-.841c-.143-.03-.194-.049-.245-.049-8.551-.003-17.103-.009-25.654.006-.712.001-1.371.189-1.921.76-.612.635-.763 1.354-.763 2.18.006 11.501.004 23.002.005 34.504 0 3.951-.026 7.902.029 11.853.008.58.297 1.222.631 1.718.782 1.163 2.02.933 3.306.922-.681-6.587 1.597-11.718 7.299-15.165-5.883-4.363-6.314-12.263-1.66-17.525 4.001-4.522 11.198-4.952 15.994-1.025 2.39 1.957 3.784 4.586 4.095 7.655.452 4.448-.959 8.185-4.767 10.903 2.745 1.555 4.78 3.634 6.117 6.391 1.347 2.78 1.514 5.751 1.429 8.78h.831c10.365 0 20.729-.018 31.094.018 1.793.006 3.158-1.001 3.156-3.194-.01-8.308-.004-16.616-.006-24.925 0-.205-.028-.411-.044-.644-6.192 0-12.332-.006-18.473.023-.257.001-.615.279-.754.525-1.953 3.449-4.884 5.62-8.665 6.679-1.163.326-2.133-.029-2.918-.967-.699-.836-.847-1.74-.464-2.735.44-1.142.908-2.274 1.408-3.521m32.51-.099c0 8.669-.021 17.273.011 25.876.012 3.259-2.445 5.609-5.553 5.585-8.225-.065-16.451-.022-24.676-.022h-.918v2.598c.835 0 1.666-.022 2.495.004 1.84.058 3.496.632 4.753 2.013 1.739 1.91 2.279 4.188 1.424 6.613-.804 2.28-2.457 3.771-4.922 4.195-.523.089-1.057.157-1.585.158-5.168.011-10.337-.01-15.505.012-2.753.011-5.386-2.2-6.011-4.83-.923-3.883 1.334-7.306 5.113-8.1 1.187-.249 2.472-.039 3.758-.039v-2.624h-.85c-8.415 0-16.83-.036-25.245.02-2.545.017-5.067-2.478-5.056-5.069.048-11.012.02-22.025.02-33.038 0-4.627.073-9.255-.028-13.88-.058-2.644 2.392-5.239 5.257-5.216 8.387.068 16.776.019 25.164.036.609.002.81-.16.983-.788.718-2.601 2.917-4.408 5.601-4.412 11.608-.018 23.216-.021 34.824.002 2.739.006 5.087 1.628 5.844 4.314.177.63.283 1.302.286 1.955.021 6.142.002 12.285.017 18.427.007 3.171-2.136 5.682-5.201 6.21" transform="matrix(4.16667 0 0 4.16667 140.858175449 64.880769977)"/><path d="m1.353-1.237c-.809.013-1.368.533-1.345 1.248.027.816.585 1.375 1.345 1.348.657-.024 1.25-.719 1.248-1.462-.001-.618-.582-1.146-1.248-1.134" transform="matrix(.06579838597 4.16614916625 4.16614916625 -.06579838597 64.726864544 43.298252711)"/><path d="m1.327-1.24c-.797.021-1.357.568-1.315 1.279.039.673.694 1.327 1.315 1.313.645-.013 1.282-.754 1.273-1.482-.008-.632-.579-1.129-1.273-1.11" transform="matrix(.07072047324 4.16606999952 4.16606999952 -.07072047324 26.844334238 43.293669374)"/><path d="m.127-.014c-.673 0-1.199.565-1.217 1.309-.018.711.544 1.309 1.217 1.297.675-.013 1.374-.65 1.376-1.257.001-.666-.694-1.348-1.376-1.349" transform="matrix(4.14714498438 .40288407231 .40288407231 -4.14714498438 44.740181888 54.027844628)"/><path d="m0-2.602c3.813 0 7.626.003 11.439-.003.654 0 1.255.173 1.441.834.104.37.037.92-.185 1.212-.227.298-.738.531-1.126.533-7.734.03-15.468.025-23.203.018-.803-.001-1.291-.527-1.284-1.311.007-.787.489-1.278 1.317-1.279 3.867-.008 7.734-.004 11.601-.004" transform="matrix(4.16667 0 0 4.16667 227.173244501 48.757840412)"/><path d="m0-2.604c3.407 0 6.814.002 10.221-.001.628-.001 1.197.202 1.377.812.109.367.043.916-.176 1.212-.222.301-.728.55-1.11.552-6.868.032-13.737.026-20.605.019-.816-.001-1.303-.507-1.305-1.29-.003-.817.493-1.3 1.377-1.302 3.407-.005 6.814-.002 10.221-.002" transform="matrix(4.16667 0 0 4.16667 227.086577765 92.06787506)"/><path d="m0-2.566c2.109 0 4.219-.046 6.324.037.45.017 1.004.416 1.276.804.176.251.054.894-.166 1.189-.224.3-.73.541-1.115.545-4.271.037-8.542.028-12.813.019-.81-.002-1.298-.516-1.297-1.298.001-.783.489-1.288 1.303-1.292 2.163-.011 4.325-.004 6.488-.004" transform="matrix(4.16667 0 0 4.16667 227.458661396 70.258690946)"/></g></svg>