<svg clip-rule="evenodd" fill-rule="evenodd" stroke-linejoin="round" stroke-miterlimit="2" viewBox="0 0 290 265" xmlns="http://www.w3.org/2000/svg"><g fill="#5d6068" fill-rule="nonzero"><path d="m0 4.95v11.612h-4.951v-11.612h-11.611v-4.951h11.611v-11.611h4.951v11.611h11.611v4.951z" transform="matrix(4.16667 0 0 4.16667 68.999379882 118.274415606)"/><path d="m0 15.271v-6.294h6.294v-2.683h-6.294v-6.294h-2.683v6.294h-6.294v2.683h6.294v6.294z" transform="matrix(4.16667 0 0 4.16667 140.022770034 201.339898725)"/><path d="m0-4.092v4.092h9.598v9.599h4.093v-9.599h9.598v-4.092h-9.598v-9.599h-4.093v9.599z" transform="matrix(4.16667 0 0 4.16667 191.13031092 81.945219876)"/><path d="m0-20.783h-3.652v8.565h-8.566v3.652h8.566v8.566h3.652v-8.566h8.565v-3.652h-8.565z" transform="matrix(4.16667 0 0 4.16667 223.84700376 248.48785311)"/><path d="m0 16.515h2.902v-6.806h6.807v-2.902h-6.807v-6.807h-2.902v6.807h-6.806v2.902h6.806z" transform="matrix(4.16667 0 0 4.16667 121.386505125 -.006095685)"/><path d="m0-1.727v1.728h4.052v4.052h1.728v-4.052h4.053v-1.728h-4.053v-4.053h-1.728v4.053z" transform="matrix(4.16667 0 0 4.16667 247.63035612 170.392790634)"/><path d="m0-1.691v1.691h3.966v3.966h1.691v-3.966h3.966v-1.691h-3.966v-3.966h-1.691v3.966z" transform="matrix(4.16667 0 0 4.16667 183.937388499 33.452264415)"/><path d="m0-1.691v1.691h3.966v3.966h1.691v-3.966h3.966v-1.691h-3.966v-3.966h-1.691v3.966z" transform="matrix(4.16667 0 0 4.16667 82.570224072 201.517815534)"/><path d="m0-1.309v1.308h3.068v3.069h1.308v-3.069h3.069v-1.308h-3.069v-3.068h-1.308v3.068z" transform="matrix(4.16667 0 0 4.16667 157.765284228 52.707279819)"/><path d="m0-1.309v1.308h3.068v3.069h1.308v-3.069h3.069v-1.308h-3.069v-3.068h-1.308v3.068z" transform="matrix(4.16667 0 0 4.16667 67.060211664 230.51283873)"/><path d="m0 1.291v-1.292h-3.029v-3.029h-1.292v3.029h-3.03v1.292h3.03v3.03h1.292v-3.03z" transform="matrix(4.16667 0 0 4.16667 204.633238389 240.40867998)"/><path d="m0-1.308v1.307h3.065v3.066h1.308v-3.066h3.065v-1.307h-3.065v-3.065h-1.308v3.065z" transform="matrix(4.16667 0 0 4.16667 252.50536002 111.591076926)"/><path d="m0-1.301v1.301h3.05v3.05h1.301v-3.05h3.051v-1.301h-3.051v-3.05h-1.301v3.05z" transform="matrix(4.16667 0 0 4.16667 227.57617341 145.674020859)"/><path d="m0 1.526v-1.527h-3.581v-3.58h-1.526v3.58h-3.58v1.527h3.58v3.581h1.526v-3.581z" transform="matrix(4.16667 0 0 4.16667 109.063161933 60.337285923)"/><path d="m0 1.04v-1.04h-2.439v-2.439h-1.04v2.439h-2.439v1.04h2.439v2.439h1.04v-2.439z" transform="matrix(4.16667 0 0 4.16667 43.454776113 99.118566948)"/><path d="m0 1.238v-1.238h-2.903v-2.903h-1.238v2.903h-2.903v1.238h2.903v2.903h1.238v-2.903z" transform="matrix(4.16667 0 0 4.16667 74.438967567 206.069902509)"/><path d="m0-4.275h-.751v1.762h-1.762v.751h1.762v1.762h.751v-1.762h1.762v-.751h-1.762z" transform="matrix(4.16667 0 0 4.16667 241.03451751 192.841141926)"/><path d="m0-5.096h-.895v2.1h-2.101v.896h2.101v2.1h.895v-2.1h2.1v-.896h-2.1z" transform="matrix(4.16667 0 0 4.16667 84.435225564 185.644886169)"/><path d="m0-5.096h-.895v2.1h-2.101v.896h2.101v2.1h.895v-2.1h2.1v-.896h-2.1z" transform="matrix(4.16667 0 0 4.16667 36.33852042 164.411119182)"/><path d="m0-4.275h-.751v1.762h-1.762v.751h1.762v1.762h.751v-1.762h1.762v-.751h-1.762z" transform="matrix(4.16667 0 0 4.16667 159.329868813 260.90869638)"/><path d="m0-4.275h-.751v1.762h-1.762v.751h1.762v1.762h.751v-1.762h1.762v-.751h-1.762z" transform="matrix(4.16667 0 0 4.16667 159.329868813 223.324916313)"/><path d="m0-6.555h-1.152v2.702h-2.701v1.152h2.701v2.701h1.152v-2.701h2.702v-1.152h-2.702z" transform="matrix(4.16667 0 0 4.16667 66.083544216 63.196454877)"/><path d="m0-4.275h-.751v1.762h-1.762v.751h1.762v1.762h.751v-1.762h1.762v-.751h-1.762z" transform="matrix(4.16667 0 0 4.16667 282.00538362 143.031518745)"/><path d="m0-4.275h-.751v1.762h-1.762v.751h1.762v1.762h.751v-1.762h1.762v-.751h-1.762z" transform="matrix(4.16667 0 0 4.16667 218.476582797 103.986904176)"/><path d="m0-4.275h-.751v1.762h-1.762v.751h1.762v1.762h.751v-1.762h1.762v-.751h-1.762z" transform="matrix(4.16667 0 0 4.16667 80.788139313 36.368933415)"/><path d="m0-4.275h-.751v1.762h-1.762v.751h1.762v1.762h.751v-1.762h1.762v-.751h-1.762z" transform="matrix(4.16667 0 0 4.16667 84.134808657 112.893161301)"/><path d="m0 .979h2.296v2.296h.979v-2.296h2.296v-.979h-2.296v-2.296h-.979v2.296h-2.296z" transform="matrix(4.16667 0 0 4.16667 153.932364495 9.858912207)"/></g></svg>