<svg clip-rule="evenodd" fill-rule="evenodd" stroke-linejoin="round" stroke-miterlimit="2" viewBox="0 0 367 367" xmlns="http://www.w3.org/2000/svg"><g fill="#5d6068"><g fill-rule="nonzero"><path d="m0 16.174c2.758.244 4.164-1.937 5.959-3.71-.882-.659-1.705-1.274-2.527-1.889-1.586 1.678-3.646 2.951-3.432 5.599m9.891-12.353c.657.408 1.405.78 2.037 1.294.49.398.747.335 1.161-.08 4.599-4.622 9.216-9.225 13.704-13.71-.755-.789-1.497-1.564-2.155-2.251-4.874 4.874-9.77 9.77-14.747 14.747m-2.34-7.083c.551-1.084 1.104-2.149 1.635-3.226.343-.697.859-1.043 1.655-1.017.973.031 1.966-.11 2.919.031 2.274.337 4.025-.371 5.394-2.223.536-.725 1.272-1.303 1.96-1.992h-27.423v8.427zm20.089-22.606h-33.957v5.566h33.957zm22.563 71.742c.07-.137.093-.16.093-.184.006-6.403.016-12.807-.003-19.21-.001-.24-.229-.574-.447-.703-2.255-1.337-4.523-2.654-6.8-3.953-3.512-2.003-7.021-4.013-10.561-5.967-1.26-.695-2.101-1.651-2.722-2.949-1.837-3.84-3.763-7.637-5.662-11.447-.352-.707-.739-1.397-1.073-2.026-2.619 2.598-5.182 5.14-7.777 7.715.55.368 1.142.765 1.753 1.174-.393.643-.76 1.281-1.167 1.893-.198.298-.397.494-.854.197-2.174-1.411-4.346-2.837-6.602-4.112-1.491-.842-2.74-2.168-4.594-2.351-.675-.067-1.179.004-1.488.641-.332.682-.248 1.332.358 1.791 2.654 2.006 5.298 4.026 8.007 5.956 1.603 1.142 3 2.37 3.713 4.288.419 1.128 1.04 2.185 1.605 3.255.821 1.553 2.09 2.399 3.887 2.379 1.062-.012 2.128-.05 3.186.021.488.032 1.073.17 1.423.477 2.943 2.584 5.841 5.218 8.753 7.837 2.325 2.091 4.658 4.174 6.975 6.274 2.71 2.457 5.404 4.932 8.112 7.391.595.541 1.222 1.048 1.885 1.613m-67.908-5.213v-63.377c0-1.35.446-1.785 1.827-1.786 2.205-.001 4.409 0 6.675 0 0-.867-.001-1.657 0-2.447.001-1.369.436-1.804 1.81-1.804h26.468v-4.192h-50.898v73.606zm53.847 8.5c0-3.506-.118-6.932.053-10.344.077-1.527-.696-2.314-1.633-3.153-2.087-1.867-4.19-3.716-6.274-5.587-1.436-1.289-2.875-2.577-4.265-3.915-.898-.864-1.883-1.258-3.135-1.084-.636.088-1.302.061-1.944-.01-1.849-.204-3.502-.949-4.566-2.471-1.028-1.468-1.937-3.064-2.614-4.721-.709-1.734-2.063-2.655-3.523-3.644-1.048 1.063-2.024 2.134-3.093 3.102-.538.487-1.2.928-1.884 1.141-1.635.51-3.313.883-4.979 1.29-.988.241-1.87-.419-1.796-1.44.064-.873.372-1.726.501-2.598.365-2.452 1.252-4.603 3.335-6.112.118-.085.286-.194.302-.31.039-.283.124-.686-.023-.85-.916-1.023-1.41-2.162-1.307-3.557.209-2.819 2.706-4.277 4.938-3.798.729.156 1.239.148 1.476-.676.076-.263.259-.496.444-.836h-.939c-4.31 0-8.619.001-12.928-.001-1.009-.001-1.489-.472-1.49-1.473-.003-3.69-.002-7.379 0-11.069 0-1.152.466-1.626 1.619-1.626 10.656-.003 21.311-.011 31.966.026.51.002 1.124.301 1.509.656 1.343 1.241 2.607 2.567 3.9 3.862.936.938.938 1.484-.004 2.425-1.561 1.558-3.126 3.113-4.667 4.647 2.411 4.839 4.86 9.551 7.101 14.36.835 1.789 2.479 2.164 3.884 3.178v-36.204h-5.632c0 .912.02 1.791-.006 2.668-.026.919-.676 1.545-1.577 1.545-12.25.002-24.499.002-36.748-.002-.827 0-1.334-.515-1.343-1.349-.01-.961-.002-1.921-.002-2.839h-5.613v70.769zm-26.744-49.217c1.466-1.56 2.933-3.12 4.33-4.607-.471 0-1.116-.036-1.752.019-.23.019-.542.203-.645.402-.701 1.35-1.357 2.725-2.027 4.092-.017.072-.035.144-.052.216.048-.041.097-.081.146-.122m12.574-28.697c2.309 0 4.493-.003 6.677.001 1.241.002 1.82.593 1.825 1.853.002.764 0 1.528 0 2.354.286.015.54.041.794.041 1.919.004 3.837.001 5.756.002 1.417.001 1.951.547 1.952 1.993.001 1.24 0 2.48 0 3.72 0 11.365.008 22.73-.018 34.095-.001.722.252 1.038.865 1.382 3.536 1.982 7.034 4.033 10.549 6.053.591.34 1.214.628 1.8.977.593.352.978.848.978 1.591-.005 7.882-.006 15.764.001 23.646.001.747-.356 1.309-.975 1.576-.537.232-1.077.072-1.577-.402-1.567-1.485-3.199-2.904-4.81-4.343-2.231-1.992-4.466-3.979-6.813-6.069 0 3.56.001 6.945 0 10.33 0 1.458-.51 1.971-1.956 1.971h-52.959c-1.391 0-1.765-.367-1.766-1.731-.001-2.214 0-4.427 0-6.771h-.936c-4.841 0-9.682 0-14.524-.001-1.078 0-1.543-.451-1.543-1.508-.002-25.446-.002-50.893-.001-76.339 0-1.039.52-1.505 1.669-1.506 17.358-.001 34.716 0 52.074 0 .413 0 .827-.006 1.24.001 1.07.018 1.69.636 1.695 1.714.009 1.764.003 3.529.003 5.37" transform="matrix(4.16667 0 0 4.16667 144.623924016 149.335312847)"/><path d="m0-.026c-.049.04-.098.081-.146.121.017-.072.035-.144.052-.216.033.03.064.062.094.095" transform="matrix(4.16667 0 0 4.16667 183.781455342 149.211979415)"/><path d="m0 2.762c1.903 0 3.753.026 5.601-.012.795-.016 1.316-.567 1.378-1.299.057-.681-.287-1.343-1.108-1.361-1.946-.04-3.895-.013-5.871-.013zm-25.571-2.828c-1.887 0-3.738-.005-5.59.007-.19.001-.379.106-.57.152-.799.195-.937.809-.869 1.479.069.676.502 1.157 1.178 1.173 1.939.047 3.879.017 5.851.017zm2.89 2.78h19.767v-2.733h-19.767zm9.82 2.885c-6.165 0-12.331.017-18.497-.009-2.41-.01-3.789-1.653-4.069-3.507-.363-2.402.942-4.331 3.087-4.818.417-.095.853-.161 1.28-.161 12.095-.009 24.191-.009 36.287-.005 2.552.001 4.397 1.394 4.628 4.005.192 2.169-1.397 4.42-4.042 4.463-6.223.1-12.449.032-18.674.032" transform="matrix(4.16667 0 0 4.16667 242.19150207 319.13086535)"/></g><path d="m177.21228342 283.62667028h70.55422311v11.38750911h-70.55422311z" stroke-width="4.16667"/><path d="m68.048 120.889h11.244v2.764h-11.244z" transform="matrix(-4.16667 0 0 4.16667 436.8541578 -243.71541826)"/><path d="m106.36222674 283.62667028h46.93753755v11.38750911h-46.93753755z" stroke-width="4.16667"/><path d="m177.22061676 260.02248473h23.30418531v11.36667576h-23.30418531z" stroke-width="4.16667"/></g></svg>