<svg clip-rule="evenodd" fill-rule="evenodd" stroke-linejoin="round" stroke-miterlimit="2" viewBox="0 0 280 370" xmlns="http://www.w3.org/2000/svg"><g fill="#5d6068" fill-rule="nonzero"><path d="m0 53.819c0 3.952.016 7.904-.016 11.856-.005.671.197.828.841.82 2.924-.033 5.849-.033 8.773.001.609.007.744-.182.743-.755-.017-7.957-.018-15.913.001-23.87.001-.595-.168-.752-.756-.745-2.924.03-5.849.033-8.774-.002-.662-.008-.832.189-.827.839.029 3.952.014 7.904.015 11.856m-11.177-50.465h-.004c0-3.745-.018-7.49.004-11.235.025-4.124-2.721-6.932-6.84-6.934-7.49-.005-14.979-.005-22.469-.001-4.075.003-6.832 2.777-6.834 6.872-.003 7.463-.002 14.926.001 22.389.001 4.108 2.732 6.862 6.817 6.887 1.438.009 1.819.387 1.821 1.835.003 3.666.015 7.332-.013 10.997-.004.621.101.862.802.853 3.348-.042 6.698-.009 10.047-.025 3.84-.018 7.074-2.641 7.87-6.399.38-1.798.122-3.628.168-5.443.037-1.437.389-1.815 1.836-1.821 4.045-.017 6.796-2.779 6.794-6.82-.001-3.719 0-7.437 0-11.155m8.599 50.622c0-3.348-.009-6.697.009-10.045.003-.498-.108-.717-.651-.688-.496.026-1.009-.003-1.493-.105-3.13-.659-5.143-3.17-5.259-6.518-.13-3.728-2.382-6.819-5.801-7.96-1.389-.463-1.389-.463-1.762.941-1.271 4.787-5.443 7.987-10.49 8.003-5.299.018-10.598.004-15.898.004-.5 0-.999-.001-1.48.182-1.262.481-2.076 1.798-1.882 3.059.229 1.48 1.325 2.517 2.779 2.537 2.136.031 4.272.004 6.407.016 1.036.006 1.62.591 1.521 1.477-.08.721-.623 1.138-1.541 1.143-2.136.011-4.272-.028-6.407.022-1.891.045-3.155 1.82-2.666 3.645.315 1.175 1.323 2.054 2.579 2.087 2.029.054 4.059.026 6.089.031 1.357.003 1.945.391 1.955 1.294.011.914-.586 1.329-1.916 1.33-1.529.001-3.058-.013-4.587.007-1.268.016-2.293.776-2.697 1.947-.659 1.913.702 3.782 2.841 3.836 1.687.043 3.375-.006 5.062.025.815.015 1.299.544 1.295 1.29-.004.74-.51 1.253-1.309 1.286-.579.024-1.161-.007-1.74.01-1.248.037-2.283.812-2.677 1.983-.652 1.942.771 3.823 2.948 3.829 5.669.017 11.337.013 17.006-.003.68-.002 1.366-.1 2.04-.21 2.498-.409 4.753-1.51 7.032-2.53 1.977-.885 4.008-1.405 6.197-1.288 1.262.067 2.531-.012 3.795.029.551.018.715-.141.711-.7-.025-3.322-.012-6.644-.01-9.966m15.504-.158c0 4.508.001 9.017-.001 13.526 0 1.299-.404 1.72-1.681 1.722-4.034.005-8.068-.015-12.102.015-1.053.008-1.758-.418-1.718-1.454.013-.344-.185-.377-.449-.376-2.03.009-4.063-.043-6.089.041-1.165.048-2.223.611-3.284 1.073-2.387 1.039-4.744 2.161-7.339 2.617-.831.146-1.665.247-2.512.246-5.722-.006-11.443.004-17.165-.005-4.249-.006-6.871-4.178-5.014-7.997.209-.432.142-.531-.271-.68-3.64-1.318-4.931-5.213-2.777-8.414.265-.395.18-.527-.149-.78-2.744-2.111-3.061-5.7-.72-8.246.304-.33.289-.47-.005-.792-1.605-1.765-2.029-3.801-1.068-5.994.975-2.223 2.784-3.284 5.2-3.319.79-.011 1.582-.023 2.372.005.419.015.54-.133.538-.542-.013-3.348-.018-6.697.004-10.045.004-.508-.268-.507-.625-.564-3.741-.596-6.278-2.661-7.538-6.249-.298-.85-.425-1.734-.425-2.639.004-7.804-.01-15.609.007-23.413.01-4.895 4.005-8.921 8.902-8.938 7.804-.029 15.608-.028 23.413-.002 4.988.017 8.968 4.031 8.979 9.028.017 7.726.012 15.451.001 23.176-.006 4.549-3.17 8.228-7.665 8.988-.3.05-.788-.104-.877.32-.095.452-.054.945 0 1.411.028.237.33.214.53.254 5.481 1.078 9.103 5.356 9.259 10.937.066 2.378 1.835 4.026 4.205 3.961.458-.012.563-.161.57-.593.021-1.181.461-1.585 1.667-1.586 4.034-.005 8.068-.004 12.102-.001 1.281.002 1.723.44 1.724 1.704.003 4.535.001 9.07.001 13.605" transform="matrix(4.16667 0 0 4.16667 208.02784203 72.523258063)"/><path d="m0-11.214c2.714 0 5.428-.001 8.143.001.367 0 .748-.035 1.078.164.529.32.778.807.629 1.409-.173.706-.679 1.024-1.403 1.023-2.635-.005-5.27-.003-7.905-.003-2.583 0-5.165.014-7.748-.01-.466-.005-.696.157-.895.562-1.158 2.362-2.346 4.709-3.515 7.065-.206.414-.442.795-.916.915-.485.122-.946.057-1.308-.337-.4-.436-.481-.944-.224-1.462 1.424-2.875 2.862-5.743 4.3-8.612.303-.605.846-.719 1.463-.717 2.767.008 5.534.003 8.301.002" transform="matrix(4.16667 0 0 4.16667 238.56119979 100.55703049)"/><path d="m0 4.637c.682 0 1.11-.37 1.102-.954-.007-.559-.476-.959-1.125-.959-.655 0-1.107.4-1.1.974.006.576.441.939 1.123.939m-1.023-2.804c.462-.21.915-.309 1.388-.295 1.289.039 2.12.77 2.175 1.919.061 1.269-.752 2.25-1.998 2.41-1.818.235-2.934-.657-3.121-2.483-.078-.767-.046-1.524.186-2.264.573-1.829 2.534-2.585 4.198-1.624.28.162.633.325.266.692-.247.246-.214.933-.939.519-1.112-.635-1.928-.193-2.155 1.126" transform="matrix(4.16667 0 0 4.16667 230.96952705 17.169047113)"/><path d="m0 2.469c.015-.581-.417-.981-1.077-.999-.649-.017-1.131.375-1.146.935-.016.575.417.964 1.089.978.691.015 1.119-.33 1.134-.914m-2.077-1.905c.479-.204.955-.307 1.457-.274 1.118.076 1.888.683 2.037 1.624.187 1.173-.328 2.119-1.383 2.541-1.829.732-3.541-.312-3.699-2.261-.067-.817-.067-1.631.199-2.42.596-1.769 2.676-2.492 4.256-1.493.281.177.508.371.183.656-.249.22-.178.907-.865.547-1.22-.639-2.06-.22-2.185 1.08" transform="matrix(4.16667 0 0 4.16667 272.52372696 22.391551291)"/><path d="m0-4.176c-.624 0-1.249-.026-1.871.008-.554.03-.484-.323-.491-.667-.007-.342-.009-.616.477-.604 1.052.027 2.105-.004 3.158.016.261.005.667-.173.761.173.104.379.182.832-.194 1.177-.426.389-.84.79-1.245 1.173.035.205.189.205.294.249.972.414 1.346.929 1.316 1.83-.03.93-.558 1.675-1.47 1.928-1.128.313-2.191.137-3.11-.633-.158-.132-.482-.319-.145-.541.318-.21.442-.911 1.021-.527.401.266.775.533 1.279.537.506.004.913-.176.976-.709.067-.553-.324-.786-.813-.873-.128-.023-.262-.022-.393-.028-.303-.013-.63.078-.755-.364-.112-.397-.08-.707.257-.98.368-.297.712-.622 1.066-.935-.039-.076-.079-.153-.118-.23" transform="matrix(4.16667 0 0 4.16667 206.54450751 36.567812632)"/><path d="m0-.815c-.007 1.202-.364 1.8-1.193 1.957-.216.041-.475.144-.608-.175-.144-.347.14-.345.325-.481.29-.214.958-.404.095-.864-.41-.218-.27-.887-.119-1.233.213-.49.795-.191 1.206-.196.463-.005.238.428.29.676.021.101.003.211.004.316" transform="matrix(4.16667 0 0 4.16667 252.63204438 42.646150828)"/><path d="m0-1.82c.093-2.324-1.743-4.327-4.037-4.406-2.422-.084-4.381 1.736-4.467 4.15-.082 2.294 1.773 4.278 4.094 4.377 2.343.101 4.315-1.742 4.41-4.121m-4.245 12.51c2.029 0 4.059-.013 6.088.01.527.006.64-.116.572-.669-.391-3.175-.539-2.876-3.339-4.01-2.323-.941-4.386-.86-6.711.018-3.123 1.18-2.821 1.201-3.279 3.987-.086.523.035.685.581.677 2.029-.029 4.059-.011 6.088-.013m4.13-7.103c.611.211 1.128.39 1.645.57 1.834.639 2.919 1.903 3.201 3.836.106.729.201 1.46.305 2.19.033.23.038.445.368.512 1.119.227 1.969-.401 1.97-1.543.008-6.721.007-13.442-.001-20.163-.001-1.05-.505-1.531-1.571-1.531-6.695-.005-13.389-.005-20.084-.001-1.109.001-1.572.475-1.573 1.603-.003 6.668-.003 13.337 0 20.005.001 1.149.506 1.607 1.636 1.639.535.016.677-.2.722-.672.067-.707.179-1.41.289-2.111.299-1.897 1.388-3.125 3.182-3.77.53-.191 1.105-.281 1.599-.612-3.941-3.47-2.98-8.093-.661-10.367 2.707-2.655 6.973-2.654 9.678-.006 2.399 2.347 3.213 6.988-.705 10.421m-4.183 9.669c-3.294 0-6.591-.08-9.882.026-2.563.082-4.312-1.904-4.28-4.284.088-6.614.028-13.23.03-19.845.001-2.739 1.519-4.267 4.236-4.268 6.616-.003 13.232.062 19.846-.033 2.56-.036 4.361 1.892 4.325 4.329-.099 6.614-.033 13.23-.035 19.846-.001 2.678-1.536 4.225-4.198 4.228-3.348.003-6.695 0-10.042.001" transform="matrix(4.16667 0 0 4.16667 103.866092034 89.974938691)"/><path d="m0 3.632c.738 0 1.476.025 2.212-.006 1.087-.046 1.905-.911 1.88-1.941-.024-1-.838-1.856-1.874-1.879-1.475-.033-2.951-.033-4.425 0-1.071.024-1.89.917-1.872 1.954.019 1.022.799 1.823 1.867 1.867.736.031 1.474.006 2.212.005m.017-6.414c.737 0 1.475-.02 2.211.003 2.399.077 4.312 1.887 4.44 4.182.138 2.461-1.548 4.584-4.035 4.8-1.853.161-3.744.235-5.593-.061-2.385-.381-3.862-2.438-3.672-4.923.163-2.139 2.028-3.891 4.279-3.99.788-.035 1.58-.006 2.37-.006z" transform="matrix(4.16667 0 0 4.16667 86.436911424 173.014171789)"/><path d="m0-.099c0 .736.02 1.473-.005 2.208-.027.788-.557 1.283-1.306 1.27-.712-.012-1.231-.494-1.245-1.246-.025-1.445-.026-2.891-.001-4.337.013-.8.547-1.287 1.299-1.271.74.015 1.219.52 1.258 1.326.002.026.001.052.001.079 0 .657 0 1.314-.001 1.971" transform="matrix(4.16667 0 0 4.16667 234.92369688 328.26137932)"/></g></svg>