<svg fill="none" height="33" viewBox="0 0 31 33" width="31" xmlns="http://www.w3.org/2000/svg"><g fill="#fff"><path d="m11.8503 3.4193 3.9481-.94001c-1.0654 1.71081-2.5067 3.04248-2.5067 6.4547 0 5.40811 3.6065 5.51471 3.6065 10.41521 0 4.9006-3.6096 4.9726-3.6096 10.3902 0 .1662.066.3256.1835.4431s.2769.1836.4431.1836.3256-.0661.4431-.1836c.1176-.1175.1836-.2769.1836-.4431 0-4.9068 3.6065-4.9946 3.6065-10.4121 0-5.4176-3.6065-5.5147-3.6065-10.41525 0-2.93281 1.2032-4.01695 2.2936-5.75282l.94 3.86655c.0141.08489.0455.16597.0922.23819.0468.07223.1079.13405.1796.18161s.1525.07985.2372.09485.1716.01239.2553-.00766c.0837-.02006.1623-.05713.2311-.10891.0687-.05178.126-.11716.1684-.19206.0423-.0749.0688-.15772.0777-.2433.009-.08558.0002-.17208-.0258-.25412l-1.3003-5.37996c-.0194-.08142-.0548-.15814-.1043-.22563s-.1121-.12438-.1839-.167314c-.0719-.042932-.1516-.071038-.2345-.082658-.0828-.01162-.1672-.006519-.2481.015003l-5.3643 1.297209c-.1629.03905-.3036.14121-.3911.28401-.0876.14279-.1148.31451-.0758.47739.0391.16288.1413.30357.2841.39113.1427.08755.3145.1148.4773.07574z"/><path d="m.940131 3.4193 3.948019-.94c-1.06534 1.7108-2.50668 3.04248-2.50668 6.45469 0 5.40811 3.60648 5.51471 3.60648 10.41521 0 4.9006-3.61901 4.9726-3.61901 10.3902 0 .1662.06602.3256.18354.4431.11753.1176.27692.1836.44313.1836.1662 0 .32559-.066.44312-.1836.11752-.1175.18354-.2769.18354-.4431 0-4.9068 3.60649-4.9945 3.60649-10.4121s-3.60649-5.5147-3.60649-10.41524c0-2.93282 1.20321-4.01695 2.29361-5.75283l.94001 3.86655c.01819.081.0523.15758.10034.22528.04804.06771.10906.12519.1795.16912s.14891.07342.23085.08677c.08194.01334.16571.01027.24645-.00903s.15685-.05446.22389-.10342.12369-.11076.16664-.1818c.04296-.07103.07138-.1499.0836-.23201.01222-.08212.00801-.16584-.0124-.24631l-1.30661-5.37995c-.03934-.16105-.1409-.29994-.28243-.386271-.14153-.086328-.31151-.113057-.4727-.074335l-5.386224 1.297206c-.080649.02057-.156457.05683-.223094.1067s-.122799.11238-.165278.18396c-.085792.14455-.110647.31726-.069096.48014s.146103.30258.290657.38837c.144553.0858.317267.11065.480146.0691z"/><path d="m22.77 3.4193 3.948-.94c-1.0653 1.7108-2.5066 3.04247-2.5066 6.45469 0 5.40811 3.6033 5.51471 3.6033 10.41521 0 4.9006-3.6033 4.9726-3.6033 10.3902 0 .1662.066.3256.1835.4431.1175.1176.2769.1836.4431.1836s.3256-.066.4432-.1836c.1175-.1175.1835-.2769.1835-.4431 0-4.9068 3.6033-4.9945 3.6033-10.4121s-3.6033-5.5147-3.6033-10.41525c0-2.93281 1.2001-4.01694 2.2905-5.75282l.94 3.86655c.0182.081.0523.15758.1003.22528.0481.06771.1091.12519.1795.16912.0705.04393.1489.07342.2309.08677.0819.01334.1657.01027.2464-.00903.0808-.0193.1569-.05446.2239-.10342.0671-.04896.1237-.11076.1667-.1818.0429-.07103.0713-.1499.0836-.23201.0122-.08212.008-.16584-.0124-.24631l-1.2973-5.37996c-.0194-.08007-.0545-.15552-.1031-.22203-.0487-.06651-.11-.12277-.1804-.165549-.0705-.042784-.1487-.071256-.2301-.083785-.0815-.01253-.1646-.008871-.2446.010767l-5.3831 1.297207c-.0807.01934-.1567.05437-.2238.1031s-.124.11021-.1673.18091c-.0434.0707-.0724.14925-.0854.23116s-.0097.16558.0096.24623c.0194.08065.0544.1567.1031.22381.0488.06711.1102.12396.1809.16732.0707.04335.1493.07235.2312.08535.0819.01299.1656.00973.2462-.00961z"/><path d="m29.4535 31.6194h-28.826831c-.166203 0-.325598.066-.443122.1836-.117523.1175-.183547.2769-.183547.4431s.066024.3256.183547.4431c.117524.1175.276919.1836.443122.1836h28.826831c.1662 0 .3256-.0661.4431-.1836s.1835-.2769.1835-.4431-.066-.3256-.1835-.4431c-.1175-.1176-.2769-.1836-.4431-.1836z"/></g></svg>