<svg fill="none" height="32" viewBox="0 0 32 32" width="32" xmlns="http://www.w3.org/2000/svg"><path d="m28.25 27c0-.6875-.5625-1.25-1.25-1.25s-1.25.5625-1.25 1.25.5625 1.25 1.25 1.25 1.25-.5625 1.25-1.25zm-5.25-1.25c-.6875 0-1.25.5625-1.25 1.25s.5625 1.25 1.25 1.25 1.25-.5625 1.25-1.25-.5625-1.25-1.25-1.25zm9-3c0-1.5-1.25-2.75-2.75-2.75h-6.25l3.5625-3.5c1.5625-1.5625.4375-4.25-1.8125-4.25h-3.25v-9.75c0-1.375-1.125-2.5-2.5-2.5h-6c-1.4375 0-2.5 1.125-2.5 2.5v9.75h-3.3125c-2.25 0-3.375 2.6875-1.75 4.25l3.5 3.5h-6.1875c-1.5625 0-2.75 1.25-2.75 2.75v6.5c0 1.5625 1.1875 2.75 2.75 2.75h26.5c1.5 0 2.75-1.1875 2.75-2.75zm-16.375 1.125-8.8125-8.8125c-.3125-.3125-.0625-.8125.375-.8125h5.3125v-11.75c0-.25.1875-.5.5-.5h6c.25 0 .5.25.5.5v11.75h5.25c.4375 0 .6875.5.375.8125l-8.8125 8.8125c-.1875.1875-.5.1875-.6875 0zm14.375-1.125v6.5c0 .4375-.375.75-.75.75h-26.5c-.4375 0-.75-.3125-.75-.75v-6.5c0-.375.3125-.75.75-.75h8.1875l3.25 3.3125c1 .9375 2.5625.9375 3.5625 0l3.25-3.3125h8.25c.375 0 .75.375.75.75z" fill="#14bef0"/></svg>