<svg fill="none" height="30" viewBox="0 0 40 30" width="40" xmlns="http://www.w3.org/2000/svg"><path d="m16.625 15.375.6875-.6875c.1875-.1875.1875-.5 0-.6875l-2.9375-3 2.9375-2.9375c.1875-.1875.1875-.5 0-.6875l-.6875-.6875c-.1875-.1875-.5-.1875-.6875 0l-4 4c-.25.1875-.25.5 0 .6875l4 4c.1875.1875.5.1875.6875 0zm6-.6875.6875.6875c.1875.1875.5.1875.6875 0l4-4c.25-.1875.25-.5 0-.6875l-4-4c-.1875-.1875-.5-.1875-.6875 0l-.6875.6875c-.1875.1875-.1875.5 0 .6875l2.9375 2.9375-2.9375 3c-.125.0625-.125.1875-.125.3125s0 .25.125.375zm16.375 6.3125h-3v-17c0-2.1875-1.8125-4-4-4h-24c-2.25 0-4 1.8125-4 4v17h-3c-.5625 0-1 .5-1 1v3c0 2.8125 2.1875 5 5 5h30c2.75 0 5-2.1875 5-5v-3c0-.5-.5-1-1-1zm-33-17c0-1.0625.875-2 2-2h24c1.0625 0 2 .9375 2 2v17h-9.5625c-.25 0-.4375.25-.5.5-.25.875-1 1.5-1.9375 1.5h-4c-1 0-1.75-.625-2-1.5-.0625-.25-.25-.5-.5-.5h-9.5zm32 21c0 1.6875-1.375 3-3 3h-30c-1.6875 0-3-1.3125-3-3v-2h12.125c.4375 1.1875 1.5625 2 2.875 2h6c1.25 0 2.375-.8125 2.8125-2h12.1875z" fill="#14bef0"/></svg>