<svg fill="none" height="33" viewBox="0 0 30 33" width="30" xmlns="http://www.w3.org/2000/svg"><path d="m28.125 5.25-12-5c-.375-.125-.75-.1875-1.125-.1875-.4375 0-.8125.0625-1.1875.1875l-12.00003 5c-1.125001.5-1.81250052 1.5625-1.81250052 2.75 0 12.4375 7.12500052 21 13.81253052 23.8125.75.3125 1.5625.3125 2.3125 0 5.375-2.25 13.875-9.9375 13.875-23.8125 0-1.1875-.75-2.25-1.875-2.75zm-12.75 24.6875c-.25.125-.5625.125-.8125 0-6.06253-2.4375-12.56253-10.9375-12.56253-21.9375 0-.375.1875-.75.5625-.875l12.00003-5c.25-.125.5625-.125.8125 0l12 5c.375.125.625.5.5625.875.0625 11-6.4375 19.5-12.5625 21.9375zm-.375-4.25v-19.4375l-8.93753 3.75c.625 7.5 4.81253 13.4375 8.93753 15.6875zm-2-4.125c-2.3125-2.5-4.12503-6.125-4.81253-10.3125l4.81253-2z" fill="#14bef0"/></svg>