<svg fill="none" height="33" viewBox="0 0 30 33" width="30" xmlns="http://www.w3.org/2000/svg"><path d="m13 5c0-2.75-2.25-5-5-5-2.8125 0-5 2.25-5 5v15.125c-1.25 1.3125-2.0625 3-2.0625 4.9375 0 3.875 3.1875 7 7 7 3.875 0 7-3.125 7-7 0-1.9375-.75-3.625-1.9375-4.9375zm-5 25h-.0625c-2.75 0-4.9375-2.1875-4.9375-4.9375 0-1.6875.75-3.125 2-4v-16.0625c0-1.625 1.3125-3 3-3 1.625 0 3 1.375 3 3v16.0625c1.1875.875 2 2.375 2 4 0 2.75-2.25 5-5 5zm1-7.8125v-17.1875c0-.5-.5-1-1-1-.5625 0-1 .5-1 1v17.1875c-1.1875.4375-2.0625 1.5625-2.0625 2.875 0 1.625 1.375 3 3 3 1.6875 0 3-1.375 3-3 0-1.3125-.8125-2.4375-1.9375-2.875zm20.75-14.8125-5.25-5.125c-.125-.125-.3125-.25-.5625-.25-.1875 0-.375.125-.5.25l-5.25 5.125c-.125.1875-.1875.375-.25.5625.0625.1875.125.375.25.5l.375.375c.125.125.3125.25.5.25s.375-.125.5-.25l3.375-3.3125v24c0 .3125.25.5.5.5h1c.3125 0 .5-.1875.5-.5v-23.9375l3.375 3.25c.1875.125.375.1875.5625.1875s.375-.0625.5-.1875l.375-.375c.125-.125.1875-.3125.25-.5-.0625-.25-.125-.375-.25-.5625z" fill="#14bef0"/></svg>