<svg fill="none" height="33" viewBox="0 0 44 33" width="44" xmlns="http://www.w3.org/2000/svg"><path d="m.908911 17.0931c-.165493 0-.299536-.1341-.299536-.2995 0-.1655.134043-.2995.299536-.2995h.931559 3.6154c.00974-2.8259.22915-5.3844.57886-7.25329.38265-2.04411.97199-3.30802 1.67815-3.30802s1.29549 1.26391 1.67815 3.30802c.34971 1.86889.56912 4.42739.57886 7.25329h3.31661c.0097-2.8259.2291-5.3844.5789-7.25329.3826-2.04411.972-3.30802 1.6781-3.30802 1.3539 0 1.5404 1.56341 1.7426 3.25935.1774 1.48856.3691 3.09386 1.3778 3.49676.5834.2328 1.1547.5787 1.5958 1.2137.4044.5818.6927 1.4009.7668 2.5922h3.3211c.027-.9936.2531-1.8944.6058-2.5615.4067-.7697.9885-1.2459 1.649-1.2459.6627 0 1.2468.4792 1.6534 1.2631.343.6612.5662 1.5507.5991 2.5443h3.3368c.1341-1.3395 1.0866-2.3773 2.2406-2.3773.6088 0 1.1599.2868 1.5658.7555.3639.4193.6103.9869.674 1.6218h1.276v-1.8756c0-.1655.134-.2995.2995-.2995.0494 0 .0959.0119.137.0329l5.2599 2.1662c.1528.0629.2254.2373.1625.3893-.0322.0779-.0929.1348-.1647.1633l-5.2839 2.113c-.1535.0614-.3272-.0128-.3886-.1663-.015-.0367-.0217-.0741-.0217-.1108h-.0008v-1.815h-5.1812c-.0434.778-.2703 1.4803-.6148 2.0074-.4089.6253-.9862 1.0124-1.6347 1.0124-.6515 0-1.2304-.3901-1.64-1.0296-.334-.5211-.5556-1.213-.6058-1.9902h-3.3376c-.0502.9135-.2688 1.7379-.5976 2.3594-.4066.7697-.9884 1.2459-1.6489 1.2459v-.0015h-.0067c-.6553-.0037-1.2319-.4747-1.6355-1.2287-.3355-.6282-.5564-1.4608-.5976-2.3751h-6.5628c-.0195 2.7457-.2367 5.2271-.5781 7.0511-.3827 2.0441-.972 3.308-1.6782 3.308-.7061 0-1.2955-1.2639-1.67813-3.308-.34148-1.824-.55864-4.3054-.57811-7.0511h-3.31886c-.01947 2.7457-.23663 5.2271-.57811 7.0511-.38265 2.0441-.97199 3.308-1.67815 3.308s-1.29699-1.2444-1.6804-3.2713c-.34372-1.8203-.56088-4.3106-.57586-7.0878h-.632766zm37.635989-2.0284v3.4016l4.1898-1.6757zm-17.594 17.2409c.0007.2149.2179.3587.4163.2763.1116-.0479.1828-.155.1828-.2763v-1.198c-.0008-.2149-.218-.3586-.4164-.2763-.1116.048-.1827.155-.1827.2763zm.5796-31.40074c-.0008-.221633-.2322-.365395-.4313-.268805-.1034.051665-.1678.154245-.1678.269554v.203661c.0008.22164.2322.3654.4313.26881.1034-.05167.1678-.15425.1678-.26956zm.003 2.00069c-.0008-.22163-.2322-.3654-.4313-.26881-.1034.05167-.1678.15425-.1678.26956l.0015 1.19801c.0008.22164.2322.3654.4313.26881.1034-.05166.1678-.15424.1678-.26955zm.0045 2.99504c-.0008-.22163-.2322-.36539-.4314-.2688-.1033.05166-.1677.15424-.1677.26955l.0015 1.19802c.0008.22163.2321.36539.4313.2688.1034-.05166.1678-.15424.1678-.26955zm.0045 2.99504c-.0008-.22163-.2322-.36539-.4314-.2688-.1033.05166-.1677.15424-.1677.26955l.0015 1.19802c.0007.2216.2321.3654.4313.2688.1034-.0517.1678-.1542.1678-.2695zm.0045 2.99507c-.0008-.2217-.2322-.3654-.4314-.2688-.1033.0516-.1677.1542-.1677.2695l.0015 1.198c.0007.2217.2321.3654.4313.2688.1034-.0516.1678-.1542.1678-.2695zm.003 10.2318c-.0008-.2149-.218-.3587-.4164-.2763-.1116.0479-.1827.155-.1827.2763v1.198c.0007.2149.2179.3587.4163.2763.1116-.0479.1828-.155.1828-.2763zm0 2.995c-.0008-.2149-.218-.3586-.4164-.2763-.1116.048-.1827.155-.1827.2763v1.1981c.0007.2148.2179.3586.4163.2762.1116-.0479.1828-.1549.1828-.2762zm0 2.9951c-.0008-.2149-.218-.3587-.4164-.2763-.1116.0479-.1827.155-.1827.2763v1.198c.0007.2149.2179.3587.4163.2763.1116-.0479.1828-.155.1828-.2763zm-6.1286 4.193c.0008.2149.218.3587.4164.2763.1116-.0479.1827-.155.1827-.2763v-1.198c-.0007-.2149-.2179-.3586-.4163-.2763-.1116.048-.1828.155-.1828.2763zm.5796-31.28318c-.0014-.217145-.2246-.360158-.4223-.271804-.1086.049418-.1767.155742-.1767.274794l.0022.41407c.0015.21714.2247.36015.4224.2718.1086-.04942.1767-.15575.1767-.2748zm.012 2.21109c-.0015-.21714-.2246-.36016-.4223-.2718-.1086.04941-.1767.15574-.1767.27479l.0059 1.19802c.0015.21714.2247.36015.4224.2718.1086-.04942.1767-.15574.1767-.2748zm.0083 5.59399c-.0008-.2149-.2179-.35866-.4164-.2763-.1116.04793-.1827.155-.1827.2763v1.198c.0007.2149.2179.3587.4164.2763.1115-.0479.1827-.155.1827-.2763zm0 2.995c-.0008-.2149-.2179-.3586-.4164-.2763-.1116.048-.1827.155-.1827.2763v1.1981c.0007.2149.2179.3586.4164.2763.1115-.048.1827-.155.1827-.2763zm0 2.9951c-.0008-.2149-.2179-.3587-.4164-.2763-.1116.0479-.1827.155-.1827.2763v1.198c.0007.2149.2179.3587.4164.2763.1115-.0479.1827-.155.1827-.2763zm0 4.3098c-.0008-.2148-.2179-.3586-.4164-.2762-.1116.0479-.1827.155-.1827.2762v1.1981c.0007.2149.2179.3586.4164.2763.1115-.048.1827-.155.1827-.2763zm0 2.9951c-.0008-.2149-.2179-.3587-.4164-.2763-.1116.0479-.1827.155-.1827.2763v1.198c.0007.2149.2179.3587.4164.2763.1115-.0479.1827-.155.1827-.2763zm0 2.995c-.0008-.2149-.2179-.3586-.4164-.2763-.1116.048-.1827.155-.1827.2763v1.1981c.0007.2148.2179.3586.4164.2762.1115-.0479.1827-.1549.1827-.2762zm0 2.9951c-.0008-.2149-.2179-.3587-.4164-.2763-.1116.0479-.1827.155-.1827.2763v1.198c.0007.2149.2179.3587.4164.2763.1115-.0479.1827-.155.1827-.2763zm-9.96635-11.6185h3.31511c-.00973-2.7937-.22465-5.3125-.56687-7.14322-.32574-1.74162-.71514-2.81908-1.09031-2.81908s-.76457 1.07746-1.09031 2.81908c-.34222 1.83072-.55714 4.34952-.56688 7.14322zm7.82985 0h6.5419c-.0696-1.0468-.3168-1.7566-.6597-2.2501-.361-.5189-.8365-.8056-1.324-1.0003-1.3412-.5354-1.5546-2.3234-1.7523-3.98117-.1692-1.4204-.3257-2.73073-1.1479-2.73073-.3752 0-.7646 1.07746-1.0904 2.81908-.3422 1.83072-.5571 4.34952-.5668 7.14322zm11.0604 0h3.3084c-.0322-.8963-.2292-1.6892-.5309-2.271-.3018-.5818-.7002-.9382-1.1226-.9382-.4208 0-.8177.3534-1.1195.9254-.31.5871-.5092 1.3882-.5354 2.283zm7.8471 0h3.2769c-.0591-.4845-.2501-.9135-.5249-1.231-.2943-.3392-.6867-.5473-1.1143-.5473-.8282 0-1.5149.7712-1.6384 1.7783zm-.6275.599h-3.2949c.0479.6581.2329 1.2362.5092 1.6667.2995.468.7024.7533 1.1367.7533.4329 0 .8342-.2831 1.1338-.7413.2845-.4358.474-1.0221.5159-1.6795zm-7.8329 0h-3.2859c.0397.8154.2329 1.5484.5249 2.0943.2996.5608.6935.9112 1.1113.9127h.0045v-.0015c.4208 0 .8177-.3534 1.1195-.9255.2861-.5421.4785-1.2676.5265-2.0808zm-11.0476 0h-3.31292c.01947 2.7127.23212 5.1544.56612 6.941.3258 1.7416.7151 2.8191 1.0903 2.8191s.7646-1.0775 1.0903-2.8191c.334-1.7858.5467-4.2283.5662-6.941zm-7.82993 0h-3.31362c.01423 2.7442.2269 5.1949.56388 6.9777.32575 1.7244.71589 2.7824 1.09331 2.7824.37517 0 .76457-1.0775 1.09031-2.8191.33398-1.7858.54666-4.2283.56612-6.941z" fill="#fff"/></svg>