<svg width="32" height="32" viewBox="0 0 32 32" fill="none" xmlns="http://www.w3.org/2000/svg">
<path d="M7.83835 12.5951C7.67457 12.5951 7.5108 12.6497 7.37435 12.7861C7.12872 13.0317 7.12872 13.4684 7.37435 13.714C7.64731 13.9869 7.56539 14.2599 7.21064 15.0513C6.85582 15.8428 6.33727 17.0436 7.37435 18.0808C7.61998 18.3264 8.05665 18.3264 8.30229 18.0808C8.54792 17.8351 8.54792 17.3985 8.30229 17.1528C7.94747 16.7981 8.00206 16.4705 8.41147 15.5699C8.76629 14.7784 9.23022 13.714 8.30229 12.7861C8.16584 12.6497 8.00206 12.5951 7.83835 12.5951V12.5951Z" fill="white"/>
<path d="M14.6408 9.59258C14.4771 9.59258 14.3133 9.64717 14.1768 9.78361C13.9312 10.0292 13.9312 10.4659 14.1768 10.7116C14.4498 10.9844 14.3679 11.2574 14.0131 12.0488C13.6583 12.8403 13.1398 14.0412 14.1768 15.0783C14.4225 15.3239 14.8591 15.3239 15.1048 15.0783C15.3504 14.8326 15.3504 14.396 15.1048 14.1503C14.75 13.7955 14.8045 13.468 15.214 12.5674C15.5688 11.7759 16.0327 10.7116 15.1048 9.78361C14.9956 9.67443 14.8319 9.59258 14.6408 9.59258V9.59258Z" fill="white"/>
<path d="M17.6247 11.8001C17.4609 11.8001 17.2972 11.8547 17.1607 11.9911C16.9151 12.2367 16.9151 12.6734 17.1607 12.919C17.4337 13.1919 17.3518 13.4649 16.997 14.2564C16.6422 15.0478 16.1237 16.2487 17.1607 17.2858C17.4063 17.5314 17.843 17.5314 18.0887 17.2858C18.3343 17.0401 18.3343 16.6035 18.0887 16.3578C17.7339 16.0031 17.7885 15.6755 18.1978 14.7749C18.5527 13.9834 19.0166 12.919 18.0887 11.9911C17.9522 11.8819 17.7885 11.8001 17.6247 11.8001V11.8001Z" fill="white"/>
<path d="M20.436 16.7176C20.2722 16.7176 20.1084 16.7722 19.972 16.9086C19.7264 17.1542 19.7264 17.5909 19.972 17.8365C20.245 18.1094 20.163 18.3824 19.8083 19.1738C19.4535 19.9653 18.9349 21.1662 19.972 22.2033C20.2176 22.4489 20.6543 22.4489 20.8999 22.2033C21.1456 21.9576 21.1456 21.521 20.8999 21.2753C20.5451 20.9206 20.5997 20.593 21.0091 19.6924C21.3639 18.9009 21.8279 17.8365 20.8999 16.9086C20.7635 16.7722 20.5997 16.7176 20.436 16.7176V16.7176Z" fill="white"/>
<path d="M13.2505 17.9649L13.5235 18.2378C13.7691 18.4835 13.7691 18.9201 13.5235 19.1658C13.2778 19.4114 12.8411 19.4114 12.5955 19.1658L12.3226 18.8929L12.0497 19.1658C11.804 19.4114 11.3674 19.4114 11.1217 19.1658C10.8761 18.9201 10.8761 18.4835 11.1217 18.2378L11.3946 17.9649L11.1217 17.692C10.8761 17.4464 10.8761 17.0097 11.1217 16.7641C11.2582 16.6276 11.4219 16.5731 11.5857 16.5731C11.7494 16.5731 11.9132 16.6276 12.0497 16.7641L12.3226 17.037L12.5955 16.7641C12.732 16.6276 12.8957 16.5731 13.0595 16.5731C13.2232 16.5731 13.3869 16.6276 13.5235 16.7641C13.7691 17.0097 13.7691 17.4464 13.5235 17.692L13.2505 17.9649Z" fill="white"/>
<path d="M24.2668 13.2149L24.5397 13.4879C24.7854 13.7335 24.7854 14.1702 24.5397 14.4158C24.2942 14.6614 23.8574 14.6614 23.6119 14.4158L23.3389 14.1428L23.066 14.4158C22.8204 14.6614 22.3837 14.6614 22.1381 14.4158C21.8924 14.1702 21.8924 13.7335 22.1381 13.4879L22.411 13.2149L22.1381 12.942C21.8924 12.6964 21.8924 12.2597 22.1381 12.0141C22.2745 11.8776 22.4383 11.823 22.602 11.823C22.7658 11.823 22.9296 11.8776 23.066 12.0141L23.3389 12.287L23.6119 12.0141C23.7483 11.8776 23.912 11.823 24.0758 11.823C24.2396 11.823 24.4033 11.8776 24.5397 12.0141C24.7854 12.2597 24.7854 12.6964 24.5397 12.942L24.2668 13.2149Z" fill="white"/>
<path d="M17.5901 18.6743C17.4263 18.6743 17.2626 18.7562 17.1261 18.8653C17.017 19.0018 16.9351 19.1656 16.9351 19.3293C16.9351 19.4931 17.017 19.6568 17.1261 19.7933C17.3991 20.0389 17.8084 20.0389 18.054 19.7933C18.1632 19.6841 18.2451 19.4931 18.2451 19.3293C18.2451 19.1656 18.1632 18.9745 18.054 18.8653C17.9176 18.7289 17.7539 18.6743 17.5901 18.6743V18.6743Z" fill="white"/>
<path d="M9.8 20.3593C9.63628 20.3593 9.47251 20.4412 9.33606 20.5503C9.22688 20.6595 9.14502 20.8506 9.14502 21.0143C9.14502 21.178 9.22688 21.3418 9.33606 21.4783C9.58169 21.7239 10.0184 21.7239 10.264 21.4783C10.3731 21.3691 10.455 21.178 10.455 21.0143C10.455 20.8506 10.3731 20.6868 10.264 20.5503C10.1275 20.4139 9.96377 20.3593 9.8 20.3593V20.3593Z" fill="white"/>
<path d="M11.8349 13.4818C11.6711 13.4818 11.5074 13.5636 11.371 13.6728C11.2618 13.782 11.1799 13.9731 11.1799 14.1368C11.1799 14.3005 11.2618 14.4643 11.371 14.6008C11.6166 14.8464 12.0533 14.8464 12.2989 14.6008C12.408 14.4916 12.4899 14.3005 12.4899 14.1368C12.4899 13.9731 12.408 13.8093 12.2989 13.6728C12.1897 13.5364 12.0259 13.4818 11.8349 13.4818V13.4818Z" fill="white"/>
<path d="M20.1726 14.0568C20.0088 14.0568 19.8451 14.1387 19.7086 14.2479C19.5994 14.357 19.5176 14.548 19.5176 14.7118C19.5176 14.8756 19.5722 15.0393 19.7086 15.1758C19.9542 15.4214 20.3909 15.4214 20.6366 15.1758C20.773 15.0393 20.8276 14.8756 20.8276 14.7118C20.8276 14.548 20.7457 14.3843 20.6366 14.2479C20.5001 14.1114 20.3363 14.0568 20.1726 14.0568Z" fill="white"/>
<path d="M19.7925 10.7118C19.6287 10.7118 19.465 10.7937 19.3286 10.9028C19.2194 11.012 19.1375 11.1757 19.1375 11.3668C19.1375 11.5306 19.2194 11.6943 19.3286 11.8308C19.5741 12.0764 20.0108 12.0764 20.2564 11.8308C20.3656 11.6943 20.4475 11.5306 20.4475 11.3668C20.4475 11.2031 20.3656 11.0393 20.2564 10.9028C20.12 10.7937 19.9563 10.7118 19.7925 10.7118V10.7118Z" fill="white"/>
<path d="M23.0988 16.9618C22.9351 16.9618 22.7713 17.0436 22.6349 17.1528C22.4984 17.262 22.4438 17.4531 22.4438 17.6168C22.4438 17.7805 22.5257 17.9443 22.6349 18.0808C22.8805 18.3264 23.3172 18.3264 23.5628 18.0808C23.6719 17.9716 23.7539 17.7805 23.7539 17.6168C23.7539 17.4531 23.6719 17.2893 23.5628 17.1528C23.4536 17.0164 23.2899 16.9618 23.0988 16.9618Z" fill="white"/>
<path d="M24.9504 21.08H20.4199C20.0651 21.08 19.7649 21.3802 19.7649 21.735C19.7649 22.0898 20.0651 22.39 20.4199 22.39H24.9504C25.3052 22.39 25.6054 22.0898 25.6054 21.735C25.6054 21.3529 25.3052 21.08 24.9504 21.08Z" fill="white"/>
<path d="M17.5538 21.08H7.04638C6.69156 21.08 6.39136 21.3802 6.39136 21.735C6.39136 22.0898 6.69156 22.39 7.04638 22.39H17.5538C17.9086 22.39 18.2088 22.0898 18.2088 21.735C18.2088 21.3529 17.9086 21.08 17.5538 21.08Z" fill="white"/>
<path d="M15.9389 1.35162e-06C11.713 -0.00138031 7.65792 1.66766 4.65747 4.6433L4.58362 4.7033C4.56236 4.72687 4.54233 4.75152 4.52361 4.77715C1.59203 7.80301 -0.0324923 11.8598 0.000492655 16.0726C0.0334776 20.2854 1.72133 24.3163 4.69993 27.2959C7.67853 30.2754 11.7091 31.9647 15.9222 31.9994C20.1353 32.0342 24.1932 30.4114 27.2205 27.4813L27.2943 27.4213C27.3156 27.3978 27.3356 27.3731 27.3543 27.3475C29.5839 25.0957 31.0972 22.2344 31.7034 19.1242C32.3097 16.014 31.9819 12.794 30.7613 9.86976C29.5406 6.94554 27.4818 4.44791 24.8442 2.69156C22.2065 0.935219 19.108 -0.00129867 15.9389 1.35162e-06V1.35162e-06ZM1.7217 16.0623C1.72048 12.612 2.97951 9.28006 5.26217 6.69261L25.3094 26.7382C23.2569 28.5421 20.7276 29.7158 18.0248 30.1187C15.322 30.5217 12.5604 30.1366 10.0708 29.0099C7.58131 27.8831 5.46958 26.0624 3.98873 23.766C2.50788 21.4695 1.72076 18.7948 1.7217 16.0623V16.0623ZM26.6157 25.432L6.56851 5.38641C9.28179 3.01754 12.7936 1.76755 16.3936 1.88931C19.9935 2.01107 23.4129 3.49548 25.9599 6.04227C28.5069 8.58906 29.9914 12.0081 30.1132 15.6077C30.2349 19.2074 28.9848 22.7189 26.6157 25.432Z" fill="white"/>
</svg>
