<svg fill="none" height="33" viewBox="0 0 38 33" width="38" xmlns="http://www.w3.org/2000/svg"><path d="m34.1727 8.10472-1.0993 1.09924-.1383-.0673c-.4758-.23048-.9064-.54455-1.2712-.92725-.2978-.32508-.4597-.75192-.4524-1.19271v-.10469c0-1.80964-.9946-3.5258-2.808-4.82694-1.8199-1.26381-3.9833-1.939724-6.1991-1.936753-2.5072-.024638-4.9971.416556-7.3432 1.301143l-.3365.13834.8525 2.28073.2991-.04486c1.8571-.31088 3.7534-.30455 5.6084.01869.2616.04768.5049.16689.7029.34443.198.17753.3429.40644.4187.66134.0819.2595.0903.5366.0243.80059s-.2038.50454-.3982.69497l-21.042548 21.04261c-.172286.1716-.30899.3755-.402268.6001s-.141295.4653-.141295.7085.048017.484.141295.7085c.093278.2246.229982.4285.402268.6001l1.600258 1.6003c.1716.1723.37554.309.6001.4022.22457.0933.46535.1413.70851.1413.24317 0 .48395-.048.70851-.1413.22457-.0932.42851-.2299.60011-.4022l20.49676-20.5453c.3822-.3813.8995-.5963 1.4394-.5983.2676-.0004.5326.0522.7797.1549s.4714.2534.6598.4434c.4411.4381.8108.9428 1.0955 1.4955l-1.159 1.1591 3.365 3.365 5.6345-5.6271zm-29.5075 22.95318c-.2086.1989-.48575.3098-.77395.3098-.28821 0-.56535-.1109-.77396-.3098l-1.60025-1.6003c-.20412-.2058-.31865-.484-.31865-.7739s.11453-.5681.31865-.774l18.67216-18.67209 3.1481 3.14819zm24.9348-17.3261 1.017-1.017-.1982-.3739c-.3243-.6678-.7577-1.2769-1.2824-1.8021-.2585-.2594-.5655-.4651-.9037-.60555-.3381-.1404-.7006-.21267-1.0667-.21267s-.7287.07227-1.0668.21267c-.3381.14045-.6452.34615-.9036.60555l-1.3274 1.3273-3.1481-3.17437 1.8395-1.83955c.2871-.28855.4903-.64976.5877-1.04495.0975-.39518.0856-.80944-.0343-1.19839-.1145-.3875-.3347-.73545-.6358-1.00488-.3012-.26943-.6714-.44969-1.0692-.5206-.9521-.17478-1.9184-.26114-2.8864-.25798-.8895.00195-1.7777.06567-2.6584.19068l-.3739-1.00577c2.1599-.76706 4.4382-1.146777 6.7301-1.121669 2.0599-.004 4.0717.622249 5.7654 1.794679 1.6115 1.15906 2.4976 2.65836 2.4976 4.22123v.10469c-.0092.63381.228 1.24643.6618 1.70868.4296.44705.9362.81308 1.4955 1.08055l.617.30655.9496-.94965 2.2883 2.28825-4.6064 4.5764z" fill="#fff"/></svg>