<svg fill="none" height="11" viewBox="0 0 11 11" width="11" xmlns="http://www.w3.org/2000/svg"><path d="m5.25 4.25781c-.70312 0-1.26562.5625-1.26562 1.24219 0 .70312.5625 1.26562 1.26562 1.26562.67969 0 1.24219-.5625 1.24219-1.26562 0-.67969-.5625-1.24219-1.24219-1.24219zm2.90625-.96093c-.11719-.32813-.375-.58594-.70313-.70313-.49218-.21094-1.66406-.16406-2.20312-.16406-.5625 0-1.73438-.04688-2.22656.16406-.32813.11719-.58594.375-.70313.70313-.1875.49218-.16406 1.66406-.16406 2.20312 0 .5625-.02344 1.73438.16406 2.22656.11719.32813.375.58594.70313.70313.49218.21093 1.66406.16406 2.22656.16406.53906 0 1.71094.04687 2.20312-.16406.32813-.11719.58594-.375.70313-.70313.21094-.49218.16406-1.66406.16406-2.22656 0-.53906.04688-1.71094-.16406-2.20312zm-2.90625 4.125c-1.07812 0-1.92188-.84376-1.92188-1.92188 0-1.05469.84376-1.92188 1.92188-1.92188 1.05469 0 1.92188.86719 1.92188 1.92188v.02344c0 1.05468-.86719 1.92187-1.92188 1.92187zm1.99219-3.46876c-.25781 0-.44531-.1875-.44531-.44531s.1875-.44531.44531-.44531c.23437 0 .44531.1875.44531.44531s-.21094.44531-.44531.44531zm2.13281-3.70312h-8.25c-.632812 0-1.125.515625-1.125 1.125v8.25c0 .6328.492188 1.125 1.125 1.125h8.25c.60938 0 1.125-.4922 1.125-1.125v-8.25c0-.609375-.51562-1.125-1.125-1.125zm-.42188 6.79688c-.02343.60937-.16406 1.14843-.58593 1.57031-.44531.44531-.98438.58593-1.57031.60937-.63282.04688-2.48438.04688-3.09376 0-.60937-.02344-1.14843-.16406-1.57031-.60937-.44531-.42188-.58593-.96094-.60937-1.57031-.04688-.60938-.04688-2.46094 0-3.09376.02344-.58593.16406-1.125.60937-1.57031.42188-.42187.96094-.5625 1.57031-.58593.60938-.04688 2.46094-.04688 3.09376 0 .58593.02343 1.125.16406 1.57031.60937.42187.42187.5625.96094.58593 1.57031.04688.60938.04688 2.46094 0 3.07032z"/></svg>