<svg fill="none" height="11" viewBox="0 0 11 11" width="11" xmlns="http://www.w3.org/2000/svg"><path d="m4.35938 4.25781v2.53125l2.25-1.26562zm6.14062-2.88281c0-.609375-.51562-1.125-1.125-1.125h-8.25c-.632812 0-1.125.515625-1.125 1.125v8.25c0 .6328.492188 1.125 1.125 1.125h8.25c.60938 0 1.125-.4922 1.125-1.125zm-.98438 4.14844s0 1.38281-.1875 2.0625c-.09374.375-.39843.65625-.75.75-.67968.16406-3.32812.16406-3.32812.16406s-2.67188 0-3.35156-.16406c-.35156-.09375-.65625-.375-.75-.75-.164065-.67969-.164065-2.0625-.164065-2.0625s0-1.40625.164065-2.0625c.09375-.375.39844-.67969.75-.77344.67968-.1875 3.35156-.1875 3.35156-.1875s2.64844 0 3.32812.1875c.35157.09375.65626.39844.75.77344.1875.65625.1875 2.0625.1875 2.0625z" fill-opacity=".6"/></svg>